%TF.GenerationSoftware,KiCad,Pcbnew,(6.0.5)*%
%TF.CreationDate,2022-06-03T17:18:30-04:00*%
%TF.ProjectId,minimixer,6d696e69-6d69-4786-9572-2e6b69636164,rev?*%
%TF.SameCoordinates,Original*%
%TF.FileFunction,Soldermask,Bot*%
%TF.FilePolarity,Negative*%
%FSLAX46Y46*%
G04 Gerber Fmt 4.6, Leading zero omitted, Abs format (unit mm)*
G04 Created by KiCad (PCBNEW (6.0.5)) date 2022-06-03 17:18:30*
%MOMM*%
%LPD*%
G01*
G04 APERTURE LIST*
G04 Aperture macros list*
%AMRoundRect*
0 Rectangle with rounded corners*
0 $1 Rounding radius*
0 $2 $3 $4 $5 $6 $7 $8 $9 X,Y pos of 4 corners*
0 Add a 4 corners polygon primitive as box body*
4,1,4,$2,$3,$4,$5,$6,$7,$8,$9,$2,$3,0*
0 Add four circle primitives for the rounded corners*
1,1,$1+$1,$2,$3*
1,1,$1+$1,$4,$5*
1,1,$1+$1,$6,$7*
1,1,$1+$1,$8,$9*
0 Add four rect primitives between the rounded corners*
20,1,$1+$1,$2,$3,$4,$5,0*
20,1,$1+$1,$4,$5,$6,$7,0*
20,1,$1+$1,$6,$7,$8,$9,0*
20,1,$1+$1,$8,$9,$2,$3,0*%
G04 Aperture macros list end*
%ADD10C,1.600000*%
%ADD11O,1.600000X1.600000*%
%ADD12RoundRect,0.250000X-0.620000X-0.845000X0.620000X-0.845000X0.620000X0.845000X-0.620000X0.845000X0*%
%ADD13O,1.740000X2.190000*%
%ADD14C,3.200000*%
%ADD15RoundRect,0.250000X0.600000X0.600000X-0.600000X0.600000X-0.600000X-0.600000X0.600000X-0.600000X0*%
%ADD16C,1.700000*%
%ADD17R,1.600000X1.600000*%
G04 APERTURE END LIST*
D10*
%TO.C,R2*%
X77470000Y-139700000D03*
D11*
X77470000Y-149860000D03*
%TD*%
D10*
%TO.C,R3*%
X80010000Y-139700000D03*
D11*
X80010000Y-149860000D03*
%TD*%
D12*
%TO.C,J3*%
X88900000Y-134620000D03*
D13*
X91440000Y-134620000D03*
%TD*%
D12*
%TO.C,J6*%
X109220000Y-142240000D03*
D13*
X111760000Y-142240000D03*
%TD*%
D10*
%TO.C,R12*%
X105410000Y-154940000D03*
D11*
X105410000Y-152400000D03*
%TD*%
D12*
%TO.C,J2*%
X81280000Y-134620000D03*
D13*
X83820000Y-134620000D03*
%TD*%
D10*
%TO.C,R1*%
X74930000Y-139700000D03*
D11*
X74930000Y-149860000D03*
%TD*%
D10*
%TO.C,R4*%
X82550000Y-139700000D03*
D11*
X82550000Y-149860000D03*
%TD*%
D10*
%TO.C,C1*%
X87630000Y-147320000D03*
X87630000Y-144820000D03*
%TD*%
%TO.C,R10*%
X74930000Y-154940000D03*
D11*
X85090000Y-154940000D03*
%TD*%
D14*
%TO.C,H1*%
X67310000Y-134620000D03*
%TD*%
D10*
%TO.C,R11*%
X102870000Y-152400000D03*
D11*
X102870000Y-154940000D03*
%TD*%
D10*
%TO.C,R6*%
X74930000Y-152400000D03*
D11*
X85090000Y-152400000D03*
%TD*%
D10*
%TO.C,R7*%
X74930000Y-157480000D03*
D11*
X85090000Y-157480000D03*
%TD*%
D15*
%TO.C,J7*%
X69850000Y-153670000D03*
D16*
X67310000Y-153670000D03*
X69850000Y-151130000D03*
X67310000Y-151130000D03*
X69850000Y-148590000D03*
X67310000Y-148590000D03*
X69850000Y-146050000D03*
X67310000Y-146050000D03*
X69850000Y-143510000D03*
X67310000Y-143510000D03*
%TD*%
D10*
%TO.C,R8*%
X102870000Y-142240000D03*
D11*
X102870000Y-139700000D03*
%TD*%
D10*
%TO.C,R9*%
X105410000Y-139700000D03*
D11*
X105410000Y-142240000D03*
%TD*%
D14*
%TO.C,H2*%
X110490000Y-156210000D03*
%TD*%
D12*
%TO.C,J5*%
X104140000Y-134620000D03*
D13*
X106680000Y-134620000D03*
%TD*%
D10*
%TO.C,R5*%
X85090000Y-139700000D03*
D11*
X85090000Y-149860000D03*
%TD*%
%TO.C,U1*%
X100310000Y-139695000D03*
X100310000Y-142235000D03*
X100310000Y-144775000D03*
X100310000Y-147315000D03*
X100310000Y-149855000D03*
X100310000Y-152395000D03*
X100310000Y-154935000D03*
X90150000Y-154935000D03*
X90150000Y-152395000D03*
X90150000Y-149855000D03*
X90150000Y-147315000D03*
X90150000Y-144775000D03*
X90150000Y-142235000D03*
D17*
X90150000Y-139695000D03*
%TD*%
D12*
%TO.C,J8*%
X109220000Y-149860000D03*
D13*
X111760000Y-149860000D03*
%TD*%
D12*
%TO.C,J4*%
X96520000Y-134620000D03*
D13*
X99060000Y-134620000D03*
%TD*%
D12*
%TO.C,J1*%
X73660000Y-134620000D03*
D13*
X76200000Y-134620000D03*
%TD*%
D10*
%TO.C,C2*%
X105370000Y-147320000D03*
X102870000Y-147320000D03*
%TD*%
M02*
