%TF.GenerationSoftware,KiCad,Pcbnew,(6.0.5)*%
%TF.CreationDate,2022-06-03T17:18:30-04:00*%
%TF.ProjectId,minimixer,6d696e69-6d69-4786-9572-2e6b69636164,rev?*%
%TF.SameCoordinates,Original*%
%TF.FileFunction,Legend,Bot*%
%TF.FilePolarity,Positive*%
%FSLAX46Y46*%
G04 Gerber Fmt 4.6, Leading zero omitted, Abs format (unit mm)*
G04 Created by KiCad (PCBNEW (6.0.5)) date 2022-06-03 17:18:30*
%MOMM*%
%LPD*%
G01*
G04 APERTURE LIST*
%ADD10C,0.150000*%
G04 APERTURE END LIST*
D10*
X100645952Y-137612380D02*
X100645952Y-136612380D01*
X100312619Y-137326666D01*
X99979285Y-136612380D01*
X99979285Y-137612380D01*
X99074523Y-137612380D02*
X99074523Y-137088571D01*
X99122142Y-136993333D01*
X99217380Y-136945714D01*
X99407857Y-136945714D01*
X99503095Y-136993333D01*
X99074523Y-137564761D02*
X99169761Y-137612380D01*
X99407857Y-137612380D01*
X99503095Y-137564761D01*
X99550714Y-137469523D01*
X99550714Y-137374285D01*
X99503095Y-137279047D01*
X99407857Y-137231428D01*
X99169761Y-137231428D01*
X99074523Y-137183809D01*
X98693571Y-137612380D02*
X98169761Y-136945714D01*
X98693571Y-136945714D02*
X98169761Y-137612380D01*
X97026904Y-137612380D02*
X97026904Y-136612380D01*
X96645952Y-136612380D01*
X96550714Y-136660000D01*
X96503095Y-136707619D01*
X96455476Y-136802857D01*
X96455476Y-136945714D01*
X96503095Y-137040952D01*
X96550714Y-137088571D01*
X96645952Y-137136190D01*
X97026904Y-137136190D01*
X96026904Y-137612380D02*
X96026904Y-136945714D01*
X96026904Y-137136190D02*
X95979285Y-137040952D01*
X95931666Y-136993333D01*
X95836428Y-136945714D01*
X95741190Y-136945714D01*
X95265000Y-137612380D02*
X95360238Y-137564761D01*
X95407857Y-137517142D01*
X95455476Y-137421904D01*
X95455476Y-137136190D01*
X95407857Y-137040952D01*
X95360238Y-136993333D01*
X95265000Y-136945714D01*
X95122142Y-136945714D01*
X95026904Y-136993333D01*
X94979285Y-137040952D01*
X94931666Y-137136190D01*
X94931666Y-137421904D01*
X94979285Y-137517142D01*
X95026904Y-137564761D01*
X95122142Y-137612380D01*
X95265000Y-137612380D01*
X94550714Y-137564761D02*
X94455476Y-137612380D01*
X94265000Y-137612380D01*
X94169761Y-137564761D01*
X94122142Y-137469523D01*
X94122142Y-137421904D01*
X94169761Y-137326666D01*
X94265000Y-137279047D01*
X94407857Y-137279047D01*
X94503095Y-137231428D01*
X94550714Y-137136190D01*
X94550714Y-137088571D01*
X94503095Y-136993333D01*
X94407857Y-136945714D01*
X94265000Y-136945714D01*
X94169761Y-136993333D01*
X93693571Y-137612380D02*
X93693571Y-136612380D01*
X93598333Y-137231428D02*
X93312619Y-137612380D01*
X93312619Y-136945714D02*
X93693571Y-137326666D01*
X92455476Y-137612380D02*
X92455476Y-137088571D01*
X92503095Y-136993333D01*
X92598333Y-136945714D01*
X92788809Y-136945714D01*
X92884047Y-136993333D01*
X92455476Y-137564761D02*
X92550714Y-137612380D01*
X92788809Y-137612380D01*
X92884047Y-137564761D01*
X92931666Y-137469523D01*
X92931666Y-137374285D01*
X92884047Y-137279047D01*
X92788809Y-137231428D01*
X92550714Y-137231428D01*
X92455476Y-137183809D01*
X91550714Y-136945714D02*
X91550714Y-137612380D01*
X91979285Y-136945714D02*
X91979285Y-137469523D01*
X91931666Y-137564761D01*
X91836428Y-137612380D01*
X91693571Y-137612380D01*
X91598333Y-137564761D01*
X91550714Y-137517142D01*
X90693571Y-137564761D02*
X90788809Y-137612380D01*
X90979285Y-137612380D01*
X91074523Y-137564761D01*
X91122142Y-137469523D01*
X91122142Y-137088571D01*
X91074523Y-136993333D01*
X90979285Y-136945714D01*
X90788809Y-136945714D01*
X90693571Y-136993333D01*
X90645952Y-137088571D01*
X90645952Y-137183809D01*
X91122142Y-137279047D01*
X90217380Y-137612380D02*
X90217380Y-136945714D01*
X90217380Y-137136190D02*
X90169761Y-137040952D01*
X90122142Y-136993333D01*
X90026904Y-136945714D01*
X89931666Y-136945714D01*
X88169761Y-136945714D02*
X87931666Y-137612380D01*
X87693571Y-136945714D01*
X87122142Y-136612380D02*
X87026904Y-136612380D01*
X86931666Y-136660000D01*
X86884047Y-136707619D01*
X86836428Y-136802857D01*
X86788809Y-136993333D01*
X86788809Y-137231428D01*
X86836428Y-137421904D01*
X86884047Y-137517142D01*
X86931666Y-137564761D01*
X87026904Y-137612380D01*
X87122142Y-137612380D01*
X87217380Y-137564761D01*
X87265000Y-137517142D01*
X87312619Y-137421904D01*
X87360238Y-137231428D01*
X87360238Y-136993333D01*
X87312619Y-136802857D01*
X87265000Y-136707619D01*
X87217380Y-136660000D01*
X87122142Y-136612380D01*
X86360238Y-137517142D02*
X86312619Y-137564761D01*
X86360238Y-137612380D01*
X86407857Y-137564761D01*
X86360238Y-137517142D01*
X86360238Y-137612380D01*
X85360238Y-137612380D02*
X85931666Y-137612380D01*
X85645952Y-137612380D02*
X85645952Y-136612380D01*
X85741190Y-136755238D01*
X85836428Y-136850476D01*
X85931666Y-136898095D01*
X83122142Y-136612380D02*
X83122142Y-137326666D01*
X83169761Y-137469523D01*
X83265000Y-137564761D01*
X83407857Y-137612380D01*
X83503095Y-137612380D01*
X82217380Y-136945714D02*
X82217380Y-137612380D01*
X82645952Y-136945714D02*
X82645952Y-137469523D01*
X82598333Y-137564761D01*
X82503095Y-137612380D01*
X82360238Y-137612380D01*
X82265000Y-137564761D01*
X82217380Y-137517142D01*
X81741190Y-136945714D02*
X81741190Y-137612380D01*
X81741190Y-137040952D02*
X81693571Y-136993333D01*
X81598333Y-136945714D01*
X81455476Y-136945714D01*
X81360238Y-136993333D01*
X81312619Y-137088571D01*
X81312619Y-137612380D01*
X80455476Y-137564761D02*
X80550714Y-137612380D01*
X80741190Y-137612380D01*
X80836428Y-137564761D01*
X80884047Y-137469523D01*
X80884047Y-137088571D01*
X80836428Y-136993333D01*
X80741190Y-136945714D01*
X80550714Y-136945714D01*
X80455476Y-136993333D01*
X80407857Y-137088571D01*
X80407857Y-137183809D01*
X80884047Y-137279047D01*
X79265000Y-136707619D02*
X79217380Y-136660000D01*
X79122142Y-136612380D01*
X78884047Y-136612380D01*
X78788809Y-136660000D01*
X78741190Y-136707619D01*
X78693571Y-136802857D01*
X78693571Y-136898095D01*
X78741190Y-137040952D01*
X79312619Y-137612380D01*
X78693571Y-137612380D01*
X78074523Y-136612380D02*
X77979285Y-136612380D01*
X77884047Y-136660000D01*
X77836428Y-136707619D01*
X77788809Y-136802857D01*
X77741190Y-136993333D01*
X77741190Y-137231428D01*
X77788809Y-137421904D01*
X77836428Y-137517142D01*
X77884047Y-137564761D01*
X77979285Y-137612380D01*
X78074523Y-137612380D01*
X78169761Y-137564761D01*
X78217380Y-137517142D01*
X78265000Y-137421904D01*
X78312619Y-137231428D01*
X78312619Y-136993333D01*
X78265000Y-136802857D01*
X78217380Y-136707619D01*
X78169761Y-136660000D01*
X78074523Y-136612380D01*
X77360238Y-136707619D02*
X77312619Y-136660000D01*
X77217380Y-136612380D01*
X76979285Y-136612380D01*
X76884047Y-136660000D01*
X76836428Y-136707619D01*
X76788809Y-136802857D01*
X76788809Y-136898095D01*
X76836428Y-137040952D01*
X77407857Y-137612380D01*
X76788809Y-137612380D01*
X76407857Y-136707619D02*
X76360238Y-136660000D01*
X76265000Y-136612380D01*
X76026904Y-136612380D01*
X75931666Y-136660000D01*
X75884047Y-136707619D01*
X75836428Y-136802857D01*
X75836428Y-136898095D01*
X75884047Y-137040952D01*
X76455476Y-137612380D01*
X75836428Y-137612380D01*
X102108000Y-154305000D02*
X102108000Y-153035000D01*
X103632000Y-154305000D02*
X103632000Y-153035000D01*
X106172000Y-154305000D02*
X106172000Y-153035000D01*
X104648000Y-154305000D02*
X104648000Y-153035000D01*
X106172000Y-141605000D02*
X106172000Y-140335000D01*
X103632000Y-141605000D02*
X103632000Y-140335000D01*
X104648000Y-140335000D02*
X104648000Y-141605000D01*
X102108000Y-141605000D02*
X102108000Y-140335000D01*
X74930000Y-146050000D02*
X74930000Y-148590000D01*
X77470000Y-146050000D02*
X77470000Y-148590000D01*
X80010000Y-146050000D02*
X80010000Y-148590000D01*
X82550000Y-146050000D02*
X82550000Y-148590000D01*
X85090000Y-146050000D02*
X85090000Y-148590000D01*
X74937911Y-140918187D02*
X74937911Y-143458187D01*
X77470000Y-140970000D02*
X77470000Y-143510000D01*
X80010000Y-140970000D02*
X80010000Y-143510000D01*
X82550000Y-140970000D02*
X82550000Y-143510000D01*
X85090000Y-140970000D02*
X85090000Y-143510000D01*
X78740000Y-157480000D02*
X76200000Y-157480000D01*
X83820000Y-157480000D02*
X81280000Y-157480000D01*
X81915000Y-154940000D02*
X83820000Y-154940000D01*
X78105000Y-154940000D02*
X76200000Y-154940000D01*
X78740000Y-152400000D02*
X76200000Y-152400000D01*
X83820000Y-152400000D02*
X81280000Y-152400000D01*
%TO.C,R2*%
X77922380Y-144613333D02*
X77446190Y-144280000D01*
X77922380Y-144041904D02*
X76922380Y-144041904D01*
X76922380Y-144422857D01*
X76970000Y-144518095D01*
X77017619Y-144565714D01*
X77112857Y-144613333D01*
X77255714Y-144613333D01*
X77350952Y-144565714D01*
X77398571Y-144518095D01*
X77446190Y-144422857D01*
X77446190Y-144041904D01*
X77017619Y-144994285D02*
X76970000Y-145041904D01*
X76922380Y-145137142D01*
X76922380Y-145375238D01*
X76970000Y-145470476D01*
X77017619Y-145518095D01*
X77112857Y-145565714D01*
X77208095Y-145565714D01*
X77350952Y-145518095D01*
X77922380Y-144946666D01*
X77922380Y-145565714D01*
%TO.C,R3*%
X80462380Y-144613333D02*
X79986190Y-144280000D01*
X80462380Y-144041904D02*
X79462380Y-144041904D01*
X79462380Y-144422857D01*
X79510000Y-144518095D01*
X79557619Y-144565714D01*
X79652857Y-144613333D01*
X79795714Y-144613333D01*
X79890952Y-144565714D01*
X79938571Y-144518095D01*
X79986190Y-144422857D01*
X79986190Y-144041904D01*
X79462380Y-144946666D02*
X79462380Y-145565714D01*
X79843333Y-145232380D01*
X79843333Y-145375238D01*
X79890952Y-145470476D01*
X79938571Y-145518095D01*
X80033809Y-145565714D01*
X80271904Y-145565714D01*
X80367142Y-145518095D01*
X80414761Y-145470476D01*
X80462380Y-145375238D01*
X80462380Y-145089523D01*
X80414761Y-144994285D01*
X80367142Y-144946666D01*
%TO.C,R12*%
X105772976Y-157297380D02*
X106106309Y-156821190D01*
X106344404Y-157297380D02*
X106344404Y-156297380D01*
X105963452Y-156297380D01*
X105868214Y-156345000D01*
X105820595Y-156392619D01*
X105772976Y-156487857D01*
X105772976Y-156630714D01*
X105820595Y-156725952D01*
X105868214Y-156773571D01*
X105963452Y-156821190D01*
X106344404Y-156821190D01*
X104820595Y-157297380D02*
X105392023Y-157297380D01*
X105106309Y-157297380D02*
X105106309Y-156297380D01*
X105201547Y-156440238D01*
X105296785Y-156535476D01*
X105392023Y-156583095D01*
X104439642Y-156392619D02*
X104392023Y-156345000D01*
X104296785Y-156297380D01*
X104058690Y-156297380D01*
X103963452Y-156345000D01*
X103915833Y-156392619D01*
X103868214Y-156487857D01*
X103868214Y-156583095D01*
X103915833Y-156725952D01*
X104487261Y-157297380D01*
X103868214Y-157297380D01*
%TO.C,R1*%
X75382380Y-144613333D02*
X74906190Y-144280000D01*
X75382380Y-144041904D02*
X74382380Y-144041904D01*
X74382380Y-144422857D01*
X74430000Y-144518095D01*
X74477619Y-144565714D01*
X74572857Y-144613333D01*
X74715714Y-144613333D01*
X74810952Y-144565714D01*
X74858571Y-144518095D01*
X74906190Y-144422857D01*
X74906190Y-144041904D01*
X75382380Y-145565714D02*
X75382380Y-144994285D01*
X75382380Y-145280000D02*
X74382380Y-145280000D01*
X74525238Y-145184761D01*
X74620476Y-145089523D01*
X74668095Y-144994285D01*
%TO.C,R4*%
X83002380Y-144613333D02*
X82526190Y-144280000D01*
X83002380Y-144041904D02*
X82002380Y-144041904D01*
X82002380Y-144422857D01*
X82050000Y-144518095D01*
X82097619Y-144565714D01*
X82192857Y-144613333D01*
X82335714Y-144613333D01*
X82430952Y-144565714D01*
X82478571Y-144518095D01*
X82526190Y-144422857D01*
X82526190Y-144041904D01*
X82335714Y-145470476D02*
X83002380Y-145470476D01*
X81954761Y-145232380D02*
X82669047Y-144994285D01*
X82669047Y-145613333D01*
%TO.C,R10*%
X80652857Y-155392380D02*
X80986190Y-154916190D01*
X81224285Y-155392380D02*
X81224285Y-154392380D01*
X80843333Y-154392380D01*
X80748095Y-154440000D01*
X80700476Y-154487619D01*
X80652857Y-154582857D01*
X80652857Y-154725714D01*
X80700476Y-154820952D01*
X80748095Y-154868571D01*
X80843333Y-154916190D01*
X81224285Y-154916190D01*
X79700476Y-155392380D02*
X80271904Y-155392380D01*
X79986190Y-155392380D02*
X79986190Y-154392380D01*
X80081428Y-154535238D01*
X80176666Y-154630476D01*
X80271904Y-154678095D01*
X79081428Y-154392380D02*
X78986190Y-154392380D01*
X78890952Y-154440000D01*
X78843333Y-154487619D01*
X78795714Y-154582857D01*
X78748095Y-154773333D01*
X78748095Y-155011428D01*
X78795714Y-155201904D01*
X78843333Y-155297142D01*
X78890952Y-155344761D01*
X78986190Y-155392380D01*
X79081428Y-155392380D01*
X79176666Y-155344761D01*
X79224285Y-155297142D01*
X79271904Y-155201904D01*
X79319523Y-155011428D01*
X79319523Y-154773333D01*
X79271904Y-154582857D01*
X79224285Y-154487619D01*
X79176666Y-154440000D01*
X79081428Y-154392380D01*
%TO.C,R11*%
X103792738Y-150947380D02*
X104126071Y-150471190D01*
X104364166Y-150947380D02*
X104364166Y-149947380D01*
X103983214Y-149947380D01*
X103887976Y-149995000D01*
X103840357Y-150042619D01*
X103792738Y-150137857D01*
X103792738Y-150280714D01*
X103840357Y-150375952D01*
X103887976Y-150423571D01*
X103983214Y-150471190D01*
X104364166Y-150471190D01*
X102840357Y-150947380D02*
X103411785Y-150947380D01*
X103126071Y-150947380D02*
X103126071Y-149947380D01*
X103221309Y-150090238D01*
X103316547Y-150185476D01*
X103411785Y-150233095D01*
X101887976Y-150947380D02*
X102459404Y-150947380D01*
X102173690Y-150947380D02*
X102173690Y-149947380D01*
X102268928Y-150090238D01*
X102364166Y-150185476D01*
X102459404Y-150233095D01*
%TO.C,R6*%
X80176666Y-152852380D02*
X80510000Y-152376190D01*
X80748095Y-152852380D02*
X80748095Y-151852380D01*
X80367142Y-151852380D01*
X80271904Y-151900000D01*
X80224285Y-151947619D01*
X80176666Y-152042857D01*
X80176666Y-152185714D01*
X80224285Y-152280952D01*
X80271904Y-152328571D01*
X80367142Y-152376190D01*
X80748095Y-152376190D01*
X79319523Y-151852380D02*
X79510000Y-151852380D01*
X79605238Y-151900000D01*
X79652857Y-151947619D01*
X79748095Y-152090476D01*
X79795714Y-152280952D01*
X79795714Y-152661904D01*
X79748095Y-152757142D01*
X79700476Y-152804761D01*
X79605238Y-152852380D01*
X79414761Y-152852380D01*
X79319523Y-152804761D01*
X79271904Y-152757142D01*
X79224285Y-152661904D01*
X79224285Y-152423809D01*
X79271904Y-152328571D01*
X79319523Y-152280952D01*
X79414761Y-152233333D01*
X79605238Y-152233333D01*
X79700476Y-152280952D01*
X79748095Y-152328571D01*
X79795714Y-152423809D01*
%TO.C,R7*%
X80176666Y-157932380D02*
X80510000Y-157456190D01*
X80748095Y-157932380D02*
X80748095Y-156932380D01*
X80367142Y-156932380D01*
X80271904Y-156980000D01*
X80224285Y-157027619D01*
X80176666Y-157122857D01*
X80176666Y-157265714D01*
X80224285Y-157360952D01*
X80271904Y-157408571D01*
X80367142Y-157456190D01*
X80748095Y-157456190D01*
X79843333Y-156932380D02*
X79176666Y-156932380D01*
X79605238Y-157932380D01*
%TO.C,R8*%
X103036666Y-138247380D02*
X103370000Y-137771190D01*
X103608095Y-138247380D02*
X103608095Y-137247380D01*
X103227142Y-137247380D01*
X103131904Y-137295000D01*
X103084285Y-137342619D01*
X103036666Y-137437857D01*
X103036666Y-137580714D01*
X103084285Y-137675952D01*
X103131904Y-137723571D01*
X103227142Y-137771190D01*
X103608095Y-137771190D01*
X102465238Y-137675952D02*
X102560476Y-137628333D01*
X102608095Y-137580714D01*
X102655714Y-137485476D01*
X102655714Y-137437857D01*
X102608095Y-137342619D01*
X102560476Y-137295000D01*
X102465238Y-137247380D01*
X102274761Y-137247380D01*
X102179523Y-137295000D01*
X102131904Y-137342619D01*
X102084285Y-137437857D01*
X102084285Y-137485476D01*
X102131904Y-137580714D01*
X102179523Y-137628333D01*
X102274761Y-137675952D01*
X102465238Y-137675952D01*
X102560476Y-137723571D01*
X102608095Y-137771190D01*
X102655714Y-137866428D01*
X102655714Y-138056904D01*
X102608095Y-138152142D01*
X102560476Y-138199761D01*
X102465238Y-138247380D01*
X102274761Y-138247380D01*
X102179523Y-138199761D01*
X102131904Y-138152142D01*
X102084285Y-138056904D01*
X102084285Y-137866428D01*
X102131904Y-137771190D01*
X102179523Y-137723571D01*
X102274761Y-137675952D01*
%TO.C,R9*%
X105576666Y-144597380D02*
X105910000Y-144121190D01*
X106148095Y-144597380D02*
X106148095Y-143597380D01*
X105767142Y-143597380D01*
X105671904Y-143645000D01*
X105624285Y-143692619D01*
X105576666Y-143787857D01*
X105576666Y-143930714D01*
X105624285Y-144025952D01*
X105671904Y-144073571D01*
X105767142Y-144121190D01*
X106148095Y-144121190D01*
X105100476Y-144597380D02*
X104910000Y-144597380D01*
X104814761Y-144549761D01*
X104767142Y-144502142D01*
X104671904Y-144359285D01*
X104624285Y-144168809D01*
X104624285Y-143787857D01*
X104671904Y-143692619D01*
X104719523Y-143645000D01*
X104814761Y-143597380D01*
X105005238Y-143597380D01*
X105100476Y-143645000D01*
X105148095Y-143692619D01*
X105195714Y-143787857D01*
X105195714Y-144025952D01*
X105148095Y-144121190D01*
X105100476Y-144168809D01*
X105005238Y-144216428D01*
X104814761Y-144216428D01*
X104719523Y-144168809D01*
X104671904Y-144121190D01*
X104624285Y-144025952D01*
%TO.C,R5*%
X85542380Y-144613333D02*
X85066190Y-144280000D01*
X85542380Y-144041904D02*
X84542380Y-144041904D01*
X84542380Y-144422857D01*
X84590000Y-144518095D01*
X84637619Y-144565714D01*
X84732857Y-144613333D01*
X84875714Y-144613333D01*
X84970952Y-144565714D01*
X85018571Y-144518095D01*
X85066190Y-144422857D01*
X85066190Y-144041904D01*
X84542380Y-145518095D02*
X84542380Y-145041904D01*
X85018571Y-144994285D01*
X84970952Y-145041904D01*
X84923333Y-145137142D01*
X84923333Y-145375238D01*
X84970952Y-145470476D01*
X85018571Y-145518095D01*
X85113809Y-145565714D01*
X85351904Y-145565714D01*
X85447142Y-145518095D01*
X85494761Y-145470476D01*
X85542380Y-145375238D01*
X85542380Y-145137142D01*
X85494761Y-145041904D01*
X85447142Y-144994285D01*
%TD*%
M02*
