M48
; DRILL file {KiCad (6.0.5)} date Fri Jun  3 17:18:34 2022
; FORMAT={-:-/ absolute / inch / decimal}
; #@! TF.CreationDate,2022-06-03T17:18:34-04:00
; #@! TF.GenerationSoftware,Kicad,Pcbnew,(6.0.5)
; #@! TF.FileFunction,Plated,1,2,PTH
FMAT,2
INCH
; #@! TA.AperFunction,Plated,PTH,ViaDrill
T1C0.0157
; #@! TA.AperFunction,Plated,PTH,ComponentDrill
T2C0.0315
; #@! TA.AperFunction,Plated,PTH,ComponentDrill
T3C0.0394
; #@! TA.AperFunction,Plated,PTH,ComponentDrill
T4C0.0469
%
G90
G05
T1
X2.55Y-5.25
X2.55Y-5.35
X2.55Y-5.45
X2.55Y-5.55
X2.55Y-5.65
X2.55Y-5.75
X2.55Y-5.85
X2.55Y-5.95
X2.55Y-6.05
X2.55Y-6.15
X2.55Y-6.25
X2.6Y-5.2
X2.6Y-5.4
X2.6Y-5.5
X2.6Y-5.6
X2.6Y-5.7
X2.6Y-5.8
X2.6Y-5.9
X2.6Y-6.0
X2.6Y-6.1
X2.6Y-6.2
X2.65Y-5.45
X2.65Y-5.55
X2.65Y-6.15
X2.65Y-6.25
X2.7Y-5.4
X2.7Y-5.5
X2.7Y-5.6
X2.7Y-5.7
X2.7Y-5.8
X2.7Y-5.9
X2.7Y-6.0
X2.7Y-6.1
X2.7Y-6.2
X2.75Y-5.2
X2.75Y-5.35
X2.75Y-5.45
X2.75Y-5.55
X2.75Y-6.15
X2.75Y-6.25
X2.8Y-5.25
X2.8Y-5.3
X2.8Y-5.4
X2.8Y-5.5
X2.8Y-5.6
X2.8Y-5.7
X2.8Y-5.8
X2.8Y-5.9
X2.8Y-6.0
X2.8Y-6.1
X2.8Y-6.2
X2.85Y-5.2
X2.85Y-5.45
X2.85Y-5.55
X2.85Y-5.75
X2.85Y-6.15
X2.85Y-6.25
X2.9Y-5.7
X2.9Y-5.8
X2.9Y-5.95
X2.9Y-6.05
X2.9Y-6.15
X2.9Y-6.25
X2.95Y-5.2
X2.95Y-5.4
X2.95Y-5.6
X2.95Y-5.75
X3.0Y-5.45
X3.0Y-5.55
X3.0Y-5.7
X3.0Y-5.8
X3.0Y-5.95
X3.0Y-6.05
X3.0Y-6.15
X3.0Y-6.25
X3.05Y-5.2
X3.05Y-5.6
X3.05Y-5.75
X3.05Y-6.0
X3.05Y-6.2
X3.075Y-5.35
X3.1Y-5.25
X3.1Y-5.55
X3.1Y-5.7
X3.1Y-5.8
X3.1Y-5.95
X3.1Y-6.05
X3.1Y-6.15
X3.1Y-6.25
X3.15Y-5.2
X3.15Y-5.6
X3.15Y-5.75
X3.2Y-5.55
X3.2Y-5.8
X3.2Y-5.95
X3.2Y-6.15
X3.2Y-6.25
X3.25Y-5.2
X3.25Y-5.6
X3.25Y-6.1
X3.25Y-6.2
X3.3Y-5.55
X3.3Y-5.65
X3.3Y-5.95
X3.3Y-6.05
X3.3Y-6.15
X3.3Y-6.25
X3.35Y-5.2
X3.35Y-5.6
X3.4Y-5.3
X3.4Y-5.55
X3.4Y-5.65
X3.4Y-5.75
X3.4Y-6.25
X3.45Y-5.2
X3.45Y-5.5
X3.45Y-5.6
X3.5Y-5.55
X3.5Y-5.65
X3.5Y-5.75
X3.5Y-6.25
X3.55Y-5.2
X3.6Y-5.55
X3.6Y-5.65
X3.6Y-5.75
X3.6Y-5.95
X3.6Y-6.05
X3.6Y-6.25
X3.65Y-5.2
X3.65Y-5.5
X3.65Y-5.6
X3.65Y-5.7
X3.65Y-5.8
X3.65Y-5.9
X3.65Y-6.0
X3.65Y-6.1
X3.7Y-5.3
X3.7Y-5.55
X3.7Y-5.65
X3.7Y-5.75
X3.7Y-5.95
X3.7Y-6.05
X3.7Y-6.25
X3.75Y-5.2
X3.75Y-5.5
X3.75Y-5.6
X3.75Y-6.2
X3.8Y-5.55
X3.8Y-5.65
X3.8Y-5.75
X3.8Y-5.95
X3.8Y-6.05
X3.8Y-6.25
X3.85Y-5.2
X3.85Y-5.5
X3.85Y-5.7
X3.85Y-5.8
X3.85Y-5.9
X3.85Y-6.0
X3.85Y-6.2
X3.9Y-5.55
X3.9Y-5.65
X3.9Y-5.75
X3.9Y-5.95
X3.9Y-6.15
X3.9Y-6.25
X3.95Y-5.2
X3.95Y-6.2
X4.0Y-5.3
X4.0Y-5.45
X4.0Y-5.65
X4.0Y-5.75
X4.0Y-5.95
X4.0Y-6.15
X4.0Y-6.25
X4.05Y-5.2
X4.05Y-5.7
X4.05Y-5.9
X4.05Y-6.2
X4.1Y-5.45
X4.1Y-5.65
X4.1Y-5.75
X4.1Y-5.85
X4.1Y-5.95
X4.1Y-6.15
X4.1Y-6.25
X4.15Y-5.2
X4.15Y-5.4
X4.15Y-5.7
X4.15Y-6.2
X4.2Y-5.45
X4.2Y-5.55
X4.2Y-5.65
X4.2Y-5.75
X4.2Y-5.85
X4.2Y-6.05
X4.2Y-6.15
X4.2Y-6.25
X4.25Y-5.2
X4.25Y-5.4
X4.25Y-5.5
X4.25Y-5.7
X4.25Y-5.8
X4.25Y-6.0
X4.25Y-6.1
X4.25Y-6.2
X4.3Y-5.25
X4.3Y-5.35
X4.3Y-5.75
X4.3Y-6.05
X4.3Y-6.25
X4.35Y-5.2
X4.35Y-5.3
X4.35Y-5.4
X4.35Y-5.5
X4.35Y-5.7
X4.35Y-5.8
X4.35Y-6.0
X4.4Y-5.25
X4.4Y-5.35
X4.4Y-5.75
X4.4Y-6.05
X4.4Y-6.25
X4.45Y-5.2
X4.45Y-5.3
X4.45Y-5.4
X4.45Y-5.5
X4.45Y-5.7
X4.45Y-5.8
X4.45Y-6.0
X4.45Y-6.1
X4.45Y-6.2
T2
X2.95Y-5.5
X2.95Y-5.9
X2.95Y-6.0
X2.95Y-6.1
X2.95Y-6.2
X3.05Y-5.5
X3.05Y-5.9
X3.15Y-5.5
X3.15Y-5.9
X3.25Y-5.5
X3.25Y-5.9
X3.35Y-5.5
X3.35Y-5.9
X3.35Y-6.0
X3.35Y-6.1
X3.35Y-6.2
X3.45Y-5.7016
X3.45Y-5.8
X3.5492Y-5.4998
X3.5492Y-5.5998
X3.5492Y-5.6998
X3.5492Y-5.7998
X3.5492Y-5.8998
X3.5492Y-5.9998
X3.5492Y-6.0998
X3.9492Y-5.4998
X3.9492Y-5.5998
X3.9492Y-5.6998
X3.9492Y-5.7998
X3.9492Y-5.8998
X3.9492Y-5.9998
X3.9492Y-6.0998
X4.05Y-5.5
X4.05Y-5.6
X4.05Y-5.8
X4.05Y-6.0
X4.05Y-6.1
X4.1484Y-5.8
X4.15Y-5.5
X4.15Y-5.6
X4.15Y-6.0
X4.15Y-6.1
T3
X2.65Y-5.65
X2.65Y-5.75
X2.65Y-5.85
X2.65Y-5.95
X2.65Y-6.05
X2.75Y-5.65
X2.75Y-5.75
X2.75Y-5.85
X2.75Y-5.95
X2.75Y-6.05
T4
X2.9Y-5.3
X3.0Y-5.3
X3.2Y-5.3
X3.3Y-5.3
X3.5Y-5.3
X3.6Y-5.3
X3.8Y-5.3
X3.9Y-5.3
X4.1Y-5.3
X4.2Y-5.3
X4.3Y-5.6
X4.3Y-5.9
X4.4Y-5.6
X4.4Y-5.9
T0
M30
