G04 #@! TF.GenerationSoftware,KiCad,Pcbnew,(6.0.5)*
G04 #@! TF.CreationDate,2022-05-27T13:24:47-04:00*
G04 #@! TF.ProjectId,minidrone-rounded,6d696e69-6472-46f6-9e65-2d726f756e64,rev?*
G04 #@! TF.SameCoordinates,Original*
G04 #@! TF.FileFunction,Copper,L1,Top*
G04 #@! TF.FilePolarity,Positive*
%FSLAX46Y46*%
G04 Gerber Fmt 4.6, Leading zero omitted, Abs format (unit mm)*
G04 Created by KiCad (PCBNEW (6.0.5)) date 2022-05-27 13:24:47*
%MOMM*%
%LPD*%
G01*
G04 APERTURE LIST*
G04 #@! TA.AperFunction,ComponentPad*
%ADD10C,2.200000*%
G04 #@! TD*
G04 #@! TA.AperFunction,ComponentPad*
%ADD11C,8.890000*%
G04 #@! TD*
G04 APERTURE END LIST*
D10*
X116840000Y-134805000D03*
X111840000Y-132705000D03*
D11*
X73660000Y-92710000D03*
X73660000Y-44450000D03*
X73660000Y-68580000D03*
X116840000Y-111125000D03*
X73660000Y-140970000D03*
X73660000Y-116840000D03*
G04 #@! TA.AperFunction,NonConductor*
G36*
X128973621Y-26563502D02*
G01*
X129020114Y-26617158D01*
X129031500Y-26669500D01*
X129031500Y-158750500D01*
X129011498Y-158818621D01*
X128957842Y-158865114D01*
X128905500Y-158876500D01*
X64134500Y-158876500D01*
X64066379Y-158856498D01*
X64019886Y-158802842D01*
X64008500Y-158750500D01*
X64008500Y-156469703D01*
X66470743Y-156469703D01*
X66508268Y-156754734D01*
X66584129Y-157032036D01*
X66696923Y-157296476D01*
X66844561Y-157543161D01*
X67024313Y-157767528D01*
X67232851Y-157965423D01*
X67466317Y-158133186D01*
X67470112Y-158135195D01*
X67470113Y-158135196D01*
X67491869Y-158146715D01*
X67720392Y-158267712D01*
X67990373Y-158366511D01*
X68271264Y-158427755D01*
X68299841Y-158430004D01*
X68494282Y-158445307D01*
X68494291Y-158445307D01*
X68496739Y-158445500D01*
X68652271Y-158445500D01*
X68654407Y-158445354D01*
X68654418Y-158445354D01*
X68862548Y-158431165D01*
X68862554Y-158431164D01*
X68866825Y-158430873D01*
X68871020Y-158430004D01*
X68871022Y-158430004D01*
X69007584Y-158401723D01*
X69148342Y-158372574D01*
X69419343Y-158276607D01*
X69674812Y-158144750D01*
X69678313Y-158142289D01*
X69678317Y-158142287D01*
X69792417Y-158062096D01*
X69910023Y-157979441D01*
X70120622Y-157783740D01*
X70302713Y-157561268D01*
X70452927Y-157316142D01*
X70568483Y-157052898D01*
X70647244Y-156776406D01*
X70687751Y-156491784D01*
X70687845Y-156473951D01*
X70687867Y-156469703D01*
X122350743Y-156469703D01*
X122388268Y-156754734D01*
X122464129Y-157032036D01*
X122576923Y-157296476D01*
X122724561Y-157543161D01*
X122904313Y-157767528D01*
X123112851Y-157965423D01*
X123346317Y-158133186D01*
X123350112Y-158135195D01*
X123350113Y-158135196D01*
X123371869Y-158146715D01*
X123600392Y-158267712D01*
X123870373Y-158366511D01*
X124151264Y-158427755D01*
X124179841Y-158430004D01*
X124374282Y-158445307D01*
X124374291Y-158445307D01*
X124376739Y-158445500D01*
X124532271Y-158445500D01*
X124534407Y-158445354D01*
X124534418Y-158445354D01*
X124742548Y-158431165D01*
X124742554Y-158431164D01*
X124746825Y-158430873D01*
X124751020Y-158430004D01*
X124751022Y-158430004D01*
X124887584Y-158401723D01*
X125028342Y-158372574D01*
X125299343Y-158276607D01*
X125554812Y-158144750D01*
X125558313Y-158142289D01*
X125558317Y-158142287D01*
X125672417Y-158062096D01*
X125790023Y-157979441D01*
X126000622Y-157783740D01*
X126182713Y-157561268D01*
X126332927Y-157316142D01*
X126448483Y-157052898D01*
X126527244Y-156776406D01*
X126567751Y-156491784D01*
X126567845Y-156473951D01*
X126569235Y-156208583D01*
X126569235Y-156208576D01*
X126569257Y-156204297D01*
X126531732Y-155919266D01*
X126455871Y-155641964D01*
X126343077Y-155377524D01*
X126195439Y-155130839D01*
X126015687Y-154906472D01*
X125807149Y-154708577D01*
X125573683Y-154540814D01*
X125551843Y-154529250D01*
X125528654Y-154516972D01*
X125319608Y-154406288D01*
X125049627Y-154307489D01*
X124768736Y-154246245D01*
X124737685Y-154243801D01*
X124545718Y-154228693D01*
X124545709Y-154228693D01*
X124543261Y-154228500D01*
X124387729Y-154228500D01*
X124385593Y-154228646D01*
X124385582Y-154228646D01*
X124177452Y-154242835D01*
X124177446Y-154242836D01*
X124173175Y-154243127D01*
X124168980Y-154243996D01*
X124168978Y-154243996D01*
X124032417Y-154272276D01*
X123891658Y-154301426D01*
X123620657Y-154397393D01*
X123365188Y-154529250D01*
X123361687Y-154531711D01*
X123361683Y-154531713D01*
X123351594Y-154538804D01*
X123129977Y-154694559D01*
X122919378Y-154890260D01*
X122737287Y-155112732D01*
X122587073Y-155357858D01*
X122471517Y-155621102D01*
X122392756Y-155897594D01*
X122352249Y-156182216D01*
X122352227Y-156186505D01*
X122352226Y-156186512D01*
X122350765Y-156465417D01*
X122350743Y-156469703D01*
X70687867Y-156469703D01*
X70689235Y-156208583D01*
X70689235Y-156208576D01*
X70689257Y-156204297D01*
X70651732Y-155919266D01*
X70575871Y-155641964D01*
X70463077Y-155377524D01*
X70315439Y-155130839D01*
X70135687Y-154906472D01*
X69927149Y-154708577D01*
X69693683Y-154540814D01*
X69671843Y-154529250D01*
X69648654Y-154516972D01*
X69439608Y-154406288D01*
X69169627Y-154307489D01*
X68888736Y-154246245D01*
X68857685Y-154243801D01*
X68665718Y-154228693D01*
X68665709Y-154228693D01*
X68663261Y-154228500D01*
X68507729Y-154228500D01*
X68505593Y-154228646D01*
X68505582Y-154228646D01*
X68297452Y-154242835D01*
X68297446Y-154242836D01*
X68293175Y-154243127D01*
X68288980Y-154243996D01*
X68288978Y-154243996D01*
X68152417Y-154272276D01*
X68011658Y-154301426D01*
X67740657Y-154397393D01*
X67485188Y-154529250D01*
X67481687Y-154531711D01*
X67481683Y-154531713D01*
X67471594Y-154538804D01*
X67249977Y-154694559D01*
X67039378Y-154890260D01*
X66857287Y-155112732D01*
X66707073Y-155357858D01*
X66591517Y-155621102D01*
X66512756Y-155897594D01*
X66472249Y-156182216D01*
X66472227Y-156186505D01*
X66472226Y-156186512D01*
X66470765Y-156465417D01*
X66470743Y-156469703D01*
X64008500Y-156469703D01*
X64008500Y-140840202D01*
X68703206Y-140840202D01*
X68711291Y-141281346D01*
X68758560Y-141720026D01*
X68759106Y-141722769D01*
X68759107Y-141722778D01*
X68836514Y-142111929D01*
X68844637Y-142152766D01*
X68845420Y-142155435D01*
X68845421Y-142155439D01*
X68924470Y-142424892D01*
X68968842Y-142576142D01*
X68969862Y-142578738D01*
X68969863Y-142578741D01*
X69112506Y-142941789D01*
X69130191Y-142986801D01*
X69205780Y-143138078D01*
X69283771Y-143294161D01*
X69327407Y-143381491D01*
X69558927Y-143757086D01*
X69822919Y-144110615D01*
X69824780Y-144112693D01*
X69824781Y-144112694D01*
X70085623Y-144403918D01*
X70117292Y-144439276D01*
X70119329Y-144441179D01*
X70119336Y-144441186D01*
X70266295Y-144578467D01*
X70439716Y-144740468D01*
X70787638Y-145011805D01*
X71158303Y-145251141D01*
X71548776Y-145456579D01*
X71551374Y-145457663D01*
X71551378Y-145457665D01*
X71953367Y-145625408D01*
X71953377Y-145625412D01*
X71955966Y-145626492D01*
X72376648Y-145759536D01*
X72807491Y-145854658D01*
X72810265Y-145855016D01*
X72810266Y-145855016D01*
X73242313Y-145910746D01*
X73242323Y-145910747D01*
X73245084Y-145911103D01*
X73247871Y-145911213D01*
X73247877Y-145911213D01*
X73503637Y-145921261D01*
X73685962Y-145928425D01*
X73688754Y-145928286D01*
X73688759Y-145928286D01*
X74123831Y-145906627D01*
X74123840Y-145906626D01*
X74126635Y-145906487D01*
X74129412Y-145906099D01*
X74129414Y-145906099D01*
X74204530Y-145895609D01*
X74563614Y-145845463D01*
X74566324Y-145844835D01*
X74566334Y-145844833D01*
X74990710Y-145746467D01*
X74993437Y-145745835D01*
X75213734Y-145673618D01*
X75410050Y-145609263D01*
X75410056Y-145609261D01*
X75412703Y-145608393D01*
X75818090Y-145434224D01*
X76206391Y-145224709D01*
X76574529Y-144981505D01*
X76919591Y-144706539D01*
X77238843Y-144401987D01*
X77240680Y-144399893D01*
X77240688Y-144399884D01*
X77527912Y-144072367D01*
X77529759Y-144070261D01*
X77607661Y-143963627D01*
X77748786Y-143770449D01*
X77790034Y-143713988D01*
X77844211Y-143624001D01*
X78016158Y-143338399D01*
X78016163Y-143338390D01*
X78017609Y-143335988D01*
X78187542Y-142986801D01*
X78209447Y-142941789D01*
X78209448Y-142941786D01*
X78210680Y-142939255D01*
X78367720Y-142526929D01*
X78374174Y-142504047D01*
X78462081Y-142192350D01*
X78487484Y-142102276D01*
X78530300Y-141874589D01*
X78568509Y-141671405D01*
X78568511Y-141671393D01*
X78569025Y-141668658D01*
X78599134Y-141358807D01*
X78611483Y-141231724D01*
X78611484Y-141231712D01*
X78611698Y-141229507D01*
X78615189Y-141096196D01*
X80809044Y-141096196D01*
X80809405Y-141099810D01*
X80809405Y-141099816D01*
X80822350Y-141229507D01*
X80843503Y-141441431D01*
X80917414Y-141780417D01*
X81029797Y-142108661D01*
X81179163Y-142421812D01*
X81363532Y-142715721D01*
X81365804Y-142718557D01*
X81365809Y-142718564D01*
X81444708Y-142817046D01*
X81580459Y-142986491D01*
X81583037Y-142989042D01*
X81730838Y-143135303D01*
X81827071Y-143230534D01*
X81829929Y-143232775D01*
X82094812Y-143440469D01*
X82100098Y-143444614D01*
X82395921Y-143625895D01*
X82399206Y-143627420D01*
X82399210Y-143627422D01*
X82585702Y-143713988D01*
X82710620Y-143771973D01*
X82814926Y-143806469D01*
X83036578Y-143879774D01*
X83036583Y-143879775D01*
X83040023Y-143880913D01*
X83043578Y-143881649D01*
X83043581Y-143881650D01*
X83376214Y-143950535D01*
X83376217Y-143950535D01*
X83379764Y-143951270D01*
X83518221Y-143963627D01*
X83682076Y-143978251D01*
X83682082Y-143978251D01*
X83684869Y-143978500D01*
X83908432Y-143978500D01*
X83910251Y-143978395D01*
X83910255Y-143978395D01*
X84162754Y-143963836D01*
X84162759Y-143963835D01*
X84166374Y-143963627D01*
X84241388Y-143950535D01*
X84504585Y-143904600D01*
X84504592Y-143904598D01*
X84508158Y-143903976D01*
X84511633Y-143902947D01*
X84511640Y-143902945D01*
X84644863Y-143863482D01*
X84840820Y-143805437D01*
X84844159Y-143804013D01*
X85156614Y-143670740D01*
X85156617Y-143670738D01*
X85159952Y-143669316D01*
X85163099Y-143667521D01*
X85163103Y-143667519D01*
X85458184Y-143499208D01*
X85461324Y-143497417D01*
X85545546Y-143435550D01*
X85565265Y-143421065D01*
X85740940Y-143292018D01*
X85995096Y-143055842D01*
X86220422Y-142792019D01*
X86413931Y-142504047D01*
X86573060Y-142195741D01*
X86695698Y-141871189D01*
X86728630Y-141740083D01*
X86779337Y-141538206D01*
X86780220Y-141534692D01*
X86803376Y-141358807D01*
X86825032Y-141194315D01*
X86825033Y-141194307D01*
X86825506Y-141190711D01*
X86828938Y-140972234D01*
X86828973Y-140970000D01*
X90291445Y-140970000D01*
X90311651Y-141355559D01*
X90312164Y-141358799D01*
X90312165Y-141358807D01*
X90339454Y-141531099D01*
X90372049Y-141736894D01*
X90471976Y-142109826D01*
X90610337Y-142470270D01*
X90611835Y-142473210D01*
X90774277Y-142792019D01*
X90785618Y-142814277D01*
X90995896Y-143138078D01*
X91238869Y-143438125D01*
X91511875Y-143711131D01*
X91811922Y-143954104D01*
X91814697Y-143955906D01*
X92049483Y-144108377D01*
X92135723Y-144164382D01*
X92138657Y-144165877D01*
X92138664Y-144165881D01*
X92476790Y-144338165D01*
X92479730Y-144339663D01*
X92840174Y-144478024D01*
X93213106Y-144577951D01*
X93415643Y-144610030D01*
X93591193Y-144637835D01*
X93591201Y-144637836D01*
X93594441Y-144638349D01*
X93883543Y-144653500D01*
X94076457Y-144653500D01*
X94365559Y-144638349D01*
X94368799Y-144637836D01*
X94368807Y-144637835D01*
X94544357Y-144610030D01*
X94746894Y-144577951D01*
X95119826Y-144478024D01*
X95480270Y-144339663D01*
X95483210Y-144338165D01*
X95821336Y-144165881D01*
X95821343Y-144165877D01*
X95824277Y-144164382D01*
X95910518Y-144108377D01*
X96145303Y-143955906D01*
X96148078Y-143954104D01*
X96448125Y-143711131D01*
X96721131Y-143438125D01*
X96964104Y-143138078D01*
X97064387Y-142983655D01*
X97172584Y-142817047D01*
X97172586Y-142817044D01*
X97174382Y-142814278D01*
X97175882Y-142811336D01*
X97348165Y-142473210D01*
X97349663Y-142470270D01*
X97488024Y-142109826D01*
X97587951Y-141736894D01*
X97620546Y-141531099D01*
X97647835Y-141358807D01*
X97647836Y-141358799D01*
X97648349Y-141355559D01*
X97668555Y-140970000D01*
X97648349Y-140584441D01*
X97640048Y-140532026D01*
X97588467Y-140206367D01*
X97587951Y-140203106D01*
X97488024Y-139830174D01*
X97349663Y-139469730D01*
X97330922Y-139432949D01*
X97175881Y-139128664D01*
X97175877Y-139128657D01*
X97174382Y-139125723D01*
X96964104Y-138801922D01*
X96721131Y-138501875D01*
X96448125Y-138228869D01*
X96148078Y-137985896D01*
X95824277Y-137775618D01*
X95821343Y-137774123D01*
X95821336Y-137774119D01*
X95483210Y-137601835D01*
X95480270Y-137600337D01*
X95119826Y-137461976D01*
X94746894Y-137362049D01*
X94544357Y-137329970D01*
X94368807Y-137302165D01*
X94368799Y-137302164D01*
X94365559Y-137301651D01*
X94076457Y-137286500D01*
X93883543Y-137286500D01*
X93594441Y-137301651D01*
X93591201Y-137302164D01*
X93591193Y-137302165D01*
X93415643Y-137329970D01*
X93213106Y-137362049D01*
X92840174Y-137461976D01*
X92479730Y-137600337D01*
X92476790Y-137601835D01*
X92138664Y-137774119D01*
X92138657Y-137774123D01*
X92135723Y-137775618D01*
X91811922Y-137985896D01*
X91511875Y-138228869D01*
X91238869Y-138501875D01*
X90995896Y-138801922D01*
X90994094Y-138804697D01*
X90787416Y-139122953D01*
X90787414Y-139122956D01*
X90785618Y-139125722D01*
X90784123Y-139128656D01*
X90784119Y-139128663D01*
X90727876Y-139239047D01*
X90610337Y-139469730D01*
X90471976Y-139830174D01*
X90372049Y-140203106D01*
X90371533Y-140206367D01*
X90319953Y-140532026D01*
X90311651Y-140584441D01*
X90291445Y-140970000D01*
X86828973Y-140970000D01*
X86830899Y-140847446D01*
X86830899Y-140847442D01*
X86830956Y-140843804D01*
X86821163Y-140745685D01*
X86796857Y-140502177D01*
X86796497Y-140498569D01*
X86722586Y-140159583D01*
X86700375Y-140094708D01*
X86611376Y-139834765D01*
X86610203Y-139831339D01*
X86460837Y-139518188D01*
X86276468Y-139224279D01*
X86274196Y-139221443D01*
X86274191Y-139221436D01*
X86061813Y-138956345D01*
X86059541Y-138953509D01*
X85936235Y-138831487D01*
X85815507Y-138712017D01*
X85815506Y-138712016D01*
X85812929Y-138709466D01*
X85548178Y-138501875D01*
X85542759Y-138497626D01*
X85542757Y-138497625D01*
X85539902Y-138495386D01*
X85244079Y-138314105D01*
X85240794Y-138312580D01*
X85240790Y-138312578D01*
X84932663Y-138169551D01*
X84929380Y-138168027D01*
X84759112Y-138111716D01*
X84603422Y-138060226D01*
X84603417Y-138060225D01*
X84599977Y-138059087D01*
X84596422Y-138058351D01*
X84596419Y-138058350D01*
X84263786Y-137989465D01*
X84263783Y-137989465D01*
X84260236Y-137988730D01*
X84099773Y-137974409D01*
X83957924Y-137961749D01*
X83957918Y-137961749D01*
X83955131Y-137961500D01*
X83731568Y-137961500D01*
X83729749Y-137961605D01*
X83729745Y-137961605D01*
X83477246Y-137976164D01*
X83477241Y-137976165D01*
X83473626Y-137976373D01*
X83429387Y-137984094D01*
X83135415Y-138035400D01*
X83135408Y-138035402D01*
X83131842Y-138036024D01*
X83128367Y-138037053D01*
X83128360Y-138037055D01*
X83050137Y-138060226D01*
X82799180Y-138134563D01*
X82795844Y-138135986D01*
X82795841Y-138135987D01*
X82483386Y-138269260D01*
X82483383Y-138269262D01*
X82480048Y-138270684D01*
X82476901Y-138272479D01*
X82476897Y-138272481D01*
X82400602Y-138315999D01*
X82178676Y-138442583D01*
X82175764Y-138444722D01*
X82175761Y-138444724D01*
X82074735Y-138518935D01*
X81899060Y-138647982D01*
X81644904Y-138884158D01*
X81419578Y-139147981D01*
X81226069Y-139435953D01*
X81066940Y-139744259D01*
X80944302Y-140068811D01*
X80943418Y-140072332D01*
X80943416Y-140072337D01*
X80909750Y-140206367D01*
X80859780Y-140405308D01*
X80859307Y-140408901D01*
X80835764Y-140587731D01*
X80814494Y-140749289D01*
X80814437Y-140752927D01*
X80811027Y-140970000D01*
X80809044Y-141096196D01*
X78615189Y-141096196D01*
X78618493Y-140970000D01*
X78598863Y-140529218D01*
X78594747Y-140498569D01*
X78554632Y-140199917D01*
X78540127Y-140091927D01*
X78535695Y-140072337D01*
X78443368Y-139664315D01*
X78442751Y-139661587D01*
X78402579Y-139536838D01*
X78308359Y-139244257D01*
X78307506Y-139241608D01*
X78301475Y-139227364D01*
X78136553Y-138837888D01*
X78136553Y-138837887D01*
X78135463Y-138835314D01*
X78119150Y-138804697D01*
X77929305Y-138448403D01*
X77929305Y-138448402D01*
X77927983Y-138445922D01*
X77686710Y-138076515D01*
X77655603Y-138037055D01*
X77415284Y-137732212D01*
X77415282Y-137732210D01*
X77413555Y-137730019D01*
X77110679Y-137409176D01*
X76780481Y-137116527D01*
X76425575Y-136854390D01*
X76226938Y-136733379D01*
X76051161Y-136626294D01*
X76051154Y-136626290D01*
X76048772Y-136624839D01*
X75922617Y-136562626D01*
X75655569Y-136430933D01*
X75653055Y-136429693D01*
X75650459Y-136428688D01*
X75650446Y-136428683D01*
X75340147Y-136308638D01*
X75241558Y-136270497D01*
X74986723Y-136197184D01*
X74820218Y-136149282D01*
X74820212Y-136149281D01*
X74817537Y-136148511D01*
X74814800Y-136147982D01*
X74814794Y-136147980D01*
X74387099Y-136065231D01*
X74387089Y-136065229D01*
X74384352Y-136064700D01*
X73945431Y-136019729D01*
X73942639Y-136019692D01*
X73942631Y-136019692D01*
X73674465Y-136016182D01*
X73504250Y-136013954D01*
X73501450Y-136014167D01*
X73501449Y-136014167D01*
X73446254Y-136018366D01*
X73064302Y-136047420D01*
X73061539Y-136047880D01*
X73061538Y-136047880D01*
X72631846Y-136119400D01*
X72631843Y-136119401D01*
X72629071Y-136119862D01*
X72626359Y-136120566D01*
X72626349Y-136120568D01*
X72204721Y-136230001D01*
X72204710Y-136230004D01*
X72202003Y-136230707D01*
X71936099Y-136325653D01*
X71789122Y-136378133D01*
X71789117Y-136378135D01*
X71786479Y-136379077D01*
X71783939Y-136380248D01*
X71783934Y-136380250D01*
X71673995Y-136430933D01*
X71385789Y-136563798D01*
X71003107Y-136783406D01*
X71000804Y-136785015D01*
X71000797Y-136785020D01*
X70643770Y-137034549D01*
X70641461Y-137036163D01*
X70303715Y-137320068D01*
X69992544Y-137632872D01*
X69990748Y-137635032D01*
X69712211Y-137969936D01*
X69712203Y-137969947D01*
X69710412Y-137972100D01*
X69708818Y-137974407D01*
X69708816Y-137974409D01*
X69472729Y-138315999D01*
X69459552Y-138335064D01*
X69241950Y-138718891D01*
X69059330Y-139120543D01*
X69058408Y-139123169D01*
X69058403Y-139123181D01*
X69021817Y-139227364D01*
X68913138Y-139536838D01*
X68912447Y-139539558D01*
X68912446Y-139539562D01*
X68805222Y-139961760D01*
X68804531Y-139964481D01*
X68734368Y-140400085D01*
X68703206Y-140840202D01*
X64008500Y-140840202D01*
X64008500Y-134805000D01*
X115226526Y-134805000D01*
X115246391Y-135057403D01*
X115305495Y-135303591D01*
X115402384Y-135537502D01*
X115534672Y-135753376D01*
X115699102Y-135945898D01*
X115891624Y-136110328D01*
X116107498Y-136242616D01*
X116112068Y-136244509D01*
X116112072Y-136244511D01*
X116336836Y-136337611D01*
X116341409Y-136339505D01*
X116426032Y-136359821D01*
X116582784Y-136397454D01*
X116582790Y-136397455D01*
X116587597Y-136398609D01*
X116840000Y-136418474D01*
X117092403Y-136398609D01*
X117097210Y-136397455D01*
X117097216Y-136397454D01*
X117253968Y-136359821D01*
X117338591Y-136339505D01*
X117343164Y-136337611D01*
X117567928Y-136244511D01*
X117567932Y-136244509D01*
X117572502Y-136242616D01*
X117788376Y-136110328D01*
X117980898Y-135945898D01*
X118145328Y-135753376D01*
X118277616Y-135537502D01*
X118374505Y-135303591D01*
X118433609Y-135057403D01*
X118453474Y-134805000D01*
X118433609Y-134552597D01*
X118374505Y-134306409D01*
X118347271Y-134240660D01*
X118279511Y-134077072D01*
X118279509Y-134077068D01*
X118277616Y-134072498D01*
X118145328Y-133856624D01*
X117980898Y-133664102D01*
X117788376Y-133499672D01*
X117572502Y-133367384D01*
X117567932Y-133365491D01*
X117567928Y-133365489D01*
X117343164Y-133272389D01*
X117343162Y-133272388D01*
X117338591Y-133270495D01*
X117253968Y-133250179D01*
X117097216Y-133212546D01*
X117097210Y-133212545D01*
X117092403Y-133211391D01*
X116840000Y-133191526D01*
X116587597Y-133211391D01*
X116582790Y-133212545D01*
X116582784Y-133212546D01*
X116426032Y-133250179D01*
X116341409Y-133270495D01*
X116336838Y-133272388D01*
X116336836Y-133272389D01*
X116112072Y-133365489D01*
X116112068Y-133365491D01*
X116107498Y-133367384D01*
X115891624Y-133499672D01*
X115699102Y-133664102D01*
X115534672Y-133856624D01*
X115402384Y-134072498D01*
X115400491Y-134077068D01*
X115400489Y-134077072D01*
X115332729Y-134240660D01*
X115305495Y-134306409D01*
X115246391Y-134552597D01*
X115226526Y-134805000D01*
X64008500Y-134805000D01*
X64008500Y-132705000D01*
X110226526Y-132705000D01*
X110246391Y-132957403D01*
X110305495Y-133203591D01*
X110307388Y-133208162D01*
X110307389Y-133208164D01*
X110333208Y-133270495D01*
X110402384Y-133437502D01*
X110534672Y-133653376D01*
X110699102Y-133845898D01*
X110891624Y-134010328D01*
X111107498Y-134142616D01*
X111112068Y-134144509D01*
X111112072Y-134144511D01*
X111336836Y-134237611D01*
X111341409Y-134239505D01*
X111426032Y-134259821D01*
X111582784Y-134297454D01*
X111582790Y-134297455D01*
X111587597Y-134298609D01*
X111840000Y-134318474D01*
X112092403Y-134298609D01*
X112097210Y-134297455D01*
X112097216Y-134297454D01*
X112253968Y-134259821D01*
X112338591Y-134239505D01*
X112343164Y-134237611D01*
X112567928Y-134144511D01*
X112567932Y-134144509D01*
X112572502Y-134142616D01*
X112788376Y-134010328D01*
X112980898Y-133845898D01*
X113145328Y-133653376D01*
X113277616Y-133437502D01*
X113346793Y-133270495D01*
X113372611Y-133208164D01*
X113372612Y-133208162D01*
X113374505Y-133203591D01*
X113433609Y-132957403D01*
X113453474Y-132705000D01*
X113433609Y-132452597D01*
X113374505Y-132206409D01*
X113277616Y-131972498D01*
X113145328Y-131756624D01*
X112980898Y-131564102D01*
X112788376Y-131399672D01*
X112572502Y-131267384D01*
X112567932Y-131265491D01*
X112567928Y-131265489D01*
X112343164Y-131172389D01*
X112343162Y-131172388D01*
X112338591Y-131170495D01*
X112253968Y-131150179D01*
X112097216Y-131112546D01*
X112097210Y-131112545D01*
X112092403Y-131111391D01*
X111840000Y-131091526D01*
X111587597Y-131111391D01*
X111582790Y-131112545D01*
X111582784Y-131112546D01*
X111426032Y-131150179D01*
X111341409Y-131170495D01*
X111336838Y-131172388D01*
X111336836Y-131172389D01*
X111112072Y-131265489D01*
X111112068Y-131265491D01*
X111107498Y-131267384D01*
X110891624Y-131399672D01*
X110699102Y-131564102D01*
X110534672Y-131756624D01*
X110402384Y-131972498D01*
X110305495Y-132206409D01*
X110246391Y-132452597D01*
X110226526Y-132705000D01*
X64008500Y-132705000D01*
X64008500Y-129007089D01*
X109880066Y-129007089D01*
X109916343Y-129244163D01*
X109990854Y-129472129D01*
X110101597Y-129684864D01*
X110104700Y-129688997D01*
X110104702Y-129689000D01*
X110192014Y-129805288D01*
X110245598Y-129876655D01*
X110418990Y-130042352D01*
X110423262Y-130045266D01*
X110423263Y-130045267D01*
X110455599Y-130067325D01*
X110617117Y-130177505D01*
X110834656Y-130278484D01*
X111065768Y-130342576D01*
X111169479Y-130353660D01*
X111258222Y-130363144D01*
X111258230Y-130363144D01*
X111261557Y-130363500D01*
X111400803Y-130363500D01*
X111403376Y-130363288D01*
X111403387Y-130363288D01*
X111573876Y-130349271D01*
X111573882Y-130349270D01*
X111579027Y-130348847D01*
X111695332Y-130319633D01*
X111806625Y-130291679D01*
X111806629Y-130291678D01*
X111811636Y-130290420D01*
X111816366Y-130288364D01*
X111816373Y-130288361D01*
X112026841Y-130196847D01*
X112026844Y-130196845D01*
X112031578Y-130194787D01*
X112035912Y-130191983D01*
X112035916Y-130191981D01*
X112228604Y-130067325D01*
X112228607Y-130067323D01*
X112232947Y-130064515D01*
X112254101Y-130045267D01*
X112406513Y-129906582D01*
X112406514Y-129906580D01*
X112410335Y-129903104D01*
X112413534Y-129899053D01*
X112413538Y-129899049D01*
X112552095Y-129723605D01*
X112558979Y-129714888D01*
X112674887Y-129504922D01*
X112754945Y-129278845D01*
X112755853Y-129273749D01*
X112796098Y-129047816D01*
X112796099Y-129047810D01*
X112797004Y-129042727D01*
X112798120Y-128951355D01*
X114627042Y-128951355D01*
X114627405Y-128955503D01*
X114627405Y-128955507D01*
X114634584Y-129037563D01*
X114652613Y-129243625D01*
X114653523Y-129247697D01*
X114653524Y-129247702D01*
X114712033Y-129509456D01*
X114716613Y-129529947D01*
X114817919Y-129805288D01*
X114819866Y-129808981D01*
X114819867Y-129808983D01*
X114952798Y-130061109D01*
X114954751Y-130064813D01*
X115124705Y-130303961D01*
X115324794Y-130518531D01*
X115551504Y-130704752D01*
X115800851Y-130859354D01*
X115804668Y-130861070D01*
X115804671Y-130861071D01*
X115878709Y-130894345D01*
X116068456Y-130979620D01*
X116156406Y-131005839D01*
X116345618Y-131062247D01*
X116345626Y-131062249D01*
X116349615Y-131063438D01*
X116353731Y-131064090D01*
X116353736Y-131064091D01*
X116635922Y-131108784D01*
X116635927Y-131108784D01*
X116639390Y-131109333D01*
X116688486Y-131111563D01*
X116729732Y-131113436D01*
X116729751Y-131113436D01*
X116731151Y-131113500D01*
X116914420Y-131113500D01*
X117132742Y-131098999D01*
X117420341Y-131041009D01*
X117697744Y-130945492D01*
X117701486Y-130943618D01*
X117701491Y-130943616D01*
X117956333Y-130816000D01*
X117956335Y-130815999D01*
X117960077Y-130814125D01*
X118202732Y-130649217D01*
X118421445Y-130453665D01*
X118612373Y-130230905D01*
X118718603Y-130067325D01*
X118769884Y-129988360D01*
X118769887Y-129988355D01*
X118772163Y-129984850D01*
X118898007Y-129719823D01*
X118899592Y-129714888D01*
X118986416Y-129444460D01*
X118987694Y-129440480D01*
X119039649Y-129151730D01*
X119046217Y-129007089D01*
X120880066Y-129007089D01*
X120916343Y-129244163D01*
X120990854Y-129472129D01*
X121101597Y-129684864D01*
X121104700Y-129688997D01*
X121104702Y-129689000D01*
X121192014Y-129805288D01*
X121245598Y-129876655D01*
X121418990Y-130042352D01*
X121423262Y-130045266D01*
X121423263Y-130045267D01*
X121455599Y-130067325D01*
X121617117Y-130177505D01*
X121834656Y-130278484D01*
X122065768Y-130342576D01*
X122169479Y-130353660D01*
X122258222Y-130363144D01*
X122258230Y-130363144D01*
X122261557Y-130363500D01*
X122400803Y-130363500D01*
X122403376Y-130363288D01*
X122403387Y-130363288D01*
X122573876Y-130349271D01*
X122573882Y-130349270D01*
X122579027Y-130348847D01*
X122695332Y-130319633D01*
X122806625Y-130291679D01*
X122806629Y-130291678D01*
X122811636Y-130290420D01*
X122816366Y-130288364D01*
X122816373Y-130288361D01*
X123026841Y-130196847D01*
X123026844Y-130196845D01*
X123031578Y-130194787D01*
X123035912Y-130191983D01*
X123035916Y-130191981D01*
X123228604Y-130067325D01*
X123228607Y-130067323D01*
X123232947Y-130064515D01*
X123254101Y-130045267D01*
X123406513Y-129906582D01*
X123406514Y-129906580D01*
X123410335Y-129903104D01*
X123413534Y-129899053D01*
X123413538Y-129899049D01*
X123552095Y-129723605D01*
X123558979Y-129714888D01*
X123674887Y-129504922D01*
X123754945Y-129278845D01*
X123755853Y-129273749D01*
X123796098Y-129047816D01*
X123796099Y-129047810D01*
X123797004Y-129042727D01*
X123799934Y-128802911D01*
X123763657Y-128565837D01*
X123689146Y-128337871D01*
X123578403Y-128125136D01*
X123555861Y-128095112D01*
X123437507Y-127937480D01*
X123437505Y-127937477D01*
X123434402Y-127933345D01*
X123261010Y-127767648D01*
X123228084Y-127745187D01*
X123067162Y-127635414D01*
X123067163Y-127635414D01*
X123062883Y-127632495D01*
X122845344Y-127531516D01*
X122614232Y-127467424D01*
X122510521Y-127456340D01*
X122421778Y-127446856D01*
X122421770Y-127446856D01*
X122418443Y-127446500D01*
X122279197Y-127446500D01*
X122276624Y-127446712D01*
X122276613Y-127446712D01*
X122106124Y-127460729D01*
X122106118Y-127460730D01*
X122100973Y-127461153D01*
X121984669Y-127490366D01*
X121873375Y-127518321D01*
X121873371Y-127518322D01*
X121868364Y-127519580D01*
X121863634Y-127521636D01*
X121863627Y-127521639D01*
X121653159Y-127613153D01*
X121653156Y-127613155D01*
X121648422Y-127615213D01*
X121644088Y-127618017D01*
X121644084Y-127618019D01*
X121451396Y-127742675D01*
X121451393Y-127742677D01*
X121447053Y-127745485D01*
X121443230Y-127748964D01*
X121443227Y-127748966D01*
X121363360Y-127821640D01*
X121269665Y-127906896D01*
X121266466Y-127910947D01*
X121266462Y-127910951D01*
X121189319Y-128008632D01*
X121121021Y-128095112D01*
X121005113Y-128305078D01*
X120925055Y-128531155D01*
X120924148Y-128536248D01*
X120924147Y-128536251D01*
X120903144Y-128654165D01*
X120882996Y-128767273D01*
X120880066Y-129007089D01*
X119046217Y-129007089D01*
X119047028Y-128989233D01*
X119052769Y-128862815D01*
X119052769Y-128862810D01*
X119052958Y-128858645D01*
X119047635Y-128797797D01*
X119027751Y-128570537D01*
X119027387Y-128566375D01*
X119020654Y-128536251D01*
X118964299Y-128284131D01*
X118964297Y-128284124D01*
X118963387Y-128280053D01*
X118862081Y-128004712D01*
X118824454Y-127933345D01*
X118727202Y-127748891D01*
X118727201Y-127748890D01*
X118725249Y-127745187D01*
X118555295Y-127506039D01*
X118355206Y-127291469D01*
X118128496Y-127105248D01*
X117879149Y-126950646D01*
X117875332Y-126948930D01*
X117875329Y-126948929D01*
X117801291Y-126915655D01*
X117611544Y-126830380D01*
X117523594Y-126804161D01*
X117334382Y-126747753D01*
X117334374Y-126747751D01*
X117330385Y-126746562D01*
X117326269Y-126745910D01*
X117326264Y-126745909D01*
X117044078Y-126701216D01*
X117044073Y-126701216D01*
X117040610Y-126700667D01*
X116991514Y-126698437D01*
X116950268Y-126696564D01*
X116950249Y-126696564D01*
X116948849Y-126696500D01*
X116765580Y-126696500D01*
X116547258Y-126711001D01*
X116259659Y-126768991D01*
X115982256Y-126864508D01*
X115978514Y-126866382D01*
X115978509Y-126866384D01*
X115723667Y-126994000D01*
X115719923Y-126995875D01*
X115477268Y-127160783D01*
X115258555Y-127356335D01*
X115067627Y-127579095D01*
X115034364Y-127630315D01*
X114959766Y-127745187D01*
X114907837Y-127825150D01*
X114781993Y-128090177D01*
X114780714Y-128094160D01*
X114780713Y-128094163D01*
X114729203Y-128254599D01*
X114692306Y-128369520D01*
X114640351Y-128658270D01*
X114640162Y-128662442D01*
X114631063Y-128862815D01*
X114627042Y-128951355D01*
X112798120Y-128951355D01*
X112799934Y-128802911D01*
X112763657Y-128565837D01*
X112689146Y-128337871D01*
X112578403Y-128125136D01*
X112555861Y-128095112D01*
X112437507Y-127937480D01*
X112437505Y-127937477D01*
X112434402Y-127933345D01*
X112261010Y-127767648D01*
X112228084Y-127745187D01*
X112067162Y-127635414D01*
X112067163Y-127635414D01*
X112062883Y-127632495D01*
X111845344Y-127531516D01*
X111614232Y-127467424D01*
X111510521Y-127456340D01*
X111421778Y-127446856D01*
X111421770Y-127446856D01*
X111418443Y-127446500D01*
X111279197Y-127446500D01*
X111276624Y-127446712D01*
X111276613Y-127446712D01*
X111106124Y-127460729D01*
X111106118Y-127460730D01*
X111100973Y-127461153D01*
X110984669Y-127490366D01*
X110873375Y-127518321D01*
X110873371Y-127518322D01*
X110868364Y-127519580D01*
X110863634Y-127521636D01*
X110863627Y-127521639D01*
X110653159Y-127613153D01*
X110653156Y-127613155D01*
X110648422Y-127615213D01*
X110644088Y-127618017D01*
X110644084Y-127618019D01*
X110451396Y-127742675D01*
X110451393Y-127742677D01*
X110447053Y-127745485D01*
X110443230Y-127748964D01*
X110443227Y-127748966D01*
X110363360Y-127821640D01*
X110269665Y-127906896D01*
X110266466Y-127910947D01*
X110266462Y-127910951D01*
X110189319Y-128008632D01*
X110121021Y-128095112D01*
X110005113Y-128305078D01*
X109925055Y-128531155D01*
X109924148Y-128536248D01*
X109924147Y-128536251D01*
X109903144Y-128654165D01*
X109882996Y-128767273D01*
X109880066Y-129007089D01*
X64008500Y-129007089D01*
X64008500Y-116710202D01*
X68703206Y-116710202D01*
X68711291Y-117151346D01*
X68758560Y-117590026D01*
X68759106Y-117592769D01*
X68759107Y-117592778D01*
X68836514Y-117981929D01*
X68844637Y-118022766D01*
X68845420Y-118025435D01*
X68845421Y-118025439D01*
X68924470Y-118294892D01*
X68968842Y-118446142D01*
X68969862Y-118448738D01*
X68969863Y-118448741D01*
X69112506Y-118811789D01*
X69130191Y-118856801D01*
X69205780Y-119008078D01*
X69283771Y-119164161D01*
X69327407Y-119251491D01*
X69558927Y-119627086D01*
X69822919Y-119980615D01*
X69824780Y-119982693D01*
X69824781Y-119982694D01*
X70085623Y-120273918D01*
X70117292Y-120309276D01*
X70119329Y-120311179D01*
X70119336Y-120311186D01*
X70266295Y-120448467D01*
X70439716Y-120610468D01*
X70787638Y-120881805D01*
X71158303Y-121121141D01*
X71548776Y-121326579D01*
X71551374Y-121327663D01*
X71551378Y-121327665D01*
X71953367Y-121495408D01*
X71953377Y-121495412D01*
X71955966Y-121496492D01*
X72376648Y-121629536D01*
X72807491Y-121724658D01*
X72810265Y-121725016D01*
X72810266Y-121725016D01*
X73242313Y-121780746D01*
X73242323Y-121780747D01*
X73245084Y-121781103D01*
X73247871Y-121781213D01*
X73247877Y-121781213D01*
X73503637Y-121791261D01*
X73685962Y-121798425D01*
X73688754Y-121798286D01*
X73688759Y-121798286D01*
X74123831Y-121776627D01*
X74123840Y-121776626D01*
X74126635Y-121776487D01*
X74129412Y-121776099D01*
X74129414Y-121776099D01*
X74204530Y-121765609D01*
X74563614Y-121715463D01*
X74566324Y-121714835D01*
X74566334Y-121714833D01*
X74990710Y-121616467D01*
X74993437Y-121615835D01*
X75213734Y-121543618D01*
X75410050Y-121479263D01*
X75410056Y-121479261D01*
X75412703Y-121478393D01*
X75818090Y-121304224D01*
X76206391Y-121094709D01*
X76574529Y-120851505D01*
X76919591Y-120576539D01*
X77238843Y-120271987D01*
X77240680Y-120269893D01*
X77240688Y-120269884D01*
X77527912Y-119942367D01*
X77529759Y-119940261D01*
X77607661Y-119833627D01*
X77748786Y-119640449D01*
X77790034Y-119583988D01*
X77844211Y-119494001D01*
X78016158Y-119208399D01*
X78016163Y-119208390D01*
X78017609Y-119205988D01*
X78187542Y-118856801D01*
X78209447Y-118811789D01*
X78209448Y-118811786D01*
X78210680Y-118809255D01*
X78367720Y-118396929D01*
X78374174Y-118374047D01*
X78462081Y-118062350D01*
X78487484Y-117972276D01*
X78530300Y-117744589D01*
X78568509Y-117541405D01*
X78568511Y-117541393D01*
X78569025Y-117538658D01*
X78599134Y-117228807D01*
X78611483Y-117101724D01*
X78611484Y-117101712D01*
X78611698Y-117099507D01*
X78615189Y-116966196D01*
X80809044Y-116966196D01*
X80809405Y-116969810D01*
X80809405Y-116969816D01*
X80822350Y-117099507D01*
X80843503Y-117311431D01*
X80917414Y-117650417D01*
X81029797Y-117978661D01*
X81179163Y-118291812D01*
X81363532Y-118585721D01*
X81365804Y-118588557D01*
X81365809Y-118588564D01*
X81444708Y-118687046D01*
X81580459Y-118856491D01*
X81583037Y-118859042D01*
X81730838Y-119005303D01*
X81827071Y-119100534D01*
X81829929Y-119102775D01*
X82094812Y-119310469D01*
X82100098Y-119314614D01*
X82395921Y-119495895D01*
X82399206Y-119497420D01*
X82399210Y-119497422D01*
X82585702Y-119583988D01*
X82710620Y-119641973D01*
X82814926Y-119676469D01*
X83036578Y-119749774D01*
X83036583Y-119749775D01*
X83040023Y-119750913D01*
X83043578Y-119751649D01*
X83043581Y-119751650D01*
X83376214Y-119820535D01*
X83376217Y-119820535D01*
X83379764Y-119821270D01*
X83518221Y-119833627D01*
X83682076Y-119848251D01*
X83682082Y-119848251D01*
X83684869Y-119848500D01*
X83908432Y-119848500D01*
X83910251Y-119848395D01*
X83910255Y-119848395D01*
X84162754Y-119833836D01*
X84162759Y-119833835D01*
X84166374Y-119833627D01*
X84241388Y-119820535D01*
X84504585Y-119774600D01*
X84504592Y-119774598D01*
X84508158Y-119773976D01*
X84511633Y-119772947D01*
X84511640Y-119772945D01*
X84644863Y-119733482D01*
X84840820Y-119675437D01*
X84844159Y-119674013D01*
X85156614Y-119540740D01*
X85156617Y-119540738D01*
X85159952Y-119539316D01*
X85163099Y-119537521D01*
X85163103Y-119537519D01*
X85458184Y-119369208D01*
X85461324Y-119367417D01*
X85545546Y-119305550D01*
X85565265Y-119291065D01*
X85740940Y-119162018D01*
X85995096Y-118925842D01*
X86220422Y-118662019D01*
X86413931Y-118374047D01*
X86573060Y-118065741D01*
X86695698Y-117741189D01*
X86728630Y-117610083D01*
X86779337Y-117408206D01*
X86780220Y-117404692D01*
X86803376Y-117228807D01*
X86825032Y-117064315D01*
X86825033Y-117064307D01*
X86825506Y-117060711D01*
X86828938Y-116842234D01*
X86828973Y-116840000D01*
X90291445Y-116840000D01*
X90311651Y-117225559D01*
X90312164Y-117228799D01*
X90312165Y-117228807D01*
X90339454Y-117401099D01*
X90372049Y-117606894D01*
X90471976Y-117979826D01*
X90610337Y-118340270D01*
X90611835Y-118343210D01*
X90774277Y-118662019D01*
X90785618Y-118684277D01*
X90995896Y-119008078D01*
X91238869Y-119308125D01*
X91511875Y-119581131D01*
X91811922Y-119824104D01*
X91814697Y-119825906D01*
X92049483Y-119978377D01*
X92135723Y-120034382D01*
X92138657Y-120035877D01*
X92138664Y-120035881D01*
X92476790Y-120208165D01*
X92479730Y-120209663D01*
X92840174Y-120348024D01*
X93213106Y-120447951D01*
X93415643Y-120480030D01*
X93591193Y-120507835D01*
X93591201Y-120507836D01*
X93594441Y-120508349D01*
X93883543Y-120523500D01*
X94076457Y-120523500D01*
X94365559Y-120508349D01*
X94368799Y-120507836D01*
X94368807Y-120507835D01*
X94544357Y-120480030D01*
X94746894Y-120447951D01*
X95119826Y-120348024D01*
X95480270Y-120209663D01*
X95483210Y-120208165D01*
X95821336Y-120035881D01*
X95821343Y-120035877D01*
X95824277Y-120034382D01*
X95910518Y-119978377D01*
X96145303Y-119825906D01*
X96148078Y-119824104D01*
X96448125Y-119581131D01*
X96721131Y-119308125D01*
X96964104Y-119008078D01*
X97064387Y-118853655D01*
X97172584Y-118687047D01*
X97172586Y-118687044D01*
X97174382Y-118684278D01*
X97175882Y-118681336D01*
X97348165Y-118343210D01*
X97349663Y-118340270D01*
X97488024Y-117979826D01*
X97587951Y-117606894D01*
X97620546Y-117401099D01*
X97647835Y-117228807D01*
X97647836Y-117228799D01*
X97648349Y-117225559D01*
X97668555Y-116840000D01*
X97648349Y-116454441D01*
X97640048Y-116402026D01*
X97589585Y-116083425D01*
X97587951Y-116073106D01*
X97488024Y-115700174D01*
X97349663Y-115339730D01*
X97246908Y-115138062D01*
X97175881Y-114998664D01*
X97175877Y-114998657D01*
X97174382Y-114995723D01*
X96964104Y-114671922D01*
X96721131Y-114371875D01*
X96448125Y-114098869D01*
X96148078Y-113855896D01*
X95824277Y-113645618D01*
X95821343Y-113644123D01*
X95821336Y-113644119D01*
X95483210Y-113471835D01*
X95480270Y-113470337D01*
X95119826Y-113331976D01*
X94746894Y-113232049D01*
X94544357Y-113199970D01*
X94368807Y-113172165D01*
X94368799Y-113172164D01*
X94365559Y-113171651D01*
X94076457Y-113156500D01*
X93883543Y-113156500D01*
X93594441Y-113171651D01*
X93591201Y-113172164D01*
X93591193Y-113172165D01*
X93415643Y-113199970D01*
X93213106Y-113232049D01*
X92840174Y-113331976D01*
X92479730Y-113470337D01*
X92476790Y-113471835D01*
X92138664Y-113644119D01*
X92138657Y-113644123D01*
X92135723Y-113645618D01*
X91811922Y-113855896D01*
X91511875Y-114098869D01*
X91238869Y-114371875D01*
X90995896Y-114671922D01*
X90994094Y-114674697D01*
X90787416Y-114992953D01*
X90787414Y-114992956D01*
X90785618Y-114995722D01*
X90784123Y-114998656D01*
X90784119Y-114998663D01*
X90727876Y-115109047D01*
X90610337Y-115339730D01*
X90471976Y-115700174D01*
X90372049Y-116073106D01*
X90370415Y-116083425D01*
X90319953Y-116402026D01*
X90311651Y-116454441D01*
X90291445Y-116840000D01*
X86828973Y-116840000D01*
X86830899Y-116717446D01*
X86830899Y-116717442D01*
X86830956Y-116713804D01*
X86821163Y-116615685D01*
X86796857Y-116372177D01*
X86796497Y-116368569D01*
X86744582Y-116130465D01*
X86723359Y-116033128D01*
X86723359Y-116033127D01*
X86722586Y-116029583D01*
X86715765Y-116009658D01*
X86611376Y-115704765D01*
X86610203Y-115701339D01*
X86460837Y-115388188D01*
X86276468Y-115094279D01*
X86274196Y-115091443D01*
X86274191Y-115091436D01*
X86061813Y-114826345D01*
X86059541Y-114823509D01*
X85936235Y-114701487D01*
X85815507Y-114582017D01*
X85815506Y-114582016D01*
X85812929Y-114579466D01*
X85548178Y-114371875D01*
X85542759Y-114367626D01*
X85542757Y-114367625D01*
X85539902Y-114365386D01*
X85244079Y-114184105D01*
X85240794Y-114182580D01*
X85240790Y-114182578D01*
X84932663Y-114039551D01*
X84929380Y-114038027D01*
X84759112Y-113981716D01*
X84603422Y-113930226D01*
X84603417Y-113930225D01*
X84599977Y-113929087D01*
X84596422Y-113928351D01*
X84596419Y-113928350D01*
X84263786Y-113859465D01*
X84263783Y-113859465D01*
X84260236Y-113858730D01*
X84099773Y-113844409D01*
X83957924Y-113831749D01*
X83957918Y-113831749D01*
X83955131Y-113831500D01*
X83731568Y-113831500D01*
X83729749Y-113831605D01*
X83729745Y-113831605D01*
X83477246Y-113846164D01*
X83477241Y-113846165D01*
X83473626Y-113846373D01*
X83429387Y-113854094D01*
X83135415Y-113905400D01*
X83135408Y-113905402D01*
X83131842Y-113906024D01*
X83128367Y-113907053D01*
X83128360Y-113907055D01*
X83050137Y-113930226D01*
X82799180Y-114004563D01*
X82795844Y-114005986D01*
X82795841Y-114005987D01*
X82483386Y-114139260D01*
X82483383Y-114139262D01*
X82480048Y-114140684D01*
X82476901Y-114142479D01*
X82476897Y-114142481D01*
X82261020Y-114265615D01*
X82178676Y-114312583D01*
X82175764Y-114314722D01*
X82175761Y-114314724D01*
X82074735Y-114388935D01*
X81899060Y-114517982D01*
X81896407Y-114520448D01*
X81896405Y-114520449D01*
X81835307Y-114577225D01*
X81644904Y-114754158D01*
X81419578Y-115017981D01*
X81226069Y-115305953D01*
X81066940Y-115614259D01*
X80944302Y-115938811D01*
X80943418Y-115942332D01*
X80943416Y-115942337D01*
X80909750Y-116076367D01*
X80859780Y-116275308D01*
X80859307Y-116278901D01*
X80835764Y-116457731D01*
X80814494Y-116619289D01*
X80814437Y-116622927D01*
X80811027Y-116840000D01*
X80809044Y-116966196D01*
X78615189Y-116966196D01*
X78618493Y-116840000D01*
X78598863Y-116399218D01*
X78594747Y-116368569D01*
X78556446Y-116083425D01*
X78540127Y-115961927D01*
X78535695Y-115942337D01*
X78455793Y-115589224D01*
X78442751Y-115531587D01*
X78402775Y-115407447D01*
X78316025Y-115138062D01*
X78307506Y-115111608D01*
X78301475Y-115097364D01*
X78136553Y-114707888D01*
X78136553Y-114707887D01*
X78135463Y-114705314D01*
X78119150Y-114674697D01*
X77929305Y-114318403D01*
X77929305Y-114318402D01*
X77927983Y-114315922D01*
X77686710Y-113946515D01*
X77659569Y-113912086D01*
X77415284Y-113602212D01*
X77415282Y-113602210D01*
X77413555Y-113600019D01*
X77110679Y-113279176D01*
X76780481Y-112986527D01*
X76425575Y-112724390D01*
X76226938Y-112603379D01*
X76051161Y-112496294D01*
X76051154Y-112496290D01*
X76048772Y-112494839D01*
X75922617Y-112432626D01*
X75856847Y-112400192D01*
X75653055Y-112299693D01*
X75650459Y-112298688D01*
X75650446Y-112298683D01*
X75340147Y-112178638D01*
X75241558Y-112140497D01*
X74986723Y-112067184D01*
X74820218Y-112019282D01*
X74820212Y-112019281D01*
X74817537Y-112018511D01*
X74814800Y-112017982D01*
X74814794Y-112017980D01*
X74387099Y-111935231D01*
X74387089Y-111935229D01*
X74384352Y-111934700D01*
X73945431Y-111889729D01*
X73942639Y-111889692D01*
X73942631Y-111889692D01*
X73674465Y-111886182D01*
X73504250Y-111883954D01*
X73501450Y-111884167D01*
X73501449Y-111884167D01*
X73446254Y-111888366D01*
X73064302Y-111917420D01*
X73061539Y-111917880D01*
X73061538Y-111917880D01*
X72631846Y-111989400D01*
X72631843Y-111989401D01*
X72629071Y-111989862D01*
X72626359Y-111990566D01*
X72626349Y-111990568D01*
X72204721Y-112100001D01*
X72204710Y-112100004D01*
X72202003Y-112100707D01*
X71936099Y-112195653D01*
X71789122Y-112248133D01*
X71789117Y-112248135D01*
X71786479Y-112249077D01*
X71783939Y-112250248D01*
X71783934Y-112250250D01*
X71673995Y-112300933D01*
X71385789Y-112433798D01*
X71003107Y-112653406D01*
X71000804Y-112655015D01*
X71000797Y-112655020D01*
X70888163Y-112733741D01*
X70641461Y-112906163D01*
X70303715Y-113190068D01*
X69992544Y-113502872D01*
X69962599Y-113538877D01*
X69712211Y-113839936D01*
X69712203Y-113839947D01*
X69710412Y-113842100D01*
X69708818Y-113844407D01*
X69708816Y-113844409D01*
X69472729Y-114185999D01*
X69459552Y-114205064D01*
X69241950Y-114588891D01*
X69240791Y-114591440D01*
X69240789Y-114591444D01*
X69238633Y-114596186D01*
X69059330Y-114990543D01*
X69058408Y-114993169D01*
X69058403Y-114993181D01*
X68975149Y-115230257D01*
X68913138Y-115406838D01*
X68912447Y-115409558D01*
X68912446Y-115409562D01*
X68822865Y-115762291D01*
X68804531Y-115834481D01*
X68734368Y-116270085D01*
X68703206Y-116710202D01*
X64008500Y-116710202D01*
X64008500Y-110995202D01*
X111883206Y-110995202D01*
X111891291Y-111436346D01*
X111938560Y-111875026D01*
X111939106Y-111877769D01*
X111939107Y-111877778D01*
X112024092Y-112305028D01*
X112024637Y-112307766D01*
X112148842Y-112731142D01*
X112149862Y-112733738D01*
X112149863Y-112733741D01*
X112292506Y-113096789D01*
X112310191Y-113141801D01*
X112325363Y-113172165D01*
X112489614Y-113500881D01*
X112507407Y-113536491D01*
X112738927Y-113912086D01*
X113002919Y-114265615D01*
X113004780Y-114267693D01*
X113004781Y-114267694D01*
X113292469Y-114588891D01*
X113297292Y-114594276D01*
X113299329Y-114596179D01*
X113299336Y-114596186D01*
X113471397Y-114756916D01*
X113619716Y-114895468D01*
X113621912Y-114897181D01*
X113621916Y-114897184D01*
X113878597Y-115097364D01*
X113967638Y-115166805D01*
X114338303Y-115406141D01*
X114728776Y-115611579D01*
X114731374Y-115612663D01*
X114731378Y-115612665D01*
X115133367Y-115780408D01*
X115133377Y-115780412D01*
X115135966Y-115781492D01*
X115556648Y-115914536D01*
X115559378Y-115915139D01*
X115559379Y-115915139D01*
X115783896Y-115964708D01*
X115987491Y-116009658D01*
X115990265Y-116010016D01*
X115990266Y-116010016D01*
X116422313Y-116065746D01*
X116422323Y-116065747D01*
X116425084Y-116066103D01*
X116427871Y-116066213D01*
X116427877Y-116066213D01*
X116683637Y-116076261D01*
X116865962Y-116083425D01*
X116868754Y-116083286D01*
X116868759Y-116083286D01*
X117303831Y-116061627D01*
X117303840Y-116061626D01*
X117306635Y-116061487D01*
X117309412Y-116061099D01*
X117309414Y-116061099D01*
X117384530Y-116050609D01*
X117743614Y-116000463D01*
X117746324Y-115999835D01*
X117746334Y-115999833D01*
X118170710Y-115901467D01*
X118173437Y-115900835D01*
X118393734Y-115828618D01*
X118590050Y-115764263D01*
X118590056Y-115764261D01*
X118592703Y-115763393D01*
X118998090Y-115589224D01*
X119386391Y-115379709D01*
X119754529Y-115136505D01*
X120099591Y-114861539D01*
X120418843Y-114556987D01*
X120420680Y-114554893D01*
X120420688Y-114554884D01*
X120707912Y-114227367D01*
X120709759Y-114225261D01*
X120739826Y-114184105D01*
X120926667Y-113928350D01*
X120970034Y-113868988D01*
X121013439Y-113796893D01*
X121196158Y-113493399D01*
X121196163Y-113493390D01*
X121197609Y-113490988D01*
X121390680Y-113094255D01*
X121529996Y-112728466D01*
X121546723Y-112684547D01*
X121546724Y-112684545D01*
X121547720Y-112681929D01*
X121555765Y-112653406D01*
X121623396Y-112413599D01*
X121667484Y-112257276D01*
X121669026Y-112249077D01*
X121748509Y-111826405D01*
X121748511Y-111826393D01*
X121749025Y-111823658D01*
X121791698Y-111384507D01*
X121798493Y-111125000D01*
X121778863Y-110684218D01*
X121720127Y-110246927D01*
X121622751Y-109816587D01*
X121582579Y-109691838D01*
X121488359Y-109399257D01*
X121487506Y-109396608D01*
X121315463Y-108990314D01*
X121253430Y-108873891D01*
X121109305Y-108603403D01*
X121109305Y-108603402D01*
X121107983Y-108600922D01*
X120866710Y-108231515D01*
X120786217Y-108129409D01*
X120595284Y-107887212D01*
X120595282Y-107887210D01*
X120593555Y-107885019D01*
X120290679Y-107564176D01*
X119960481Y-107271527D01*
X119605575Y-107009390D01*
X119406938Y-106888379D01*
X119231161Y-106781294D01*
X119231154Y-106781290D01*
X119228772Y-106779839D01*
X119102617Y-106717626D01*
X118835569Y-106585933D01*
X118833055Y-106584693D01*
X118830459Y-106583688D01*
X118830446Y-106583683D01*
X118520147Y-106463638D01*
X118421558Y-106425497D01*
X118166723Y-106352184D01*
X118000218Y-106304282D01*
X118000212Y-106304281D01*
X117997537Y-106303511D01*
X117994800Y-106302982D01*
X117994794Y-106302980D01*
X117567099Y-106220231D01*
X117567089Y-106220229D01*
X117564352Y-106219700D01*
X117125431Y-106174729D01*
X117122639Y-106174692D01*
X117122631Y-106174692D01*
X116854465Y-106171182D01*
X116684250Y-106168954D01*
X116681450Y-106169167D01*
X116681449Y-106169167D01*
X116626254Y-106173366D01*
X116244302Y-106202420D01*
X116241539Y-106202880D01*
X116241538Y-106202880D01*
X115811846Y-106274400D01*
X115811843Y-106274401D01*
X115809071Y-106274862D01*
X115806359Y-106275566D01*
X115806349Y-106275568D01*
X115384721Y-106385001D01*
X115384710Y-106385004D01*
X115382003Y-106385707D01*
X115116099Y-106480653D01*
X114969122Y-106533133D01*
X114969117Y-106533135D01*
X114966479Y-106534077D01*
X114963939Y-106535248D01*
X114963934Y-106535250D01*
X114853995Y-106585933D01*
X114565789Y-106718798D01*
X114183107Y-106938406D01*
X114180804Y-106940015D01*
X114180797Y-106940020D01*
X113823770Y-107189549D01*
X113821461Y-107191163D01*
X113483715Y-107475068D01*
X113172544Y-107787872D01*
X113170748Y-107790032D01*
X112892211Y-108124936D01*
X112892203Y-108124947D01*
X112890412Y-108127100D01*
X112639552Y-108490064D01*
X112421950Y-108873891D01*
X112239330Y-109275543D01*
X112238408Y-109278169D01*
X112238403Y-109278181D01*
X112197714Y-109394047D01*
X112093138Y-109691838D01*
X111984531Y-110119481D01*
X111914368Y-110555085D01*
X111883206Y-110995202D01*
X64008500Y-110995202D01*
X64008500Y-92580202D01*
X68703206Y-92580202D01*
X68711291Y-93021346D01*
X68758560Y-93460026D01*
X68759106Y-93462769D01*
X68759107Y-93462778D01*
X68836514Y-93851929D01*
X68844637Y-93892766D01*
X68845420Y-93895435D01*
X68845421Y-93895439D01*
X68924470Y-94164892D01*
X68968842Y-94316142D01*
X68969862Y-94318738D01*
X68969863Y-94318741D01*
X69112506Y-94681789D01*
X69130191Y-94726801D01*
X69205780Y-94878078D01*
X69283771Y-95034161D01*
X69327407Y-95121491D01*
X69558927Y-95497086D01*
X69822919Y-95850615D01*
X69824780Y-95852693D01*
X69824781Y-95852694D01*
X70085623Y-96143918D01*
X70117292Y-96179276D01*
X70119329Y-96181179D01*
X70119336Y-96181186D01*
X70266295Y-96318467D01*
X70439716Y-96480468D01*
X70787638Y-96751805D01*
X71158303Y-96991141D01*
X71548776Y-97196579D01*
X71551374Y-97197663D01*
X71551378Y-97197665D01*
X71953367Y-97365408D01*
X71953377Y-97365412D01*
X71955966Y-97366492D01*
X72376648Y-97499536D01*
X72807491Y-97594658D01*
X72810265Y-97595016D01*
X72810266Y-97595016D01*
X73242313Y-97650746D01*
X73242323Y-97650747D01*
X73245084Y-97651103D01*
X73247871Y-97651213D01*
X73247877Y-97651213D01*
X73503637Y-97661261D01*
X73685962Y-97668425D01*
X73688754Y-97668286D01*
X73688759Y-97668286D01*
X74123831Y-97646627D01*
X74123840Y-97646626D01*
X74126635Y-97646487D01*
X74129412Y-97646099D01*
X74129414Y-97646099D01*
X74204530Y-97635609D01*
X74563614Y-97585463D01*
X74566324Y-97584835D01*
X74566334Y-97584833D01*
X74990710Y-97486467D01*
X74993437Y-97485835D01*
X75213734Y-97413618D01*
X75410050Y-97349263D01*
X75410056Y-97349261D01*
X75412703Y-97348393D01*
X75818090Y-97174224D01*
X76206391Y-96964709D01*
X76574529Y-96721505D01*
X76919591Y-96446539D01*
X77238843Y-96141987D01*
X77240680Y-96139893D01*
X77240688Y-96139884D01*
X77527912Y-95812367D01*
X77529759Y-95810261D01*
X77607661Y-95703627D01*
X77748786Y-95510449D01*
X77790034Y-95453988D01*
X77844211Y-95364001D01*
X78016158Y-95078399D01*
X78016163Y-95078390D01*
X78017609Y-95075988D01*
X78187542Y-94726801D01*
X78209447Y-94681789D01*
X78209448Y-94681786D01*
X78210680Y-94679255D01*
X78367720Y-94266929D01*
X78374174Y-94244047D01*
X78462081Y-93932350D01*
X78487484Y-93842276D01*
X78530300Y-93614589D01*
X78568509Y-93411405D01*
X78568511Y-93411393D01*
X78569025Y-93408658D01*
X78599134Y-93098807D01*
X78611483Y-92971724D01*
X78611484Y-92971712D01*
X78611698Y-92969507D01*
X78615189Y-92836196D01*
X80809044Y-92836196D01*
X80809405Y-92839810D01*
X80809405Y-92839816D01*
X80822350Y-92969507D01*
X80843503Y-93181431D01*
X80917414Y-93520417D01*
X81029797Y-93848661D01*
X81179163Y-94161812D01*
X81363532Y-94455721D01*
X81365804Y-94458557D01*
X81365809Y-94458564D01*
X81444708Y-94557046D01*
X81580459Y-94726491D01*
X81583037Y-94729042D01*
X81730838Y-94875303D01*
X81827071Y-94970534D01*
X81829929Y-94972775D01*
X82094812Y-95180469D01*
X82100098Y-95184614D01*
X82395921Y-95365895D01*
X82399206Y-95367420D01*
X82399210Y-95367422D01*
X82585702Y-95453988D01*
X82710620Y-95511973D01*
X82814926Y-95546469D01*
X83036578Y-95619774D01*
X83036583Y-95619775D01*
X83040023Y-95620913D01*
X83043578Y-95621649D01*
X83043581Y-95621650D01*
X83376214Y-95690535D01*
X83376217Y-95690535D01*
X83379764Y-95691270D01*
X83518221Y-95703627D01*
X83682076Y-95718251D01*
X83682082Y-95718251D01*
X83684869Y-95718500D01*
X83908432Y-95718500D01*
X83910251Y-95718395D01*
X83910255Y-95718395D01*
X84162754Y-95703836D01*
X84162759Y-95703835D01*
X84166374Y-95703627D01*
X84241388Y-95690535D01*
X84504585Y-95644600D01*
X84504592Y-95644598D01*
X84508158Y-95643976D01*
X84511633Y-95642947D01*
X84511640Y-95642945D01*
X84644863Y-95603482D01*
X84840820Y-95545437D01*
X84844159Y-95544013D01*
X85156614Y-95410740D01*
X85156617Y-95410738D01*
X85159952Y-95409316D01*
X85163099Y-95407521D01*
X85163103Y-95407519D01*
X85458184Y-95239208D01*
X85461324Y-95237417D01*
X85545546Y-95175550D01*
X85565265Y-95161065D01*
X85740940Y-95032018D01*
X85995096Y-94795842D01*
X86220422Y-94532019D01*
X86413931Y-94244047D01*
X86573060Y-93935741D01*
X86695698Y-93611189D01*
X86728630Y-93480083D01*
X86779337Y-93278206D01*
X86780220Y-93274692D01*
X86803376Y-93098807D01*
X86825032Y-92934315D01*
X86825033Y-92934307D01*
X86825506Y-92930711D01*
X86828938Y-92712234D01*
X86828973Y-92710000D01*
X90291445Y-92710000D01*
X90311651Y-93095559D01*
X90312164Y-93098799D01*
X90312165Y-93098807D01*
X90339454Y-93271099D01*
X90372049Y-93476894D01*
X90471976Y-93849826D01*
X90610337Y-94210270D01*
X90611835Y-94213210D01*
X90774277Y-94532019D01*
X90785618Y-94554277D01*
X90995896Y-94878078D01*
X91238869Y-95178125D01*
X91511875Y-95451131D01*
X91811922Y-95694104D01*
X91814697Y-95695906D01*
X92049483Y-95848377D01*
X92135723Y-95904382D01*
X92138657Y-95905877D01*
X92138664Y-95905881D01*
X92476790Y-96078165D01*
X92479730Y-96079663D01*
X92840174Y-96218024D01*
X93213106Y-96317951D01*
X93415643Y-96350030D01*
X93591193Y-96377835D01*
X93591201Y-96377836D01*
X93594441Y-96378349D01*
X93883543Y-96393500D01*
X94076457Y-96393500D01*
X94365559Y-96378349D01*
X94368799Y-96377836D01*
X94368807Y-96377835D01*
X94544357Y-96350030D01*
X94746894Y-96317951D01*
X95119826Y-96218024D01*
X95480270Y-96079663D01*
X95483210Y-96078165D01*
X95821336Y-95905881D01*
X95821343Y-95905877D01*
X95824277Y-95904382D01*
X95910518Y-95848377D01*
X96145303Y-95695906D01*
X96148078Y-95694104D01*
X96448125Y-95451131D01*
X96721131Y-95178125D01*
X96964104Y-94878078D01*
X97064387Y-94723655D01*
X97172584Y-94557047D01*
X97172586Y-94557044D01*
X97174382Y-94554278D01*
X97175882Y-94551336D01*
X97348165Y-94213210D01*
X97349663Y-94210270D01*
X97488024Y-93849826D01*
X97587951Y-93476894D01*
X97620546Y-93271099D01*
X97647835Y-93098807D01*
X97647836Y-93098799D01*
X97648349Y-93095559D01*
X97668555Y-92710000D01*
X113151445Y-92710000D01*
X113171651Y-93095559D01*
X113172164Y-93098799D01*
X113172165Y-93098807D01*
X113199454Y-93271099D01*
X113232049Y-93476894D01*
X113331976Y-93849826D01*
X113470337Y-94210270D01*
X113471835Y-94213210D01*
X113634277Y-94532019D01*
X113645618Y-94554277D01*
X113855896Y-94878078D01*
X114098869Y-95178125D01*
X114371875Y-95451131D01*
X114671922Y-95694104D01*
X114674697Y-95695906D01*
X114909483Y-95848377D01*
X114995723Y-95904382D01*
X114998657Y-95905877D01*
X114998664Y-95905881D01*
X115336790Y-96078165D01*
X115339730Y-96079663D01*
X115700174Y-96218024D01*
X116073106Y-96317951D01*
X116275643Y-96350030D01*
X116451193Y-96377835D01*
X116451201Y-96377836D01*
X116454441Y-96378349D01*
X116743543Y-96393500D01*
X116936457Y-96393500D01*
X117225559Y-96378349D01*
X117228799Y-96377836D01*
X117228807Y-96377835D01*
X117404357Y-96350030D01*
X117606894Y-96317951D01*
X117979826Y-96218024D01*
X118340270Y-96079663D01*
X118343210Y-96078165D01*
X118681336Y-95905881D01*
X118681343Y-95905877D01*
X118684277Y-95904382D01*
X118770518Y-95848377D01*
X119005303Y-95695906D01*
X119008078Y-95694104D01*
X119308125Y-95451131D01*
X119581131Y-95178125D01*
X119824104Y-94878078D01*
X119924387Y-94723655D01*
X120032584Y-94557047D01*
X120032586Y-94557044D01*
X120034382Y-94554278D01*
X120035882Y-94551336D01*
X120208165Y-94213210D01*
X120209663Y-94210270D01*
X120348024Y-93849826D01*
X120447951Y-93476894D01*
X120480546Y-93271099D01*
X120507835Y-93098807D01*
X120507836Y-93098799D01*
X120508349Y-93095559D01*
X120528555Y-92710000D01*
X120508349Y-92324441D01*
X120500048Y-92272026D01*
X120448467Y-91946367D01*
X120447951Y-91943106D01*
X120348024Y-91570174D01*
X120209663Y-91209730D01*
X120190922Y-91172949D01*
X120035881Y-90868664D01*
X120035877Y-90868657D01*
X120034382Y-90865723D01*
X119824104Y-90541922D01*
X119581131Y-90241875D01*
X119308125Y-89968869D01*
X119008078Y-89725896D01*
X118684277Y-89515618D01*
X118681343Y-89514123D01*
X118681336Y-89514119D01*
X118343210Y-89341835D01*
X118340270Y-89340337D01*
X117979826Y-89201976D01*
X117606894Y-89102049D01*
X117404357Y-89069970D01*
X117228807Y-89042165D01*
X117228799Y-89042164D01*
X117225559Y-89041651D01*
X116936457Y-89026500D01*
X116743543Y-89026500D01*
X116454441Y-89041651D01*
X116451201Y-89042164D01*
X116451193Y-89042165D01*
X116275643Y-89069970D01*
X116073106Y-89102049D01*
X115700174Y-89201976D01*
X115339730Y-89340337D01*
X115336790Y-89341835D01*
X114998664Y-89514119D01*
X114998657Y-89514123D01*
X114995723Y-89515618D01*
X114671922Y-89725896D01*
X114371875Y-89968869D01*
X114098869Y-90241875D01*
X113855896Y-90541922D01*
X113854094Y-90544697D01*
X113647416Y-90862953D01*
X113647414Y-90862956D01*
X113645618Y-90865722D01*
X113644123Y-90868656D01*
X113644119Y-90868663D01*
X113587876Y-90979047D01*
X113470337Y-91209730D01*
X113331976Y-91570174D01*
X113232049Y-91943106D01*
X113231533Y-91946367D01*
X113179953Y-92272026D01*
X113171651Y-92324441D01*
X113151445Y-92710000D01*
X97668555Y-92710000D01*
X97648349Y-92324441D01*
X97640048Y-92272026D01*
X97588467Y-91946367D01*
X97587951Y-91943106D01*
X97488024Y-91570174D01*
X97349663Y-91209730D01*
X97330922Y-91172949D01*
X97175881Y-90868664D01*
X97175877Y-90868657D01*
X97174382Y-90865723D01*
X96964104Y-90541922D01*
X96721131Y-90241875D01*
X96448125Y-89968869D01*
X96148078Y-89725896D01*
X95824277Y-89515618D01*
X95821343Y-89514123D01*
X95821336Y-89514119D01*
X95483210Y-89341835D01*
X95480270Y-89340337D01*
X95119826Y-89201976D01*
X94746894Y-89102049D01*
X94544357Y-89069970D01*
X94368807Y-89042165D01*
X94368799Y-89042164D01*
X94365559Y-89041651D01*
X94076457Y-89026500D01*
X93883543Y-89026500D01*
X93594441Y-89041651D01*
X93591201Y-89042164D01*
X93591193Y-89042165D01*
X93415643Y-89069970D01*
X93213106Y-89102049D01*
X92840174Y-89201976D01*
X92479730Y-89340337D01*
X92476790Y-89341835D01*
X92138664Y-89514119D01*
X92138657Y-89514123D01*
X92135723Y-89515618D01*
X91811922Y-89725896D01*
X91511875Y-89968869D01*
X91238869Y-90241875D01*
X90995896Y-90541922D01*
X90994094Y-90544697D01*
X90787416Y-90862953D01*
X90787414Y-90862956D01*
X90785618Y-90865722D01*
X90784123Y-90868656D01*
X90784119Y-90868663D01*
X90727876Y-90979047D01*
X90610337Y-91209730D01*
X90471976Y-91570174D01*
X90372049Y-91943106D01*
X90371533Y-91946367D01*
X90319953Y-92272026D01*
X90311651Y-92324441D01*
X90291445Y-92710000D01*
X86828973Y-92710000D01*
X86830899Y-92587446D01*
X86830899Y-92587442D01*
X86830956Y-92583804D01*
X86821163Y-92485685D01*
X86796857Y-92242177D01*
X86796497Y-92238569D01*
X86722586Y-91899583D01*
X86700375Y-91834708D01*
X86611376Y-91574765D01*
X86610203Y-91571339D01*
X86460837Y-91258188D01*
X86276468Y-90964279D01*
X86274196Y-90961443D01*
X86274191Y-90961436D01*
X86061813Y-90696345D01*
X86059541Y-90693509D01*
X85936235Y-90571487D01*
X85815507Y-90452017D01*
X85815506Y-90452016D01*
X85812929Y-90449466D01*
X85548178Y-90241875D01*
X85542759Y-90237626D01*
X85542757Y-90237625D01*
X85539902Y-90235386D01*
X85244079Y-90054105D01*
X85240794Y-90052580D01*
X85240790Y-90052578D01*
X84932663Y-89909551D01*
X84929380Y-89908027D01*
X84759112Y-89851716D01*
X84603422Y-89800226D01*
X84603417Y-89800225D01*
X84599977Y-89799087D01*
X84596422Y-89798351D01*
X84596419Y-89798350D01*
X84263786Y-89729465D01*
X84263783Y-89729465D01*
X84260236Y-89728730D01*
X84099773Y-89714409D01*
X83957924Y-89701749D01*
X83957918Y-89701749D01*
X83955131Y-89701500D01*
X83731568Y-89701500D01*
X83729749Y-89701605D01*
X83729745Y-89701605D01*
X83477246Y-89716164D01*
X83477241Y-89716165D01*
X83473626Y-89716373D01*
X83429387Y-89724094D01*
X83135415Y-89775400D01*
X83135408Y-89775402D01*
X83131842Y-89776024D01*
X83128367Y-89777053D01*
X83128360Y-89777055D01*
X83050137Y-89800226D01*
X82799180Y-89874563D01*
X82795844Y-89875986D01*
X82795841Y-89875987D01*
X82483386Y-90009260D01*
X82483383Y-90009262D01*
X82480048Y-90010684D01*
X82476901Y-90012479D01*
X82476897Y-90012481D01*
X82400602Y-90055999D01*
X82178676Y-90182583D01*
X82175764Y-90184722D01*
X82175761Y-90184724D01*
X82074735Y-90258935D01*
X81899060Y-90387982D01*
X81644904Y-90624158D01*
X81419578Y-90887981D01*
X81226069Y-91175953D01*
X81066940Y-91484259D01*
X80944302Y-91808811D01*
X80943418Y-91812332D01*
X80943416Y-91812337D01*
X80909750Y-91946367D01*
X80859780Y-92145308D01*
X80859307Y-92148901D01*
X80835764Y-92327731D01*
X80814494Y-92489289D01*
X80814437Y-92492927D01*
X80811027Y-92710000D01*
X80809044Y-92836196D01*
X78615189Y-92836196D01*
X78618493Y-92710000D01*
X78598863Y-92269218D01*
X78594747Y-92238569D01*
X78554632Y-91939917D01*
X78540127Y-91831927D01*
X78535695Y-91812337D01*
X78443368Y-91404315D01*
X78442751Y-91401587D01*
X78402579Y-91276838D01*
X78308359Y-90984257D01*
X78307506Y-90981608D01*
X78301475Y-90967364D01*
X78136553Y-90577888D01*
X78136553Y-90577887D01*
X78135463Y-90575314D01*
X78119150Y-90544697D01*
X77929305Y-90188403D01*
X77929305Y-90188402D01*
X77927983Y-90185922D01*
X77686710Y-89816515D01*
X77655603Y-89777055D01*
X77415284Y-89472212D01*
X77415282Y-89472210D01*
X77413555Y-89470019D01*
X77110679Y-89149176D01*
X76780481Y-88856527D01*
X76425575Y-88594390D01*
X76226938Y-88473379D01*
X76051161Y-88366294D01*
X76051154Y-88366290D01*
X76048772Y-88364839D01*
X75922617Y-88302626D01*
X75655569Y-88170933D01*
X75653055Y-88169693D01*
X75650459Y-88168688D01*
X75650446Y-88168683D01*
X75340147Y-88048638D01*
X75241558Y-88010497D01*
X74986723Y-87937184D01*
X74820218Y-87889282D01*
X74820212Y-87889281D01*
X74817537Y-87888511D01*
X74814800Y-87887982D01*
X74814794Y-87887980D01*
X74387099Y-87805231D01*
X74387089Y-87805229D01*
X74384352Y-87804700D01*
X73945431Y-87759729D01*
X73942639Y-87759692D01*
X73942631Y-87759692D01*
X73674465Y-87756182D01*
X73504250Y-87753954D01*
X73501450Y-87754167D01*
X73501449Y-87754167D01*
X73446254Y-87758366D01*
X73064302Y-87787420D01*
X73061539Y-87787880D01*
X73061538Y-87787880D01*
X72631846Y-87859400D01*
X72631843Y-87859401D01*
X72629071Y-87859862D01*
X72626359Y-87860566D01*
X72626349Y-87860568D01*
X72204721Y-87970001D01*
X72204710Y-87970004D01*
X72202003Y-87970707D01*
X71936099Y-88065653D01*
X71789122Y-88118133D01*
X71789117Y-88118135D01*
X71786479Y-88119077D01*
X71783939Y-88120248D01*
X71783934Y-88120250D01*
X71673995Y-88170933D01*
X71385789Y-88303798D01*
X71003107Y-88523406D01*
X71000804Y-88525015D01*
X71000797Y-88525020D01*
X70643770Y-88774549D01*
X70641461Y-88776163D01*
X70303715Y-89060068D01*
X69992544Y-89372872D01*
X69990748Y-89375032D01*
X69712211Y-89709936D01*
X69712203Y-89709947D01*
X69710412Y-89712100D01*
X69708818Y-89714407D01*
X69708816Y-89714409D01*
X69472729Y-90055999D01*
X69459552Y-90075064D01*
X69241950Y-90458891D01*
X69059330Y-90860543D01*
X69058408Y-90863169D01*
X69058403Y-90863181D01*
X69021817Y-90967364D01*
X68913138Y-91276838D01*
X68912447Y-91279558D01*
X68912446Y-91279562D01*
X68805222Y-91701760D01*
X68804531Y-91704481D01*
X68734368Y-92140085D01*
X68703206Y-92580202D01*
X64008500Y-92580202D01*
X64008500Y-80771196D01*
X113829044Y-80771196D01*
X113829405Y-80774810D01*
X113829405Y-80774816D01*
X113853694Y-81018157D01*
X113863503Y-81116431D01*
X113937414Y-81455417D01*
X114049797Y-81783661D01*
X114199163Y-82096812D01*
X114383532Y-82390721D01*
X114385804Y-82393557D01*
X114385809Y-82393564D01*
X114442252Y-82464016D01*
X114600459Y-82661491D01*
X114847071Y-82905534D01*
X115120098Y-83119614D01*
X115415921Y-83300895D01*
X115419206Y-83302420D01*
X115419210Y-83302422D01*
X115658653Y-83413567D01*
X115730620Y-83446973D01*
X115834926Y-83481469D01*
X116056578Y-83554774D01*
X116056583Y-83554775D01*
X116060023Y-83555913D01*
X116063578Y-83556649D01*
X116063581Y-83556650D01*
X116396214Y-83625535D01*
X116396217Y-83625535D01*
X116399764Y-83626270D01*
X116538221Y-83638627D01*
X116702076Y-83653251D01*
X116702082Y-83653251D01*
X116704869Y-83653500D01*
X116928432Y-83653500D01*
X116930251Y-83653395D01*
X116930255Y-83653395D01*
X117182754Y-83638836D01*
X117182759Y-83638835D01*
X117186374Y-83638627D01*
X117261388Y-83625535D01*
X117524585Y-83579600D01*
X117524592Y-83579598D01*
X117528158Y-83578976D01*
X117531633Y-83577947D01*
X117531640Y-83577945D01*
X117664863Y-83538482D01*
X117860820Y-83480437D01*
X117864159Y-83479013D01*
X118176614Y-83345740D01*
X118176617Y-83345738D01*
X118179952Y-83344316D01*
X118183099Y-83342521D01*
X118183103Y-83342519D01*
X118478184Y-83174208D01*
X118481324Y-83172417D01*
X118760940Y-82967018D01*
X119015096Y-82730842D01*
X119240422Y-82467019D01*
X119433931Y-82179047D01*
X119593060Y-81870741D01*
X119715698Y-81546189D01*
X119800220Y-81209692D01*
X119845506Y-80865711D01*
X119850956Y-80518804D01*
X119841163Y-80420685D01*
X119816857Y-80177177D01*
X119816497Y-80173569D01*
X119742586Y-79834583D01*
X119630203Y-79506339D01*
X119480837Y-79193188D01*
X119296468Y-78899279D01*
X119294196Y-78896443D01*
X119294191Y-78896436D01*
X119081813Y-78631345D01*
X119079541Y-78628509D01*
X118832929Y-78384466D01*
X118559902Y-78170386D01*
X118264079Y-77989105D01*
X118260794Y-77987580D01*
X118260790Y-77987578D01*
X117952663Y-77844551D01*
X117949380Y-77843027D01*
X117779112Y-77786716D01*
X117623422Y-77735226D01*
X117623417Y-77735225D01*
X117619977Y-77734087D01*
X117616422Y-77733351D01*
X117616419Y-77733350D01*
X117283786Y-77664465D01*
X117283783Y-77664465D01*
X117280236Y-77663730D01*
X117125947Y-77649960D01*
X116977924Y-77636749D01*
X116977918Y-77636749D01*
X116975131Y-77636500D01*
X116751568Y-77636500D01*
X116749749Y-77636605D01*
X116749745Y-77636605D01*
X116497246Y-77651164D01*
X116497241Y-77651165D01*
X116493626Y-77651373D01*
X116424669Y-77663408D01*
X116155415Y-77710400D01*
X116155408Y-77710402D01*
X116151842Y-77711024D01*
X116148367Y-77712053D01*
X116148360Y-77712055D01*
X116070137Y-77735226D01*
X115819180Y-77809563D01*
X115815844Y-77810986D01*
X115815841Y-77810987D01*
X115503386Y-77944260D01*
X115503383Y-77944262D01*
X115500048Y-77945684D01*
X115496901Y-77947479D01*
X115496897Y-77947481D01*
X115420602Y-77990999D01*
X115198676Y-78117583D01*
X114919060Y-78322982D01*
X114664904Y-78559158D01*
X114439578Y-78822981D01*
X114246069Y-79110953D01*
X114086940Y-79419259D01*
X113964302Y-79743811D01*
X113879780Y-80080308D01*
X113834494Y-80424289D01*
X113829044Y-80771196D01*
X64008500Y-80771196D01*
X64008500Y-68450202D01*
X68703206Y-68450202D01*
X68711291Y-68891346D01*
X68758560Y-69330026D01*
X68759106Y-69332769D01*
X68759107Y-69332778D01*
X68836514Y-69721929D01*
X68844637Y-69762766D01*
X68845420Y-69765435D01*
X68845421Y-69765439D01*
X68924470Y-70034892D01*
X68968842Y-70186142D01*
X68969862Y-70188738D01*
X68969863Y-70188741D01*
X69112506Y-70551789D01*
X69130191Y-70596801D01*
X69205780Y-70748078D01*
X69283771Y-70904161D01*
X69327407Y-70991491D01*
X69558927Y-71367086D01*
X69822919Y-71720615D01*
X69824780Y-71722693D01*
X69824781Y-71722694D01*
X70085623Y-72013918D01*
X70117292Y-72049276D01*
X70119329Y-72051179D01*
X70119336Y-72051186D01*
X70266295Y-72188467D01*
X70439716Y-72350468D01*
X70787638Y-72621805D01*
X71158303Y-72861141D01*
X71548776Y-73066579D01*
X71551374Y-73067663D01*
X71551378Y-73067665D01*
X71953367Y-73235408D01*
X71953377Y-73235412D01*
X71955966Y-73236492D01*
X72376648Y-73369536D01*
X72807491Y-73464658D01*
X72810265Y-73465016D01*
X72810266Y-73465016D01*
X73242313Y-73520746D01*
X73242323Y-73520747D01*
X73245084Y-73521103D01*
X73247871Y-73521213D01*
X73247877Y-73521213D01*
X73503637Y-73531261D01*
X73685962Y-73538425D01*
X73688754Y-73538286D01*
X73688759Y-73538286D01*
X74123831Y-73516627D01*
X74123840Y-73516626D01*
X74126635Y-73516487D01*
X74129412Y-73516099D01*
X74129414Y-73516099D01*
X74204530Y-73505609D01*
X74563614Y-73455463D01*
X74566324Y-73454835D01*
X74566334Y-73454833D01*
X74990710Y-73356467D01*
X74993437Y-73355835D01*
X75213734Y-73283618D01*
X75410050Y-73219263D01*
X75410056Y-73219261D01*
X75412703Y-73218393D01*
X75818090Y-73044224D01*
X76206391Y-72834709D01*
X76574529Y-72591505D01*
X76919591Y-72316539D01*
X77238843Y-72011987D01*
X77240680Y-72009893D01*
X77240688Y-72009884D01*
X77527912Y-71682367D01*
X77529759Y-71680261D01*
X77607661Y-71573627D01*
X77748786Y-71380449D01*
X77790034Y-71323988D01*
X77844211Y-71234001D01*
X78016158Y-70948399D01*
X78016163Y-70948390D01*
X78017609Y-70945988D01*
X78187542Y-70596801D01*
X78209447Y-70551789D01*
X78209448Y-70551786D01*
X78210680Y-70549255D01*
X78367720Y-70136929D01*
X78374174Y-70114047D01*
X78462081Y-69802350D01*
X78487484Y-69712276D01*
X78530300Y-69484589D01*
X78568509Y-69281405D01*
X78568511Y-69281393D01*
X78569025Y-69278658D01*
X78599134Y-68968807D01*
X78611483Y-68841724D01*
X78611484Y-68841712D01*
X78611698Y-68839507D01*
X78615189Y-68706196D01*
X80809044Y-68706196D01*
X80809405Y-68709810D01*
X80809405Y-68709816D01*
X80822350Y-68839507D01*
X80843503Y-69051431D01*
X80917414Y-69390417D01*
X81029797Y-69718661D01*
X81179163Y-70031812D01*
X81363532Y-70325721D01*
X81365804Y-70328557D01*
X81365809Y-70328564D01*
X81444708Y-70427046D01*
X81580459Y-70596491D01*
X81583037Y-70599042D01*
X81730838Y-70745303D01*
X81827071Y-70840534D01*
X81829929Y-70842775D01*
X82094812Y-71050469D01*
X82100098Y-71054614D01*
X82395921Y-71235895D01*
X82399206Y-71237420D01*
X82399210Y-71237422D01*
X82585702Y-71323988D01*
X82710620Y-71381973D01*
X82814926Y-71416469D01*
X83036578Y-71489774D01*
X83036583Y-71489775D01*
X83040023Y-71490913D01*
X83043578Y-71491649D01*
X83043581Y-71491650D01*
X83376214Y-71560535D01*
X83376217Y-71560535D01*
X83379764Y-71561270D01*
X83518221Y-71573627D01*
X83682076Y-71588251D01*
X83682082Y-71588251D01*
X83684869Y-71588500D01*
X83908432Y-71588500D01*
X83910251Y-71588395D01*
X83910255Y-71588395D01*
X84162754Y-71573836D01*
X84162759Y-71573835D01*
X84166374Y-71573627D01*
X84241388Y-71560535D01*
X84504585Y-71514600D01*
X84504592Y-71514598D01*
X84508158Y-71513976D01*
X84511633Y-71512947D01*
X84511640Y-71512945D01*
X84644863Y-71473482D01*
X84840820Y-71415437D01*
X84844159Y-71414013D01*
X85156614Y-71280740D01*
X85156617Y-71280738D01*
X85159952Y-71279316D01*
X85163099Y-71277521D01*
X85163103Y-71277519D01*
X85458184Y-71109208D01*
X85461324Y-71107417D01*
X85545546Y-71045550D01*
X85565265Y-71031065D01*
X85740940Y-70902018D01*
X85995096Y-70665842D01*
X86220422Y-70402019D01*
X86413931Y-70114047D01*
X86573060Y-69805741D01*
X86695698Y-69481189D01*
X86728630Y-69350083D01*
X86779337Y-69148206D01*
X86780220Y-69144692D01*
X86803376Y-68968807D01*
X86825032Y-68804315D01*
X86825033Y-68804307D01*
X86825506Y-68800711D01*
X86828938Y-68582234D01*
X86828973Y-68580000D01*
X90291445Y-68580000D01*
X90311651Y-68965559D01*
X90312164Y-68968799D01*
X90312165Y-68968807D01*
X90339454Y-69141099D01*
X90372049Y-69346894D01*
X90471976Y-69719826D01*
X90610337Y-70080270D01*
X90611835Y-70083210D01*
X90774277Y-70402019D01*
X90785618Y-70424277D01*
X90995896Y-70748078D01*
X91238869Y-71048125D01*
X91511875Y-71321131D01*
X91811922Y-71564104D01*
X91814697Y-71565906D01*
X92049483Y-71718377D01*
X92135723Y-71774382D01*
X92138657Y-71775877D01*
X92138664Y-71775881D01*
X92476790Y-71948165D01*
X92479730Y-71949663D01*
X92840174Y-72088024D01*
X93213106Y-72187951D01*
X93415643Y-72220030D01*
X93591193Y-72247835D01*
X93591201Y-72247836D01*
X93594441Y-72248349D01*
X93883543Y-72263500D01*
X94076457Y-72263500D01*
X94365559Y-72248349D01*
X94368799Y-72247836D01*
X94368807Y-72247835D01*
X94544357Y-72220030D01*
X94746894Y-72187951D01*
X95119826Y-72088024D01*
X95480270Y-71949663D01*
X95483210Y-71948165D01*
X95821336Y-71775881D01*
X95821343Y-71775877D01*
X95824277Y-71774382D01*
X95910518Y-71718377D01*
X96145303Y-71565906D01*
X96148078Y-71564104D01*
X96448125Y-71321131D01*
X96721131Y-71048125D01*
X96964104Y-70748078D01*
X97064387Y-70593655D01*
X97172584Y-70427047D01*
X97172586Y-70427044D01*
X97174382Y-70424278D01*
X97175882Y-70421336D01*
X97348165Y-70083210D01*
X97349663Y-70080270D01*
X97488024Y-69719826D01*
X97587951Y-69346894D01*
X97620546Y-69141099D01*
X97647835Y-68968807D01*
X97647836Y-68968799D01*
X97648349Y-68965559D01*
X97668555Y-68580000D01*
X113151445Y-68580000D01*
X113171651Y-68965559D01*
X113172164Y-68968799D01*
X113172165Y-68968807D01*
X113199454Y-69141099D01*
X113232049Y-69346894D01*
X113331976Y-69719826D01*
X113470337Y-70080270D01*
X113471835Y-70083210D01*
X113634277Y-70402019D01*
X113645618Y-70424277D01*
X113855896Y-70748078D01*
X114098869Y-71048125D01*
X114371875Y-71321131D01*
X114671922Y-71564104D01*
X114674697Y-71565906D01*
X114909483Y-71718377D01*
X114995723Y-71774382D01*
X114998657Y-71775877D01*
X114998664Y-71775881D01*
X115336790Y-71948165D01*
X115339730Y-71949663D01*
X115700174Y-72088024D01*
X116073106Y-72187951D01*
X116275643Y-72220030D01*
X116451193Y-72247835D01*
X116451201Y-72247836D01*
X116454441Y-72248349D01*
X116743543Y-72263500D01*
X116936457Y-72263500D01*
X117225559Y-72248349D01*
X117228799Y-72247836D01*
X117228807Y-72247835D01*
X117404357Y-72220030D01*
X117606894Y-72187951D01*
X117979826Y-72088024D01*
X118340270Y-71949663D01*
X118343210Y-71948165D01*
X118681336Y-71775881D01*
X118681343Y-71775877D01*
X118684277Y-71774382D01*
X118770518Y-71718377D01*
X119005303Y-71565906D01*
X119008078Y-71564104D01*
X119308125Y-71321131D01*
X119581131Y-71048125D01*
X119824104Y-70748078D01*
X119924387Y-70593655D01*
X120032584Y-70427047D01*
X120032586Y-70427044D01*
X120034382Y-70424278D01*
X120035882Y-70421336D01*
X120208165Y-70083210D01*
X120209663Y-70080270D01*
X120348024Y-69719826D01*
X120447951Y-69346894D01*
X120480546Y-69141099D01*
X120507835Y-68968807D01*
X120507836Y-68968799D01*
X120508349Y-68965559D01*
X120528555Y-68580000D01*
X120508349Y-68194441D01*
X120500048Y-68142026D01*
X120448467Y-67816367D01*
X120447951Y-67813106D01*
X120348024Y-67440174D01*
X120209663Y-67079730D01*
X120190922Y-67042949D01*
X120035881Y-66738664D01*
X120035877Y-66738657D01*
X120034382Y-66735723D01*
X119824104Y-66411922D01*
X119581131Y-66111875D01*
X119308125Y-65838869D01*
X119008078Y-65595896D01*
X118684277Y-65385618D01*
X118681343Y-65384123D01*
X118681336Y-65384119D01*
X118343210Y-65211835D01*
X118340270Y-65210337D01*
X117979826Y-65071976D01*
X117606894Y-64972049D01*
X117404357Y-64939970D01*
X117228807Y-64912165D01*
X117228799Y-64912164D01*
X117225559Y-64911651D01*
X116936457Y-64896500D01*
X116743543Y-64896500D01*
X116454441Y-64911651D01*
X116451201Y-64912164D01*
X116451193Y-64912165D01*
X116275643Y-64939970D01*
X116073106Y-64972049D01*
X115700174Y-65071976D01*
X115339730Y-65210337D01*
X115336790Y-65211835D01*
X114998664Y-65384119D01*
X114998657Y-65384123D01*
X114995723Y-65385618D01*
X114671922Y-65595896D01*
X114371875Y-65838869D01*
X114098869Y-66111875D01*
X113855896Y-66411922D01*
X113854094Y-66414697D01*
X113647416Y-66732953D01*
X113647414Y-66732956D01*
X113645618Y-66735722D01*
X113644123Y-66738656D01*
X113644119Y-66738663D01*
X113587876Y-66849047D01*
X113470337Y-67079730D01*
X113331976Y-67440174D01*
X113232049Y-67813106D01*
X113231533Y-67816367D01*
X113179953Y-68142026D01*
X113171651Y-68194441D01*
X113151445Y-68580000D01*
X97668555Y-68580000D01*
X97648349Y-68194441D01*
X97640048Y-68142026D01*
X97588467Y-67816367D01*
X97587951Y-67813106D01*
X97488024Y-67440174D01*
X97349663Y-67079730D01*
X97330922Y-67042949D01*
X97175881Y-66738664D01*
X97175877Y-66738657D01*
X97174382Y-66735723D01*
X96964104Y-66411922D01*
X96721131Y-66111875D01*
X96448125Y-65838869D01*
X96148078Y-65595896D01*
X95824277Y-65385618D01*
X95821343Y-65384123D01*
X95821336Y-65384119D01*
X95483210Y-65211835D01*
X95480270Y-65210337D01*
X95119826Y-65071976D01*
X94746894Y-64972049D01*
X94544357Y-64939970D01*
X94368807Y-64912165D01*
X94368799Y-64912164D01*
X94365559Y-64911651D01*
X94076457Y-64896500D01*
X93883543Y-64896500D01*
X93594441Y-64911651D01*
X93591201Y-64912164D01*
X93591193Y-64912165D01*
X93415643Y-64939970D01*
X93213106Y-64972049D01*
X92840174Y-65071976D01*
X92479730Y-65210337D01*
X92476790Y-65211835D01*
X92138664Y-65384119D01*
X92138657Y-65384123D01*
X92135723Y-65385618D01*
X91811922Y-65595896D01*
X91511875Y-65838869D01*
X91238869Y-66111875D01*
X90995896Y-66411922D01*
X90994094Y-66414697D01*
X90787416Y-66732953D01*
X90787414Y-66732956D01*
X90785618Y-66735722D01*
X90784123Y-66738656D01*
X90784119Y-66738663D01*
X90727876Y-66849047D01*
X90610337Y-67079730D01*
X90471976Y-67440174D01*
X90372049Y-67813106D01*
X90371533Y-67816367D01*
X90319953Y-68142026D01*
X90311651Y-68194441D01*
X90291445Y-68580000D01*
X86828973Y-68580000D01*
X86830899Y-68457446D01*
X86830899Y-68457442D01*
X86830956Y-68453804D01*
X86821163Y-68355685D01*
X86796857Y-68112177D01*
X86796497Y-68108569D01*
X86722586Y-67769583D01*
X86700375Y-67704708D01*
X86611376Y-67444765D01*
X86610203Y-67441339D01*
X86460837Y-67128188D01*
X86276468Y-66834279D01*
X86274196Y-66831443D01*
X86274191Y-66831436D01*
X86061813Y-66566345D01*
X86059541Y-66563509D01*
X85936235Y-66441487D01*
X85815507Y-66322017D01*
X85815506Y-66322016D01*
X85812929Y-66319466D01*
X85548178Y-66111875D01*
X85542759Y-66107626D01*
X85542757Y-66107625D01*
X85539902Y-66105386D01*
X85244079Y-65924105D01*
X85240794Y-65922580D01*
X85240790Y-65922578D01*
X84932663Y-65779551D01*
X84929380Y-65778027D01*
X84759112Y-65721716D01*
X84603422Y-65670226D01*
X84603417Y-65670225D01*
X84599977Y-65669087D01*
X84596422Y-65668351D01*
X84596419Y-65668350D01*
X84263786Y-65599465D01*
X84263783Y-65599465D01*
X84260236Y-65598730D01*
X84099773Y-65584409D01*
X83957924Y-65571749D01*
X83957918Y-65571749D01*
X83955131Y-65571500D01*
X83731568Y-65571500D01*
X83729749Y-65571605D01*
X83729745Y-65571605D01*
X83477246Y-65586164D01*
X83477241Y-65586165D01*
X83473626Y-65586373D01*
X83429387Y-65594094D01*
X83135415Y-65645400D01*
X83135408Y-65645402D01*
X83131842Y-65646024D01*
X83128367Y-65647053D01*
X83128360Y-65647055D01*
X83050137Y-65670226D01*
X82799180Y-65744563D01*
X82795844Y-65745986D01*
X82795841Y-65745987D01*
X82483386Y-65879260D01*
X82483383Y-65879262D01*
X82480048Y-65880684D01*
X82476901Y-65882479D01*
X82476897Y-65882481D01*
X82400602Y-65925999D01*
X82178676Y-66052583D01*
X82175764Y-66054722D01*
X82175761Y-66054724D01*
X82074735Y-66128935D01*
X81899060Y-66257982D01*
X81644904Y-66494158D01*
X81419578Y-66757981D01*
X81226069Y-67045953D01*
X81066940Y-67354259D01*
X80944302Y-67678811D01*
X80943418Y-67682332D01*
X80943416Y-67682337D01*
X80909750Y-67816367D01*
X80859780Y-68015308D01*
X80859307Y-68018901D01*
X80835764Y-68197731D01*
X80814494Y-68359289D01*
X80814437Y-68362927D01*
X80811027Y-68580000D01*
X80809044Y-68706196D01*
X78615189Y-68706196D01*
X78618493Y-68580000D01*
X78598863Y-68139218D01*
X78594747Y-68108569D01*
X78554632Y-67809917D01*
X78540127Y-67701927D01*
X78535695Y-67682337D01*
X78443368Y-67274315D01*
X78442751Y-67271587D01*
X78402579Y-67146838D01*
X78308359Y-66854257D01*
X78307506Y-66851608D01*
X78301475Y-66837364D01*
X78136553Y-66447888D01*
X78136553Y-66447887D01*
X78135463Y-66445314D01*
X78119150Y-66414697D01*
X77929305Y-66058403D01*
X77929305Y-66058402D01*
X77927983Y-66055922D01*
X77686710Y-65686515D01*
X77655603Y-65647055D01*
X77415284Y-65342212D01*
X77415282Y-65342210D01*
X77413555Y-65340019D01*
X77110679Y-65019176D01*
X76780481Y-64726527D01*
X76425575Y-64464390D01*
X76226938Y-64343379D01*
X76051161Y-64236294D01*
X76051154Y-64236290D01*
X76048772Y-64234839D01*
X75922617Y-64172626D01*
X75655569Y-64040933D01*
X75653055Y-64039693D01*
X75650459Y-64038688D01*
X75650446Y-64038683D01*
X75340147Y-63918638D01*
X75241558Y-63880497D01*
X74986723Y-63807184D01*
X74820218Y-63759282D01*
X74820212Y-63759281D01*
X74817537Y-63758511D01*
X74814800Y-63757982D01*
X74814794Y-63757980D01*
X74387099Y-63675231D01*
X74387089Y-63675229D01*
X74384352Y-63674700D01*
X73945431Y-63629729D01*
X73942639Y-63629692D01*
X73942631Y-63629692D01*
X73674465Y-63626182D01*
X73504250Y-63623954D01*
X73501450Y-63624167D01*
X73501449Y-63624167D01*
X73446254Y-63628366D01*
X73064302Y-63657420D01*
X73061539Y-63657880D01*
X73061538Y-63657880D01*
X72631846Y-63729400D01*
X72631843Y-63729401D01*
X72629071Y-63729862D01*
X72626359Y-63730566D01*
X72626349Y-63730568D01*
X72204721Y-63840001D01*
X72204710Y-63840004D01*
X72202003Y-63840707D01*
X71936099Y-63935653D01*
X71789122Y-63988133D01*
X71789117Y-63988135D01*
X71786479Y-63989077D01*
X71783939Y-63990248D01*
X71783934Y-63990250D01*
X71673995Y-64040933D01*
X71385789Y-64173798D01*
X71003107Y-64393406D01*
X71000804Y-64395015D01*
X71000797Y-64395020D01*
X70643770Y-64644549D01*
X70641461Y-64646163D01*
X70303715Y-64930068D01*
X69992544Y-65242872D01*
X69990748Y-65245032D01*
X69712211Y-65579936D01*
X69712203Y-65579947D01*
X69710412Y-65582100D01*
X69708818Y-65584407D01*
X69708816Y-65584409D01*
X69472729Y-65925999D01*
X69459552Y-65945064D01*
X69241950Y-66328891D01*
X69059330Y-66730543D01*
X69058408Y-66733169D01*
X69058403Y-66733181D01*
X69021817Y-66837364D01*
X68913138Y-67146838D01*
X68912447Y-67149558D01*
X68912446Y-67149562D01*
X68805222Y-67571760D01*
X68804531Y-67574481D01*
X68734368Y-68010085D01*
X68703206Y-68450202D01*
X64008500Y-68450202D01*
X64008500Y-44320202D01*
X68703206Y-44320202D01*
X68711291Y-44761346D01*
X68758560Y-45200026D01*
X68759106Y-45202769D01*
X68759107Y-45202778D01*
X68836514Y-45591929D01*
X68844637Y-45632766D01*
X68845420Y-45635435D01*
X68845421Y-45635439D01*
X68924470Y-45904892D01*
X68968842Y-46056142D01*
X68969862Y-46058738D01*
X68969863Y-46058741D01*
X69112506Y-46421789D01*
X69130191Y-46466801D01*
X69205780Y-46618078D01*
X69283771Y-46774161D01*
X69327407Y-46861491D01*
X69558927Y-47237086D01*
X69822919Y-47590615D01*
X69824780Y-47592693D01*
X69824781Y-47592694D01*
X70085623Y-47883918D01*
X70117292Y-47919276D01*
X70119329Y-47921179D01*
X70119336Y-47921186D01*
X70266295Y-48058467D01*
X70439716Y-48220468D01*
X70787638Y-48491805D01*
X71158303Y-48731141D01*
X71548776Y-48936579D01*
X71551374Y-48937663D01*
X71551378Y-48937665D01*
X71953367Y-49105408D01*
X71953377Y-49105412D01*
X71955966Y-49106492D01*
X72376648Y-49239536D01*
X72807491Y-49334658D01*
X72810265Y-49335016D01*
X72810266Y-49335016D01*
X73242313Y-49390746D01*
X73242323Y-49390747D01*
X73245084Y-49391103D01*
X73247871Y-49391213D01*
X73247877Y-49391213D01*
X73503637Y-49401261D01*
X73685962Y-49408425D01*
X73688754Y-49408286D01*
X73688759Y-49408286D01*
X74123831Y-49386627D01*
X74123840Y-49386626D01*
X74126635Y-49386487D01*
X74129412Y-49386099D01*
X74129414Y-49386099D01*
X74204530Y-49375609D01*
X74563614Y-49325463D01*
X74566324Y-49324835D01*
X74566334Y-49324833D01*
X74990710Y-49226467D01*
X74993437Y-49225835D01*
X75213734Y-49153618D01*
X75410050Y-49089263D01*
X75410056Y-49089261D01*
X75412703Y-49088393D01*
X75818090Y-48914224D01*
X76206391Y-48704709D01*
X76574529Y-48461505D01*
X76919591Y-48186539D01*
X77238843Y-47881987D01*
X77240680Y-47879893D01*
X77240688Y-47879884D01*
X77527912Y-47552367D01*
X77529759Y-47550261D01*
X77607661Y-47443627D01*
X77748786Y-47250449D01*
X77790034Y-47193988D01*
X77844211Y-47104001D01*
X78016158Y-46818399D01*
X78016163Y-46818390D01*
X78017609Y-46815988D01*
X78187542Y-46466801D01*
X78209447Y-46421789D01*
X78209448Y-46421786D01*
X78210680Y-46419255D01*
X78367720Y-46006929D01*
X78374174Y-45984047D01*
X78462081Y-45672350D01*
X78487484Y-45582276D01*
X78530300Y-45354589D01*
X78568509Y-45151405D01*
X78568511Y-45151393D01*
X78569025Y-45148658D01*
X78599134Y-44838807D01*
X78611483Y-44711724D01*
X78611484Y-44711712D01*
X78611698Y-44709507D01*
X78615189Y-44576196D01*
X80809044Y-44576196D01*
X80809405Y-44579810D01*
X80809405Y-44579816D01*
X80822350Y-44709507D01*
X80843503Y-44921431D01*
X80917414Y-45260417D01*
X81029797Y-45588661D01*
X81179163Y-45901812D01*
X81363532Y-46195721D01*
X81365804Y-46198557D01*
X81365809Y-46198564D01*
X81444708Y-46297046D01*
X81580459Y-46466491D01*
X81583037Y-46469042D01*
X81730838Y-46615303D01*
X81827071Y-46710534D01*
X81829929Y-46712775D01*
X82094812Y-46920469D01*
X82100098Y-46924614D01*
X82395921Y-47105895D01*
X82399206Y-47107420D01*
X82399210Y-47107422D01*
X82585702Y-47193988D01*
X82710620Y-47251973D01*
X82814926Y-47286469D01*
X83036578Y-47359774D01*
X83036583Y-47359775D01*
X83040023Y-47360913D01*
X83043578Y-47361649D01*
X83043581Y-47361650D01*
X83376214Y-47430535D01*
X83376217Y-47430535D01*
X83379764Y-47431270D01*
X83518221Y-47443627D01*
X83682076Y-47458251D01*
X83682082Y-47458251D01*
X83684869Y-47458500D01*
X83908432Y-47458500D01*
X83910251Y-47458395D01*
X83910255Y-47458395D01*
X84162754Y-47443836D01*
X84162759Y-47443835D01*
X84166374Y-47443627D01*
X84241388Y-47430535D01*
X84504585Y-47384600D01*
X84504592Y-47384598D01*
X84508158Y-47383976D01*
X84511633Y-47382947D01*
X84511640Y-47382945D01*
X84644863Y-47343482D01*
X84840820Y-47285437D01*
X84844159Y-47284013D01*
X85156614Y-47150740D01*
X85156617Y-47150738D01*
X85159952Y-47149316D01*
X85163099Y-47147521D01*
X85163103Y-47147519D01*
X85458184Y-46979208D01*
X85461324Y-46977417D01*
X85545546Y-46915550D01*
X85565265Y-46901065D01*
X85740940Y-46772018D01*
X85995096Y-46535842D01*
X86220422Y-46272019D01*
X86413931Y-45984047D01*
X86573060Y-45675741D01*
X86695698Y-45351189D01*
X86728630Y-45220083D01*
X86779337Y-45018206D01*
X86780220Y-45014692D01*
X86803376Y-44838807D01*
X86825032Y-44674315D01*
X86825033Y-44674307D01*
X86825506Y-44670711D01*
X86828938Y-44452234D01*
X86828973Y-44450000D01*
X90291445Y-44450000D01*
X90311651Y-44835559D01*
X90312164Y-44838799D01*
X90312165Y-44838807D01*
X90339454Y-45011099D01*
X90372049Y-45216894D01*
X90471976Y-45589826D01*
X90610337Y-45950270D01*
X90611835Y-45953210D01*
X90774277Y-46272019D01*
X90785618Y-46294277D01*
X90995896Y-46618078D01*
X91238869Y-46918125D01*
X91511875Y-47191131D01*
X91811922Y-47434104D01*
X91814697Y-47435906D01*
X92049483Y-47588377D01*
X92135723Y-47644382D01*
X92138657Y-47645877D01*
X92138664Y-47645881D01*
X92476790Y-47818165D01*
X92479730Y-47819663D01*
X92840174Y-47958024D01*
X93213106Y-48057951D01*
X93415643Y-48090030D01*
X93591193Y-48117835D01*
X93591201Y-48117836D01*
X93594441Y-48118349D01*
X93883543Y-48133500D01*
X94076457Y-48133500D01*
X94365559Y-48118349D01*
X94368799Y-48117836D01*
X94368807Y-48117835D01*
X94544357Y-48090030D01*
X94746894Y-48057951D01*
X95119826Y-47958024D01*
X95480270Y-47819663D01*
X95483210Y-47818165D01*
X95821336Y-47645881D01*
X95821343Y-47645877D01*
X95824277Y-47644382D01*
X95910518Y-47588377D01*
X96145303Y-47435906D01*
X96148078Y-47434104D01*
X96448125Y-47191131D01*
X96721131Y-46918125D01*
X96964104Y-46618078D01*
X97064387Y-46463655D01*
X97172584Y-46297047D01*
X97172586Y-46297044D01*
X97174382Y-46294278D01*
X97175882Y-46291336D01*
X97348165Y-45953210D01*
X97349663Y-45950270D01*
X97488024Y-45589826D01*
X97587951Y-45216894D01*
X97620546Y-45011099D01*
X97647835Y-44838807D01*
X97647836Y-44838799D01*
X97648349Y-44835559D01*
X97668555Y-44450000D01*
X113151445Y-44450000D01*
X113171651Y-44835559D01*
X113172164Y-44838799D01*
X113172165Y-44838807D01*
X113199454Y-45011099D01*
X113232049Y-45216894D01*
X113331976Y-45589826D01*
X113470337Y-45950270D01*
X113471835Y-45953210D01*
X113634277Y-46272019D01*
X113645618Y-46294277D01*
X113855896Y-46618078D01*
X114098869Y-46918125D01*
X114371875Y-47191131D01*
X114671922Y-47434104D01*
X114674697Y-47435906D01*
X114909483Y-47588377D01*
X114995723Y-47644382D01*
X114998657Y-47645877D01*
X114998664Y-47645881D01*
X115336790Y-47818165D01*
X115339730Y-47819663D01*
X115700174Y-47958024D01*
X116073106Y-48057951D01*
X116275643Y-48090030D01*
X116451193Y-48117835D01*
X116451201Y-48117836D01*
X116454441Y-48118349D01*
X116743543Y-48133500D01*
X116936457Y-48133500D01*
X117225559Y-48118349D01*
X117228799Y-48117836D01*
X117228807Y-48117835D01*
X117404357Y-48090030D01*
X117606894Y-48057951D01*
X117979826Y-47958024D01*
X118340270Y-47819663D01*
X118343210Y-47818165D01*
X118681336Y-47645881D01*
X118681343Y-47645877D01*
X118684277Y-47644382D01*
X118770518Y-47588377D01*
X119005303Y-47435906D01*
X119008078Y-47434104D01*
X119308125Y-47191131D01*
X119581131Y-46918125D01*
X119824104Y-46618078D01*
X119924387Y-46463655D01*
X120032584Y-46297047D01*
X120032586Y-46297044D01*
X120034382Y-46294278D01*
X120035882Y-46291336D01*
X120208165Y-45953210D01*
X120209663Y-45950270D01*
X120348024Y-45589826D01*
X120447951Y-45216894D01*
X120480546Y-45011099D01*
X120507835Y-44838807D01*
X120507836Y-44838799D01*
X120508349Y-44835559D01*
X120528555Y-44450000D01*
X120508349Y-44064441D01*
X120500048Y-44012026D01*
X120448467Y-43686367D01*
X120447951Y-43683106D01*
X120348024Y-43310174D01*
X120209663Y-42949730D01*
X120190922Y-42912949D01*
X120035881Y-42608664D01*
X120035877Y-42608657D01*
X120034382Y-42605723D01*
X119824104Y-42281922D01*
X119581131Y-41981875D01*
X119308125Y-41708869D01*
X119008078Y-41465896D01*
X118684277Y-41255618D01*
X118681343Y-41254123D01*
X118681336Y-41254119D01*
X118343210Y-41081835D01*
X118340270Y-41080337D01*
X117979826Y-40941976D01*
X117606894Y-40842049D01*
X117404357Y-40809970D01*
X117228807Y-40782165D01*
X117228799Y-40782164D01*
X117225559Y-40781651D01*
X116936457Y-40766500D01*
X116743543Y-40766500D01*
X116454441Y-40781651D01*
X116451201Y-40782164D01*
X116451193Y-40782165D01*
X116275643Y-40809970D01*
X116073106Y-40842049D01*
X115700174Y-40941976D01*
X115339730Y-41080337D01*
X115336790Y-41081835D01*
X114998664Y-41254119D01*
X114998657Y-41254123D01*
X114995723Y-41255618D01*
X114671922Y-41465896D01*
X114371875Y-41708869D01*
X114098869Y-41981875D01*
X113855896Y-42281922D01*
X113854094Y-42284697D01*
X113647416Y-42602953D01*
X113647414Y-42602956D01*
X113645618Y-42605722D01*
X113644123Y-42608656D01*
X113644119Y-42608663D01*
X113587876Y-42719047D01*
X113470337Y-42949730D01*
X113331976Y-43310174D01*
X113232049Y-43683106D01*
X113231533Y-43686367D01*
X113179953Y-44012026D01*
X113171651Y-44064441D01*
X113151445Y-44450000D01*
X97668555Y-44450000D01*
X97648349Y-44064441D01*
X97640048Y-44012026D01*
X97588467Y-43686367D01*
X97587951Y-43683106D01*
X97488024Y-43310174D01*
X97349663Y-42949730D01*
X97330922Y-42912949D01*
X97175881Y-42608664D01*
X97175877Y-42608657D01*
X97174382Y-42605723D01*
X96964104Y-42281922D01*
X96721131Y-41981875D01*
X96448125Y-41708869D01*
X96148078Y-41465896D01*
X95824277Y-41255618D01*
X95821343Y-41254123D01*
X95821336Y-41254119D01*
X95483210Y-41081835D01*
X95480270Y-41080337D01*
X95119826Y-40941976D01*
X94746894Y-40842049D01*
X94544357Y-40809970D01*
X94368807Y-40782165D01*
X94368799Y-40782164D01*
X94365559Y-40781651D01*
X94076457Y-40766500D01*
X93883543Y-40766500D01*
X93594441Y-40781651D01*
X93591201Y-40782164D01*
X93591193Y-40782165D01*
X93415643Y-40809970D01*
X93213106Y-40842049D01*
X92840174Y-40941976D01*
X92479730Y-41080337D01*
X92476790Y-41081835D01*
X92138664Y-41254119D01*
X92138657Y-41254123D01*
X92135723Y-41255618D01*
X91811922Y-41465896D01*
X91511875Y-41708869D01*
X91238869Y-41981875D01*
X90995896Y-42281922D01*
X90994094Y-42284697D01*
X90787416Y-42602953D01*
X90787414Y-42602956D01*
X90785618Y-42605722D01*
X90784123Y-42608656D01*
X90784119Y-42608663D01*
X90727876Y-42719047D01*
X90610337Y-42949730D01*
X90471976Y-43310174D01*
X90372049Y-43683106D01*
X90371533Y-43686367D01*
X90319953Y-44012026D01*
X90311651Y-44064441D01*
X90291445Y-44450000D01*
X86828973Y-44450000D01*
X86830899Y-44327446D01*
X86830899Y-44327442D01*
X86830956Y-44323804D01*
X86821163Y-44225685D01*
X86796857Y-43982177D01*
X86796497Y-43978569D01*
X86722586Y-43639583D01*
X86700375Y-43574708D01*
X86611376Y-43314765D01*
X86610203Y-43311339D01*
X86460837Y-42998188D01*
X86276468Y-42704279D01*
X86274196Y-42701443D01*
X86274191Y-42701436D01*
X86061813Y-42436345D01*
X86059541Y-42433509D01*
X85936235Y-42311488D01*
X85815507Y-42192017D01*
X85815506Y-42192016D01*
X85812929Y-42189466D01*
X85548178Y-41981875D01*
X85542759Y-41977626D01*
X85542757Y-41977625D01*
X85539902Y-41975386D01*
X85244079Y-41794105D01*
X85240794Y-41792580D01*
X85240790Y-41792578D01*
X84932663Y-41649551D01*
X84929380Y-41648027D01*
X84759112Y-41591716D01*
X84603422Y-41540226D01*
X84603417Y-41540225D01*
X84599977Y-41539087D01*
X84596422Y-41538351D01*
X84596419Y-41538350D01*
X84263786Y-41469465D01*
X84263783Y-41469465D01*
X84260236Y-41468730D01*
X84099773Y-41454409D01*
X83957924Y-41441749D01*
X83957918Y-41441749D01*
X83955131Y-41441500D01*
X83731568Y-41441500D01*
X83729749Y-41441605D01*
X83729745Y-41441605D01*
X83477246Y-41456164D01*
X83477241Y-41456165D01*
X83473626Y-41456373D01*
X83429387Y-41464094D01*
X83135415Y-41515400D01*
X83135408Y-41515402D01*
X83131842Y-41516024D01*
X83128367Y-41517053D01*
X83128360Y-41517055D01*
X83050137Y-41540226D01*
X82799180Y-41614563D01*
X82795844Y-41615986D01*
X82795841Y-41615987D01*
X82483386Y-41749260D01*
X82483383Y-41749262D01*
X82480048Y-41750684D01*
X82476901Y-41752479D01*
X82476897Y-41752481D01*
X82400602Y-41795999D01*
X82178676Y-41922583D01*
X82175764Y-41924722D01*
X82175761Y-41924724D01*
X82074735Y-41998935D01*
X81899060Y-42127982D01*
X81644904Y-42364158D01*
X81419578Y-42627981D01*
X81226069Y-42915953D01*
X81066940Y-43224259D01*
X80944302Y-43548811D01*
X80943418Y-43552332D01*
X80943416Y-43552337D01*
X80909750Y-43686367D01*
X80859780Y-43885308D01*
X80859307Y-43888901D01*
X80835764Y-44067731D01*
X80814494Y-44229289D01*
X80814437Y-44232927D01*
X80811027Y-44450000D01*
X80809044Y-44576196D01*
X78615189Y-44576196D01*
X78618493Y-44450000D01*
X78598863Y-44009218D01*
X78594747Y-43978569D01*
X78554632Y-43679917D01*
X78540127Y-43571927D01*
X78535695Y-43552337D01*
X78443368Y-43144315D01*
X78442751Y-43141587D01*
X78402579Y-43016838D01*
X78308359Y-42724257D01*
X78307506Y-42721608D01*
X78301475Y-42707364D01*
X78136553Y-42317888D01*
X78136553Y-42317887D01*
X78135463Y-42315314D01*
X78119150Y-42284697D01*
X77929305Y-41928403D01*
X77929305Y-41928402D01*
X77927983Y-41925922D01*
X77686710Y-41556515D01*
X77655603Y-41517055D01*
X77415284Y-41212212D01*
X77415282Y-41212210D01*
X77413555Y-41210019D01*
X77110679Y-40889176D01*
X76780481Y-40596527D01*
X76425575Y-40334390D01*
X76226938Y-40213379D01*
X76051161Y-40106294D01*
X76051154Y-40106290D01*
X76048772Y-40104839D01*
X75922617Y-40042626D01*
X75655569Y-39910933D01*
X75653055Y-39909693D01*
X75650459Y-39908688D01*
X75650446Y-39908683D01*
X75340147Y-39788638D01*
X75241558Y-39750497D01*
X74986723Y-39677184D01*
X74820218Y-39629282D01*
X74820212Y-39629281D01*
X74817537Y-39628511D01*
X74814800Y-39627982D01*
X74814794Y-39627980D01*
X74387099Y-39545231D01*
X74387089Y-39545229D01*
X74384352Y-39544700D01*
X73945431Y-39499729D01*
X73942639Y-39499692D01*
X73942631Y-39499692D01*
X73674465Y-39496182D01*
X73504250Y-39493954D01*
X73501450Y-39494167D01*
X73501449Y-39494167D01*
X73446254Y-39498366D01*
X73064302Y-39527420D01*
X73061539Y-39527880D01*
X73061538Y-39527880D01*
X72631846Y-39599400D01*
X72631843Y-39599401D01*
X72629071Y-39599862D01*
X72626359Y-39600566D01*
X72626349Y-39600568D01*
X72204721Y-39710001D01*
X72204710Y-39710004D01*
X72202003Y-39710707D01*
X71936099Y-39805653D01*
X71789122Y-39858133D01*
X71789117Y-39858135D01*
X71786479Y-39859077D01*
X71783939Y-39860248D01*
X71783934Y-39860250D01*
X71673995Y-39910933D01*
X71385789Y-40043798D01*
X71003107Y-40263406D01*
X71000804Y-40265015D01*
X71000797Y-40265020D01*
X70643770Y-40514549D01*
X70641461Y-40516163D01*
X70303715Y-40800068D01*
X69992544Y-41112872D01*
X69990748Y-41115032D01*
X69712211Y-41449936D01*
X69712203Y-41449947D01*
X69710412Y-41452100D01*
X69708818Y-41454407D01*
X69708816Y-41454409D01*
X69472729Y-41795999D01*
X69459552Y-41815064D01*
X69241950Y-42198891D01*
X69059330Y-42600543D01*
X69058408Y-42603169D01*
X69058403Y-42603181D01*
X69021817Y-42707364D01*
X68913138Y-43016838D01*
X68912447Y-43019558D01*
X68912446Y-43019562D01*
X68805222Y-43441760D01*
X68804531Y-43444481D01*
X68734368Y-43880085D01*
X68703206Y-44320202D01*
X64008500Y-44320202D01*
X64008500Y-29215703D01*
X66470743Y-29215703D01*
X66508268Y-29500734D01*
X66584129Y-29778036D01*
X66696923Y-30042476D01*
X66844561Y-30289161D01*
X67024313Y-30513528D01*
X67232851Y-30711423D01*
X67466317Y-30879186D01*
X67470112Y-30881195D01*
X67470113Y-30881196D01*
X67491869Y-30892715D01*
X67720392Y-31013712D01*
X67990373Y-31112511D01*
X68271264Y-31173755D01*
X68299841Y-31176004D01*
X68494282Y-31191307D01*
X68494291Y-31191307D01*
X68496739Y-31191500D01*
X68652271Y-31191500D01*
X68654407Y-31191354D01*
X68654418Y-31191354D01*
X68862548Y-31177165D01*
X68862554Y-31177164D01*
X68866825Y-31176873D01*
X68871020Y-31176004D01*
X68871022Y-31176004D01*
X69007583Y-31147724D01*
X69148342Y-31118574D01*
X69419343Y-31022607D01*
X69674812Y-30890750D01*
X69678313Y-30888289D01*
X69678317Y-30888287D01*
X69792417Y-30808096D01*
X69910023Y-30725441D01*
X70120622Y-30529740D01*
X70302713Y-30307268D01*
X70452927Y-30062142D01*
X70568483Y-29798898D01*
X70647244Y-29522406D01*
X70687751Y-29237784D01*
X70687845Y-29219951D01*
X70687867Y-29215703D01*
X122350743Y-29215703D01*
X122388268Y-29500734D01*
X122464129Y-29778036D01*
X122576923Y-30042476D01*
X122724561Y-30289161D01*
X122904313Y-30513528D01*
X123112851Y-30711423D01*
X123346317Y-30879186D01*
X123350112Y-30881195D01*
X123350113Y-30881196D01*
X123371869Y-30892715D01*
X123600392Y-31013712D01*
X123870373Y-31112511D01*
X124151264Y-31173755D01*
X124179841Y-31176004D01*
X124374282Y-31191307D01*
X124374291Y-31191307D01*
X124376739Y-31191500D01*
X124532271Y-31191500D01*
X124534407Y-31191354D01*
X124534418Y-31191354D01*
X124742548Y-31177165D01*
X124742554Y-31177164D01*
X124746825Y-31176873D01*
X124751020Y-31176004D01*
X124751022Y-31176004D01*
X124887583Y-31147724D01*
X125028342Y-31118574D01*
X125299343Y-31022607D01*
X125554812Y-30890750D01*
X125558313Y-30888289D01*
X125558317Y-30888287D01*
X125672417Y-30808096D01*
X125790023Y-30725441D01*
X126000622Y-30529740D01*
X126182713Y-30307268D01*
X126332927Y-30062142D01*
X126448483Y-29798898D01*
X126527244Y-29522406D01*
X126567751Y-29237784D01*
X126567845Y-29219951D01*
X126569235Y-28954583D01*
X126569235Y-28954576D01*
X126569257Y-28950297D01*
X126531732Y-28665266D01*
X126455871Y-28387964D01*
X126343077Y-28123524D01*
X126195439Y-27876839D01*
X126015687Y-27652472D01*
X125807149Y-27454577D01*
X125573683Y-27286814D01*
X125551843Y-27275250D01*
X125528654Y-27262972D01*
X125319608Y-27152288D01*
X125049627Y-27053489D01*
X124768736Y-26992245D01*
X124737685Y-26989801D01*
X124545718Y-26974693D01*
X124545709Y-26974693D01*
X124543261Y-26974500D01*
X124387729Y-26974500D01*
X124385593Y-26974646D01*
X124385582Y-26974646D01*
X124177452Y-26988835D01*
X124177446Y-26988836D01*
X124173175Y-26989127D01*
X124168980Y-26989996D01*
X124168978Y-26989996D01*
X124032416Y-27018277D01*
X123891658Y-27047426D01*
X123620657Y-27143393D01*
X123365188Y-27275250D01*
X123361687Y-27277711D01*
X123361683Y-27277713D01*
X123351594Y-27284804D01*
X123129977Y-27440559D01*
X122919378Y-27636260D01*
X122737287Y-27858732D01*
X122587073Y-28103858D01*
X122471517Y-28367102D01*
X122392756Y-28643594D01*
X122352249Y-28928216D01*
X122352227Y-28932505D01*
X122352226Y-28932512D01*
X122350765Y-29211417D01*
X122350743Y-29215703D01*
X70687867Y-29215703D01*
X70689235Y-28954583D01*
X70689235Y-28954576D01*
X70689257Y-28950297D01*
X70651732Y-28665266D01*
X70575871Y-28387964D01*
X70463077Y-28123524D01*
X70315439Y-27876839D01*
X70135687Y-27652472D01*
X69927149Y-27454577D01*
X69693683Y-27286814D01*
X69671843Y-27275250D01*
X69648654Y-27262972D01*
X69439608Y-27152288D01*
X69169627Y-27053489D01*
X68888736Y-26992245D01*
X68857685Y-26989801D01*
X68665718Y-26974693D01*
X68665709Y-26974693D01*
X68663261Y-26974500D01*
X68507729Y-26974500D01*
X68505593Y-26974646D01*
X68505582Y-26974646D01*
X68297452Y-26988835D01*
X68297446Y-26988836D01*
X68293175Y-26989127D01*
X68288980Y-26989996D01*
X68288978Y-26989996D01*
X68152416Y-27018277D01*
X68011658Y-27047426D01*
X67740657Y-27143393D01*
X67485188Y-27275250D01*
X67481687Y-27277711D01*
X67481683Y-27277713D01*
X67471594Y-27284804D01*
X67249977Y-27440559D01*
X67039378Y-27636260D01*
X66857287Y-27858732D01*
X66707073Y-28103858D01*
X66591517Y-28367102D01*
X66512756Y-28643594D01*
X66472249Y-28928216D01*
X66472227Y-28932505D01*
X66472226Y-28932512D01*
X66470765Y-29211417D01*
X66470743Y-29215703D01*
X64008500Y-29215703D01*
X64008500Y-26669500D01*
X64028502Y-26601379D01*
X64082158Y-26554886D01*
X64134500Y-26543500D01*
X128905500Y-26543500D01*
X128973621Y-26563502D01*
G37*
G04 #@! TD.AperFunction*
M02*
