G04 #@! TF.GenerationSoftware,KiCad,Pcbnew,(6.0.5)*
G04 #@! TF.CreationDate,2022-05-27T13:29:11-04:00*
G04 #@! TF.ProjectId,minidrone,6d696e69-6472-46f6-9e65-2e6b69636164,rev?*
G04 #@! TF.SameCoordinates,Original*
G04 #@! TF.FileFunction,Legend,Bot*
G04 #@! TF.FilePolarity,Positive*
%FSLAX46Y46*%
G04 Gerber Fmt 4.6, Leading zero omitted, Abs format (unit mm)*
G04 Created by KiCad (PCBNEW (6.0.5)) date 2022-05-27 13:29:11*
%MOMM*%
%LPD*%
G01*
G04 APERTURE LIST*
%ADD10C,0.225000*%
%ADD11C,0.150000*%
G04 APERTURE END LIST*
D10*
X109448571Y-152568571D02*
X109448571Y-151068571D01*
X108948571Y-152140000D01*
X108448571Y-151068571D01*
X108448571Y-152568571D01*
X107734285Y-152568571D02*
X107734285Y-151068571D01*
X107020000Y-152568571D02*
X107020000Y-151068571D01*
X106162857Y-152568571D01*
X106162857Y-151068571D01*
X105448571Y-152568571D02*
X105448571Y-151068571D01*
X104734285Y-152568571D02*
X104734285Y-151068571D01*
X104377142Y-151068571D01*
X104162857Y-151140000D01*
X104020000Y-151282857D01*
X103948571Y-151425714D01*
X103877142Y-151711428D01*
X103877142Y-151925714D01*
X103948571Y-152211428D01*
X104020000Y-152354285D01*
X104162857Y-152497142D01*
X104377142Y-152568571D01*
X104734285Y-152568571D01*
X102377142Y-152568571D02*
X102877142Y-151854285D01*
X103234285Y-152568571D02*
X103234285Y-151068571D01*
X102662857Y-151068571D01*
X102520000Y-151140000D01*
X102448571Y-151211428D01*
X102377142Y-151354285D01*
X102377142Y-151568571D01*
X102448571Y-151711428D01*
X102520000Y-151782857D01*
X102662857Y-151854285D01*
X103234285Y-151854285D01*
X101448571Y-151068571D02*
X101162857Y-151068571D01*
X101020000Y-151140000D01*
X100877142Y-151282857D01*
X100805714Y-151568571D01*
X100805714Y-152068571D01*
X100877142Y-152354285D01*
X101020000Y-152497142D01*
X101162857Y-152568571D01*
X101448571Y-152568571D01*
X101591428Y-152497142D01*
X101734285Y-152354285D01*
X101805714Y-152068571D01*
X101805714Y-151568571D01*
X101734285Y-151282857D01*
X101591428Y-151140000D01*
X101448571Y-151068571D01*
X100162857Y-152568571D02*
X100162857Y-151068571D01*
X99305714Y-152568571D01*
X99305714Y-151068571D01*
X98591428Y-151782857D02*
X98091428Y-151782857D01*
X97877142Y-152568571D02*
X98591428Y-152568571D01*
X98591428Y-151068571D01*
X97877142Y-151068571D01*
X95591428Y-151782857D02*
X96091428Y-151782857D01*
X96091428Y-152568571D02*
X96091428Y-151068571D01*
X95377142Y-151068571D01*
X94805714Y-152568571D02*
X94805714Y-151568571D01*
X94805714Y-151854285D02*
X94734285Y-151711428D01*
X94662857Y-151640000D01*
X94520000Y-151568571D01*
X94377142Y-151568571D01*
X93662857Y-152568571D02*
X93805714Y-152497142D01*
X93877142Y-152425714D01*
X93948571Y-152282857D01*
X93948571Y-151854285D01*
X93877142Y-151711428D01*
X93805714Y-151640000D01*
X93662857Y-151568571D01*
X93448571Y-151568571D01*
X93305714Y-151640000D01*
X93234285Y-151711428D01*
X93162857Y-151854285D01*
X93162857Y-152282857D01*
X93234285Y-152425714D01*
X93305714Y-152497142D01*
X93448571Y-152568571D01*
X93662857Y-152568571D01*
X92520000Y-151568571D02*
X92520000Y-152568571D01*
X92520000Y-151711428D02*
X92448571Y-151640000D01*
X92305714Y-151568571D01*
X92091428Y-151568571D01*
X91948571Y-151640000D01*
X91877142Y-151782857D01*
X91877142Y-152568571D01*
X91377142Y-151568571D02*
X90805714Y-151568571D01*
X91162857Y-151068571D02*
X91162857Y-152354285D01*
X91091428Y-152497142D01*
X90948571Y-152568571D01*
X90805714Y-152568571D01*
X89162857Y-152568571D02*
X89162857Y-151068571D01*
X88591428Y-151068571D01*
X88448571Y-151140000D01*
X88377142Y-151211428D01*
X88305714Y-151354285D01*
X88305714Y-151568571D01*
X88377142Y-151711428D01*
X88448571Y-151782857D01*
X88591428Y-151854285D01*
X89162857Y-151854285D01*
X87020000Y-152568571D02*
X87020000Y-151782857D01*
X87091428Y-151640000D01*
X87234285Y-151568571D01*
X87520000Y-151568571D01*
X87662857Y-151640000D01*
X87020000Y-152497142D02*
X87162857Y-152568571D01*
X87520000Y-152568571D01*
X87662857Y-152497142D01*
X87734285Y-152354285D01*
X87734285Y-152211428D01*
X87662857Y-152068571D01*
X87520000Y-151997142D01*
X87162857Y-151997142D01*
X87020000Y-151925714D01*
X86305714Y-151568571D02*
X86305714Y-152568571D01*
X86305714Y-151711428D02*
X86234285Y-151640000D01*
X86091428Y-151568571D01*
X85877142Y-151568571D01*
X85734285Y-151640000D01*
X85662857Y-151782857D01*
X85662857Y-152568571D01*
X84377142Y-152497142D02*
X84520000Y-152568571D01*
X84805714Y-152568571D01*
X84948571Y-152497142D01*
X85020000Y-152354285D01*
X85020000Y-151782857D01*
X84948571Y-151640000D01*
X84805714Y-151568571D01*
X84520000Y-151568571D01*
X84377142Y-151640000D01*
X84305714Y-151782857D01*
X84305714Y-151925714D01*
X85020000Y-152068571D01*
X83448571Y-152568571D02*
X83591428Y-152497142D01*
X83662857Y-152354285D01*
X83662857Y-151068571D01*
X112841428Y-153983571D02*
X112841428Y-155197857D01*
X112912857Y-155340714D01*
X112984285Y-155412142D01*
X113127142Y-155483571D01*
X113341428Y-155483571D01*
X113484285Y-155412142D01*
X112841428Y-154912142D02*
X112984285Y-154983571D01*
X113270000Y-154983571D01*
X113412857Y-154912142D01*
X113484285Y-154840714D01*
X113555714Y-154697857D01*
X113555714Y-154269285D01*
X113484285Y-154126428D01*
X113412857Y-154055000D01*
X113270000Y-153983571D01*
X112984285Y-153983571D01*
X112841428Y-154055000D01*
X112127142Y-154983571D02*
X112127142Y-153983571D01*
X112127142Y-153483571D02*
X112198571Y-153555000D01*
X112127142Y-153626428D01*
X112055714Y-153555000D01*
X112127142Y-153483571D01*
X112127142Y-153626428D01*
X111627142Y-153983571D02*
X111055714Y-153983571D01*
X111412857Y-153483571D02*
X111412857Y-154769285D01*
X111341428Y-154912142D01*
X111198571Y-154983571D01*
X111055714Y-154983571D01*
X110555714Y-154983571D02*
X110555714Y-153483571D01*
X109912857Y-154983571D02*
X109912857Y-154197857D01*
X109984285Y-154055000D01*
X110127142Y-153983571D01*
X110341428Y-153983571D01*
X110484285Y-154055000D01*
X110555714Y-154126428D01*
X108555714Y-153983571D02*
X108555714Y-154983571D01*
X109198571Y-153983571D02*
X109198571Y-154769285D01*
X109127142Y-154912142D01*
X108984285Y-154983571D01*
X108770000Y-154983571D01*
X108627142Y-154912142D01*
X108555714Y-154840714D01*
X107841428Y-154983571D02*
X107841428Y-153483571D01*
X107841428Y-154055000D02*
X107698571Y-153983571D01*
X107412857Y-153983571D01*
X107270000Y-154055000D01*
X107198571Y-154126428D01*
X107127142Y-154269285D01*
X107127142Y-154697857D01*
X107198571Y-154840714D01*
X107270000Y-154912142D01*
X107412857Y-154983571D01*
X107698571Y-154983571D01*
X107841428Y-154912142D01*
X106484285Y-154840714D02*
X106412857Y-154912142D01*
X106484285Y-154983571D01*
X106555714Y-154912142D01*
X106484285Y-154840714D01*
X106484285Y-154983571D01*
X105127142Y-154912142D02*
X105270000Y-154983571D01*
X105555714Y-154983571D01*
X105698571Y-154912142D01*
X105770000Y-154840714D01*
X105841428Y-154697857D01*
X105841428Y-154269285D01*
X105770000Y-154126428D01*
X105698571Y-154055000D01*
X105555714Y-153983571D01*
X105270000Y-153983571D01*
X105127142Y-154055000D01*
X104270000Y-154983571D02*
X104412857Y-154912142D01*
X104484285Y-154840714D01*
X104555714Y-154697857D01*
X104555714Y-154269285D01*
X104484285Y-154126428D01*
X104412857Y-154055000D01*
X104270000Y-153983571D01*
X104055714Y-153983571D01*
X103912857Y-154055000D01*
X103841428Y-154126428D01*
X103770000Y-154269285D01*
X103770000Y-154697857D01*
X103841428Y-154840714D01*
X103912857Y-154912142D01*
X104055714Y-154983571D01*
X104270000Y-154983571D01*
X103127142Y-154983571D02*
X103127142Y-153983571D01*
X103127142Y-154126428D02*
X103055714Y-154055000D01*
X102912857Y-153983571D01*
X102698571Y-153983571D01*
X102555714Y-154055000D01*
X102484285Y-154197857D01*
X102484285Y-154983571D01*
X102484285Y-154197857D02*
X102412857Y-154055000D01*
X102270000Y-153983571D01*
X102055714Y-153983571D01*
X101912857Y-154055000D01*
X101841428Y-154197857D01*
X101841428Y-154983571D01*
X100055714Y-153412142D02*
X101341428Y-155340714D01*
X99555714Y-154983571D02*
X99555714Y-153983571D01*
X99555714Y-154126428D02*
X99484285Y-154055000D01*
X99341428Y-153983571D01*
X99127142Y-153983571D01*
X98984285Y-154055000D01*
X98912857Y-154197857D01*
X98912857Y-154983571D01*
X98912857Y-154197857D02*
X98841428Y-154055000D01*
X98698571Y-153983571D01*
X98484285Y-153983571D01*
X98341428Y-154055000D01*
X98270000Y-154197857D01*
X98270000Y-154983571D01*
X97555714Y-153983571D02*
X97555714Y-155483571D01*
X97555714Y-154055000D02*
X97412857Y-153983571D01*
X97127142Y-153983571D01*
X96984285Y-154055000D01*
X96912857Y-154126428D01*
X96841428Y-154269285D01*
X96841428Y-154697857D01*
X96912857Y-154840714D01*
X96984285Y-154912142D01*
X97127142Y-154983571D01*
X97412857Y-154983571D01*
X97555714Y-154912142D01*
X96198571Y-154983571D02*
X96198571Y-153983571D01*
X96198571Y-154269285D02*
X96127142Y-154126428D01*
X96055714Y-154055000D01*
X95912857Y-153983571D01*
X95770000Y-153983571D01*
X95055714Y-154983571D02*
X95198571Y-154912142D01*
X95270000Y-154840714D01*
X95341428Y-154697857D01*
X95341428Y-154269285D01*
X95270000Y-154126428D01*
X95198571Y-154055000D01*
X95055714Y-153983571D01*
X94841428Y-153983571D01*
X94698571Y-154055000D01*
X94627142Y-154126428D01*
X94555714Y-154269285D01*
X94555714Y-154697857D01*
X94627142Y-154840714D01*
X94698571Y-154912142D01*
X94841428Y-154983571D01*
X95055714Y-154983571D01*
X93984285Y-154912142D02*
X93841428Y-154983571D01*
X93555714Y-154983571D01*
X93412857Y-154912142D01*
X93341428Y-154769285D01*
X93341428Y-154697857D01*
X93412857Y-154555000D01*
X93555714Y-154483571D01*
X93770000Y-154483571D01*
X93912857Y-154412142D01*
X93984285Y-154269285D01*
X93984285Y-154197857D01*
X93912857Y-154055000D01*
X93770000Y-153983571D01*
X93555714Y-153983571D01*
X93412857Y-154055000D01*
X92698571Y-154983571D02*
X92698571Y-153483571D01*
X92555714Y-154412142D02*
X92127142Y-154983571D01*
X92127142Y-153983571D02*
X92698571Y-154555000D01*
X90412857Y-153412142D02*
X91698571Y-155340714D01*
X89912857Y-154983571D02*
X89912857Y-153983571D01*
X89912857Y-154126428D02*
X89841428Y-154055000D01*
X89698571Y-153983571D01*
X89484285Y-153983571D01*
X89341428Y-154055000D01*
X89270000Y-154197857D01*
X89270000Y-154983571D01*
X89270000Y-154197857D02*
X89198571Y-154055000D01*
X89055714Y-153983571D01*
X88841428Y-153983571D01*
X88698571Y-154055000D01*
X88627142Y-154197857D01*
X88627142Y-154983571D01*
X87912857Y-154983571D02*
X87912857Y-153983571D01*
X87912857Y-153483571D02*
X87984285Y-153555000D01*
X87912857Y-153626428D01*
X87841428Y-153555000D01*
X87912857Y-153483571D01*
X87912857Y-153626428D01*
X87198571Y-153983571D02*
X87198571Y-154983571D01*
X87198571Y-154126428D02*
X87127142Y-154055000D01*
X86984285Y-153983571D01*
X86770000Y-153983571D01*
X86627142Y-154055000D01*
X86555714Y-154197857D01*
X86555714Y-154983571D01*
X85841428Y-154983571D02*
X85841428Y-153983571D01*
X85841428Y-153483571D02*
X85912857Y-153555000D01*
X85841428Y-153626428D01*
X85770000Y-153555000D01*
X85841428Y-153483571D01*
X85841428Y-153626428D01*
X84484285Y-154983571D02*
X84484285Y-153483571D01*
X84484285Y-154912142D02*
X84627142Y-154983571D01*
X84912857Y-154983571D01*
X85055714Y-154912142D01*
X85127142Y-154840714D01*
X85198571Y-154697857D01*
X85198571Y-154269285D01*
X85127142Y-154126428D01*
X85055714Y-154055000D01*
X84912857Y-153983571D01*
X84627142Y-153983571D01*
X84484285Y-154055000D01*
X83770000Y-154983571D02*
X83770000Y-153983571D01*
X83770000Y-154269285D02*
X83698571Y-154126428D01*
X83627142Y-154055000D01*
X83484285Y-153983571D01*
X83341428Y-153983571D01*
X82627142Y-154983571D02*
X82770000Y-154912142D01*
X82841428Y-154840714D01*
X82912857Y-154697857D01*
X82912857Y-154269285D01*
X82841428Y-154126428D01*
X82770000Y-154055000D01*
X82627142Y-153983571D01*
X82412857Y-153983571D01*
X82270000Y-154055000D01*
X82198571Y-154126428D01*
X82127142Y-154269285D01*
X82127142Y-154697857D01*
X82198571Y-154840714D01*
X82270000Y-154912142D01*
X82412857Y-154983571D01*
X82627142Y-154983571D01*
X81484285Y-153983571D02*
X81484285Y-154983571D01*
X81484285Y-154126428D02*
X81412857Y-154055000D01*
X81270000Y-153983571D01*
X81055714Y-153983571D01*
X80912857Y-154055000D01*
X80841428Y-154197857D01*
X80841428Y-154983571D01*
X79555714Y-154912142D02*
X79698571Y-154983571D01*
X79984285Y-154983571D01*
X80127142Y-154912142D01*
X80198571Y-154769285D01*
X80198571Y-154197857D01*
X80127142Y-154055000D01*
X79984285Y-153983571D01*
X79698571Y-153983571D01*
X79555714Y-154055000D01*
X79484285Y-154197857D01*
X79484285Y-154340714D01*
X80198571Y-154483571D01*
X114627142Y-157398571D02*
X114627142Y-155898571D01*
X114127142Y-156970000D01*
X113627142Y-155898571D01*
X113627142Y-157398571D01*
X112270000Y-157398571D02*
X112270000Y-156612857D01*
X112341428Y-156470000D01*
X112484285Y-156398571D01*
X112770000Y-156398571D01*
X112912857Y-156470000D01*
X112270000Y-157327142D02*
X112412857Y-157398571D01*
X112770000Y-157398571D01*
X112912857Y-157327142D01*
X112984285Y-157184285D01*
X112984285Y-157041428D01*
X112912857Y-156898571D01*
X112770000Y-156827142D01*
X112412857Y-156827142D01*
X112270000Y-156755714D01*
X111698571Y-157398571D02*
X110912857Y-156398571D01*
X111698571Y-156398571D02*
X110912857Y-157398571D01*
X109198571Y-157398571D02*
X109198571Y-155898571D01*
X108627142Y-155898571D01*
X108484285Y-155970000D01*
X108412857Y-156041428D01*
X108341428Y-156184285D01*
X108341428Y-156398571D01*
X108412857Y-156541428D01*
X108484285Y-156612857D01*
X108627142Y-156684285D01*
X109198571Y-156684285D01*
X107698571Y-157398571D02*
X107698571Y-156398571D01*
X107698571Y-156684285D02*
X107627142Y-156541428D01*
X107555714Y-156470000D01*
X107412857Y-156398571D01*
X107270000Y-156398571D01*
X106555714Y-157398571D02*
X106698571Y-157327142D01*
X106770000Y-157255714D01*
X106841428Y-157112857D01*
X106841428Y-156684285D01*
X106770000Y-156541428D01*
X106698571Y-156470000D01*
X106555714Y-156398571D01*
X106341428Y-156398571D01*
X106198571Y-156470000D01*
X106127142Y-156541428D01*
X106055714Y-156684285D01*
X106055714Y-157112857D01*
X106127142Y-157255714D01*
X106198571Y-157327142D01*
X106341428Y-157398571D01*
X106555714Y-157398571D01*
X105484285Y-157327142D02*
X105341428Y-157398571D01*
X105055714Y-157398571D01*
X104912857Y-157327142D01*
X104841428Y-157184285D01*
X104841428Y-157112857D01*
X104912857Y-156970000D01*
X105055714Y-156898571D01*
X105270000Y-156898571D01*
X105412857Y-156827142D01*
X105484285Y-156684285D01*
X105484285Y-156612857D01*
X105412857Y-156470000D01*
X105270000Y-156398571D01*
X105055714Y-156398571D01*
X104912857Y-156470000D01*
X104198571Y-157398571D02*
X104198571Y-155898571D01*
X104055714Y-156827142D02*
X103627142Y-157398571D01*
X103627142Y-156398571D02*
X104198571Y-156970000D01*
X102341428Y-157398571D02*
X102341428Y-156612857D01*
X102412857Y-156470000D01*
X102555714Y-156398571D01*
X102841428Y-156398571D01*
X102984285Y-156470000D01*
X102341428Y-157327142D02*
X102484285Y-157398571D01*
X102841428Y-157398571D01*
X102984285Y-157327142D01*
X103055714Y-157184285D01*
X103055714Y-157041428D01*
X102984285Y-156898571D01*
X102841428Y-156827142D01*
X102484285Y-156827142D01*
X102341428Y-156755714D01*
X100984285Y-156398571D02*
X100984285Y-157398571D01*
X101627142Y-156398571D02*
X101627142Y-157184285D01*
X101555714Y-157327142D01*
X101412857Y-157398571D01*
X101198571Y-157398571D01*
X101055714Y-157327142D01*
X100984285Y-157255714D01*
X99698571Y-157327142D02*
X99841428Y-157398571D01*
X100127142Y-157398571D01*
X100270000Y-157327142D01*
X100341428Y-157184285D01*
X100341428Y-156612857D01*
X100270000Y-156470000D01*
X100127142Y-156398571D01*
X99841428Y-156398571D01*
X99698571Y-156470000D01*
X99627142Y-156612857D01*
X99627142Y-156755714D01*
X100341428Y-156898571D01*
X98984285Y-157398571D02*
X98984285Y-156398571D01*
X98984285Y-156684285D02*
X98912857Y-156541428D01*
X98841428Y-156470000D01*
X98698571Y-156398571D01*
X98555714Y-156398571D01*
X95912857Y-156398571D02*
X95555714Y-157398571D01*
X95198571Y-156398571D01*
X94341428Y-155898571D02*
X94198571Y-155898571D01*
X94055714Y-155970000D01*
X93984285Y-156041428D01*
X93912857Y-156184285D01*
X93841428Y-156470000D01*
X93841428Y-156827142D01*
X93912857Y-157112857D01*
X93984285Y-157255714D01*
X94055714Y-157327142D01*
X94198571Y-157398571D01*
X94341428Y-157398571D01*
X94484285Y-157327142D01*
X94555714Y-157255714D01*
X94627142Y-157112857D01*
X94698571Y-156827142D01*
X94698571Y-156470000D01*
X94627142Y-156184285D01*
X94555714Y-156041428D01*
X94484285Y-155970000D01*
X94341428Y-155898571D01*
X93198571Y-157255714D02*
X93127142Y-157327142D01*
X93198571Y-157398571D01*
X93270000Y-157327142D01*
X93198571Y-157255714D01*
X93198571Y-157398571D01*
X91698571Y-157398571D02*
X92555714Y-157398571D01*
X92127142Y-157398571D02*
X92127142Y-155898571D01*
X92270000Y-156112857D01*
X92412857Y-156255714D01*
X92555714Y-156327142D01*
X88770000Y-157398571D02*
X88770000Y-155898571D01*
X88270000Y-156970000D01*
X87770000Y-155898571D01*
X87770000Y-157398571D01*
X86412857Y-157398571D02*
X86412857Y-156612857D01*
X86484285Y-156470000D01*
X86627142Y-156398571D01*
X86912857Y-156398571D01*
X87055714Y-156470000D01*
X86412857Y-157327142D02*
X86555714Y-157398571D01*
X86912857Y-157398571D01*
X87055714Y-157327142D01*
X87127142Y-157184285D01*
X87127142Y-157041428D01*
X87055714Y-156898571D01*
X86912857Y-156827142D01*
X86555714Y-156827142D01*
X86412857Y-156755714D01*
X85841428Y-156398571D02*
X85484285Y-157398571D01*
X85127142Y-156398571D02*
X85484285Y-157398571D01*
X85627142Y-157755714D01*
X85698571Y-157827142D01*
X85841428Y-157898571D01*
X83484285Y-156041428D02*
X83412857Y-155970000D01*
X83270000Y-155898571D01*
X82912857Y-155898571D01*
X82770000Y-155970000D01*
X82698571Y-156041428D01*
X82627142Y-156184285D01*
X82627142Y-156327142D01*
X82698571Y-156541428D01*
X83555714Y-157398571D01*
X82627142Y-157398571D01*
X81698571Y-155898571D02*
X81555714Y-155898571D01*
X81412857Y-155970000D01*
X81341428Y-156041428D01*
X81270000Y-156184285D01*
X81198571Y-156470000D01*
X81198571Y-156827142D01*
X81270000Y-157112857D01*
X81341428Y-157255714D01*
X81412857Y-157327142D01*
X81555714Y-157398571D01*
X81698571Y-157398571D01*
X81841428Y-157327142D01*
X81912857Y-157255714D01*
X81984285Y-157112857D01*
X82055714Y-156827142D01*
X82055714Y-156470000D01*
X81984285Y-156184285D01*
X81912857Y-156041428D01*
X81841428Y-155970000D01*
X81698571Y-155898571D01*
X80627142Y-156041428D02*
X80555714Y-155970000D01*
X80412857Y-155898571D01*
X80055714Y-155898571D01*
X79912857Y-155970000D01*
X79841428Y-156041428D01*
X79770000Y-156184285D01*
X79770000Y-156327142D01*
X79841428Y-156541428D01*
X80698571Y-157398571D01*
X79770000Y-157398571D01*
X79198571Y-156041428D02*
X79127142Y-155970000D01*
X78984285Y-155898571D01*
X78627142Y-155898571D01*
X78484285Y-155970000D01*
X78412857Y-156041428D01*
X78341428Y-156184285D01*
X78341428Y-156327142D01*
X78412857Y-156541428D01*
X79270000Y-157398571D01*
X78341428Y-157398571D01*
D11*
X101139047Y-27392380D02*
X101139047Y-28106666D01*
X101186666Y-28249523D01*
X101281904Y-28344761D01*
X101424761Y-28392380D01*
X101520000Y-28392380D01*
X100186666Y-28392380D02*
X100662857Y-28392380D01*
X100662857Y-27392380D01*
X99281904Y-28297142D02*
X99329523Y-28344761D01*
X99472380Y-28392380D01*
X99567619Y-28392380D01*
X99710476Y-28344761D01*
X99805714Y-28249523D01*
X99853333Y-28154285D01*
X99900952Y-27963809D01*
X99900952Y-27820952D01*
X99853333Y-27630476D01*
X99805714Y-27535238D01*
X99710476Y-27440000D01*
X99567619Y-27392380D01*
X99472380Y-27392380D01*
X99329523Y-27440000D01*
X99281904Y-27487619D01*
X98567619Y-27392380D02*
X98567619Y-28106666D01*
X98615238Y-28249523D01*
X98710476Y-28344761D01*
X98853333Y-28392380D01*
X98948571Y-28392380D01*
X97615238Y-28392380D02*
X98091428Y-28392380D01*
X98091428Y-27392380D01*
X96710476Y-28297142D02*
X96758095Y-28344761D01*
X96900952Y-28392380D01*
X96996190Y-28392380D01*
X97139047Y-28344761D01*
X97234285Y-28249523D01*
X97281904Y-28154285D01*
X97329523Y-27963809D01*
X97329523Y-27820952D01*
X97281904Y-27630476D01*
X97234285Y-27535238D01*
X97139047Y-27440000D01*
X96996190Y-27392380D01*
X96900952Y-27392380D01*
X96758095Y-27440000D01*
X96710476Y-27487619D01*
X95996190Y-27392380D02*
X95996190Y-28106666D01*
X96043809Y-28249523D01*
X96139047Y-28344761D01*
X96281904Y-28392380D01*
X96377142Y-28392380D01*
X95043809Y-28392380D02*
X95520000Y-28392380D01*
X95520000Y-27392380D01*
X94139047Y-28297142D02*
X94186666Y-28344761D01*
X94329523Y-28392380D01*
X94424761Y-28392380D01*
X94567619Y-28344761D01*
X94662857Y-28249523D01*
X94710476Y-28154285D01*
X94758095Y-27963809D01*
X94758095Y-27820952D01*
X94710476Y-27630476D01*
X94662857Y-27535238D01*
X94567619Y-27440000D01*
X94424761Y-27392380D01*
X94329523Y-27392380D01*
X94186666Y-27440000D01*
X94139047Y-27487619D01*
X93424761Y-27392380D02*
X93424761Y-28106666D01*
X93472380Y-28249523D01*
X93567619Y-28344761D01*
X93710476Y-28392380D01*
X93805714Y-28392380D01*
X92472380Y-28392380D02*
X92948571Y-28392380D01*
X92948571Y-27392380D01*
X91567619Y-28297142D02*
X91615238Y-28344761D01*
X91758095Y-28392380D01*
X91853333Y-28392380D01*
X91996190Y-28344761D01*
X92091428Y-28249523D01*
X92139047Y-28154285D01*
X92186666Y-27963809D01*
X92186666Y-27820952D01*
X92139047Y-27630476D01*
X92091428Y-27535238D01*
X91996190Y-27440000D01*
X91853333Y-27392380D01*
X91758095Y-27392380D01*
X91615238Y-27440000D01*
X91567619Y-27487619D01*
X111490000Y-118880000D02*
X111585238Y-118832380D01*
X111728095Y-118832380D01*
X111870952Y-118880000D01*
X111966190Y-118975238D01*
X112013809Y-119070476D01*
X112061428Y-119260952D01*
X112061428Y-119403809D01*
X112013809Y-119594285D01*
X111966190Y-119689523D01*
X111870952Y-119784761D01*
X111728095Y-119832380D01*
X111632857Y-119832380D01*
X111490000Y-119784761D01*
X111442380Y-119737142D01*
X111442380Y-119403809D01*
X111632857Y-119403809D01*
X111061428Y-119546666D02*
X110585238Y-119546666D01*
X111156666Y-119832380D02*
X110823333Y-118832380D01*
X110490000Y-119832380D01*
X110299523Y-118832380D02*
X109728095Y-118832380D01*
X110013809Y-119832380D02*
X110013809Y-118832380D01*
X109394761Y-119308571D02*
X109061428Y-119308571D01*
X108918571Y-119832380D02*
X109394761Y-119832380D01*
X109394761Y-118832380D01*
X108918571Y-118832380D01*
M02*
