G04 #@! TF.GenerationSoftware,KiCad,Pcbnew,(6.0.5)*
G04 #@! TF.CreationDate,2022-05-27T13:29:11-04:00*
G04 #@! TF.ProjectId,minidrone,6d696e69-6472-46f6-9e65-2e6b69636164,rev?*
G04 #@! TF.SameCoordinates,Original*
G04 #@! TF.FileFunction,Soldermask,Top*
G04 #@! TF.FilePolarity,Negative*
%FSLAX46Y46*%
G04 Gerber Fmt 4.6, Leading zero omitted, Abs format (unit mm)*
G04 Created by KiCad (PCBNEW (6.0.5)) date 2022-05-27 13:29:11*
%MOMM*%
%LPD*%
G01*
G04 APERTURE LIST*
%ADD10C,0.100000*%
%ADD11C,0.120000*%
%ADD12C,0.450000*%
%ADD13C,6.452000*%
%ADD14C,3.302000*%
%ADD15C,8.992000*%
%ADD16C,5.102000*%
%ADD17C,2.002000*%
%ADD18C,3.502000*%
%ADD19C,2.302000*%
G04 APERTURE END LIST*
D10*
G36*
X109220000Y-44450000D02*
G01*
X111125000Y-44450000D01*
X111125000Y-46990000D01*
X109220000Y-44450000D01*
X107315000Y-44450000D01*
X107315000Y-41910000D01*
X109220000Y-44450000D01*
G37*
X109220000Y-44450000D02*
X111125000Y-44450000D01*
X111125000Y-46990000D01*
X109220000Y-44450000D01*
X107315000Y-44450000D01*
X107315000Y-41910000D01*
X109220000Y-44450000D01*
G36*
X116840000Y-140970000D02*
G01*
X116840000Y-142875000D01*
X114300000Y-142875000D01*
X116840000Y-140970000D01*
X116840000Y-139065000D01*
X119380000Y-139065000D01*
X116840000Y-140970000D01*
G37*
X116840000Y-140970000D02*
X116840000Y-142875000D01*
X114300000Y-142875000D01*
X116840000Y-140970000D01*
X116840000Y-139065000D01*
X119380000Y-139065000D01*
X116840000Y-140970000D01*
D11*
G36*
X127000000Y-86360000D02*
G01*
X123190000Y-86360000D01*
X123190000Y-82550000D01*
X127000000Y-86360000D01*
G37*
X127000000Y-86360000D02*
X123190000Y-86360000D01*
X123190000Y-82550000D01*
X127000000Y-86360000D01*
G36*
X110490000Y-62230000D02*
G01*
X106680000Y-62230000D01*
X110490000Y-58420000D01*
X110490000Y-62230000D01*
G37*
X110490000Y-62230000D02*
X106680000Y-62230000D01*
X110490000Y-58420000D01*
X110490000Y-62230000D01*
D12*
X79317619Y-30340952D02*
X79317619Y-27840952D01*
X80150952Y-29626666D01*
X80984285Y-27840952D01*
X80984285Y-30340952D01*
X84079523Y-30340952D02*
X84079523Y-27840952D01*
X87174761Y-30340952D02*
X87174761Y-27840952D01*
X88603333Y-30340952D01*
X88603333Y-27840952D01*
X91698571Y-30340952D02*
X91698571Y-27840952D01*
X94793809Y-30340952D02*
X94793809Y-27840952D01*
X95389047Y-27840952D01*
X95746190Y-27960000D01*
X95984285Y-28198095D01*
X96103333Y-28436190D01*
X96222380Y-28912380D01*
X96222380Y-29269523D01*
X96103333Y-29745714D01*
X95984285Y-29983809D01*
X95746190Y-30221904D01*
X95389047Y-30340952D01*
X94793809Y-30340952D01*
X100627142Y-30340952D02*
X99793809Y-29150476D01*
X99198571Y-30340952D02*
X99198571Y-27840952D01*
X100150952Y-27840952D01*
X100389047Y-27960000D01*
X100508095Y-28079047D01*
X100627142Y-28317142D01*
X100627142Y-28674285D01*
X100508095Y-28912380D01*
X100389047Y-29031428D01*
X100150952Y-29150476D01*
X99198571Y-29150476D01*
X104079523Y-27840952D02*
X104555714Y-27840952D01*
X104793809Y-27960000D01*
X105031904Y-28198095D01*
X105150952Y-28674285D01*
X105150952Y-29507619D01*
X105031904Y-29983809D01*
X104793809Y-30221904D01*
X104555714Y-30340952D01*
X104079523Y-30340952D01*
X103841428Y-30221904D01*
X103603333Y-29983809D01*
X103484285Y-29507619D01*
X103484285Y-28674285D01*
X103603333Y-28198095D01*
X103841428Y-27960000D01*
X104079523Y-27840952D01*
X108127142Y-30340952D02*
X108127142Y-27840952D01*
X109555714Y-30340952D01*
X109555714Y-27840952D01*
X112650952Y-29031428D02*
X113484285Y-29031428D01*
X113841428Y-30340952D02*
X112650952Y-30340952D01*
X112650952Y-27840952D01*
X113841428Y-27840952D01*
D10*
G36*
X109220000Y-44450000D02*
G01*
X111125000Y-44450000D01*
X111125000Y-46990000D01*
X109220000Y-44450000D01*
X107315000Y-44450000D01*
X107315000Y-41910000D01*
X109220000Y-44450000D01*
G37*
X109220000Y-44450000D02*
X111125000Y-44450000D01*
X111125000Y-46990000D01*
X109220000Y-44450000D01*
X107315000Y-44450000D01*
X107315000Y-41910000D01*
X109220000Y-44450000D01*
G36*
X116840000Y-140970000D02*
G01*
X116840000Y-142875000D01*
X114300000Y-142875000D01*
X116840000Y-140970000D01*
X116840000Y-139065000D01*
X119380000Y-139065000D01*
X116840000Y-140970000D01*
G37*
X116840000Y-140970000D02*
X116840000Y-142875000D01*
X114300000Y-142875000D01*
X116840000Y-140970000D01*
X116840000Y-139065000D01*
X119380000Y-139065000D01*
X116840000Y-140970000D01*
D11*
G36*
X127000000Y-86360000D02*
G01*
X123190000Y-86360000D01*
X123190000Y-82550000D01*
X127000000Y-86360000D01*
G37*
X127000000Y-86360000D02*
X123190000Y-86360000D01*
X123190000Y-82550000D01*
X127000000Y-86360000D01*
G36*
X110490000Y-62230000D02*
G01*
X106680000Y-62230000D01*
X110490000Y-58420000D01*
X110490000Y-62230000D01*
G37*
X110490000Y-62230000D02*
X106680000Y-62230000D01*
X110490000Y-58420000D01*
X110490000Y-62230000D01*
D12*
X79317619Y-30340952D02*
X79317619Y-27840952D01*
X80150952Y-29626666D01*
X80984285Y-27840952D01*
X80984285Y-30340952D01*
X84079523Y-30340952D02*
X84079523Y-27840952D01*
X87174761Y-30340952D02*
X87174761Y-27840952D01*
X88603333Y-30340952D01*
X88603333Y-27840952D01*
X91698571Y-30340952D02*
X91698571Y-27840952D01*
X94793809Y-30340952D02*
X94793809Y-27840952D01*
X95389047Y-27840952D01*
X95746190Y-27960000D01*
X95984285Y-28198095D01*
X96103333Y-28436190D01*
X96222380Y-28912380D01*
X96222380Y-29269523D01*
X96103333Y-29745714D01*
X95984285Y-29983809D01*
X95746190Y-30221904D01*
X95389047Y-30340952D01*
X94793809Y-30340952D01*
X100627142Y-30340952D02*
X99793809Y-29150476D01*
X99198571Y-30340952D02*
X99198571Y-27840952D01*
X100150952Y-27840952D01*
X100389047Y-27960000D01*
X100508095Y-28079047D01*
X100627142Y-28317142D01*
X100627142Y-28674285D01*
X100508095Y-28912380D01*
X100389047Y-29031428D01*
X100150952Y-29150476D01*
X99198571Y-29150476D01*
X104079523Y-27840952D02*
X104555714Y-27840952D01*
X104793809Y-27960000D01*
X105031904Y-28198095D01*
X105150952Y-28674285D01*
X105150952Y-29507619D01*
X105031904Y-29983809D01*
X104793809Y-30221904D01*
X104555714Y-30340952D01*
X104079523Y-30340952D01*
X103841428Y-30221904D01*
X103603333Y-29983809D01*
X103484285Y-29507619D01*
X103484285Y-28674285D01*
X103603333Y-28198095D01*
X103841428Y-27960000D01*
X104079523Y-27840952D01*
X108127142Y-30340952D02*
X108127142Y-27840952D01*
X109555714Y-30340952D01*
X109555714Y-27840952D01*
X112650952Y-29031428D02*
X113484285Y-29031428D01*
X113841428Y-30340952D02*
X112650952Y-30340952D01*
X112650952Y-27840952D01*
X113841428Y-27840952D01*
D13*
X116840000Y-92710000D03*
D14*
X124460000Y-29083000D03*
D15*
X73660000Y-140970000D03*
X73660000Y-116840000D03*
D16*
X83820000Y-140970000D03*
X83820000Y-116840000D03*
D14*
X124460000Y-156337000D03*
D13*
X116840000Y-44450000D03*
D15*
X73660000Y-92710000D03*
D16*
X83820000Y-44450000D03*
D13*
X93980000Y-44450000D03*
D17*
X111340000Y-128905000D03*
X122340000Y-128905000D03*
D18*
X116840000Y-128905000D03*
D19*
X116840000Y-134805000D03*
X111840000Y-132705000D03*
D13*
X116840000Y-68580000D03*
X93980000Y-68580000D03*
X93980000Y-92710000D03*
X93980000Y-140970000D03*
D15*
X73660000Y-68580000D03*
D13*
X93980000Y-116840000D03*
D14*
X68580000Y-29083000D03*
D16*
X83820000Y-68580000D03*
D14*
X68580000Y-156337000D03*
D15*
X116840000Y-111125000D03*
X73660000Y-44450000D03*
D16*
X83820000Y-92710000D03*
X116840000Y-80645000D03*
M02*
