G04 #@! TF.GenerationSoftware,KiCad,Pcbnew,(6.0.5)*
G04 #@! TF.CreationDate,2022-05-27T13:23:59-04:00*
G04 #@! TF.ProjectId,minidrone-rounded,6d696e69-6472-46f6-9e65-2d726f756e64,rev?*
G04 #@! TF.SameCoordinates,Original*
G04 #@! TF.FileFunction,Legend,Bot*
G04 #@! TF.FilePolarity,Positive*
%FSLAX46Y46*%
G04 Gerber Fmt 4.6, Leading zero omitted, Abs format (unit mm)*
G04 Created by KiCad (PCBNEW (6.0.5)) date 2022-05-27 13:23:59*
%MOMM*%
%LPD*%
G01*
G04 APERTURE LIST*
%ADD10C,0.120000*%
%ADD11C,0.150000*%
G04 APERTURE END LIST*
D10*
X217155000Y-141532500D02*
X217155000Y-146612500D01*
X217805000Y-132715000D02*
X219075000Y-132715000D01*
X214615000Y-146612500D02*
X217155000Y-146612500D01*
X217155000Y-146612500D02*
X217155000Y-149152500D01*
X217155000Y-149152500D02*
X214615000Y-149152500D01*
X214615000Y-149152500D02*
X214615000Y-146612500D01*
G36*
X214615000Y-146612500D02*
G01*
X217155000Y-146612500D01*
X217155000Y-149152500D01*
X214615000Y-149152500D01*
X214615000Y-146612500D01*
G37*
X217805000Y-131445000D02*
X217805000Y-132715000D01*
X214615000Y-141532500D02*
X214615000Y-146612500D01*
X214615000Y-138992500D02*
X217155000Y-138992500D01*
X217155000Y-138992500D02*
X217155000Y-141532500D01*
X217155000Y-141532500D02*
X214615000Y-141532500D01*
X214615000Y-141532500D02*
X214615000Y-138992500D01*
G36*
X214615000Y-138992500D02*
G01*
X217155000Y-138992500D01*
X217155000Y-141532500D01*
X214615000Y-141532500D01*
X214615000Y-138992500D01*
G37*
X213360000Y-128270000D02*
X213360000Y-132080000D01*
X213900000Y-128270000D02*
X213360000Y-128270000D01*
D11*
X220240952Y-41092380D02*
X220240952Y-40092380D01*
X219907619Y-40806666D01*
X219574285Y-40092380D01*
X219574285Y-41092380D01*
X218336190Y-41092380D02*
X218336190Y-40092380D01*
X217098095Y-41092380D02*
X217098095Y-40092380D01*
X216526666Y-41092380D01*
X216526666Y-40092380D01*
X215288571Y-41092380D02*
X215288571Y-40092380D01*
X214050476Y-41092380D02*
X214050476Y-40092380D01*
X213812380Y-40092380D01*
X213669523Y-40140000D01*
X213574285Y-40235238D01*
X213526666Y-40330476D01*
X213479047Y-40520952D01*
X213479047Y-40663809D01*
X213526666Y-40854285D01*
X213574285Y-40949523D01*
X213669523Y-41044761D01*
X213812380Y-41092380D01*
X214050476Y-41092380D01*
X211717142Y-41092380D02*
X212050476Y-40616190D01*
X212288571Y-41092380D02*
X212288571Y-40092380D01*
X211907619Y-40092380D01*
X211812380Y-40140000D01*
X211764761Y-40187619D01*
X211717142Y-40282857D01*
X211717142Y-40425714D01*
X211764761Y-40520952D01*
X211812380Y-40568571D01*
X211907619Y-40616190D01*
X212288571Y-40616190D01*
X210336190Y-40092380D02*
X210145714Y-40092380D01*
X210050476Y-40140000D01*
X209955238Y-40235238D01*
X209907619Y-40425714D01*
X209907619Y-40759047D01*
X209955238Y-40949523D01*
X210050476Y-41044761D01*
X210145714Y-41092380D01*
X210336190Y-41092380D01*
X210431428Y-41044761D01*
X210526666Y-40949523D01*
X210574285Y-40759047D01*
X210574285Y-40425714D01*
X210526666Y-40235238D01*
X210431428Y-40140000D01*
X210336190Y-40092380D01*
X208717142Y-41092380D02*
X208717142Y-40092380D01*
X208145714Y-41092380D01*
X208145714Y-40092380D01*
X206907619Y-40568571D02*
X206574285Y-40568571D01*
X206431428Y-41092380D02*
X206907619Y-41092380D01*
X206907619Y-40092380D01*
X206431428Y-40092380D01*
X221065952Y-36445714D02*
X221065952Y-37255238D01*
X221113571Y-37350476D01*
X221161190Y-37398095D01*
X221256428Y-37445714D01*
X221399285Y-37445714D01*
X221494523Y-37398095D01*
X221065952Y-37064761D02*
X221161190Y-37112380D01*
X221351666Y-37112380D01*
X221446904Y-37064761D01*
X221494523Y-37017142D01*
X221542142Y-36921904D01*
X221542142Y-36636190D01*
X221494523Y-36540952D01*
X221446904Y-36493333D01*
X221351666Y-36445714D01*
X221161190Y-36445714D01*
X221065952Y-36493333D01*
X220589761Y-37112380D02*
X220589761Y-36445714D01*
X220589761Y-36112380D02*
X220637380Y-36160000D01*
X220589761Y-36207619D01*
X220542142Y-36160000D01*
X220589761Y-36112380D01*
X220589761Y-36207619D01*
X220256428Y-36445714D02*
X219875476Y-36445714D01*
X220113571Y-36112380D02*
X220113571Y-36969523D01*
X220065952Y-37064761D01*
X219970714Y-37112380D01*
X219875476Y-37112380D01*
X219542142Y-37112380D02*
X219542142Y-36112380D01*
X219113571Y-37112380D02*
X219113571Y-36588571D01*
X219161190Y-36493333D01*
X219256428Y-36445714D01*
X219399285Y-36445714D01*
X219494523Y-36493333D01*
X219542142Y-36540952D01*
X218208809Y-36445714D02*
X218208809Y-37112380D01*
X218637380Y-36445714D02*
X218637380Y-36969523D01*
X218589761Y-37064761D01*
X218494523Y-37112380D01*
X218351666Y-37112380D01*
X218256428Y-37064761D01*
X218208809Y-37017142D01*
X217732619Y-37112380D02*
X217732619Y-36112380D01*
X217732619Y-36493333D02*
X217637380Y-36445714D01*
X217446904Y-36445714D01*
X217351666Y-36493333D01*
X217304047Y-36540952D01*
X217256428Y-36636190D01*
X217256428Y-36921904D01*
X217304047Y-37017142D01*
X217351666Y-37064761D01*
X217446904Y-37112380D01*
X217637380Y-37112380D01*
X217732619Y-37064761D01*
X216827857Y-37017142D02*
X216780238Y-37064761D01*
X216827857Y-37112380D01*
X216875476Y-37064761D01*
X216827857Y-37017142D01*
X216827857Y-37112380D01*
X215923095Y-37064761D02*
X216018333Y-37112380D01*
X216208809Y-37112380D01*
X216304047Y-37064761D01*
X216351666Y-37017142D01*
X216399285Y-36921904D01*
X216399285Y-36636190D01*
X216351666Y-36540952D01*
X216304047Y-36493333D01*
X216208809Y-36445714D01*
X216018333Y-36445714D01*
X215923095Y-36493333D01*
X215351666Y-37112380D02*
X215446904Y-37064761D01*
X215494523Y-37017142D01*
X215542142Y-36921904D01*
X215542142Y-36636190D01*
X215494523Y-36540952D01*
X215446904Y-36493333D01*
X215351666Y-36445714D01*
X215208809Y-36445714D01*
X215113571Y-36493333D01*
X215065952Y-36540952D01*
X215018333Y-36636190D01*
X215018333Y-36921904D01*
X215065952Y-37017142D01*
X215113571Y-37064761D01*
X215208809Y-37112380D01*
X215351666Y-37112380D01*
X214589761Y-37112380D02*
X214589761Y-36445714D01*
X214589761Y-36540952D02*
X214542142Y-36493333D01*
X214446904Y-36445714D01*
X214304047Y-36445714D01*
X214208809Y-36493333D01*
X214161190Y-36588571D01*
X214161190Y-37112380D01*
X214161190Y-36588571D02*
X214113571Y-36493333D01*
X214018333Y-36445714D01*
X213875476Y-36445714D01*
X213780238Y-36493333D01*
X213732619Y-36588571D01*
X213732619Y-37112380D01*
X212542142Y-36064761D02*
X213399285Y-37350476D01*
X212208809Y-37112380D02*
X212208809Y-36445714D01*
X212208809Y-36540952D02*
X212161190Y-36493333D01*
X212065952Y-36445714D01*
X211923095Y-36445714D01*
X211827857Y-36493333D01*
X211780238Y-36588571D01*
X211780238Y-37112380D01*
X211780238Y-36588571D02*
X211732619Y-36493333D01*
X211637380Y-36445714D01*
X211494523Y-36445714D01*
X211399285Y-36493333D01*
X211351666Y-36588571D01*
X211351666Y-37112380D01*
X210875476Y-36445714D02*
X210875476Y-37445714D01*
X210875476Y-36493333D02*
X210780238Y-36445714D01*
X210589761Y-36445714D01*
X210494523Y-36493333D01*
X210446904Y-36540952D01*
X210399285Y-36636190D01*
X210399285Y-36921904D01*
X210446904Y-37017142D01*
X210494523Y-37064761D01*
X210589761Y-37112380D01*
X210780238Y-37112380D01*
X210875476Y-37064761D01*
X209970714Y-37112380D02*
X209970714Y-36445714D01*
X209970714Y-36636190D02*
X209923095Y-36540952D01*
X209875476Y-36493333D01*
X209780238Y-36445714D01*
X209685000Y-36445714D01*
X209208809Y-37112380D02*
X209304047Y-37064761D01*
X209351666Y-37017142D01*
X209399285Y-36921904D01*
X209399285Y-36636190D01*
X209351666Y-36540952D01*
X209304047Y-36493333D01*
X209208809Y-36445714D01*
X209065952Y-36445714D01*
X208970714Y-36493333D01*
X208923095Y-36540952D01*
X208875476Y-36636190D01*
X208875476Y-36921904D01*
X208923095Y-37017142D01*
X208970714Y-37064761D01*
X209065952Y-37112380D01*
X209208809Y-37112380D01*
X208494523Y-37064761D02*
X208399285Y-37112380D01*
X208208809Y-37112380D01*
X208113571Y-37064761D01*
X208065952Y-36969523D01*
X208065952Y-36921904D01*
X208113571Y-36826666D01*
X208208809Y-36779047D01*
X208351666Y-36779047D01*
X208446904Y-36731428D01*
X208494523Y-36636190D01*
X208494523Y-36588571D01*
X208446904Y-36493333D01*
X208351666Y-36445714D01*
X208208809Y-36445714D01*
X208113571Y-36493333D01*
X207637380Y-37112380D02*
X207637380Y-36112380D01*
X207542142Y-36731428D02*
X207256428Y-37112380D01*
X207256428Y-36445714D02*
X207637380Y-36826666D01*
X206113571Y-36064761D02*
X206970714Y-37350476D01*
X205780238Y-37112380D02*
X205780238Y-36445714D01*
X205780238Y-36540952D02*
X205732619Y-36493333D01*
X205637380Y-36445714D01*
X205494523Y-36445714D01*
X205399285Y-36493333D01*
X205351666Y-36588571D01*
X205351666Y-37112380D01*
X205351666Y-36588571D02*
X205304047Y-36493333D01*
X205208809Y-36445714D01*
X205065952Y-36445714D01*
X204970714Y-36493333D01*
X204923095Y-36588571D01*
X204923095Y-37112380D01*
X204446904Y-37112380D02*
X204446904Y-36445714D01*
X204446904Y-36112380D02*
X204494523Y-36160000D01*
X204446904Y-36207619D01*
X204399285Y-36160000D01*
X204446904Y-36112380D01*
X204446904Y-36207619D01*
X203970714Y-36445714D02*
X203970714Y-37112380D01*
X203970714Y-36540952D02*
X203923095Y-36493333D01*
X203827857Y-36445714D01*
X203685000Y-36445714D01*
X203589761Y-36493333D01*
X203542142Y-36588571D01*
X203542142Y-37112380D01*
X203065952Y-37112380D02*
X203065952Y-36445714D01*
X203065952Y-36112380D02*
X203113571Y-36160000D01*
X203065952Y-36207619D01*
X203018333Y-36160000D01*
X203065952Y-36112380D01*
X203065952Y-36207619D01*
X202161190Y-37112380D02*
X202161190Y-36112380D01*
X202161190Y-37064761D02*
X202256428Y-37112380D01*
X202446904Y-37112380D01*
X202542142Y-37064761D01*
X202589761Y-37017142D01*
X202637380Y-36921904D01*
X202637380Y-36636190D01*
X202589761Y-36540952D01*
X202542142Y-36493333D01*
X202446904Y-36445714D01*
X202256428Y-36445714D01*
X202161190Y-36493333D01*
X201685000Y-37112380D02*
X201685000Y-36445714D01*
X201685000Y-36636190D02*
X201637380Y-36540952D01*
X201589761Y-36493333D01*
X201494523Y-36445714D01*
X201399285Y-36445714D01*
X200923095Y-37112380D02*
X201018333Y-37064761D01*
X201065952Y-37017142D01*
X201113571Y-36921904D01*
X201113571Y-36636190D01*
X201065952Y-36540952D01*
X201018333Y-36493333D01*
X200923095Y-36445714D01*
X200780238Y-36445714D01*
X200685000Y-36493333D01*
X200637380Y-36540952D01*
X200589761Y-36636190D01*
X200589761Y-36921904D01*
X200637380Y-37017142D01*
X200685000Y-37064761D01*
X200780238Y-37112380D01*
X200923095Y-37112380D01*
X200161190Y-36445714D02*
X200161190Y-37112380D01*
X200161190Y-36540952D02*
X200113571Y-36493333D01*
X200018333Y-36445714D01*
X199875476Y-36445714D01*
X199780238Y-36493333D01*
X199732619Y-36588571D01*
X199732619Y-37112380D01*
X198875476Y-37064761D02*
X198970714Y-37112380D01*
X199161190Y-37112380D01*
X199256428Y-37064761D01*
X199304047Y-36969523D01*
X199304047Y-36588571D01*
X199256428Y-36493333D01*
X199161190Y-36445714D01*
X198970714Y-36445714D01*
X198875476Y-36493333D01*
X198827857Y-36588571D01*
X198827857Y-36683809D01*
X199304047Y-36779047D01*
X222256428Y-38722380D02*
X222256428Y-37722380D01*
X221923095Y-38436666D01*
X221589761Y-37722380D01*
X221589761Y-38722380D01*
X220685000Y-38722380D02*
X220685000Y-38198571D01*
X220732619Y-38103333D01*
X220827857Y-38055714D01*
X221018333Y-38055714D01*
X221113571Y-38103333D01*
X220685000Y-38674761D02*
X220780238Y-38722380D01*
X221018333Y-38722380D01*
X221113571Y-38674761D01*
X221161190Y-38579523D01*
X221161190Y-38484285D01*
X221113571Y-38389047D01*
X221018333Y-38341428D01*
X220780238Y-38341428D01*
X220685000Y-38293809D01*
X220304047Y-38722380D02*
X219780238Y-38055714D01*
X220304047Y-38055714D02*
X219780238Y-38722380D01*
X218637380Y-38722380D02*
X218637380Y-37722380D01*
X218256428Y-37722380D01*
X218161190Y-37770000D01*
X218113571Y-37817619D01*
X218065952Y-37912857D01*
X218065952Y-38055714D01*
X218113571Y-38150952D01*
X218161190Y-38198571D01*
X218256428Y-38246190D01*
X218637380Y-38246190D01*
X217637380Y-38722380D02*
X217637380Y-38055714D01*
X217637380Y-38246190D02*
X217589761Y-38150952D01*
X217542142Y-38103333D01*
X217446904Y-38055714D01*
X217351666Y-38055714D01*
X216875476Y-38722380D02*
X216970714Y-38674761D01*
X217018333Y-38627142D01*
X217065952Y-38531904D01*
X217065952Y-38246190D01*
X217018333Y-38150952D01*
X216970714Y-38103333D01*
X216875476Y-38055714D01*
X216732619Y-38055714D01*
X216637380Y-38103333D01*
X216589761Y-38150952D01*
X216542142Y-38246190D01*
X216542142Y-38531904D01*
X216589761Y-38627142D01*
X216637380Y-38674761D01*
X216732619Y-38722380D01*
X216875476Y-38722380D01*
X216161190Y-38674761D02*
X216065952Y-38722380D01*
X215875476Y-38722380D01*
X215780238Y-38674761D01*
X215732619Y-38579523D01*
X215732619Y-38531904D01*
X215780238Y-38436666D01*
X215875476Y-38389047D01*
X216018333Y-38389047D01*
X216113571Y-38341428D01*
X216161190Y-38246190D01*
X216161190Y-38198571D01*
X216113571Y-38103333D01*
X216018333Y-38055714D01*
X215875476Y-38055714D01*
X215780238Y-38103333D01*
X215304047Y-38722380D02*
X215304047Y-37722380D01*
X215208809Y-38341428D02*
X214923095Y-38722380D01*
X214923095Y-38055714D02*
X215304047Y-38436666D01*
X214065952Y-38722380D02*
X214065952Y-38198571D01*
X214113571Y-38103333D01*
X214208809Y-38055714D01*
X214399285Y-38055714D01*
X214494523Y-38103333D01*
X214065952Y-38674761D02*
X214161190Y-38722380D01*
X214399285Y-38722380D01*
X214494523Y-38674761D01*
X214542142Y-38579523D01*
X214542142Y-38484285D01*
X214494523Y-38389047D01*
X214399285Y-38341428D01*
X214161190Y-38341428D01*
X214065952Y-38293809D01*
X213161190Y-38055714D02*
X213161190Y-38722380D01*
X213589761Y-38055714D02*
X213589761Y-38579523D01*
X213542142Y-38674761D01*
X213446904Y-38722380D01*
X213304047Y-38722380D01*
X213208809Y-38674761D01*
X213161190Y-38627142D01*
X212304047Y-38674761D02*
X212399285Y-38722380D01*
X212589761Y-38722380D01*
X212685000Y-38674761D01*
X212732619Y-38579523D01*
X212732619Y-38198571D01*
X212685000Y-38103333D01*
X212589761Y-38055714D01*
X212399285Y-38055714D01*
X212304047Y-38103333D01*
X212256428Y-38198571D01*
X212256428Y-38293809D01*
X212732619Y-38389047D01*
X211827857Y-38722380D02*
X211827857Y-38055714D01*
X211827857Y-38246190D02*
X211780238Y-38150952D01*
X211732619Y-38103333D01*
X211637380Y-38055714D01*
X211542142Y-38055714D01*
X209780238Y-38055714D02*
X209542142Y-38722380D01*
X209304047Y-38055714D01*
X208732619Y-37722380D02*
X208637380Y-37722380D01*
X208542142Y-37770000D01*
X208494523Y-37817619D01*
X208446904Y-37912857D01*
X208399285Y-38103333D01*
X208399285Y-38341428D01*
X208446904Y-38531904D01*
X208494523Y-38627142D01*
X208542142Y-38674761D01*
X208637380Y-38722380D01*
X208732619Y-38722380D01*
X208827857Y-38674761D01*
X208875476Y-38627142D01*
X208923095Y-38531904D01*
X208970714Y-38341428D01*
X208970714Y-38103333D01*
X208923095Y-37912857D01*
X208875476Y-37817619D01*
X208827857Y-37770000D01*
X208732619Y-37722380D01*
X207970714Y-38627142D02*
X207923095Y-38674761D01*
X207970714Y-38722380D01*
X208018333Y-38674761D01*
X207970714Y-38627142D01*
X207970714Y-38722380D01*
X206970714Y-38722380D02*
X207542142Y-38722380D01*
X207256428Y-38722380D02*
X207256428Y-37722380D01*
X207351666Y-37865238D01*
X207446904Y-37960476D01*
X207542142Y-38008095D01*
X205018333Y-38722380D02*
X205018333Y-37722380D01*
X204685000Y-38436666D01*
X204351666Y-37722380D01*
X204351666Y-38722380D01*
X203446904Y-38722380D02*
X203446904Y-38198571D01*
X203494523Y-38103333D01*
X203589761Y-38055714D01*
X203780238Y-38055714D01*
X203875476Y-38103333D01*
X203446904Y-38674761D02*
X203542142Y-38722380D01*
X203780238Y-38722380D01*
X203875476Y-38674761D01*
X203923095Y-38579523D01*
X203923095Y-38484285D01*
X203875476Y-38389047D01*
X203780238Y-38341428D01*
X203542142Y-38341428D01*
X203446904Y-38293809D01*
X203065952Y-38055714D02*
X202827857Y-38722380D01*
X202589761Y-38055714D02*
X202827857Y-38722380D01*
X202923095Y-38960476D01*
X202970714Y-39008095D01*
X203065952Y-39055714D01*
X201494523Y-37817619D02*
X201446904Y-37770000D01*
X201351666Y-37722380D01*
X201113571Y-37722380D01*
X201018333Y-37770000D01*
X200970714Y-37817619D01*
X200923095Y-37912857D01*
X200923095Y-38008095D01*
X200970714Y-38150952D01*
X201542142Y-38722380D01*
X200923095Y-38722380D01*
X200304047Y-37722380D02*
X200208809Y-37722380D01*
X200113571Y-37770000D01*
X200065952Y-37817619D01*
X200018333Y-37912857D01*
X199970714Y-38103333D01*
X199970714Y-38341428D01*
X200018333Y-38531904D01*
X200065952Y-38627142D01*
X200113571Y-38674761D01*
X200208809Y-38722380D01*
X200304047Y-38722380D01*
X200399285Y-38674761D01*
X200446904Y-38627142D01*
X200494523Y-38531904D01*
X200542142Y-38341428D01*
X200542142Y-38103333D01*
X200494523Y-37912857D01*
X200446904Y-37817619D01*
X200399285Y-37770000D01*
X200304047Y-37722380D01*
X199589761Y-37817619D02*
X199542142Y-37770000D01*
X199446904Y-37722380D01*
X199208809Y-37722380D01*
X199113571Y-37770000D01*
X199065952Y-37817619D01*
X199018333Y-37912857D01*
X199018333Y-38008095D01*
X199065952Y-38150952D01*
X199637380Y-38722380D01*
X199018333Y-38722380D01*
X198637380Y-37817619D02*
X198589761Y-37770000D01*
X198494523Y-37722380D01*
X198256428Y-37722380D01*
X198161190Y-37770000D01*
X198113571Y-37817619D01*
X198065952Y-37912857D01*
X198065952Y-38008095D01*
X198113571Y-38150952D01*
X198685000Y-38722380D01*
X198065952Y-38722380D01*
X169711666Y-104422380D02*
X170045000Y-103946190D01*
X170283095Y-104422380D02*
X170283095Y-103422380D01*
X169902142Y-103422380D01*
X169806904Y-103470000D01*
X169759285Y-103517619D01*
X169711666Y-103612857D01*
X169711666Y-103755714D01*
X169759285Y-103850952D01*
X169806904Y-103898571D01*
X169902142Y-103946190D01*
X170283095Y-103946190D01*
X168854523Y-103422380D02*
X169045000Y-103422380D01*
X169140238Y-103470000D01*
X169187857Y-103517619D01*
X169283095Y-103660476D01*
X169330714Y-103850952D01*
X169330714Y-104231904D01*
X169283095Y-104327142D01*
X169235476Y-104374761D01*
X169140238Y-104422380D01*
X168949761Y-104422380D01*
X168854523Y-104374761D01*
X168806904Y-104327142D01*
X168759285Y-104231904D01*
X168759285Y-103993809D01*
X168806904Y-103898571D01*
X168854523Y-103850952D01*
X168949761Y-103803333D01*
X169140238Y-103803333D01*
X169235476Y-103850952D01*
X169283095Y-103898571D01*
X169330714Y-103993809D01*
X170616428Y-101977380D02*
X171187857Y-101977380D01*
X170902142Y-101977380D02*
X170902142Y-100977380D01*
X170997380Y-101120238D01*
X171092619Y-101215476D01*
X171187857Y-101263095D01*
X169997380Y-100977380D02*
X169902142Y-100977380D01*
X169806904Y-101025000D01*
X169759285Y-101072619D01*
X169711666Y-101167857D01*
X169664047Y-101358333D01*
X169664047Y-101596428D01*
X169711666Y-101786904D01*
X169759285Y-101882142D01*
X169806904Y-101929761D01*
X169902142Y-101977380D01*
X169997380Y-101977380D01*
X170092619Y-101929761D01*
X170140238Y-101882142D01*
X170187857Y-101786904D01*
X170235476Y-101596428D01*
X170235476Y-101358333D01*
X170187857Y-101167857D01*
X170140238Y-101072619D01*
X170092619Y-101025000D01*
X169997380Y-100977380D01*
X169045000Y-100977380D02*
X168949761Y-100977380D01*
X168854523Y-101025000D01*
X168806904Y-101072619D01*
X168759285Y-101167857D01*
X168711666Y-101358333D01*
X168711666Y-101596428D01*
X168759285Y-101786904D01*
X168806904Y-101882142D01*
X168854523Y-101929761D01*
X168949761Y-101977380D01*
X169045000Y-101977380D01*
X169140238Y-101929761D01*
X169187857Y-101882142D01*
X169235476Y-101786904D01*
X169283095Y-101596428D01*
X169283095Y-101358333D01*
X169235476Y-101167857D01*
X169187857Y-101072619D01*
X169140238Y-101025000D01*
X169045000Y-100977380D01*
X168283095Y-101977380D02*
X168283095Y-100977380D01*
X168187857Y-101596428D02*
X167902142Y-101977380D01*
X167902142Y-101310714D02*
X168283095Y-101691666D01*
X220678333Y-57872380D02*
X220678333Y-58586666D01*
X220725952Y-58729523D01*
X220821190Y-58824761D01*
X220964047Y-58872380D01*
X221059285Y-58872380D01*
X220297380Y-57872380D02*
X219678333Y-57872380D01*
X220011666Y-58253333D01*
X219868809Y-58253333D01*
X219773571Y-58300952D01*
X219725952Y-58348571D01*
X219678333Y-58443809D01*
X219678333Y-58681904D01*
X219725952Y-58777142D01*
X219773571Y-58824761D01*
X219868809Y-58872380D01*
X220154523Y-58872380D01*
X220249761Y-58824761D01*
X220297380Y-58777142D01*
X185586666Y-145137142D02*
X185634285Y-145184761D01*
X185777142Y-145232380D01*
X185872380Y-145232380D01*
X186015238Y-145184761D01*
X186110476Y-145089523D01*
X186158095Y-144994285D01*
X186205714Y-144803809D01*
X186205714Y-144660952D01*
X186158095Y-144470476D01*
X186110476Y-144375238D01*
X186015238Y-144280000D01*
X185872380Y-144232380D01*
X185777142Y-144232380D01*
X185634285Y-144280000D01*
X185586666Y-144327619D01*
X184681904Y-144232380D02*
X185158095Y-144232380D01*
X185205714Y-144708571D01*
X185158095Y-144660952D01*
X185062857Y-144613333D01*
X184824761Y-144613333D01*
X184729523Y-144660952D01*
X184681904Y-144708571D01*
X184634285Y-144803809D01*
X184634285Y-145041904D01*
X184681904Y-145137142D01*
X184729523Y-145184761D01*
X184824761Y-145232380D01*
X185062857Y-145232380D01*
X185158095Y-145184761D01*
X185205714Y-145137142D01*
X185856428Y-147137380D02*
X186427857Y-147137380D01*
X186142142Y-147137380D02*
X186142142Y-146137380D01*
X186237380Y-146280238D01*
X186332619Y-146375476D01*
X186427857Y-146423095D01*
X185237380Y-146137380D02*
X185142142Y-146137380D01*
X185046904Y-146185000D01*
X184999285Y-146232619D01*
X184951666Y-146327857D01*
X184904047Y-146518333D01*
X184904047Y-146756428D01*
X184951666Y-146946904D01*
X184999285Y-147042142D01*
X185046904Y-147089761D01*
X185142142Y-147137380D01*
X185237380Y-147137380D01*
X185332619Y-147089761D01*
X185380238Y-147042142D01*
X185427857Y-146946904D01*
X185475476Y-146756428D01*
X185475476Y-146518333D01*
X185427857Y-146327857D01*
X185380238Y-146232619D01*
X185332619Y-146185000D01*
X185237380Y-146137380D01*
X184046904Y-146470714D02*
X184046904Y-147137380D01*
X184475476Y-146470714D02*
X184475476Y-146994523D01*
X184427857Y-147089761D01*
X184332619Y-147137380D01*
X184189761Y-147137380D01*
X184094523Y-147089761D01*
X184046904Y-147042142D01*
X183237380Y-146613571D02*
X183570714Y-146613571D01*
X183570714Y-147137380D02*
X183570714Y-146137380D01*
X183094523Y-146137380D01*
X177807857Y-134437380D02*
X178141190Y-133961190D01*
X178379285Y-134437380D02*
X178379285Y-133437380D01*
X177998333Y-133437380D01*
X177903095Y-133485000D01*
X177855476Y-133532619D01*
X177807857Y-133627857D01*
X177807857Y-133770714D01*
X177855476Y-133865952D01*
X177903095Y-133913571D01*
X177998333Y-133961190D01*
X178379285Y-133961190D01*
X177474523Y-133437380D02*
X176855476Y-133437380D01*
X177188809Y-133818333D01*
X177045952Y-133818333D01*
X176950714Y-133865952D01*
X176903095Y-133913571D01*
X176855476Y-134008809D01*
X176855476Y-134246904D01*
X176903095Y-134342142D01*
X176950714Y-134389761D01*
X177045952Y-134437380D01*
X177331666Y-134437380D01*
X177426904Y-134389761D01*
X177474523Y-134342142D01*
X176474523Y-133532619D02*
X176426904Y-133485000D01*
X176331666Y-133437380D01*
X176093571Y-133437380D01*
X175998333Y-133485000D01*
X175950714Y-133532619D01*
X175903095Y-133627857D01*
X175903095Y-133723095D01*
X175950714Y-133865952D01*
X176522142Y-134437380D01*
X175903095Y-134437380D01*
X183078333Y-132167380D02*
X183078333Y-132881666D01*
X183125952Y-133024523D01*
X183221190Y-133119761D01*
X183364047Y-133167380D01*
X183459285Y-133167380D01*
X182602142Y-133167380D02*
X182602142Y-132167380D01*
X182221190Y-132167380D01*
X182125952Y-132215000D01*
X182078333Y-132262619D01*
X182030714Y-132357857D01*
X182030714Y-132500714D01*
X182078333Y-132595952D01*
X182125952Y-132643571D01*
X182221190Y-132691190D01*
X182602142Y-132691190D01*
X181078333Y-133167380D02*
X181649761Y-133167380D01*
X181364047Y-133167380D02*
X181364047Y-132167380D01*
X181459285Y-132310238D01*
X181554523Y-132405476D01*
X181649761Y-132453095D01*
X184078571Y-128151190D02*
X184126190Y-128294047D01*
X184173809Y-128341666D01*
X184269047Y-128389285D01*
X184411904Y-128389285D01*
X184507142Y-128341666D01*
X184554761Y-128294047D01*
X184602380Y-128198809D01*
X184602380Y-127817857D01*
X183602380Y-127817857D01*
X183602380Y-128151190D01*
X183650000Y-128246428D01*
X183697619Y-128294047D01*
X183792857Y-128341666D01*
X183888095Y-128341666D01*
X183983333Y-128294047D01*
X184030952Y-128246428D01*
X184078571Y-128151190D01*
X184078571Y-127817857D01*
X183935714Y-128722619D02*
X184602380Y-128960714D01*
X183935714Y-129198809D02*
X184602380Y-128960714D01*
X184840476Y-128865476D01*
X184888095Y-128817857D01*
X184935714Y-128722619D01*
X183935714Y-129579761D02*
X184935714Y-129579761D01*
X183983333Y-129579761D02*
X183935714Y-129675000D01*
X183935714Y-129865476D01*
X183983333Y-129960714D01*
X184030952Y-130008333D01*
X184126190Y-130055952D01*
X184411904Y-130055952D01*
X184507142Y-130008333D01*
X184554761Y-129960714D01*
X184602380Y-129865476D01*
X184602380Y-129675000D01*
X184554761Y-129579761D01*
X184602380Y-130913095D02*
X184078571Y-130913095D01*
X183983333Y-130865476D01*
X183935714Y-130770238D01*
X183935714Y-130579761D01*
X183983333Y-130484523D01*
X184554761Y-130913095D02*
X184602380Y-130817857D01*
X184602380Y-130579761D01*
X184554761Y-130484523D01*
X184459523Y-130436904D01*
X184364285Y-130436904D01*
X184269047Y-130484523D01*
X184221428Y-130579761D01*
X184221428Y-130817857D01*
X184173809Y-130913095D01*
X184554761Y-131341666D02*
X184602380Y-131436904D01*
X184602380Y-131627380D01*
X184554761Y-131722619D01*
X184459523Y-131770238D01*
X184411904Y-131770238D01*
X184316666Y-131722619D01*
X184269047Y-131627380D01*
X184269047Y-131484523D01*
X184221428Y-131389285D01*
X184126190Y-131341666D01*
X184078571Y-131341666D01*
X183983333Y-131389285D01*
X183935714Y-131484523D01*
X183935714Y-131627380D01*
X183983333Y-131722619D01*
X184554761Y-132151190D02*
X184602380Y-132246428D01*
X184602380Y-132436904D01*
X184554761Y-132532142D01*
X184459523Y-132579761D01*
X184411904Y-132579761D01*
X184316666Y-132532142D01*
X184269047Y-132436904D01*
X184269047Y-132294047D01*
X184221428Y-132198809D01*
X184126190Y-132151190D01*
X184078571Y-132151190D01*
X183983333Y-132198809D01*
X183935714Y-132294047D01*
X183935714Y-132436904D01*
X183983333Y-132532142D01*
X222702380Y-116197142D02*
X222226190Y-115863809D01*
X222702380Y-115625714D02*
X221702380Y-115625714D01*
X221702380Y-116006666D01*
X221750000Y-116101904D01*
X221797619Y-116149523D01*
X221892857Y-116197142D01*
X222035714Y-116197142D01*
X222130952Y-116149523D01*
X222178571Y-116101904D01*
X222226190Y-116006666D01*
X222226190Y-115625714D01*
X221702380Y-116530476D02*
X221702380Y-117149523D01*
X222083333Y-116816190D01*
X222083333Y-116959047D01*
X222130952Y-117054285D01*
X222178571Y-117101904D01*
X222273809Y-117149523D01*
X222511904Y-117149523D01*
X222607142Y-117101904D01*
X222654761Y-117054285D01*
X222702380Y-116959047D01*
X222702380Y-116673333D01*
X222654761Y-116578095D01*
X222607142Y-116530476D01*
X221702380Y-117768571D02*
X221702380Y-117863809D01*
X221750000Y-117959047D01*
X221797619Y-118006666D01*
X221892857Y-118054285D01*
X222083333Y-118101904D01*
X222321428Y-118101904D01*
X222511904Y-118054285D01*
X222607142Y-118006666D01*
X222654761Y-117959047D01*
X222702380Y-117863809D01*
X222702380Y-117768571D01*
X222654761Y-117673333D01*
X222607142Y-117625714D01*
X222511904Y-117578095D01*
X222321428Y-117530476D01*
X222083333Y-117530476D01*
X221892857Y-117578095D01*
X221797619Y-117625714D01*
X221750000Y-117673333D01*
X221702380Y-117768571D01*
X220162380Y-116720952D02*
X220162380Y-116149523D01*
X220162380Y-116435238D02*
X219162380Y-116435238D01*
X219305238Y-116340000D01*
X219400476Y-116244761D01*
X219448095Y-116149523D01*
X220162380Y-117149523D02*
X219162380Y-117149523D01*
X219781428Y-117244761D02*
X220162380Y-117530476D01*
X219495714Y-117530476D02*
X219876666Y-117149523D01*
X186697857Y-103322380D02*
X187031190Y-102846190D01*
X187269285Y-103322380D02*
X187269285Y-102322380D01*
X186888333Y-102322380D01*
X186793095Y-102370000D01*
X186745476Y-102417619D01*
X186697857Y-102512857D01*
X186697857Y-102655714D01*
X186745476Y-102750952D01*
X186793095Y-102798571D01*
X186888333Y-102846190D01*
X187269285Y-102846190D01*
X185745476Y-103322380D02*
X186316904Y-103322380D01*
X186031190Y-103322380D02*
X186031190Y-102322380D01*
X186126428Y-102465238D01*
X186221666Y-102560476D01*
X186316904Y-102608095D01*
X185269285Y-103322380D02*
X185078809Y-103322380D01*
X184983571Y-103274761D01*
X184935952Y-103227142D01*
X184840714Y-103084285D01*
X184793095Y-102893809D01*
X184793095Y-102512857D01*
X184840714Y-102417619D01*
X184888333Y-102370000D01*
X184983571Y-102322380D01*
X185174047Y-102322380D01*
X185269285Y-102370000D01*
X185316904Y-102417619D01*
X185364523Y-102512857D01*
X185364523Y-102750952D01*
X185316904Y-102846190D01*
X185269285Y-102893809D01*
X185174047Y-102941428D01*
X184983571Y-102941428D01*
X184888333Y-102893809D01*
X184840714Y-102846190D01*
X184793095Y-102750952D01*
X195381428Y-103322380D02*
X195952857Y-103322380D01*
X195667142Y-103322380D02*
X195667142Y-102322380D01*
X195762380Y-102465238D01*
X195857619Y-102560476D01*
X195952857Y-102608095D01*
X194762380Y-102322380D02*
X194667142Y-102322380D01*
X194571904Y-102370000D01*
X194524285Y-102417619D01*
X194476666Y-102512857D01*
X194429047Y-102703333D01*
X194429047Y-102941428D01*
X194476666Y-103131904D01*
X194524285Y-103227142D01*
X194571904Y-103274761D01*
X194667142Y-103322380D01*
X194762380Y-103322380D01*
X194857619Y-103274761D01*
X194905238Y-103227142D01*
X194952857Y-103131904D01*
X195000476Y-102941428D01*
X195000476Y-102703333D01*
X194952857Y-102512857D01*
X194905238Y-102417619D01*
X194857619Y-102370000D01*
X194762380Y-102322380D01*
X193810000Y-102322380D02*
X193714761Y-102322380D01*
X193619523Y-102370000D01*
X193571904Y-102417619D01*
X193524285Y-102512857D01*
X193476666Y-102703333D01*
X193476666Y-102941428D01*
X193524285Y-103131904D01*
X193571904Y-103227142D01*
X193619523Y-103274761D01*
X193714761Y-103322380D01*
X193810000Y-103322380D01*
X193905238Y-103274761D01*
X193952857Y-103227142D01*
X194000476Y-103131904D01*
X194048095Y-102941428D01*
X194048095Y-102703333D01*
X194000476Y-102512857D01*
X193952857Y-102417619D01*
X193905238Y-102370000D01*
X193810000Y-102322380D01*
X193048095Y-103322380D02*
X193048095Y-102322380D01*
X192952857Y-102941428D02*
X192667142Y-103322380D01*
X192667142Y-102655714D02*
X193048095Y-103036666D01*
X180506666Y-112137380D02*
X180840000Y-111661190D01*
X181078095Y-112137380D02*
X181078095Y-111137380D01*
X180697142Y-111137380D01*
X180601904Y-111185000D01*
X180554285Y-111232619D01*
X180506666Y-111327857D01*
X180506666Y-111470714D01*
X180554285Y-111565952D01*
X180601904Y-111613571D01*
X180697142Y-111661190D01*
X181078095Y-111661190D01*
X180173333Y-111137380D02*
X179506666Y-111137380D01*
X179935238Y-112137380D01*
X180459047Y-109597380D02*
X181030476Y-109597380D01*
X180744761Y-109597380D02*
X180744761Y-108597380D01*
X180840000Y-108740238D01*
X180935238Y-108835476D01*
X181030476Y-108883095D01*
X180030476Y-109597380D02*
X180030476Y-108597380D01*
X179935238Y-109216428D02*
X179649523Y-109597380D01*
X179649523Y-108930714D02*
X180030476Y-109311666D01*
X184880238Y-137632619D02*
X184975476Y-137585000D01*
X185070714Y-137489761D01*
X185213571Y-137346904D01*
X185308809Y-137299285D01*
X185404047Y-137299285D01*
X185356428Y-137537380D02*
X185451666Y-137489761D01*
X185546904Y-137394523D01*
X185594523Y-137204047D01*
X185594523Y-136870714D01*
X185546904Y-136680238D01*
X185451666Y-136585000D01*
X185356428Y-136537380D01*
X185165952Y-136537380D01*
X185070714Y-136585000D01*
X184975476Y-136680238D01*
X184927857Y-136870714D01*
X184927857Y-137204047D01*
X184975476Y-137394523D01*
X185070714Y-137489761D01*
X185165952Y-137537380D01*
X185356428Y-137537380D01*
X184023095Y-136537380D02*
X184499285Y-136537380D01*
X184546904Y-137013571D01*
X184499285Y-136965952D01*
X184404047Y-136918333D01*
X184165952Y-136918333D01*
X184070714Y-136965952D01*
X184023095Y-137013571D01*
X183975476Y-137108809D01*
X183975476Y-137346904D01*
X184023095Y-137442142D01*
X184070714Y-137489761D01*
X184165952Y-137537380D01*
X184404047Y-137537380D01*
X184499285Y-137489761D01*
X184546904Y-137442142D01*
X193972380Y-57658095D02*
X194781904Y-57658095D01*
X194877142Y-57705714D01*
X194924761Y-57753333D01*
X194972380Y-57848571D01*
X194972380Y-58039047D01*
X194924761Y-58134285D01*
X194877142Y-58181904D01*
X194781904Y-58229523D01*
X193972380Y-58229523D01*
X194972380Y-59229523D02*
X194972380Y-58658095D01*
X194972380Y-58943809D02*
X193972380Y-58943809D01*
X194115238Y-58848571D01*
X194210476Y-58753333D01*
X194258095Y-58658095D01*
X189872857Y-130627380D02*
X190206190Y-130151190D01*
X190444285Y-130627380D02*
X190444285Y-129627380D01*
X190063333Y-129627380D01*
X189968095Y-129675000D01*
X189920476Y-129722619D01*
X189872857Y-129817857D01*
X189872857Y-129960714D01*
X189920476Y-130055952D01*
X189968095Y-130103571D01*
X190063333Y-130151190D01*
X190444285Y-130151190D01*
X189491904Y-129722619D02*
X189444285Y-129675000D01*
X189349047Y-129627380D01*
X189110952Y-129627380D01*
X189015714Y-129675000D01*
X188968095Y-129722619D01*
X188920476Y-129817857D01*
X188920476Y-129913095D01*
X188968095Y-130055952D01*
X189539523Y-130627380D01*
X188920476Y-130627380D01*
X188015714Y-129627380D02*
X188491904Y-129627380D01*
X188539523Y-130103571D01*
X188491904Y-130055952D01*
X188396666Y-130008333D01*
X188158571Y-130008333D01*
X188063333Y-130055952D01*
X188015714Y-130103571D01*
X187968095Y-130198809D01*
X187968095Y-130436904D01*
X188015714Y-130532142D01*
X188063333Y-130579761D01*
X188158571Y-130627380D01*
X188396666Y-130627380D01*
X188491904Y-130579761D01*
X188539523Y-130532142D01*
D10*
X199497619Y-129813095D02*
X199459523Y-129775000D01*
X199383333Y-129736904D01*
X199192857Y-129736904D01*
X199116666Y-129775000D01*
X199078571Y-129813095D01*
X199040476Y-129889285D01*
X199040476Y-129965476D01*
X199078571Y-130079761D01*
X199535714Y-130536904D01*
X199040476Y-130536904D01*
X198545238Y-129736904D02*
X198469047Y-129736904D01*
X198392857Y-129775000D01*
X198354761Y-129813095D01*
X198316666Y-129889285D01*
X198278571Y-130041666D01*
X198278571Y-130232142D01*
X198316666Y-130384523D01*
X198354761Y-130460714D01*
X198392857Y-130498809D01*
X198469047Y-130536904D01*
X198545238Y-130536904D01*
X198621428Y-130498809D01*
X198659523Y-130460714D01*
X198697619Y-130384523D01*
X198735714Y-130232142D01*
X198735714Y-130041666D01*
X198697619Y-129889285D01*
X198659523Y-129813095D01*
X198621428Y-129775000D01*
X198545238Y-129736904D01*
X197935714Y-130536904D02*
X197935714Y-129736904D01*
X197859523Y-130232142D02*
X197630952Y-130536904D01*
X197630952Y-130003571D02*
X197935714Y-130308333D01*
X196526190Y-129736904D02*
X196450000Y-129736904D01*
X196373809Y-129775000D01*
X196335714Y-129813095D01*
X196297619Y-129889285D01*
X196259523Y-130041666D01*
X196259523Y-130232142D01*
X196297619Y-130384523D01*
X196335714Y-130460714D01*
X196373809Y-130498809D01*
X196450000Y-130536904D01*
X196526190Y-130536904D01*
X196602380Y-130498809D01*
X196640476Y-130460714D01*
X196678571Y-130384523D01*
X196716666Y-130232142D01*
X196716666Y-130041666D01*
X196678571Y-129889285D01*
X196640476Y-129813095D01*
X196602380Y-129775000D01*
X196526190Y-129736904D01*
X195916666Y-130460714D02*
X195878571Y-130498809D01*
X195916666Y-130536904D01*
X195954761Y-130498809D01*
X195916666Y-130460714D01*
X195916666Y-130536904D01*
X195116666Y-130536904D02*
X195573809Y-130536904D01*
X195345238Y-130536904D02*
X195345238Y-129736904D01*
X195421428Y-129851190D01*
X195497619Y-129927380D01*
X195573809Y-129965476D01*
X194811904Y-130536904D02*
X194202380Y-129736904D01*
X194697619Y-129736904D02*
X194621428Y-129775000D01*
X194583333Y-129851190D01*
X194621428Y-129927380D01*
X194697619Y-129965476D01*
X194773809Y-129927380D01*
X194811904Y-129851190D01*
X194773809Y-129775000D01*
X194697619Y-129736904D01*
X194240476Y-130498809D02*
X194202380Y-130422619D01*
X194240476Y-130346428D01*
X194316666Y-130308333D01*
X194392857Y-130346428D01*
X194430952Y-130422619D01*
X194392857Y-130498809D01*
X194316666Y-130536904D01*
X194240476Y-130498809D01*
D11*
X165671666Y-123007380D02*
X166005000Y-122531190D01*
X166243095Y-123007380D02*
X166243095Y-122007380D01*
X165862142Y-122007380D01*
X165766904Y-122055000D01*
X165719285Y-122102619D01*
X165671666Y-122197857D01*
X165671666Y-122340714D01*
X165719285Y-122435952D01*
X165766904Y-122483571D01*
X165862142Y-122531190D01*
X166243095Y-122531190D01*
X165100238Y-122435952D02*
X165195476Y-122388333D01*
X165243095Y-122340714D01*
X165290714Y-122245476D01*
X165290714Y-122197857D01*
X165243095Y-122102619D01*
X165195476Y-122055000D01*
X165100238Y-122007380D01*
X164909761Y-122007380D01*
X164814523Y-122055000D01*
X164766904Y-122102619D01*
X164719285Y-122197857D01*
X164719285Y-122245476D01*
X164766904Y-122340714D01*
X164814523Y-122388333D01*
X164909761Y-122435952D01*
X165100238Y-122435952D01*
X165195476Y-122483571D01*
X165243095Y-122531190D01*
X165290714Y-122626428D01*
X165290714Y-122816904D01*
X165243095Y-122912142D01*
X165195476Y-122959761D01*
X165100238Y-123007380D01*
X164909761Y-123007380D01*
X164814523Y-122959761D01*
X164766904Y-122912142D01*
X164719285Y-122816904D01*
X164719285Y-122626428D01*
X164766904Y-122531190D01*
X164814523Y-122483571D01*
X164909761Y-122435952D01*
X170616428Y-125472380D02*
X171187857Y-125472380D01*
X170902142Y-125472380D02*
X170902142Y-124472380D01*
X170997380Y-124615238D01*
X171092619Y-124710476D01*
X171187857Y-124758095D01*
X169997380Y-124472380D02*
X169902142Y-124472380D01*
X169806904Y-124520000D01*
X169759285Y-124567619D01*
X169711666Y-124662857D01*
X169664047Y-124853333D01*
X169664047Y-125091428D01*
X169711666Y-125281904D01*
X169759285Y-125377142D01*
X169806904Y-125424761D01*
X169902142Y-125472380D01*
X169997380Y-125472380D01*
X170092619Y-125424761D01*
X170140238Y-125377142D01*
X170187857Y-125281904D01*
X170235476Y-125091428D01*
X170235476Y-124853333D01*
X170187857Y-124662857D01*
X170140238Y-124567619D01*
X170092619Y-124520000D01*
X169997380Y-124472380D01*
X169045000Y-124472380D02*
X168949761Y-124472380D01*
X168854523Y-124520000D01*
X168806904Y-124567619D01*
X168759285Y-124662857D01*
X168711666Y-124853333D01*
X168711666Y-125091428D01*
X168759285Y-125281904D01*
X168806904Y-125377142D01*
X168854523Y-125424761D01*
X168949761Y-125472380D01*
X169045000Y-125472380D01*
X169140238Y-125424761D01*
X169187857Y-125377142D01*
X169235476Y-125281904D01*
X169283095Y-125091428D01*
X169283095Y-124853333D01*
X169235476Y-124662857D01*
X169187857Y-124567619D01*
X169140238Y-124520000D01*
X169045000Y-124472380D01*
X168283095Y-125472380D02*
X168283095Y-124472380D01*
X168187857Y-125091428D02*
X167902142Y-125472380D01*
X167902142Y-124805714D02*
X168283095Y-125186666D01*
X169696666Y-56967380D02*
X170030000Y-56491190D01*
X170268095Y-56967380D02*
X170268095Y-55967380D01*
X169887142Y-55967380D01*
X169791904Y-56015000D01*
X169744285Y-56062619D01*
X169696666Y-56157857D01*
X169696666Y-56300714D01*
X169744285Y-56395952D01*
X169791904Y-56443571D01*
X169887142Y-56491190D01*
X170268095Y-56491190D01*
X169315714Y-56062619D02*
X169268095Y-56015000D01*
X169172857Y-55967380D01*
X168934761Y-55967380D01*
X168839523Y-56015000D01*
X168791904Y-56062619D01*
X168744285Y-56157857D01*
X168744285Y-56253095D01*
X168791904Y-56395952D01*
X169363333Y-56967380D01*
X168744285Y-56967380D01*
X170616428Y-54427380D02*
X171187857Y-54427380D01*
X170902142Y-54427380D02*
X170902142Y-53427380D01*
X170997380Y-53570238D01*
X171092619Y-53665476D01*
X171187857Y-53713095D01*
X169997380Y-53427380D02*
X169902142Y-53427380D01*
X169806904Y-53475000D01*
X169759285Y-53522619D01*
X169711666Y-53617857D01*
X169664047Y-53808333D01*
X169664047Y-54046428D01*
X169711666Y-54236904D01*
X169759285Y-54332142D01*
X169806904Y-54379761D01*
X169902142Y-54427380D01*
X169997380Y-54427380D01*
X170092619Y-54379761D01*
X170140238Y-54332142D01*
X170187857Y-54236904D01*
X170235476Y-54046428D01*
X170235476Y-53808333D01*
X170187857Y-53617857D01*
X170140238Y-53522619D01*
X170092619Y-53475000D01*
X169997380Y-53427380D01*
X169045000Y-53427380D02*
X168949761Y-53427380D01*
X168854523Y-53475000D01*
X168806904Y-53522619D01*
X168759285Y-53617857D01*
X168711666Y-53808333D01*
X168711666Y-54046428D01*
X168759285Y-54236904D01*
X168806904Y-54332142D01*
X168854523Y-54379761D01*
X168949761Y-54427380D01*
X169045000Y-54427380D01*
X169140238Y-54379761D01*
X169187857Y-54332142D01*
X169235476Y-54236904D01*
X169283095Y-54046428D01*
X169283095Y-53808333D01*
X169235476Y-53617857D01*
X169187857Y-53522619D01*
X169140238Y-53475000D01*
X169045000Y-53427380D01*
X168283095Y-54427380D02*
X168283095Y-53427380D01*
X168187857Y-54046428D02*
X167902142Y-54427380D01*
X167902142Y-53760714D02*
X168283095Y-54141666D01*
X208446666Y-87352142D02*
X208494285Y-87399761D01*
X208637142Y-87447380D01*
X208732380Y-87447380D01*
X208875238Y-87399761D01*
X208970476Y-87304523D01*
X209018095Y-87209285D01*
X209065714Y-87018809D01*
X209065714Y-86875952D01*
X209018095Y-86685476D01*
X208970476Y-86590238D01*
X208875238Y-86495000D01*
X208732380Y-86447380D01*
X208637142Y-86447380D01*
X208494285Y-86495000D01*
X208446666Y-86542619D01*
X208113333Y-86447380D02*
X207446666Y-86447380D01*
X207875238Y-87447380D01*
X210319761Y-88050714D02*
X210319761Y-88717380D01*
X210557857Y-87669761D02*
X210795952Y-88384047D01*
X210176904Y-88384047D01*
X209795952Y-88622142D02*
X209748333Y-88669761D01*
X209795952Y-88717380D01*
X209843571Y-88669761D01*
X209795952Y-88622142D01*
X209795952Y-88717380D01*
X209415000Y-87717380D02*
X208748333Y-87717380D01*
X209176904Y-88717380D01*
X207938809Y-88050714D02*
X207938809Y-88717380D01*
X208367380Y-88050714D02*
X208367380Y-88574523D01*
X208319761Y-88669761D01*
X208224523Y-88717380D01*
X208081666Y-88717380D01*
X207986428Y-88669761D01*
X207938809Y-88622142D01*
X207129285Y-88193571D02*
X207462619Y-88193571D01*
X207462619Y-88717380D02*
X207462619Y-87717380D01*
X206986428Y-87717380D01*
X222257857Y-54427380D02*
X222591190Y-53951190D01*
X222829285Y-54427380D02*
X222829285Y-53427380D01*
X222448333Y-53427380D01*
X222353095Y-53475000D01*
X222305476Y-53522619D01*
X222257857Y-53617857D01*
X222257857Y-53760714D01*
X222305476Y-53855952D01*
X222353095Y-53903571D01*
X222448333Y-53951190D01*
X222829285Y-53951190D01*
X221305476Y-54427380D02*
X221876904Y-54427380D01*
X221591190Y-54427380D02*
X221591190Y-53427380D01*
X221686428Y-53570238D01*
X221781666Y-53665476D01*
X221876904Y-53713095D01*
X220448333Y-53427380D02*
X220638809Y-53427380D01*
X220734047Y-53475000D01*
X220781666Y-53522619D01*
X220876904Y-53665476D01*
X220924523Y-53855952D01*
X220924523Y-54236904D01*
X220876904Y-54332142D01*
X220829285Y-54379761D01*
X220734047Y-54427380D01*
X220543571Y-54427380D01*
X220448333Y-54379761D01*
X220400714Y-54332142D01*
X220353095Y-54236904D01*
X220353095Y-53998809D01*
X220400714Y-53903571D01*
X220448333Y-53855952D01*
X220543571Y-53808333D01*
X220734047Y-53808333D01*
X220829285Y-53855952D01*
X220876904Y-53903571D01*
X220924523Y-53998809D01*
X215399761Y-53537619D02*
X215352142Y-53490000D01*
X215256904Y-53442380D01*
X215018809Y-53442380D01*
X214923571Y-53490000D01*
X214875952Y-53537619D01*
X214828333Y-53632857D01*
X214828333Y-53728095D01*
X214875952Y-53870952D01*
X215447380Y-54442380D01*
X214828333Y-54442380D01*
X214399761Y-54347142D02*
X214352142Y-54394761D01*
X214399761Y-54442380D01*
X214447380Y-54394761D01*
X214399761Y-54347142D01*
X214399761Y-54442380D01*
X213971190Y-53537619D02*
X213923571Y-53490000D01*
X213828333Y-53442380D01*
X213590238Y-53442380D01*
X213495000Y-53490000D01*
X213447380Y-53537619D01*
X213399761Y-53632857D01*
X213399761Y-53728095D01*
X213447380Y-53870952D01*
X214018809Y-54442380D01*
X213399761Y-54442380D01*
X212971190Y-54442380D02*
X212971190Y-53442380D01*
X212875952Y-54061428D02*
X212590238Y-54442380D01*
X212590238Y-53775714D02*
X212971190Y-54156666D01*
X193712857Y-87372142D02*
X193760476Y-87419761D01*
X193903333Y-87467380D01*
X193998571Y-87467380D01*
X194141428Y-87419761D01*
X194236666Y-87324523D01*
X194284285Y-87229285D01*
X194331904Y-87038809D01*
X194331904Y-86895952D01*
X194284285Y-86705476D01*
X194236666Y-86610238D01*
X194141428Y-86515000D01*
X193998571Y-86467380D01*
X193903333Y-86467380D01*
X193760476Y-86515000D01*
X193712857Y-86562619D01*
X192760476Y-87467380D02*
X193331904Y-87467380D01*
X193046190Y-87467380D02*
X193046190Y-86467380D01*
X193141428Y-86610238D01*
X193236666Y-86705476D01*
X193331904Y-86753095D01*
X192379523Y-86562619D02*
X192331904Y-86515000D01*
X192236666Y-86467380D01*
X191998571Y-86467380D01*
X191903333Y-86515000D01*
X191855714Y-86562619D01*
X191808095Y-86657857D01*
X191808095Y-86753095D01*
X191855714Y-86895952D01*
X192427142Y-87467380D01*
X191808095Y-87467380D01*
X167647857Y-36647380D02*
X167981190Y-36171190D01*
X168219285Y-36647380D02*
X168219285Y-35647380D01*
X167838333Y-35647380D01*
X167743095Y-35695000D01*
X167695476Y-35742619D01*
X167647857Y-35837857D01*
X167647857Y-35980714D01*
X167695476Y-36075952D01*
X167743095Y-36123571D01*
X167838333Y-36171190D01*
X168219285Y-36171190D01*
X166695476Y-36647380D02*
X167266904Y-36647380D01*
X166981190Y-36647380D02*
X166981190Y-35647380D01*
X167076428Y-35790238D01*
X167171666Y-35885476D01*
X167266904Y-35933095D01*
X165743095Y-36647380D02*
X166314523Y-36647380D01*
X166028809Y-36647380D02*
X166028809Y-35647380D01*
X166124047Y-35790238D01*
X166219285Y-35885476D01*
X166314523Y-35933095D01*
X164842380Y-41155952D02*
X164842380Y-40584523D01*
X164842380Y-40870238D02*
X163842380Y-40870238D01*
X163985238Y-40775000D01*
X164080476Y-40679761D01*
X164128095Y-40584523D01*
X164842380Y-41584523D02*
X163842380Y-41584523D01*
X164461428Y-41679761D02*
X164842380Y-41965476D01*
X164175714Y-41965476D02*
X164556666Y-41584523D01*
X209645238Y-133322619D02*
X209740476Y-133275000D01*
X209835714Y-133179761D01*
X209978571Y-133036904D01*
X210073809Y-132989285D01*
X210169047Y-132989285D01*
X210121428Y-133227380D02*
X210216666Y-133179761D01*
X210311904Y-133084523D01*
X210359523Y-132894047D01*
X210359523Y-132560714D01*
X210311904Y-132370238D01*
X210216666Y-132275000D01*
X210121428Y-132227380D01*
X209930952Y-132227380D01*
X209835714Y-132275000D01*
X209740476Y-132370238D01*
X209692857Y-132560714D01*
X209692857Y-132894047D01*
X209740476Y-133084523D01*
X209835714Y-133179761D01*
X209930952Y-133227380D01*
X210121428Y-133227380D01*
X209216666Y-133227380D02*
X209026190Y-133227380D01*
X208930952Y-133179761D01*
X208883333Y-133132142D01*
X208788095Y-132989285D01*
X208740476Y-132798809D01*
X208740476Y-132417857D01*
X208788095Y-132322619D01*
X208835714Y-132275000D01*
X208930952Y-132227380D01*
X209121428Y-132227380D01*
X209216666Y-132275000D01*
X209264285Y-132322619D01*
X209311904Y-132417857D01*
X209311904Y-132655952D01*
X209264285Y-132751190D01*
X209216666Y-132798809D01*
X209121428Y-132846428D01*
X208930952Y-132846428D01*
X208835714Y-132798809D01*
X208788095Y-132751190D01*
X208740476Y-132655952D01*
X177895238Y-81192619D02*
X177990476Y-81145000D01*
X178085714Y-81049761D01*
X178228571Y-80906904D01*
X178323809Y-80859285D01*
X178419047Y-80859285D01*
X178371428Y-81097380D02*
X178466666Y-81049761D01*
X178561904Y-80954523D01*
X178609523Y-80764047D01*
X178609523Y-80430714D01*
X178561904Y-80240238D01*
X178466666Y-80145000D01*
X178371428Y-80097380D01*
X178180952Y-80097380D01*
X178085714Y-80145000D01*
X177990476Y-80240238D01*
X177942857Y-80430714D01*
X177942857Y-80764047D01*
X177990476Y-80954523D01*
X178085714Y-81049761D01*
X178180952Y-81097380D01*
X178371428Y-81097380D01*
X177561904Y-80192619D02*
X177514285Y-80145000D01*
X177419047Y-80097380D01*
X177180952Y-80097380D01*
X177085714Y-80145000D01*
X177038095Y-80192619D01*
X176990476Y-80287857D01*
X176990476Y-80383095D01*
X177038095Y-80525952D01*
X177609523Y-81097380D01*
X176990476Y-81097380D01*
X184245238Y-125007619D02*
X184340476Y-124960000D01*
X184435714Y-124864761D01*
X184578571Y-124721904D01*
X184673809Y-124674285D01*
X184769047Y-124674285D01*
X184721428Y-124912380D02*
X184816666Y-124864761D01*
X184911904Y-124769523D01*
X184959523Y-124579047D01*
X184959523Y-124245714D01*
X184911904Y-124055238D01*
X184816666Y-123960000D01*
X184721428Y-123912380D01*
X184530952Y-123912380D01*
X184435714Y-123960000D01*
X184340476Y-124055238D01*
X184292857Y-124245714D01*
X184292857Y-124579047D01*
X184340476Y-124769523D01*
X184435714Y-124864761D01*
X184530952Y-124912380D01*
X184721428Y-124912380D01*
X183435714Y-124245714D02*
X183435714Y-124912380D01*
X183673809Y-123864761D02*
X183911904Y-124579047D01*
X183292857Y-124579047D01*
X219241666Y-135612142D02*
X219289285Y-135659761D01*
X219432142Y-135707380D01*
X219527380Y-135707380D01*
X219670238Y-135659761D01*
X219765476Y-135564523D01*
X219813095Y-135469285D01*
X219860714Y-135278809D01*
X219860714Y-135135952D01*
X219813095Y-134945476D01*
X219765476Y-134850238D01*
X219670238Y-134755000D01*
X219527380Y-134707380D01*
X219432142Y-134707380D01*
X219289285Y-134755000D01*
X219241666Y-134802619D01*
X218765476Y-135707380D02*
X218575000Y-135707380D01*
X218479761Y-135659761D01*
X218432142Y-135612142D01*
X218336904Y-135469285D01*
X218289285Y-135278809D01*
X218289285Y-134897857D01*
X218336904Y-134802619D01*
X218384523Y-134755000D01*
X218479761Y-134707380D01*
X218670238Y-134707380D01*
X218765476Y-134755000D01*
X218813095Y-134802619D01*
X218860714Y-134897857D01*
X218860714Y-135135952D01*
X218813095Y-135231190D01*
X218765476Y-135278809D01*
X218670238Y-135326428D01*
X218479761Y-135326428D01*
X218384523Y-135278809D01*
X218336904Y-135231190D01*
X218289285Y-135135952D01*
X220781428Y-137612380D02*
X221352857Y-137612380D01*
X221067142Y-137612380D02*
X221067142Y-136612380D01*
X221162380Y-136755238D01*
X221257619Y-136850476D01*
X221352857Y-136898095D01*
X220162380Y-136612380D02*
X220067142Y-136612380D01*
X219971904Y-136660000D01*
X219924285Y-136707619D01*
X219876666Y-136802857D01*
X219829047Y-136993333D01*
X219829047Y-137231428D01*
X219876666Y-137421904D01*
X219924285Y-137517142D01*
X219971904Y-137564761D01*
X220067142Y-137612380D01*
X220162380Y-137612380D01*
X220257619Y-137564761D01*
X220305238Y-137517142D01*
X220352857Y-137421904D01*
X220400476Y-137231428D01*
X220400476Y-136993333D01*
X220352857Y-136802857D01*
X220305238Y-136707619D01*
X220257619Y-136660000D01*
X220162380Y-136612380D01*
X218971904Y-136945714D02*
X218971904Y-137612380D01*
X219400476Y-136945714D02*
X219400476Y-137469523D01*
X219352857Y-137564761D01*
X219257619Y-137612380D01*
X219114761Y-137612380D01*
X219019523Y-137564761D01*
X218971904Y-137517142D01*
X218162380Y-137088571D02*
X218495714Y-137088571D01*
X218495714Y-137612380D02*
X218495714Y-136612380D01*
X218019523Y-136612380D01*
X193702857Y-63242142D02*
X193750476Y-63289761D01*
X193893333Y-63337380D01*
X193988571Y-63337380D01*
X194131428Y-63289761D01*
X194226666Y-63194523D01*
X194274285Y-63099285D01*
X194321904Y-62908809D01*
X194321904Y-62765952D01*
X194274285Y-62575476D01*
X194226666Y-62480238D01*
X194131428Y-62385000D01*
X193988571Y-62337380D01*
X193893333Y-62337380D01*
X193750476Y-62385000D01*
X193702857Y-62432619D01*
X192750476Y-63337380D02*
X193321904Y-63337380D01*
X193036190Y-63337380D02*
X193036190Y-62337380D01*
X193131428Y-62480238D01*
X193226666Y-62575476D01*
X193321904Y-62623095D01*
X192131428Y-62337380D02*
X192036190Y-62337380D01*
X191940952Y-62385000D01*
X191893333Y-62432619D01*
X191845714Y-62527857D01*
X191798095Y-62718333D01*
X191798095Y-62956428D01*
X191845714Y-63146904D01*
X191893333Y-63242142D01*
X191940952Y-63289761D01*
X192036190Y-63337380D01*
X192131428Y-63337380D01*
X192226666Y-63289761D01*
X192274285Y-63242142D01*
X192321904Y-63146904D01*
X192369523Y-62956428D01*
X192369523Y-62718333D01*
X192321904Y-62527857D01*
X192274285Y-62432619D01*
X192226666Y-62385000D01*
X192131428Y-62337380D01*
X210060238Y-126277619D02*
X210155476Y-126230000D01*
X210250714Y-126134761D01*
X210393571Y-125991904D01*
X210488809Y-125944285D01*
X210584047Y-125944285D01*
X210536428Y-126182380D02*
X210631666Y-126134761D01*
X210726904Y-126039523D01*
X210774523Y-125849047D01*
X210774523Y-125515714D01*
X210726904Y-125325238D01*
X210631666Y-125230000D01*
X210536428Y-125182380D01*
X210345952Y-125182380D01*
X210250714Y-125230000D01*
X210155476Y-125325238D01*
X210107857Y-125515714D01*
X210107857Y-125849047D01*
X210155476Y-126039523D01*
X210250714Y-126134761D01*
X210345952Y-126182380D01*
X210536428Y-126182380D01*
X209536428Y-125610952D02*
X209631666Y-125563333D01*
X209679285Y-125515714D01*
X209726904Y-125420476D01*
X209726904Y-125372857D01*
X209679285Y-125277619D01*
X209631666Y-125230000D01*
X209536428Y-125182380D01*
X209345952Y-125182380D01*
X209250714Y-125230000D01*
X209203095Y-125277619D01*
X209155476Y-125372857D01*
X209155476Y-125420476D01*
X209203095Y-125515714D01*
X209250714Y-125563333D01*
X209345952Y-125610952D01*
X209536428Y-125610952D01*
X209631666Y-125658571D01*
X209679285Y-125706190D01*
X209726904Y-125801428D01*
X209726904Y-125991904D01*
X209679285Y-126087142D01*
X209631666Y-126134761D01*
X209536428Y-126182380D01*
X209345952Y-126182380D01*
X209250714Y-126134761D01*
X209203095Y-126087142D01*
X209155476Y-125991904D01*
X209155476Y-125801428D01*
X209203095Y-125706190D01*
X209250714Y-125658571D01*
X209345952Y-125610952D01*
X203207857Y-95702380D02*
X203541190Y-95226190D01*
X203779285Y-95702380D02*
X203779285Y-94702380D01*
X203398333Y-94702380D01*
X203303095Y-94750000D01*
X203255476Y-94797619D01*
X203207857Y-94892857D01*
X203207857Y-95035714D01*
X203255476Y-95130952D01*
X203303095Y-95178571D01*
X203398333Y-95226190D01*
X203779285Y-95226190D01*
X202255476Y-95702380D02*
X202826904Y-95702380D01*
X202541190Y-95702380D02*
X202541190Y-94702380D01*
X202636428Y-94845238D01*
X202731666Y-94940476D01*
X202826904Y-94988095D01*
X201922142Y-94702380D02*
X201255476Y-94702380D01*
X201684047Y-95702380D01*
X198842380Y-93559523D02*
X198842380Y-94178571D01*
X199223333Y-93845238D01*
X199223333Y-93988095D01*
X199270952Y-94083333D01*
X199318571Y-94130952D01*
X199413809Y-94178571D01*
X199651904Y-94178571D01*
X199747142Y-94130952D01*
X199794761Y-94083333D01*
X199842380Y-93988095D01*
X199842380Y-93702380D01*
X199794761Y-93607142D01*
X199747142Y-93559523D01*
X198842380Y-94511904D02*
X198842380Y-95130952D01*
X199223333Y-94797619D01*
X199223333Y-94940476D01*
X199270952Y-95035714D01*
X199318571Y-95083333D01*
X199413809Y-95130952D01*
X199651904Y-95130952D01*
X199747142Y-95083333D01*
X199794761Y-95035714D01*
X199842380Y-94940476D01*
X199842380Y-94654761D01*
X199794761Y-94559523D01*
X199747142Y-94511904D01*
X198842380Y-95750000D02*
X198842380Y-95845238D01*
X198890000Y-95940476D01*
X198937619Y-95988095D01*
X199032857Y-96035714D01*
X199223333Y-96083333D01*
X199461428Y-96083333D01*
X199651904Y-96035714D01*
X199747142Y-95988095D01*
X199794761Y-95940476D01*
X199842380Y-95845238D01*
X199842380Y-95750000D01*
X199794761Y-95654761D01*
X199747142Y-95607142D01*
X199651904Y-95559523D01*
X199461428Y-95511904D01*
X199223333Y-95511904D01*
X199032857Y-95559523D01*
X198937619Y-95607142D01*
X198890000Y-95654761D01*
X198842380Y-95750000D01*
X199842380Y-96511904D02*
X198842380Y-96511904D01*
X199461428Y-96607142D02*
X199842380Y-96892857D01*
X199175714Y-96892857D02*
X199556666Y-96511904D01*
X165050238Y-129987380D02*
X165383571Y-129511190D01*
X165621666Y-129987380D02*
X165621666Y-128987380D01*
X165240714Y-128987380D01*
X165145476Y-129035000D01*
X165097857Y-129082619D01*
X165050238Y-129177857D01*
X165050238Y-129320714D01*
X165097857Y-129415952D01*
X165145476Y-129463571D01*
X165240714Y-129511190D01*
X165621666Y-129511190D01*
X164764523Y-128987380D02*
X164431190Y-129987380D01*
X164097857Y-128987380D01*
X163716904Y-129987380D02*
X163526428Y-129987380D01*
X163431190Y-129939761D01*
X163383571Y-129892142D01*
X163288333Y-129749285D01*
X163240714Y-129558809D01*
X163240714Y-129177857D01*
X163288333Y-129082619D01*
X163335952Y-129035000D01*
X163431190Y-128987380D01*
X163621666Y-128987380D01*
X163716904Y-129035000D01*
X163764523Y-129082619D01*
X163812142Y-129177857D01*
X163812142Y-129415952D01*
X163764523Y-129511190D01*
X163716904Y-129558809D01*
X163621666Y-129606428D01*
X163431190Y-129606428D01*
X163335952Y-129558809D01*
X163288333Y-129511190D01*
X163240714Y-129415952D01*
X172100714Y-131897380D02*
X172100714Y-130897380D01*
X171862619Y-130897380D01*
X171719761Y-130945000D01*
X171624523Y-131040238D01*
X171576904Y-131135476D01*
X171529285Y-131325952D01*
X171529285Y-131468809D01*
X171576904Y-131659285D01*
X171624523Y-131754523D01*
X171719761Y-131849761D01*
X171862619Y-131897380D01*
X172100714Y-131897380D01*
X171100714Y-131897380D02*
X171100714Y-130897380D01*
X170529285Y-131897380D01*
X170529285Y-130897380D01*
X170053095Y-131897380D02*
X170053095Y-130897380D01*
X169672142Y-130897380D01*
X169576904Y-130945000D01*
X169529285Y-130992619D01*
X169481666Y-131087857D01*
X169481666Y-131230714D01*
X169529285Y-131325952D01*
X169576904Y-131373571D01*
X169672142Y-131421190D01*
X170053095Y-131421190D01*
X202572857Y-111482142D02*
X202620476Y-111529761D01*
X202763333Y-111577380D01*
X202858571Y-111577380D01*
X203001428Y-111529761D01*
X203096666Y-111434523D01*
X203144285Y-111339285D01*
X203191904Y-111148809D01*
X203191904Y-111005952D01*
X203144285Y-110815476D01*
X203096666Y-110720238D01*
X203001428Y-110625000D01*
X202858571Y-110577380D01*
X202763333Y-110577380D01*
X202620476Y-110625000D01*
X202572857Y-110672619D01*
X201620476Y-111577380D02*
X202191904Y-111577380D01*
X201906190Y-111577380D02*
X201906190Y-110577380D01*
X202001428Y-110720238D01*
X202096666Y-110815476D01*
X202191904Y-110863095D01*
X200715714Y-110577380D02*
X201191904Y-110577380D01*
X201239523Y-111053571D01*
X201191904Y-111005952D01*
X201096666Y-110958333D01*
X200858571Y-110958333D01*
X200763333Y-111005952D01*
X200715714Y-111053571D01*
X200668095Y-111148809D01*
X200668095Y-111386904D01*
X200715714Y-111482142D01*
X200763333Y-111529761D01*
X200858571Y-111577380D01*
X201096666Y-111577380D01*
X201191904Y-111529761D01*
X201239523Y-111482142D01*
X188690238Y-56427619D02*
X188785476Y-56380000D01*
X188880714Y-56284761D01*
X189023571Y-56141904D01*
X189118809Y-56094285D01*
X189214047Y-56094285D01*
X189166428Y-56332380D02*
X189261666Y-56284761D01*
X189356904Y-56189523D01*
X189404523Y-55999047D01*
X189404523Y-55665714D01*
X189356904Y-55475238D01*
X189261666Y-55380000D01*
X189166428Y-55332380D01*
X188975952Y-55332380D01*
X188880714Y-55380000D01*
X188785476Y-55475238D01*
X188737857Y-55665714D01*
X188737857Y-55999047D01*
X188785476Y-56189523D01*
X188880714Y-56284761D01*
X188975952Y-56332380D01*
X189166428Y-56332380D01*
X187880714Y-55332380D02*
X188071190Y-55332380D01*
X188166428Y-55380000D01*
X188214047Y-55427619D01*
X188309285Y-55570476D01*
X188356904Y-55760952D01*
X188356904Y-56141904D01*
X188309285Y-56237142D01*
X188261666Y-56284761D01*
X188166428Y-56332380D01*
X187975952Y-56332380D01*
X187880714Y-56284761D01*
X187833095Y-56237142D01*
X187785476Y-56141904D01*
X187785476Y-55903809D01*
X187833095Y-55808571D01*
X187880714Y-55760952D01*
X187975952Y-55713333D01*
X188166428Y-55713333D01*
X188261666Y-55760952D01*
X188309285Y-55808571D01*
X188356904Y-55903809D01*
X180435238Y-58332619D02*
X180530476Y-58285000D01*
X180625714Y-58189761D01*
X180768571Y-58046904D01*
X180863809Y-57999285D01*
X180959047Y-57999285D01*
X180911428Y-58237380D02*
X181006666Y-58189761D01*
X181101904Y-58094523D01*
X181149523Y-57904047D01*
X181149523Y-57570714D01*
X181101904Y-57380238D01*
X181006666Y-57285000D01*
X180911428Y-57237380D01*
X180720952Y-57237380D01*
X180625714Y-57285000D01*
X180530476Y-57380238D01*
X180482857Y-57570714D01*
X180482857Y-57904047D01*
X180530476Y-58094523D01*
X180625714Y-58189761D01*
X180720952Y-58237380D01*
X180911428Y-58237380D01*
X179530476Y-58237380D02*
X180101904Y-58237380D01*
X179816190Y-58237380D02*
X179816190Y-57237380D01*
X179911428Y-57380238D01*
X180006666Y-57475476D01*
X180101904Y-57523095D01*
X198466904Y-113117380D02*
X198466904Y-113926904D01*
X198419285Y-114022142D01*
X198371666Y-114069761D01*
X198276428Y-114117380D01*
X198085952Y-114117380D01*
X197990714Y-114069761D01*
X197943095Y-114022142D01*
X197895476Y-113926904D01*
X197895476Y-113117380D01*
X197514523Y-113117380D02*
X196895476Y-113117380D01*
X197228809Y-113498333D01*
X197085952Y-113498333D01*
X196990714Y-113545952D01*
X196943095Y-113593571D01*
X196895476Y-113688809D01*
X196895476Y-113926904D01*
X196943095Y-114022142D01*
X196990714Y-114069761D01*
X197085952Y-114117380D01*
X197371666Y-114117380D01*
X197466904Y-114069761D01*
X197514523Y-114022142D01*
X166377857Y-146502380D02*
X166711190Y-146026190D01*
X166949285Y-146502380D02*
X166949285Y-145502380D01*
X166568333Y-145502380D01*
X166473095Y-145550000D01*
X166425476Y-145597619D01*
X166377857Y-145692857D01*
X166377857Y-145835714D01*
X166425476Y-145930952D01*
X166473095Y-145978571D01*
X166568333Y-146026190D01*
X166949285Y-146026190D01*
X165425476Y-146502380D02*
X165996904Y-146502380D01*
X165711190Y-146502380D02*
X165711190Y-145502380D01*
X165806428Y-145645238D01*
X165901666Y-145740476D01*
X165996904Y-145788095D01*
X164806428Y-145502380D02*
X164711190Y-145502380D01*
X164615952Y-145550000D01*
X164568333Y-145597619D01*
X164520714Y-145692857D01*
X164473095Y-145883333D01*
X164473095Y-146121428D01*
X164520714Y-146311904D01*
X164568333Y-146407142D01*
X164615952Y-146454761D01*
X164711190Y-146502380D01*
X164806428Y-146502380D01*
X164901666Y-146454761D01*
X164949285Y-146407142D01*
X164996904Y-146311904D01*
X165044523Y-146121428D01*
X165044523Y-145883333D01*
X164996904Y-145692857D01*
X164949285Y-145597619D01*
X164901666Y-145550000D01*
X164806428Y-145502380D01*
X170616428Y-148967380D02*
X171187857Y-148967380D01*
X170902142Y-148967380D02*
X170902142Y-147967380D01*
X170997380Y-148110238D01*
X171092619Y-148205476D01*
X171187857Y-148253095D01*
X169997380Y-147967380D02*
X169902142Y-147967380D01*
X169806904Y-148015000D01*
X169759285Y-148062619D01*
X169711666Y-148157857D01*
X169664047Y-148348333D01*
X169664047Y-148586428D01*
X169711666Y-148776904D01*
X169759285Y-148872142D01*
X169806904Y-148919761D01*
X169902142Y-148967380D01*
X169997380Y-148967380D01*
X170092619Y-148919761D01*
X170140238Y-148872142D01*
X170187857Y-148776904D01*
X170235476Y-148586428D01*
X170235476Y-148348333D01*
X170187857Y-148157857D01*
X170140238Y-148062619D01*
X170092619Y-148015000D01*
X169997380Y-147967380D01*
X169045000Y-147967380D02*
X168949761Y-147967380D01*
X168854523Y-148015000D01*
X168806904Y-148062619D01*
X168759285Y-148157857D01*
X168711666Y-148348333D01*
X168711666Y-148586428D01*
X168759285Y-148776904D01*
X168806904Y-148872142D01*
X168854523Y-148919761D01*
X168949761Y-148967380D01*
X169045000Y-148967380D01*
X169140238Y-148919761D01*
X169187857Y-148872142D01*
X169235476Y-148776904D01*
X169283095Y-148586428D01*
X169283095Y-148348333D01*
X169235476Y-148157857D01*
X169187857Y-148062619D01*
X169140238Y-148015000D01*
X169045000Y-147967380D01*
X168283095Y-148967380D02*
X168283095Y-147967380D01*
X168187857Y-148586428D02*
X167902142Y-148967380D01*
X167902142Y-148300714D02*
X168283095Y-148681666D01*
X189872857Y-128087380D02*
X190206190Y-127611190D01*
X190444285Y-128087380D02*
X190444285Y-127087380D01*
X190063333Y-127087380D01*
X189968095Y-127135000D01*
X189920476Y-127182619D01*
X189872857Y-127277857D01*
X189872857Y-127420714D01*
X189920476Y-127515952D01*
X189968095Y-127563571D01*
X190063333Y-127611190D01*
X190444285Y-127611190D01*
X189491904Y-127182619D02*
X189444285Y-127135000D01*
X189349047Y-127087380D01*
X189110952Y-127087380D01*
X189015714Y-127135000D01*
X188968095Y-127182619D01*
X188920476Y-127277857D01*
X188920476Y-127373095D01*
X188968095Y-127515952D01*
X189539523Y-128087380D01*
X188920476Y-128087380D01*
X188587142Y-127087380D02*
X187968095Y-127087380D01*
X188301428Y-127468333D01*
X188158571Y-127468333D01*
X188063333Y-127515952D01*
X188015714Y-127563571D01*
X187968095Y-127658809D01*
X187968095Y-127896904D01*
X188015714Y-127992142D01*
X188063333Y-128039761D01*
X188158571Y-128087380D01*
X188444285Y-128087380D01*
X188539523Y-128039761D01*
X188587142Y-127992142D01*
X197445238Y-128087380D02*
X198016666Y-128087380D01*
X197730952Y-128087380D02*
X197730952Y-127087380D01*
X197826190Y-127230238D01*
X197921428Y-127325476D01*
X198016666Y-127373095D01*
X196826190Y-127087380D02*
X196730952Y-127087380D01*
X196635714Y-127135000D01*
X196588095Y-127182619D01*
X196540476Y-127277857D01*
X196492857Y-127468333D01*
X196492857Y-127706428D01*
X196540476Y-127896904D01*
X196588095Y-127992142D01*
X196635714Y-128039761D01*
X196730952Y-128087380D01*
X196826190Y-128087380D01*
X196921428Y-128039761D01*
X196969047Y-127992142D01*
X197016666Y-127896904D01*
X197064285Y-127706428D01*
X197064285Y-127468333D01*
X197016666Y-127277857D01*
X196969047Y-127182619D01*
X196921428Y-127135000D01*
X196826190Y-127087380D01*
X196064285Y-128087380D02*
X196064285Y-127087380D01*
X195969047Y-127706428D02*
X195683333Y-128087380D01*
X195683333Y-127420714D02*
X196064285Y-127801666D01*
X196341904Y-75017380D02*
X196341904Y-75826904D01*
X196294285Y-75922142D01*
X196246666Y-75969761D01*
X196151428Y-76017380D01*
X195960952Y-76017380D01*
X195865714Y-75969761D01*
X195818095Y-75922142D01*
X195770476Y-75826904D01*
X195770476Y-75017380D01*
X195341904Y-75112619D02*
X195294285Y-75065000D01*
X195199047Y-75017380D01*
X194960952Y-75017380D01*
X194865714Y-75065000D01*
X194818095Y-75112619D01*
X194770476Y-75207857D01*
X194770476Y-75303095D01*
X194818095Y-75445952D01*
X195389523Y-76017380D01*
X194770476Y-76017380D01*
X202731666Y-135967142D02*
X202779285Y-136014761D01*
X202922142Y-136062380D01*
X203017380Y-136062380D01*
X203160238Y-136014761D01*
X203255476Y-135919523D01*
X203303095Y-135824285D01*
X203350714Y-135633809D01*
X203350714Y-135490952D01*
X203303095Y-135300476D01*
X203255476Y-135205238D01*
X203160238Y-135110000D01*
X203017380Y-135062380D01*
X202922142Y-135062380D01*
X202779285Y-135110000D01*
X202731666Y-135157619D01*
X202160238Y-135490952D02*
X202255476Y-135443333D01*
X202303095Y-135395714D01*
X202350714Y-135300476D01*
X202350714Y-135252857D01*
X202303095Y-135157619D01*
X202255476Y-135110000D01*
X202160238Y-135062380D01*
X201969761Y-135062380D01*
X201874523Y-135110000D01*
X201826904Y-135157619D01*
X201779285Y-135252857D01*
X201779285Y-135300476D01*
X201826904Y-135395714D01*
X201874523Y-135443333D01*
X201969761Y-135490952D01*
X202160238Y-135490952D01*
X202255476Y-135538571D01*
X202303095Y-135586190D01*
X202350714Y-135681428D01*
X202350714Y-135871904D01*
X202303095Y-135967142D01*
X202255476Y-136014761D01*
X202160238Y-136062380D01*
X201969761Y-136062380D01*
X201874523Y-136014761D01*
X201826904Y-135967142D01*
X201779285Y-135871904D01*
X201779285Y-135681428D01*
X201826904Y-135586190D01*
X201874523Y-135538571D01*
X201969761Y-135490952D01*
X202366428Y-137612380D02*
X202937857Y-137612380D01*
X202652142Y-137612380D02*
X202652142Y-136612380D01*
X202747380Y-136755238D01*
X202842619Y-136850476D01*
X202937857Y-136898095D01*
X201747380Y-136612380D02*
X201652142Y-136612380D01*
X201556904Y-136660000D01*
X201509285Y-136707619D01*
X201461666Y-136802857D01*
X201414047Y-136993333D01*
X201414047Y-137231428D01*
X201461666Y-137421904D01*
X201509285Y-137517142D01*
X201556904Y-137564761D01*
X201652142Y-137612380D01*
X201747380Y-137612380D01*
X201842619Y-137564761D01*
X201890238Y-137517142D01*
X201937857Y-137421904D01*
X201985476Y-137231428D01*
X201985476Y-136993333D01*
X201937857Y-136802857D01*
X201890238Y-136707619D01*
X201842619Y-136660000D01*
X201747380Y-136612380D01*
X200556904Y-136945714D02*
X200556904Y-137612380D01*
X200985476Y-136945714D02*
X200985476Y-137469523D01*
X200937857Y-137564761D01*
X200842619Y-137612380D01*
X200699761Y-137612380D01*
X200604523Y-137564761D01*
X200556904Y-137517142D01*
X199747380Y-137088571D02*
X200080714Y-137088571D01*
X200080714Y-137612380D02*
X200080714Y-136612380D01*
X199604523Y-136612380D01*
X184316666Y-72112142D02*
X184364285Y-72159761D01*
X184507142Y-72207380D01*
X184602380Y-72207380D01*
X184745238Y-72159761D01*
X184840476Y-72064523D01*
X184888095Y-71969285D01*
X184935714Y-71778809D01*
X184935714Y-71635952D01*
X184888095Y-71445476D01*
X184840476Y-71350238D01*
X184745238Y-71255000D01*
X184602380Y-71207380D01*
X184507142Y-71207380D01*
X184364285Y-71255000D01*
X184316666Y-71302619D01*
X183935714Y-71302619D02*
X183888095Y-71255000D01*
X183792857Y-71207380D01*
X183554761Y-71207380D01*
X183459523Y-71255000D01*
X183411904Y-71302619D01*
X183364285Y-71397857D01*
X183364285Y-71493095D01*
X183411904Y-71635952D01*
X183983333Y-72207380D01*
X183364285Y-72207380D01*
X186824761Y-73445714D02*
X186824761Y-74112380D01*
X187062857Y-73064761D02*
X187300952Y-73779047D01*
X186681904Y-73779047D01*
X186300952Y-74017142D02*
X186253333Y-74064761D01*
X186300952Y-74112380D01*
X186348571Y-74064761D01*
X186300952Y-74017142D01*
X186300952Y-74112380D01*
X185920000Y-73112380D02*
X185253333Y-73112380D01*
X185681904Y-74112380D01*
X184443809Y-73445714D02*
X184443809Y-74112380D01*
X184872380Y-73445714D02*
X184872380Y-73969523D01*
X184824761Y-74064761D01*
X184729523Y-74112380D01*
X184586666Y-74112380D01*
X184491428Y-74064761D01*
X184443809Y-74017142D01*
X183634285Y-73588571D02*
X183967619Y-73588571D01*
X183967619Y-74112380D02*
X183967619Y-73112380D01*
X183491428Y-73112380D01*
X205747857Y-48712380D02*
X206081190Y-48236190D01*
X206319285Y-48712380D02*
X206319285Y-47712380D01*
X205938333Y-47712380D01*
X205843095Y-47760000D01*
X205795476Y-47807619D01*
X205747857Y-47902857D01*
X205747857Y-48045714D01*
X205795476Y-48140952D01*
X205843095Y-48188571D01*
X205938333Y-48236190D01*
X206319285Y-48236190D01*
X205366904Y-47807619D02*
X205319285Y-47760000D01*
X205224047Y-47712380D01*
X204985952Y-47712380D01*
X204890714Y-47760000D01*
X204843095Y-47807619D01*
X204795476Y-47902857D01*
X204795476Y-47998095D01*
X204843095Y-48140952D01*
X205414523Y-48712380D01*
X204795476Y-48712380D01*
X204414523Y-47807619D02*
X204366904Y-47760000D01*
X204271666Y-47712380D01*
X204033571Y-47712380D01*
X203938333Y-47760000D01*
X203890714Y-47807619D01*
X203843095Y-47902857D01*
X203843095Y-47998095D01*
X203890714Y-48140952D01*
X204462142Y-48712380D01*
X203843095Y-48712380D01*
X201382380Y-44458095D02*
X201382380Y-44267619D01*
X201430000Y-44172380D01*
X201477619Y-44124761D01*
X201620476Y-44029523D01*
X201810952Y-43981904D01*
X202191904Y-43981904D01*
X202287142Y-44029523D01*
X202334761Y-44077142D01*
X202382380Y-44172380D01*
X202382380Y-44362857D01*
X202334761Y-44458095D01*
X202287142Y-44505714D01*
X202191904Y-44553333D01*
X201953809Y-44553333D01*
X201858571Y-44505714D01*
X201810952Y-44458095D01*
X201763333Y-44362857D01*
X201763333Y-44172380D01*
X201810952Y-44077142D01*
X201858571Y-44029523D01*
X201953809Y-43981904D01*
X201810952Y-45124761D02*
X201763333Y-45029523D01*
X201715714Y-44981904D01*
X201620476Y-44934285D01*
X201572857Y-44934285D01*
X201477619Y-44981904D01*
X201430000Y-45029523D01*
X201382380Y-45124761D01*
X201382380Y-45315238D01*
X201430000Y-45410476D01*
X201477619Y-45458095D01*
X201572857Y-45505714D01*
X201620476Y-45505714D01*
X201715714Y-45458095D01*
X201763333Y-45410476D01*
X201810952Y-45315238D01*
X201810952Y-45124761D01*
X201858571Y-45029523D01*
X201906190Y-44981904D01*
X202001428Y-44934285D01*
X202191904Y-44934285D01*
X202287142Y-44981904D01*
X202334761Y-45029523D01*
X202382380Y-45124761D01*
X202382380Y-45315238D01*
X202334761Y-45410476D01*
X202287142Y-45458095D01*
X202191904Y-45505714D01*
X202001428Y-45505714D01*
X201906190Y-45458095D01*
X201858571Y-45410476D01*
X201810952Y-45315238D01*
X201382380Y-46124761D02*
X201382380Y-46220000D01*
X201430000Y-46315238D01*
X201477619Y-46362857D01*
X201572857Y-46410476D01*
X201763333Y-46458095D01*
X202001428Y-46458095D01*
X202191904Y-46410476D01*
X202287142Y-46362857D01*
X202334761Y-46315238D01*
X202382380Y-46220000D01*
X202382380Y-46124761D01*
X202334761Y-46029523D01*
X202287142Y-45981904D01*
X202191904Y-45934285D01*
X202001428Y-45886666D01*
X201763333Y-45886666D01*
X201572857Y-45934285D01*
X201477619Y-45981904D01*
X201430000Y-46029523D01*
X201382380Y-46124761D01*
X202382380Y-47458095D02*
X201906190Y-47124761D01*
X202382380Y-46886666D02*
X201382380Y-46886666D01*
X201382380Y-47267619D01*
X201430000Y-47362857D01*
X201477619Y-47410476D01*
X201572857Y-47458095D01*
X201715714Y-47458095D01*
X201810952Y-47410476D01*
X201858571Y-47362857D01*
X201906190Y-47267619D01*
X201906190Y-46886666D01*
X177895238Y-104687619D02*
X177990476Y-104640000D01*
X178085714Y-104544761D01*
X178228571Y-104401904D01*
X178323809Y-104354285D01*
X178419047Y-104354285D01*
X178371428Y-104592380D02*
X178466666Y-104544761D01*
X178561904Y-104449523D01*
X178609523Y-104259047D01*
X178609523Y-103925714D01*
X178561904Y-103735238D01*
X178466666Y-103640000D01*
X178371428Y-103592380D01*
X178180952Y-103592380D01*
X178085714Y-103640000D01*
X177990476Y-103735238D01*
X177942857Y-103925714D01*
X177942857Y-104259047D01*
X177990476Y-104449523D01*
X178085714Y-104544761D01*
X178180952Y-104592380D01*
X178371428Y-104592380D01*
X177609523Y-103592380D02*
X176990476Y-103592380D01*
X177323809Y-103973333D01*
X177180952Y-103973333D01*
X177085714Y-104020952D01*
X177038095Y-104068571D01*
X176990476Y-104163809D01*
X176990476Y-104401904D01*
X177038095Y-104497142D01*
X177085714Y-104544761D01*
X177180952Y-104592380D01*
X177466666Y-104592380D01*
X177561904Y-104544761D01*
X177609523Y-104497142D01*
X216542857Y-123007380D02*
X216876190Y-122531190D01*
X217114285Y-123007380D02*
X217114285Y-122007380D01*
X216733333Y-122007380D01*
X216638095Y-122055000D01*
X216590476Y-122102619D01*
X216542857Y-122197857D01*
X216542857Y-122340714D01*
X216590476Y-122435952D01*
X216638095Y-122483571D01*
X216733333Y-122531190D01*
X217114285Y-122531190D01*
X216161904Y-122102619D02*
X216114285Y-122055000D01*
X216019047Y-122007380D01*
X215780952Y-122007380D01*
X215685714Y-122055000D01*
X215638095Y-122102619D01*
X215590476Y-122197857D01*
X215590476Y-122293095D01*
X215638095Y-122435952D01*
X216209523Y-123007380D01*
X215590476Y-123007380D01*
X215114285Y-123007380D02*
X214923809Y-123007380D01*
X214828571Y-122959761D01*
X214780952Y-122912142D01*
X214685714Y-122769285D01*
X214638095Y-122578809D01*
X214638095Y-122197857D01*
X214685714Y-122102619D01*
X214733333Y-122055000D01*
X214828571Y-122007380D01*
X215019047Y-122007380D01*
X215114285Y-122055000D01*
X215161904Y-122102619D01*
X215209523Y-122197857D01*
X215209523Y-122435952D01*
X215161904Y-122531190D01*
X215114285Y-122578809D01*
X215019047Y-122626428D01*
X214828571Y-122626428D01*
X214733333Y-122578809D01*
X214685714Y-122531190D01*
X214638095Y-122435952D01*
D10*
X219741428Y-125456904D02*
X220198571Y-125456904D01*
X219970000Y-125456904D02*
X219970000Y-124656904D01*
X220046190Y-124771190D01*
X220122380Y-124847380D01*
X220198571Y-124885476D01*
X219246190Y-124656904D02*
X219170000Y-124656904D01*
X219093809Y-124695000D01*
X219055714Y-124733095D01*
X219017619Y-124809285D01*
X218979523Y-124961666D01*
X218979523Y-125152142D01*
X219017619Y-125304523D01*
X219055714Y-125380714D01*
X219093809Y-125418809D01*
X219170000Y-125456904D01*
X219246190Y-125456904D01*
X219322380Y-125418809D01*
X219360476Y-125380714D01*
X219398571Y-125304523D01*
X219436666Y-125152142D01*
X219436666Y-124961666D01*
X219398571Y-124809285D01*
X219360476Y-124733095D01*
X219322380Y-124695000D01*
X219246190Y-124656904D01*
X218484285Y-124656904D02*
X218408095Y-124656904D01*
X218331904Y-124695000D01*
X218293809Y-124733095D01*
X218255714Y-124809285D01*
X218217619Y-124961666D01*
X218217619Y-125152142D01*
X218255714Y-125304523D01*
X218293809Y-125380714D01*
X218331904Y-125418809D01*
X218408095Y-125456904D01*
X218484285Y-125456904D01*
X218560476Y-125418809D01*
X218598571Y-125380714D01*
X218636666Y-125304523D01*
X218674761Y-125152142D01*
X218674761Y-124961666D01*
X218636666Y-124809285D01*
X218598571Y-124733095D01*
X218560476Y-124695000D01*
X218484285Y-124656904D01*
X217874761Y-125456904D02*
X217874761Y-124656904D01*
X217798571Y-125152142D02*
X217570000Y-125456904D01*
X217570000Y-124923571D02*
X217874761Y-125228333D01*
X216465238Y-124656904D02*
X216389047Y-124656904D01*
X216312857Y-124695000D01*
X216274761Y-124733095D01*
X216236666Y-124809285D01*
X216198571Y-124961666D01*
X216198571Y-125152142D01*
X216236666Y-125304523D01*
X216274761Y-125380714D01*
X216312857Y-125418809D01*
X216389047Y-125456904D01*
X216465238Y-125456904D01*
X216541428Y-125418809D01*
X216579523Y-125380714D01*
X216617619Y-125304523D01*
X216655714Y-125152142D01*
X216655714Y-124961666D01*
X216617619Y-124809285D01*
X216579523Y-124733095D01*
X216541428Y-124695000D01*
X216465238Y-124656904D01*
X215855714Y-125380714D02*
X215817619Y-125418809D01*
X215855714Y-125456904D01*
X215893809Y-125418809D01*
X215855714Y-125380714D01*
X215855714Y-125456904D01*
X215055714Y-125456904D02*
X215512857Y-125456904D01*
X215284285Y-125456904D02*
X215284285Y-124656904D01*
X215360476Y-124771190D01*
X215436666Y-124847380D01*
X215512857Y-124885476D01*
X214750952Y-125456904D02*
X214141428Y-124656904D01*
X214636666Y-124656904D02*
X214560476Y-124695000D01*
X214522380Y-124771190D01*
X214560476Y-124847380D01*
X214636666Y-124885476D01*
X214712857Y-124847380D01*
X214750952Y-124771190D01*
X214712857Y-124695000D01*
X214636666Y-124656904D01*
X214179523Y-125418809D02*
X214141428Y-125342619D01*
X214179523Y-125266428D01*
X214255714Y-125228333D01*
X214331904Y-125266428D01*
X214370000Y-125342619D01*
X214331904Y-125418809D01*
X214255714Y-125456904D01*
X214179523Y-125418809D01*
D11*
X166536666Y-49887142D02*
X166584285Y-49934761D01*
X166727142Y-49982380D01*
X166822380Y-49982380D01*
X166965238Y-49934761D01*
X167060476Y-49839523D01*
X167108095Y-49744285D01*
X167155714Y-49553809D01*
X167155714Y-49410952D01*
X167108095Y-49220476D01*
X167060476Y-49125238D01*
X166965238Y-49030000D01*
X166822380Y-48982380D01*
X166727142Y-48982380D01*
X166584285Y-49030000D01*
X166536666Y-49077619D01*
X165679523Y-48982380D02*
X165870000Y-48982380D01*
X165965238Y-49030000D01*
X166012857Y-49077619D01*
X166108095Y-49220476D01*
X166155714Y-49410952D01*
X166155714Y-49791904D01*
X166108095Y-49887142D01*
X166060476Y-49934761D01*
X165965238Y-49982380D01*
X165774761Y-49982380D01*
X165679523Y-49934761D01*
X165631904Y-49887142D01*
X165584285Y-49791904D01*
X165584285Y-49553809D01*
X165631904Y-49458571D01*
X165679523Y-49410952D01*
X165774761Y-49363333D01*
X165965238Y-49363333D01*
X166060476Y-49410952D01*
X166108095Y-49458571D01*
X166155714Y-49553809D01*
X168711428Y-51887380D02*
X169282857Y-51887380D01*
X168997142Y-51887380D02*
X168997142Y-50887380D01*
X169092380Y-51030238D01*
X169187619Y-51125476D01*
X169282857Y-51173095D01*
X168092380Y-50887380D02*
X167997142Y-50887380D01*
X167901904Y-50935000D01*
X167854285Y-50982619D01*
X167806666Y-51077857D01*
X167759047Y-51268333D01*
X167759047Y-51506428D01*
X167806666Y-51696904D01*
X167854285Y-51792142D01*
X167901904Y-51839761D01*
X167997142Y-51887380D01*
X168092380Y-51887380D01*
X168187619Y-51839761D01*
X168235238Y-51792142D01*
X168282857Y-51696904D01*
X168330476Y-51506428D01*
X168330476Y-51268333D01*
X168282857Y-51077857D01*
X168235238Y-50982619D01*
X168187619Y-50935000D01*
X168092380Y-50887380D01*
X166901904Y-51220714D02*
X166901904Y-51887380D01*
X167330476Y-51220714D02*
X167330476Y-51744523D01*
X167282857Y-51839761D01*
X167187619Y-51887380D01*
X167044761Y-51887380D01*
X166949523Y-51839761D01*
X166901904Y-51792142D01*
X166092380Y-51363571D02*
X166425714Y-51363571D01*
X166425714Y-51887380D02*
X166425714Y-50887380D01*
X165949523Y-50887380D01*
X207748095Y-72842380D02*
X207748095Y-71842380D01*
X207510000Y-71842380D01*
X207367142Y-71890000D01*
X207271904Y-71985238D01*
X207224285Y-72080476D01*
X207176666Y-72270952D01*
X207176666Y-72413809D01*
X207224285Y-72604285D01*
X207271904Y-72699523D01*
X207367142Y-72794761D01*
X207510000Y-72842380D01*
X207748095Y-72842380D01*
X206319523Y-71842380D02*
X206510000Y-71842380D01*
X206605238Y-71890000D01*
X206652857Y-71937619D01*
X206748095Y-72080476D01*
X206795714Y-72270952D01*
X206795714Y-72651904D01*
X206748095Y-72747142D01*
X206700476Y-72794761D01*
X206605238Y-72842380D01*
X206414761Y-72842380D01*
X206319523Y-72794761D01*
X206271904Y-72747142D01*
X206224285Y-72651904D01*
X206224285Y-72413809D01*
X206271904Y-72318571D01*
X206319523Y-72270952D01*
X206414761Y-72223333D01*
X206605238Y-72223333D01*
X206700476Y-72270952D01*
X206748095Y-72318571D01*
X206795714Y-72413809D01*
X184316666Y-49887142D02*
X184364285Y-49934761D01*
X184507142Y-49982380D01*
X184602380Y-49982380D01*
X184745238Y-49934761D01*
X184840476Y-49839523D01*
X184888095Y-49744285D01*
X184935714Y-49553809D01*
X184935714Y-49410952D01*
X184888095Y-49220476D01*
X184840476Y-49125238D01*
X184745238Y-49030000D01*
X184602380Y-48982380D01*
X184507142Y-48982380D01*
X184364285Y-49030000D01*
X184316666Y-49077619D01*
X183364285Y-49982380D02*
X183935714Y-49982380D01*
X183650000Y-49982380D02*
X183650000Y-48982380D01*
X183745238Y-49125238D01*
X183840476Y-49220476D01*
X183935714Y-49268095D01*
X185380238Y-51252380D02*
X185951666Y-51252380D01*
X185665952Y-51252380D02*
X185665952Y-50252380D01*
X185761190Y-50395238D01*
X185856428Y-50490476D01*
X185951666Y-50538095D01*
X184523095Y-50585714D02*
X184523095Y-51252380D01*
X184951666Y-50585714D02*
X184951666Y-51109523D01*
X184904047Y-51204761D01*
X184808809Y-51252380D01*
X184665952Y-51252380D01*
X184570714Y-51204761D01*
X184523095Y-51157142D01*
X183713571Y-50728571D02*
X184046904Y-50728571D01*
X184046904Y-51252380D02*
X184046904Y-50252380D01*
X183570714Y-50252380D01*
X176537857Y-128087380D02*
X176871190Y-127611190D01*
X177109285Y-128087380D02*
X177109285Y-127087380D01*
X176728333Y-127087380D01*
X176633095Y-127135000D01*
X176585476Y-127182619D01*
X176537857Y-127277857D01*
X176537857Y-127420714D01*
X176585476Y-127515952D01*
X176633095Y-127563571D01*
X176728333Y-127611190D01*
X177109285Y-127611190D01*
X176204523Y-127087380D02*
X175585476Y-127087380D01*
X175918809Y-127468333D01*
X175775952Y-127468333D01*
X175680714Y-127515952D01*
X175633095Y-127563571D01*
X175585476Y-127658809D01*
X175585476Y-127896904D01*
X175633095Y-127992142D01*
X175680714Y-128039761D01*
X175775952Y-128087380D01*
X176061666Y-128087380D01*
X176156904Y-128039761D01*
X176204523Y-127992142D01*
X174633095Y-128087380D02*
X175204523Y-128087380D01*
X174918809Y-128087380D02*
X174918809Y-127087380D01*
X175014047Y-127230238D01*
X175109285Y-127325476D01*
X175204523Y-127373095D01*
X210192857Y-82272142D02*
X210240476Y-82319761D01*
X210383333Y-82367380D01*
X210478571Y-82367380D01*
X210621428Y-82319761D01*
X210716666Y-82224523D01*
X210764285Y-82129285D01*
X210811904Y-81938809D01*
X210811904Y-81795952D01*
X210764285Y-81605476D01*
X210716666Y-81510238D01*
X210621428Y-81415000D01*
X210478571Y-81367380D01*
X210383333Y-81367380D01*
X210240476Y-81415000D01*
X210192857Y-81462619D01*
X209240476Y-82367380D02*
X209811904Y-82367380D01*
X209526190Y-82367380D02*
X209526190Y-81367380D01*
X209621428Y-81510238D01*
X209716666Y-81605476D01*
X209811904Y-81653095D01*
X208907142Y-81367380D02*
X208288095Y-81367380D01*
X208621428Y-81748333D01*
X208478571Y-81748333D01*
X208383333Y-81795952D01*
X208335714Y-81843571D01*
X208288095Y-81938809D01*
X208288095Y-82176904D01*
X208335714Y-82272142D01*
X208383333Y-82319761D01*
X208478571Y-82367380D01*
X208764285Y-82367380D01*
X208859523Y-82319761D01*
X208907142Y-82272142D01*
X176696666Y-94972142D02*
X176744285Y-95019761D01*
X176887142Y-95067380D01*
X176982380Y-95067380D01*
X177125238Y-95019761D01*
X177220476Y-94924523D01*
X177268095Y-94829285D01*
X177315714Y-94638809D01*
X177315714Y-94495952D01*
X177268095Y-94305476D01*
X177220476Y-94210238D01*
X177125238Y-94115000D01*
X176982380Y-94067380D01*
X176887142Y-94067380D01*
X176744285Y-94115000D01*
X176696666Y-94162619D01*
X176363333Y-94067380D02*
X175744285Y-94067380D01*
X176077619Y-94448333D01*
X175934761Y-94448333D01*
X175839523Y-94495952D01*
X175791904Y-94543571D01*
X175744285Y-94638809D01*
X175744285Y-94876904D01*
X175791904Y-94972142D01*
X175839523Y-95019761D01*
X175934761Y-95067380D01*
X176220476Y-95067380D01*
X176315714Y-95019761D01*
X176363333Y-94972142D01*
X176664761Y-95670714D02*
X176664761Y-96337380D01*
X176902857Y-95289761D02*
X177140952Y-96004047D01*
X176521904Y-96004047D01*
X176140952Y-96242142D02*
X176093333Y-96289761D01*
X176140952Y-96337380D01*
X176188571Y-96289761D01*
X176140952Y-96242142D01*
X176140952Y-96337380D01*
X175760000Y-95337380D02*
X175093333Y-95337380D01*
X175521904Y-96337380D01*
X174283809Y-95670714D02*
X174283809Y-96337380D01*
X174712380Y-95670714D02*
X174712380Y-96194523D01*
X174664761Y-96289761D01*
X174569523Y-96337380D01*
X174426666Y-96337380D01*
X174331428Y-96289761D01*
X174283809Y-96242142D01*
X173474285Y-95813571D02*
X173807619Y-95813571D01*
X173807619Y-96337380D02*
X173807619Y-95337380D01*
X173331428Y-95337380D01*
X177331666Y-147772380D02*
X177665000Y-147296190D01*
X177903095Y-147772380D02*
X177903095Y-146772380D01*
X177522142Y-146772380D01*
X177426904Y-146820000D01*
X177379285Y-146867619D01*
X177331666Y-146962857D01*
X177331666Y-147105714D01*
X177379285Y-147200952D01*
X177426904Y-147248571D01*
X177522142Y-147296190D01*
X177903095Y-147296190D01*
X176855476Y-147772380D02*
X176665000Y-147772380D01*
X176569761Y-147724761D01*
X176522142Y-147677142D01*
X176426904Y-147534285D01*
X176379285Y-147343809D01*
X176379285Y-146962857D01*
X176426904Y-146867619D01*
X176474523Y-146820000D01*
X176569761Y-146772380D01*
X176760238Y-146772380D01*
X176855476Y-146820000D01*
X176903095Y-146867619D01*
X176950714Y-146962857D01*
X176950714Y-147200952D01*
X176903095Y-147296190D01*
X176855476Y-147343809D01*
X176760238Y-147391428D01*
X176569761Y-147391428D01*
X176474523Y-147343809D01*
X176426904Y-147296190D01*
X176379285Y-147200952D01*
X175712380Y-140925952D02*
X175712380Y-140354523D01*
X175712380Y-140640238D02*
X174712380Y-140640238D01*
X174855238Y-140545000D01*
X174950476Y-140449761D01*
X174998095Y-140354523D01*
X175712380Y-141354523D02*
X174712380Y-141354523D01*
X175331428Y-141449761D02*
X175712380Y-141735476D01*
X175045714Y-141735476D02*
X175426666Y-141354523D01*
X195587857Y-121642142D02*
X195635476Y-121689761D01*
X195778333Y-121737380D01*
X195873571Y-121737380D01*
X196016428Y-121689761D01*
X196111666Y-121594523D01*
X196159285Y-121499285D01*
X196206904Y-121308809D01*
X196206904Y-121165952D01*
X196159285Y-120975476D01*
X196111666Y-120880238D01*
X196016428Y-120785000D01*
X195873571Y-120737380D01*
X195778333Y-120737380D01*
X195635476Y-120785000D01*
X195587857Y-120832619D01*
X194635476Y-121737380D02*
X195206904Y-121737380D01*
X194921190Y-121737380D02*
X194921190Y-120737380D01*
X195016428Y-120880238D01*
X195111666Y-120975476D01*
X195206904Y-121023095D01*
X193778333Y-121070714D02*
X193778333Y-121737380D01*
X194016428Y-120689761D02*
X194254523Y-121404047D01*
X193635476Y-121404047D01*
X194952857Y-110942380D02*
X195286190Y-110466190D01*
X195524285Y-110942380D02*
X195524285Y-109942380D01*
X195143333Y-109942380D01*
X195048095Y-109990000D01*
X195000476Y-110037619D01*
X194952857Y-110132857D01*
X194952857Y-110275714D01*
X195000476Y-110370952D01*
X195048095Y-110418571D01*
X195143333Y-110466190D01*
X195524285Y-110466190D01*
X194571904Y-110037619D02*
X194524285Y-109990000D01*
X194429047Y-109942380D01*
X194190952Y-109942380D01*
X194095714Y-109990000D01*
X194048095Y-110037619D01*
X194000476Y-110132857D01*
X194000476Y-110228095D01*
X194048095Y-110370952D01*
X194619523Y-110942380D01*
X194000476Y-110942380D01*
X193381428Y-109942380D02*
X193286190Y-109942380D01*
X193190952Y-109990000D01*
X193143333Y-110037619D01*
X193095714Y-110132857D01*
X193048095Y-110323333D01*
X193048095Y-110561428D01*
X193095714Y-110751904D01*
X193143333Y-110847142D01*
X193190952Y-110894761D01*
X193286190Y-110942380D01*
X193381428Y-110942380D01*
X193476666Y-110894761D01*
X193524285Y-110847142D01*
X193571904Y-110751904D01*
X193619523Y-110561428D01*
X193619523Y-110323333D01*
X193571904Y-110132857D01*
X193524285Y-110037619D01*
X193476666Y-109990000D01*
X193381428Y-109942380D01*
X195381428Y-108402380D02*
X195952857Y-108402380D01*
X195667142Y-108402380D02*
X195667142Y-107402380D01*
X195762380Y-107545238D01*
X195857619Y-107640476D01*
X195952857Y-107688095D01*
X194762380Y-107402380D02*
X194667142Y-107402380D01*
X194571904Y-107450000D01*
X194524285Y-107497619D01*
X194476666Y-107592857D01*
X194429047Y-107783333D01*
X194429047Y-108021428D01*
X194476666Y-108211904D01*
X194524285Y-108307142D01*
X194571904Y-108354761D01*
X194667142Y-108402380D01*
X194762380Y-108402380D01*
X194857619Y-108354761D01*
X194905238Y-108307142D01*
X194952857Y-108211904D01*
X195000476Y-108021428D01*
X195000476Y-107783333D01*
X194952857Y-107592857D01*
X194905238Y-107497619D01*
X194857619Y-107450000D01*
X194762380Y-107402380D01*
X193810000Y-107402380D02*
X193714761Y-107402380D01*
X193619523Y-107450000D01*
X193571904Y-107497619D01*
X193524285Y-107592857D01*
X193476666Y-107783333D01*
X193476666Y-108021428D01*
X193524285Y-108211904D01*
X193571904Y-108307142D01*
X193619523Y-108354761D01*
X193714761Y-108402380D01*
X193810000Y-108402380D01*
X193905238Y-108354761D01*
X193952857Y-108307142D01*
X194000476Y-108211904D01*
X194048095Y-108021428D01*
X194048095Y-107783333D01*
X194000476Y-107592857D01*
X193952857Y-107497619D01*
X193905238Y-107450000D01*
X193810000Y-107402380D01*
X193048095Y-108402380D02*
X193048095Y-107402380D01*
X192952857Y-108021428D02*
X192667142Y-108402380D01*
X192667142Y-107735714D02*
X193048095Y-108116666D01*
X197588095Y-72842380D02*
X197588095Y-71842380D01*
X197350000Y-71842380D01*
X197207142Y-71890000D01*
X197111904Y-71985238D01*
X197064285Y-72080476D01*
X197016666Y-72270952D01*
X197016666Y-72413809D01*
X197064285Y-72604285D01*
X197111904Y-72699523D01*
X197207142Y-72794761D01*
X197350000Y-72842380D01*
X197588095Y-72842380D01*
X196683333Y-71842380D02*
X196016666Y-71842380D01*
X196445238Y-72842380D01*
X175411666Y-37917380D02*
X175745000Y-37441190D01*
X175983095Y-37917380D02*
X175983095Y-36917380D01*
X175602142Y-36917380D01*
X175506904Y-36965000D01*
X175459285Y-37012619D01*
X175411666Y-37107857D01*
X175411666Y-37250714D01*
X175459285Y-37345952D01*
X175506904Y-37393571D01*
X175602142Y-37441190D01*
X175983095Y-37441190D01*
X174459285Y-37917380D02*
X175030714Y-37917380D01*
X174745000Y-37917380D02*
X174745000Y-36917380D01*
X174840238Y-37060238D01*
X174935476Y-37155476D01*
X175030714Y-37203095D01*
X175712380Y-44310952D02*
X175712380Y-43739523D01*
X175712380Y-44025238D02*
X174712380Y-44025238D01*
X174855238Y-43930000D01*
X174950476Y-43834761D01*
X174998095Y-43739523D01*
X175712380Y-44739523D02*
X174712380Y-44739523D01*
X175331428Y-44834761D02*
X175712380Y-45120476D01*
X175045714Y-45120476D02*
X175426666Y-44739523D01*
X221452380Y-143811666D02*
X222166666Y-143811666D01*
X222309523Y-143764047D01*
X222404761Y-143668809D01*
X222452380Y-143525952D01*
X222452380Y-143430714D01*
X222452380Y-144811666D02*
X222452380Y-144240238D01*
X222452380Y-144525952D02*
X221452380Y-144525952D01*
X221595238Y-144430714D01*
X221690476Y-144335476D01*
X221738095Y-144240238D01*
X186697857Y-105862380D02*
X187031190Y-105386190D01*
X187269285Y-105862380D02*
X187269285Y-104862380D01*
X186888333Y-104862380D01*
X186793095Y-104910000D01*
X186745476Y-104957619D01*
X186697857Y-105052857D01*
X186697857Y-105195714D01*
X186745476Y-105290952D01*
X186793095Y-105338571D01*
X186888333Y-105386190D01*
X187269285Y-105386190D01*
X185745476Y-105862380D02*
X186316904Y-105862380D01*
X186031190Y-105862380D02*
X186031190Y-104862380D01*
X186126428Y-105005238D01*
X186221666Y-105100476D01*
X186316904Y-105148095D01*
X185174047Y-105290952D02*
X185269285Y-105243333D01*
X185316904Y-105195714D01*
X185364523Y-105100476D01*
X185364523Y-105052857D01*
X185316904Y-104957619D01*
X185269285Y-104910000D01*
X185174047Y-104862380D01*
X184983571Y-104862380D01*
X184888333Y-104910000D01*
X184840714Y-104957619D01*
X184793095Y-105052857D01*
X184793095Y-105100476D01*
X184840714Y-105195714D01*
X184888333Y-105243333D01*
X184983571Y-105290952D01*
X185174047Y-105290952D01*
X185269285Y-105338571D01*
X185316904Y-105386190D01*
X185364523Y-105481428D01*
X185364523Y-105671904D01*
X185316904Y-105767142D01*
X185269285Y-105814761D01*
X185174047Y-105862380D01*
X184983571Y-105862380D01*
X184888333Y-105814761D01*
X184840714Y-105767142D01*
X184793095Y-105671904D01*
X184793095Y-105481428D01*
X184840714Y-105386190D01*
X184888333Y-105338571D01*
X184983571Y-105290952D01*
X196000476Y-104862380D02*
X195381428Y-104862380D01*
X195714761Y-105243333D01*
X195571904Y-105243333D01*
X195476666Y-105290952D01*
X195429047Y-105338571D01*
X195381428Y-105433809D01*
X195381428Y-105671904D01*
X195429047Y-105767142D01*
X195476666Y-105814761D01*
X195571904Y-105862380D01*
X195857619Y-105862380D01*
X195952857Y-105814761D01*
X196000476Y-105767142D01*
X195048095Y-104862380D02*
X194429047Y-104862380D01*
X194762380Y-105243333D01*
X194619523Y-105243333D01*
X194524285Y-105290952D01*
X194476666Y-105338571D01*
X194429047Y-105433809D01*
X194429047Y-105671904D01*
X194476666Y-105767142D01*
X194524285Y-105814761D01*
X194619523Y-105862380D01*
X194905238Y-105862380D01*
X195000476Y-105814761D01*
X195048095Y-105767142D01*
X193810000Y-104862380D02*
X193714761Y-104862380D01*
X193619523Y-104910000D01*
X193571904Y-104957619D01*
X193524285Y-105052857D01*
X193476666Y-105243333D01*
X193476666Y-105481428D01*
X193524285Y-105671904D01*
X193571904Y-105767142D01*
X193619523Y-105814761D01*
X193714761Y-105862380D01*
X193810000Y-105862380D01*
X193905238Y-105814761D01*
X193952857Y-105767142D01*
X194000476Y-105671904D01*
X194048095Y-105481428D01*
X194048095Y-105243333D01*
X194000476Y-105052857D01*
X193952857Y-104957619D01*
X193905238Y-104910000D01*
X193810000Y-104862380D01*
X193048095Y-105862380D02*
X193048095Y-104862380D01*
X192952857Y-105481428D02*
X192667142Y-105862380D01*
X192667142Y-105195714D02*
X193048095Y-105576666D01*
X207652857Y-51792142D02*
X207700476Y-51839761D01*
X207843333Y-51887380D01*
X207938571Y-51887380D01*
X208081428Y-51839761D01*
X208176666Y-51744523D01*
X208224285Y-51649285D01*
X208271904Y-51458809D01*
X208271904Y-51315952D01*
X208224285Y-51125476D01*
X208176666Y-51030238D01*
X208081428Y-50935000D01*
X207938571Y-50887380D01*
X207843333Y-50887380D01*
X207700476Y-50935000D01*
X207652857Y-50982619D01*
X206700476Y-51887380D02*
X207271904Y-51887380D01*
X206986190Y-51887380D02*
X206986190Y-50887380D01*
X207081428Y-51030238D01*
X207176666Y-51125476D01*
X207271904Y-51173095D01*
X205748095Y-51887380D02*
X206319523Y-51887380D01*
X206033809Y-51887380D02*
X206033809Y-50887380D01*
X206129047Y-51030238D01*
X206224285Y-51125476D01*
X206319523Y-51173095D01*
X222583333Y-102957380D02*
X222583333Y-103671666D01*
X222630952Y-103814523D01*
X222726190Y-103909761D01*
X222869047Y-103957380D01*
X222964285Y-103957380D01*
X222154761Y-103052619D02*
X222107142Y-103005000D01*
X222011904Y-102957380D01*
X221773809Y-102957380D01*
X221678571Y-103005000D01*
X221630952Y-103052619D01*
X221583333Y-103147857D01*
X221583333Y-103243095D01*
X221630952Y-103385952D01*
X222202380Y-103957380D01*
X221583333Y-103957380D01*
X220710000Y-102957380D02*
X220519523Y-102957380D01*
X220424285Y-103005000D01*
X220329047Y-103100238D01*
X220281428Y-103290714D01*
X220281428Y-103624047D01*
X220329047Y-103814523D01*
X220424285Y-103909761D01*
X220519523Y-103957380D01*
X220710000Y-103957380D01*
X220805238Y-103909761D01*
X220900476Y-103814523D01*
X220948095Y-103624047D01*
X220948095Y-103290714D01*
X220900476Y-103100238D01*
X220805238Y-103005000D01*
X220710000Y-102957380D01*
X219852857Y-102957380D02*
X219852857Y-103766904D01*
X219805238Y-103862142D01*
X219757619Y-103909761D01*
X219662380Y-103957380D01*
X219471904Y-103957380D01*
X219376666Y-103909761D01*
X219329047Y-103862142D01*
X219281428Y-103766904D01*
X219281428Y-102957380D01*
X218948095Y-102957380D02*
X218376666Y-102957380D01*
X218662380Y-103957380D02*
X218662380Y-102957380D01*
X213772857Y-133167380D02*
X214106190Y-132691190D01*
X214344285Y-133167380D02*
X214344285Y-132167380D01*
X213963333Y-132167380D01*
X213868095Y-132215000D01*
X213820476Y-132262619D01*
X213772857Y-132357857D01*
X213772857Y-132500714D01*
X213820476Y-132595952D01*
X213868095Y-132643571D01*
X213963333Y-132691190D01*
X214344285Y-132691190D01*
X213391904Y-132262619D02*
X213344285Y-132215000D01*
X213249047Y-132167380D01*
X213010952Y-132167380D01*
X212915714Y-132215000D01*
X212868095Y-132262619D01*
X212820476Y-132357857D01*
X212820476Y-132453095D01*
X212868095Y-132595952D01*
X213439523Y-133167380D01*
X212820476Y-133167380D01*
X211963333Y-132167380D02*
X212153809Y-132167380D01*
X212249047Y-132215000D01*
X212296666Y-132262619D01*
X212391904Y-132405476D01*
X212439523Y-132595952D01*
X212439523Y-132976904D01*
X212391904Y-133072142D01*
X212344285Y-133119761D01*
X212249047Y-133167380D01*
X212058571Y-133167380D01*
X211963333Y-133119761D01*
X211915714Y-133072142D01*
X211868095Y-132976904D01*
X211868095Y-132738809D01*
X211915714Y-132643571D01*
X211963333Y-132595952D01*
X212058571Y-132548333D01*
X212249047Y-132548333D01*
X212344285Y-132595952D01*
X212391904Y-132643571D01*
X212439523Y-132738809D01*
D10*
X219360476Y-127996904D02*
X219817619Y-127996904D01*
X219589047Y-127996904D02*
X219589047Y-127196904D01*
X219665238Y-127311190D01*
X219741428Y-127387380D01*
X219817619Y-127425476D01*
X218865238Y-127196904D02*
X218789047Y-127196904D01*
X218712857Y-127235000D01*
X218674761Y-127273095D01*
X218636666Y-127349285D01*
X218598571Y-127501666D01*
X218598571Y-127692142D01*
X218636666Y-127844523D01*
X218674761Y-127920714D01*
X218712857Y-127958809D01*
X218789047Y-127996904D01*
X218865238Y-127996904D01*
X218941428Y-127958809D01*
X218979523Y-127920714D01*
X219017619Y-127844523D01*
X219055714Y-127692142D01*
X219055714Y-127501666D01*
X219017619Y-127349285D01*
X218979523Y-127273095D01*
X218941428Y-127235000D01*
X218865238Y-127196904D01*
X218255714Y-127996904D02*
X218255714Y-127196904D01*
X218179523Y-127692142D02*
X217950952Y-127996904D01*
X217950952Y-127463571D02*
X218255714Y-127768333D01*
X216846190Y-127196904D02*
X216770000Y-127196904D01*
X216693809Y-127235000D01*
X216655714Y-127273095D01*
X216617619Y-127349285D01*
X216579523Y-127501666D01*
X216579523Y-127692142D01*
X216617619Y-127844523D01*
X216655714Y-127920714D01*
X216693809Y-127958809D01*
X216770000Y-127996904D01*
X216846190Y-127996904D01*
X216922380Y-127958809D01*
X216960476Y-127920714D01*
X216998571Y-127844523D01*
X217036666Y-127692142D01*
X217036666Y-127501666D01*
X216998571Y-127349285D01*
X216960476Y-127273095D01*
X216922380Y-127235000D01*
X216846190Y-127196904D01*
X216236666Y-127920714D02*
X216198571Y-127958809D01*
X216236666Y-127996904D01*
X216274761Y-127958809D01*
X216236666Y-127920714D01*
X216236666Y-127996904D01*
X215436666Y-127996904D02*
X215893809Y-127996904D01*
X215665238Y-127996904D02*
X215665238Y-127196904D01*
X215741428Y-127311190D01*
X215817619Y-127387380D01*
X215893809Y-127425476D01*
X215131904Y-127996904D02*
X214522380Y-127196904D01*
X215017619Y-127196904D02*
X214941428Y-127235000D01*
X214903333Y-127311190D01*
X214941428Y-127387380D01*
X215017619Y-127425476D01*
X215093809Y-127387380D01*
X215131904Y-127311190D01*
X215093809Y-127235000D01*
X215017619Y-127196904D01*
X214560476Y-127958809D02*
X214522380Y-127882619D01*
X214560476Y-127806428D01*
X214636666Y-127768333D01*
X214712857Y-127806428D01*
X214750952Y-127882619D01*
X214712857Y-127958809D01*
X214636666Y-127996904D01*
X214560476Y-127958809D01*
D11*
X177966666Y-65857380D02*
X178300000Y-65381190D01*
X178538095Y-65857380D02*
X178538095Y-64857380D01*
X178157142Y-64857380D01*
X178061904Y-64905000D01*
X178014285Y-64952619D01*
X177966666Y-65047857D01*
X177966666Y-65190714D01*
X178014285Y-65285952D01*
X178061904Y-65333571D01*
X178157142Y-65381190D01*
X178538095Y-65381190D01*
X177633333Y-64857380D02*
X177014285Y-64857380D01*
X177347619Y-65238333D01*
X177204761Y-65238333D01*
X177109523Y-65285952D01*
X177061904Y-65333571D01*
X177014285Y-65428809D01*
X177014285Y-65666904D01*
X177061904Y-65762142D01*
X177109523Y-65809761D01*
X177204761Y-65857380D01*
X177490476Y-65857380D01*
X177585714Y-65809761D01*
X177633333Y-65762142D01*
X175712380Y-70365952D02*
X175712380Y-69794523D01*
X175712380Y-70080238D02*
X174712380Y-70080238D01*
X174855238Y-69985000D01*
X174950476Y-69889761D01*
X174998095Y-69794523D01*
X175712380Y-70794523D02*
X174712380Y-70794523D01*
X175331428Y-70889761D02*
X175712380Y-71175476D01*
X175045714Y-71175476D02*
X175426666Y-70794523D01*
X183046666Y-88082380D02*
X183380000Y-87606190D01*
X183618095Y-88082380D02*
X183618095Y-87082380D01*
X183237142Y-87082380D01*
X183141904Y-87130000D01*
X183094285Y-87177619D01*
X183046666Y-87272857D01*
X183046666Y-87415714D01*
X183094285Y-87510952D01*
X183141904Y-87558571D01*
X183237142Y-87606190D01*
X183618095Y-87606190D01*
X182141904Y-87082380D02*
X182618095Y-87082380D01*
X182665714Y-87558571D01*
X182618095Y-87510952D01*
X182522857Y-87463333D01*
X182284761Y-87463333D01*
X182189523Y-87510952D01*
X182141904Y-87558571D01*
X182094285Y-87653809D01*
X182094285Y-87891904D01*
X182141904Y-87987142D01*
X182189523Y-88034761D01*
X182284761Y-88082380D01*
X182522857Y-88082380D01*
X182618095Y-88034761D01*
X182665714Y-87987142D01*
X182999047Y-85467380D02*
X183570476Y-85467380D01*
X183284761Y-85467380D02*
X183284761Y-84467380D01*
X183380000Y-84610238D01*
X183475238Y-84705476D01*
X183570476Y-84753095D01*
X182570476Y-85467380D02*
X182570476Y-84467380D01*
X182475238Y-85086428D02*
X182189523Y-85467380D01*
X182189523Y-84800714D02*
X182570476Y-85181666D01*
X220987857Y-133167380D02*
X221321190Y-132691190D01*
X221559285Y-133167380D02*
X221559285Y-132167380D01*
X221178333Y-132167380D01*
X221083095Y-132215000D01*
X221035476Y-132262619D01*
X220987857Y-132357857D01*
X220987857Y-132500714D01*
X221035476Y-132595952D01*
X221083095Y-132643571D01*
X221178333Y-132691190D01*
X221559285Y-132691190D01*
X220606904Y-132262619D02*
X220559285Y-132215000D01*
X220464047Y-132167380D01*
X220225952Y-132167380D01*
X220130714Y-132215000D01*
X220083095Y-132262619D01*
X220035476Y-132357857D01*
X220035476Y-132453095D01*
X220083095Y-132595952D01*
X220654523Y-133167380D01*
X220035476Y-133167380D01*
X219178333Y-132500714D02*
X219178333Y-133167380D01*
X219416428Y-132119761D02*
X219654523Y-132834047D01*
X219035476Y-132834047D01*
D10*
X219817619Y-129813095D02*
X219779523Y-129775000D01*
X219703333Y-129736904D01*
X219512857Y-129736904D01*
X219436666Y-129775000D01*
X219398571Y-129813095D01*
X219360476Y-129889285D01*
X219360476Y-129965476D01*
X219398571Y-130079761D01*
X219855714Y-130536904D01*
X219360476Y-130536904D01*
X218865238Y-129736904D02*
X218789047Y-129736904D01*
X218712857Y-129775000D01*
X218674761Y-129813095D01*
X218636666Y-129889285D01*
X218598571Y-130041666D01*
X218598571Y-130232142D01*
X218636666Y-130384523D01*
X218674761Y-130460714D01*
X218712857Y-130498809D01*
X218789047Y-130536904D01*
X218865238Y-130536904D01*
X218941428Y-130498809D01*
X218979523Y-130460714D01*
X219017619Y-130384523D01*
X219055714Y-130232142D01*
X219055714Y-130041666D01*
X219017619Y-129889285D01*
X218979523Y-129813095D01*
X218941428Y-129775000D01*
X218865238Y-129736904D01*
X218255714Y-130536904D02*
X218255714Y-129736904D01*
X218179523Y-130232142D02*
X217950952Y-130536904D01*
X217950952Y-130003571D02*
X218255714Y-130308333D01*
X216846190Y-129736904D02*
X216770000Y-129736904D01*
X216693809Y-129775000D01*
X216655714Y-129813095D01*
X216617619Y-129889285D01*
X216579523Y-130041666D01*
X216579523Y-130232142D01*
X216617619Y-130384523D01*
X216655714Y-130460714D01*
X216693809Y-130498809D01*
X216770000Y-130536904D01*
X216846190Y-130536904D01*
X216922380Y-130498809D01*
X216960476Y-130460714D01*
X216998571Y-130384523D01*
X217036666Y-130232142D01*
X217036666Y-130041666D01*
X216998571Y-129889285D01*
X216960476Y-129813095D01*
X216922380Y-129775000D01*
X216846190Y-129736904D01*
X216236666Y-130460714D02*
X216198571Y-130498809D01*
X216236666Y-130536904D01*
X216274761Y-130498809D01*
X216236666Y-130460714D01*
X216236666Y-130536904D01*
X215436666Y-130536904D02*
X215893809Y-130536904D01*
X215665238Y-130536904D02*
X215665238Y-129736904D01*
X215741428Y-129851190D01*
X215817619Y-129927380D01*
X215893809Y-129965476D01*
X215131904Y-130536904D02*
X214522380Y-129736904D01*
X215017619Y-129736904D02*
X214941428Y-129775000D01*
X214903333Y-129851190D01*
X214941428Y-129927380D01*
X215017619Y-129965476D01*
X215093809Y-129927380D01*
X215131904Y-129851190D01*
X215093809Y-129775000D01*
X215017619Y-129736904D01*
X214560476Y-130498809D02*
X214522380Y-130422619D01*
X214560476Y-130346428D01*
X214636666Y-130308333D01*
X214712857Y-130346428D01*
X214750952Y-130422619D01*
X214712857Y-130498809D01*
X214636666Y-130536904D01*
X214560476Y-130498809D01*
D11*
X189872857Y-78092380D02*
X190206190Y-77616190D01*
X190444285Y-78092380D02*
X190444285Y-77092380D01*
X190063333Y-77092380D01*
X189968095Y-77140000D01*
X189920476Y-77187619D01*
X189872857Y-77282857D01*
X189872857Y-77425714D01*
X189920476Y-77520952D01*
X189968095Y-77568571D01*
X190063333Y-77616190D01*
X190444285Y-77616190D01*
X188920476Y-78092380D02*
X189491904Y-78092380D01*
X189206190Y-78092380D02*
X189206190Y-77092380D01*
X189301428Y-77235238D01*
X189396666Y-77330476D01*
X189491904Y-77378095D01*
X188587142Y-77092380D02*
X187968095Y-77092380D01*
X188301428Y-77473333D01*
X188158571Y-77473333D01*
X188063333Y-77520952D01*
X188015714Y-77568571D01*
X187968095Y-77663809D01*
X187968095Y-77901904D01*
X188015714Y-77997142D01*
X188063333Y-78044761D01*
X188158571Y-78092380D01*
X188444285Y-78092380D01*
X188539523Y-78044761D01*
X188587142Y-77997142D01*
X190301428Y-80387380D02*
X190872857Y-80387380D01*
X190587142Y-80387380D02*
X190587142Y-79387380D01*
X190682380Y-79530238D01*
X190777619Y-79625476D01*
X190872857Y-79673095D01*
X189682380Y-79387380D02*
X189587142Y-79387380D01*
X189491904Y-79435000D01*
X189444285Y-79482619D01*
X189396666Y-79577857D01*
X189349047Y-79768333D01*
X189349047Y-80006428D01*
X189396666Y-80196904D01*
X189444285Y-80292142D01*
X189491904Y-80339761D01*
X189587142Y-80387380D01*
X189682380Y-80387380D01*
X189777619Y-80339761D01*
X189825238Y-80292142D01*
X189872857Y-80196904D01*
X189920476Y-80006428D01*
X189920476Y-79768333D01*
X189872857Y-79577857D01*
X189825238Y-79482619D01*
X189777619Y-79435000D01*
X189682380Y-79387380D01*
X188730000Y-79387380D02*
X188634761Y-79387380D01*
X188539523Y-79435000D01*
X188491904Y-79482619D01*
X188444285Y-79577857D01*
X188396666Y-79768333D01*
X188396666Y-80006428D01*
X188444285Y-80196904D01*
X188491904Y-80292142D01*
X188539523Y-80339761D01*
X188634761Y-80387380D01*
X188730000Y-80387380D01*
X188825238Y-80339761D01*
X188872857Y-80292142D01*
X188920476Y-80196904D01*
X188968095Y-80006428D01*
X188968095Y-79768333D01*
X188920476Y-79577857D01*
X188872857Y-79482619D01*
X188825238Y-79435000D01*
X188730000Y-79387380D01*
X187968095Y-80387380D02*
X187968095Y-79387380D01*
X187872857Y-80006428D02*
X187587142Y-80387380D01*
X187587142Y-79720714D02*
X187968095Y-80101666D01*
X217265238Y-81442619D02*
X217360476Y-81395000D01*
X217455714Y-81299761D01*
X217598571Y-81156904D01*
X217693809Y-81109285D01*
X217789047Y-81109285D01*
X217741428Y-81347380D02*
X217836666Y-81299761D01*
X217931904Y-81204523D01*
X217979523Y-81014047D01*
X217979523Y-80680714D01*
X217931904Y-80490238D01*
X217836666Y-80395000D01*
X217741428Y-80347380D01*
X217550952Y-80347380D01*
X217455714Y-80395000D01*
X217360476Y-80490238D01*
X217312857Y-80680714D01*
X217312857Y-81014047D01*
X217360476Y-81204523D01*
X217455714Y-81299761D01*
X217550952Y-81347380D01*
X217741428Y-81347380D01*
X216979523Y-80347380D02*
X216312857Y-80347380D01*
X216741428Y-81347380D01*
X196857857Y-48732380D02*
X197191190Y-48256190D01*
X197429285Y-48732380D02*
X197429285Y-47732380D01*
X197048333Y-47732380D01*
X196953095Y-47780000D01*
X196905476Y-47827619D01*
X196857857Y-47922857D01*
X196857857Y-48065714D01*
X196905476Y-48160952D01*
X196953095Y-48208571D01*
X197048333Y-48256190D01*
X197429285Y-48256190D01*
X196476904Y-47827619D02*
X196429285Y-47780000D01*
X196334047Y-47732380D01*
X196095952Y-47732380D01*
X196000714Y-47780000D01*
X195953095Y-47827619D01*
X195905476Y-47922857D01*
X195905476Y-48018095D01*
X195953095Y-48160952D01*
X196524523Y-48732380D01*
X195905476Y-48732380D01*
X194953095Y-48732380D02*
X195524523Y-48732380D01*
X195238809Y-48732380D02*
X195238809Y-47732380D01*
X195334047Y-47875238D01*
X195429285Y-47970476D01*
X195524523Y-48018095D01*
X198842380Y-44505714D02*
X198842380Y-45124761D01*
X199223333Y-44791428D01*
X199223333Y-44934285D01*
X199270952Y-45029523D01*
X199318571Y-45077142D01*
X199413809Y-45124761D01*
X199651904Y-45124761D01*
X199747142Y-45077142D01*
X199794761Y-45029523D01*
X199842380Y-44934285D01*
X199842380Y-44648571D01*
X199794761Y-44553333D01*
X199747142Y-44505714D01*
X198842380Y-45458095D02*
X198842380Y-46077142D01*
X199223333Y-45743809D01*
X199223333Y-45886666D01*
X199270952Y-45981904D01*
X199318571Y-46029523D01*
X199413809Y-46077142D01*
X199651904Y-46077142D01*
X199747142Y-46029523D01*
X199794761Y-45981904D01*
X199842380Y-45886666D01*
X199842380Y-45600952D01*
X199794761Y-45505714D01*
X199747142Y-45458095D01*
X199842380Y-46505714D02*
X198842380Y-46505714D01*
X199461428Y-46600952D02*
X199842380Y-46886666D01*
X199175714Y-46886666D02*
X199556666Y-46505714D01*
X210192857Y-123007380D02*
X210526190Y-122531190D01*
X210764285Y-123007380D02*
X210764285Y-122007380D01*
X210383333Y-122007380D01*
X210288095Y-122055000D01*
X210240476Y-122102619D01*
X210192857Y-122197857D01*
X210192857Y-122340714D01*
X210240476Y-122435952D01*
X210288095Y-122483571D01*
X210383333Y-122531190D01*
X210764285Y-122531190D01*
X209811904Y-122102619D02*
X209764285Y-122055000D01*
X209669047Y-122007380D01*
X209430952Y-122007380D01*
X209335714Y-122055000D01*
X209288095Y-122102619D01*
X209240476Y-122197857D01*
X209240476Y-122293095D01*
X209288095Y-122435952D01*
X209859523Y-123007380D01*
X209240476Y-123007380D01*
X208669047Y-122435952D02*
X208764285Y-122388333D01*
X208811904Y-122340714D01*
X208859523Y-122245476D01*
X208859523Y-122197857D01*
X208811904Y-122102619D01*
X208764285Y-122055000D01*
X208669047Y-122007380D01*
X208478571Y-122007380D01*
X208383333Y-122055000D01*
X208335714Y-122102619D01*
X208288095Y-122197857D01*
X208288095Y-122245476D01*
X208335714Y-122340714D01*
X208383333Y-122388333D01*
X208478571Y-122435952D01*
X208669047Y-122435952D01*
X208764285Y-122483571D01*
X208811904Y-122531190D01*
X208859523Y-122626428D01*
X208859523Y-122816904D01*
X208811904Y-122912142D01*
X208764285Y-122959761D01*
X208669047Y-123007380D01*
X208478571Y-123007380D01*
X208383333Y-122959761D01*
X208335714Y-122912142D01*
X208288095Y-122816904D01*
X208288095Y-122626428D01*
X208335714Y-122531190D01*
X208383333Y-122483571D01*
X208478571Y-122435952D01*
D10*
X205136428Y-124186904D02*
X205593571Y-124186904D01*
X205365000Y-124186904D02*
X205365000Y-123386904D01*
X205441190Y-123501190D01*
X205517380Y-123577380D01*
X205593571Y-123615476D01*
X204641190Y-123386904D02*
X204565000Y-123386904D01*
X204488809Y-123425000D01*
X204450714Y-123463095D01*
X204412619Y-123539285D01*
X204374523Y-123691666D01*
X204374523Y-123882142D01*
X204412619Y-124034523D01*
X204450714Y-124110714D01*
X204488809Y-124148809D01*
X204565000Y-124186904D01*
X204641190Y-124186904D01*
X204717380Y-124148809D01*
X204755476Y-124110714D01*
X204793571Y-124034523D01*
X204831666Y-123882142D01*
X204831666Y-123691666D01*
X204793571Y-123539285D01*
X204755476Y-123463095D01*
X204717380Y-123425000D01*
X204641190Y-123386904D01*
X203879285Y-123386904D02*
X203803095Y-123386904D01*
X203726904Y-123425000D01*
X203688809Y-123463095D01*
X203650714Y-123539285D01*
X203612619Y-123691666D01*
X203612619Y-123882142D01*
X203650714Y-124034523D01*
X203688809Y-124110714D01*
X203726904Y-124148809D01*
X203803095Y-124186904D01*
X203879285Y-124186904D01*
X203955476Y-124148809D01*
X203993571Y-124110714D01*
X204031666Y-124034523D01*
X204069761Y-123882142D01*
X204069761Y-123691666D01*
X204031666Y-123539285D01*
X203993571Y-123463095D01*
X203955476Y-123425000D01*
X203879285Y-123386904D01*
X203269761Y-124186904D02*
X203269761Y-123386904D01*
X203193571Y-123882142D02*
X202965000Y-124186904D01*
X202965000Y-123653571D02*
X203269761Y-123958333D01*
X201860238Y-123386904D02*
X201784047Y-123386904D01*
X201707857Y-123425000D01*
X201669761Y-123463095D01*
X201631666Y-123539285D01*
X201593571Y-123691666D01*
X201593571Y-123882142D01*
X201631666Y-124034523D01*
X201669761Y-124110714D01*
X201707857Y-124148809D01*
X201784047Y-124186904D01*
X201860238Y-124186904D01*
X201936428Y-124148809D01*
X201974523Y-124110714D01*
X202012619Y-124034523D01*
X202050714Y-123882142D01*
X202050714Y-123691666D01*
X202012619Y-123539285D01*
X201974523Y-123463095D01*
X201936428Y-123425000D01*
X201860238Y-123386904D01*
X201250714Y-124110714D02*
X201212619Y-124148809D01*
X201250714Y-124186904D01*
X201288809Y-124148809D01*
X201250714Y-124110714D01*
X201250714Y-124186904D01*
X200450714Y-124186904D02*
X200907857Y-124186904D01*
X200679285Y-124186904D02*
X200679285Y-123386904D01*
X200755476Y-123501190D01*
X200831666Y-123577380D01*
X200907857Y-123615476D01*
X200145952Y-124186904D02*
X199536428Y-123386904D01*
X200031666Y-123386904D02*
X199955476Y-123425000D01*
X199917380Y-123501190D01*
X199955476Y-123577380D01*
X200031666Y-123615476D01*
X200107857Y-123577380D01*
X200145952Y-123501190D01*
X200107857Y-123425000D01*
X200031666Y-123386904D01*
X199574523Y-124148809D02*
X199536428Y-124072619D01*
X199574523Y-123996428D01*
X199650714Y-123958333D01*
X199726904Y-123996428D01*
X199765000Y-124072619D01*
X199726904Y-124148809D01*
X199650714Y-124186904D01*
X199574523Y-124148809D01*
D11*
X182252857Y-82927380D02*
X182586190Y-82451190D01*
X182824285Y-82927380D02*
X182824285Y-81927380D01*
X182443333Y-81927380D01*
X182348095Y-81975000D01*
X182300476Y-82022619D01*
X182252857Y-82117857D01*
X182252857Y-82260714D01*
X182300476Y-82355952D01*
X182348095Y-82403571D01*
X182443333Y-82451190D01*
X182824285Y-82451190D01*
X181300476Y-82927380D02*
X181871904Y-82927380D01*
X181586190Y-82927380D02*
X181586190Y-81927380D01*
X181681428Y-82070238D01*
X181776666Y-82165476D01*
X181871904Y-82213095D01*
X180443333Y-82260714D02*
X180443333Y-82927380D01*
X180681428Y-81879761D02*
X180919523Y-82594047D01*
X180300476Y-82594047D01*
X190920476Y-81927380D02*
X190301428Y-81927380D01*
X190634761Y-82308333D01*
X190491904Y-82308333D01*
X190396666Y-82355952D01*
X190349047Y-82403571D01*
X190301428Y-82498809D01*
X190301428Y-82736904D01*
X190349047Y-82832142D01*
X190396666Y-82879761D01*
X190491904Y-82927380D01*
X190777619Y-82927380D01*
X190872857Y-82879761D01*
X190920476Y-82832142D01*
X189968095Y-81927380D02*
X189349047Y-81927380D01*
X189682380Y-82308333D01*
X189539523Y-82308333D01*
X189444285Y-82355952D01*
X189396666Y-82403571D01*
X189349047Y-82498809D01*
X189349047Y-82736904D01*
X189396666Y-82832142D01*
X189444285Y-82879761D01*
X189539523Y-82927380D01*
X189825238Y-82927380D01*
X189920476Y-82879761D01*
X189968095Y-82832142D01*
X188730000Y-81927380D02*
X188634761Y-81927380D01*
X188539523Y-81975000D01*
X188491904Y-82022619D01*
X188444285Y-82117857D01*
X188396666Y-82308333D01*
X188396666Y-82546428D01*
X188444285Y-82736904D01*
X188491904Y-82832142D01*
X188539523Y-82879761D01*
X188634761Y-82927380D01*
X188730000Y-82927380D01*
X188825238Y-82879761D01*
X188872857Y-82832142D01*
X188920476Y-82736904D01*
X188968095Y-82546428D01*
X188968095Y-82308333D01*
X188920476Y-82117857D01*
X188872857Y-82022619D01*
X188825238Y-81975000D01*
X188730000Y-81927380D01*
X187968095Y-82927380D02*
X187968095Y-81927380D01*
X187872857Y-82546428D02*
X187587142Y-82927380D01*
X187587142Y-82260714D02*
X187968095Y-82641666D01*
X204558095Y-89967380D02*
X204558095Y-88967380D01*
X204320000Y-88967380D01*
X204177142Y-89015000D01*
X204081904Y-89110238D01*
X204034285Y-89205476D01*
X203986666Y-89395952D01*
X203986666Y-89538809D01*
X204034285Y-89729285D01*
X204081904Y-89824523D01*
X204177142Y-89919761D01*
X204320000Y-89967380D01*
X204558095Y-89967380D01*
X203415238Y-89395952D02*
X203510476Y-89348333D01*
X203558095Y-89300714D01*
X203605714Y-89205476D01*
X203605714Y-89157857D01*
X203558095Y-89062619D01*
X203510476Y-89015000D01*
X203415238Y-88967380D01*
X203224761Y-88967380D01*
X203129523Y-89015000D01*
X203081904Y-89062619D01*
X203034285Y-89157857D01*
X203034285Y-89205476D01*
X203081904Y-89300714D01*
X203129523Y-89348333D01*
X203224761Y-89395952D01*
X203415238Y-89395952D01*
X203510476Y-89443571D01*
X203558095Y-89491190D01*
X203605714Y-89586428D01*
X203605714Y-89776904D01*
X203558095Y-89872142D01*
X203510476Y-89919761D01*
X203415238Y-89967380D01*
X203224761Y-89967380D01*
X203129523Y-89919761D01*
X203081904Y-89872142D01*
X203034285Y-89776904D01*
X203034285Y-89586428D01*
X203081904Y-89491190D01*
X203129523Y-89443571D01*
X203224761Y-89395952D01*
X169711666Y-81097380D02*
X170045000Y-80621190D01*
X170283095Y-81097380D02*
X170283095Y-80097380D01*
X169902142Y-80097380D01*
X169806904Y-80145000D01*
X169759285Y-80192619D01*
X169711666Y-80287857D01*
X169711666Y-80430714D01*
X169759285Y-80525952D01*
X169806904Y-80573571D01*
X169902142Y-80621190D01*
X170283095Y-80621190D01*
X168854523Y-80430714D02*
X168854523Y-81097380D01*
X169092619Y-80049761D02*
X169330714Y-80764047D01*
X168711666Y-80764047D01*
X170616428Y-78482380D02*
X171187857Y-78482380D01*
X170902142Y-78482380D02*
X170902142Y-77482380D01*
X170997380Y-77625238D01*
X171092619Y-77720476D01*
X171187857Y-77768095D01*
X169997380Y-77482380D02*
X169902142Y-77482380D01*
X169806904Y-77530000D01*
X169759285Y-77577619D01*
X169711666Y-77672857D01*
X169664047Y-77863333D01*
X169664047Y-78101428D01*
X169711666Y-78291904D01*
X169759285Y-78387142D01*
X169806904Y-78434761D01*
X169902142Y-78482380D01*
X169997380Y-78482380D01*
X170092619Y-78434761D01*
X170140238Y-78387142D01*
X170187857Y-78291904D01*
X170235476Y-78101428D01*
X170235476Y-77863333D01*
X170187857Y-77672857D01*
X170140238Y-77577619D01*
X170092619Y-77530000D01*
X169997380Y-77482380D01*
X169045000Y-77482380D02*
X168949761Y-77482380D01*
X168854523Y-77530000D01*
X168806904Y-77577619D01*
X168759285Y-77672857D01*
X168711666Y-77863333D01*
X168711666Y-78101428D01*
X168759285Y-78291904D01*
X168806904Y-78387142D01*
X168854523Y-78434761D01*
X168949761Y-78482380D01*
X169045000Y-78482380D01*
X169140238Y-78434761D01*
X169187857Y-78387142D01*
X169235476Y-78291904D01*
X169283095Y-78101428D01*
X169283095Y-77863333D01*
X169235476Y-77672857D01*
X169187857Y-77577619D01*
X169140238Y-77530000D01*
X169045000Y-77482380D01*
X168283095Y-78482380D02*
X168283095Y-77482380D01*
X168187857Y-78101428D02*
X167902142Y-78482380D01*
X167902142Y-77815714D02*
X168283095Y-78196666D01*
X176696666Y-121007142D02*
X176744285Y-121054761D01*
X176887142Y-121102380D01*
X176982380Y-121102380D01*
X177125238Y-121054761D01*
X177220476Y-120959523D01*
X177268095Y-120864285D01*
X177315714Y-120673809D01*
X177315714Y-120530952D01*
X177268095Y-120340476D01*
X177220476Y-120245238D01*
X177125238Y-120150000D01*
X176982380Y-120102380D01*
X176887142Y-120102380D01*
X176744285Y-120150000D01*
X176696666Y-120197619D01*
X175839523Y-120435714D02*
X175839523Y-121102380D01*
X176077619Y-120054761D02*
X176315714Y-120769047D01*
X175696666Y-120769047D01*
X177299761Y-122340714D02*
X177299761Y-123007380D01*
X177537857Y-121959761D02*
X177775952Y-122674047D01*
X177156904Y-122674047D01*
X176775952Y-122912142D02*
X176728333Y-122959761D01*
X176775952Y-123007380D01*
X176823571Y-122959761D01*
X176775952Y-122912142D01*
X176775952Y-123007380D01*
X176395000Y-122007380D02*
X175728333Y-122007380D01*
X176156904Y-123007380D01*
X174918809Y-122340714D02*
X174918809Y-123007380D01*
X175347380Y-122340714D02*
X175347380Y-122864523D01*
X175299761Y-122959761D01*
X175204523Y-123007380D01*
X175061666Y-123007380D01*
X174966428Y-122959761D01*
X174918809Y-122912142D01*
X174109285Y-122483571D02*
X174442619Y-122483571D01*
X174442619Y-123007380D02*
X174442619Y-122007380D01*
X173966428Y-122007380D01*
X200032857Y-63952380D02*
X200366190Y-63476190D01*
X200604285Y-63952380D02*
X200604285Y-62952380D01*
X200223333Y-62952380D01*
X200128095Y-63000000D01*
X200080476Y-63047619D01*
X200032857Y-63142857D01*
X200032857Y-63285714D01*
X200080476Y-63380952D01*
X200128095Y-63428571D01*
X200223333Y-63476190D01*
X200604285Y-63476190D01*
X199080476Y-63952380D02*
X199651904Y-63952380D01*
X199366190Y-63952380D02*
X199366190Y-62952380D01*
X199461428Y-63095238D01*
X199556666Y-63190476D01*
X199651904Y-63238095D01*
X198175714Y-62952380D02*
X198651904Y-62952380D01*
X198699523Y-63428571D01*
X198651904Y-63380952D01*
X198556666Y-63333333D01*
X198318571Y-63333333D01*
X198223333Y-63380952D01*
X198175714Y-63428571D01*
X198128095Y-63523809D01*
X198128095Y-63761904D01*
X198175714Y-63857142D01*
X198223333Y-63904761D01*
X198318571Y-63952380D01*
X198556666Y-63952380D01*
X198651904Y-63904761D01*
X198699523Y-63857142D01*
X202382380Y-68778571D02*
X202382380Y-68207142D01*
X202382380Y-68492857D02*
X201382380Y-68492857D01*
X201525238Y-68397619D01*
X201620476Y-68302380D01*
X201668095Y-68207142D01*
X201382380Y-69397619D02*
X201382380Y-69492857D01*
X201430000Y-69588095D01*
X201477619Y-69635714D01*
X201572857Y-69683333D01*
X201763333Y-69730952D01*
X202001428Y-69730952D01*
X202191904Y-69683333D01*
X202287142Y-69635714D01*
X202334761Y-69588095D01*
X202382380Y-69492857D01*
X202382380Y-69397619D01*
X202334761Y-69302380D01*
X202287142Y-69254761D01*
X202191904Y-69207142D01*
X202001428Y-69159523D01*
X201763333Y-69159523D01*
X201572857Y-69207142D01*
X201477619Y-69254761D01*
X201430000Y-69302380D01*
X201382380Y-69397619D01*
X201382380Y-70350000D02*
X201382380Y-70445238D01*
X201430000Y-70540476D01*
X201477619Y-70588095D01*
X201572857Y-70635714D01*
X201763333Y-70683333D01*
X202001428Y-70683333D01*
X202191904Y-70635714D01*
X202287142Y-70588095D01*
X202334761Y-70540476D01*
X202382380Y-70445238D01*
X202382380Y-70350000D01*
X202334761Y-70254761D01*
X202287142Y-70207142D01*
X202191904Y-70159523D01*
X202001428Y-70111904D01*
X201763333Y-70111904D01*
X201572857Y-70159523D01*
X201477619Y-70207142D01*
X201430000Y-70254761D01*
X201382380Y-70350000D01*
X202382380Y-71111904D02*
X201382380Y-71111904D01*
X202001428Y-71207142D02*
X202382380Y-71492857D01*
X201715714Y-71492857D02*
X202096666Y-71111904D01*
X189872857Y-133167380D02*
X190206190Y-132691190D01*
X190444285Y-133167380D02*
X190444285Y-132167380D01*
X190063333Y-132167380D01*
X189968095Y-132215000D01*
X189920476Y-132262619D01*
X189872857Y-132357857D01*
X189872857Y-132500714D01*
X189920476Y-132595952D01*
X189968095Y-132643571D01*
X190063333Y-132691190D01*
X190444285Y-132691190D01*
X189491904Y-132262619D02*
X189444285Y-132215000D01*
X189349047Y-132167380D01*
X189110952Y-132167380D01*
X189015714Y-132215000D01*
X188968095Y-132262619D01*
X188920476Y-132357857D01*
X188920476Y-132453095D01*
X188968095Y-132595952D01*
X189539523Y-133167380D01*
X188920476Y-133167380D01*
X188587142Y-132167380D02*
X187920476Y-132167380D01*
X188349047Y-133167380D01*
D10*
X199040476Y-133076904D02*
X199497619Y-133076904D01*
X199269047Y-133076904D02*
X199269047Y-132276904D01*
X199345238Y-132391190D01*
X199421428Y-132467380D01*
X199497619Y-132505476D01*
X198545238Y-132276904D02*
X198469047Y-132276904D01*
X198392857Y-132315000D01*
X198354761Y-132353095D01*
X198316666Y-132429285D01*
X198278571Y-132581666D01*
X198278571Y-132772142D01*
X198316666Y-132924523D01*
X198354761Y-133000714D01*
X198392857Y-133038809D01*
X198469047Y-133076904D01*
X198545238Y-133076904D01*
X198621428Y-133038809D01*
X198659523Y-133000714D01*
X198697619Y-132924523D01*
X198735714Y-132772142D01*
X198735714Y-132581666D01*
X198697619Y-132429285D01*
X198659523Y-132353095D01*
X198621428Y-132315000D01*
X198545238Y-132276904D01*
X197935714Y-133076904D02*
X197935714Y-132276904D01*
X197859523Y-132772142D02*
X197630952Y-133076904D01*
X197630952Y-132543571D02*
X197935714Y-132848333D01*
X196526190Y-132276904D02*
X196450000Y-132276904D01*
X196373809Y-132315000D01*
X196335714Y-132353095D01*
X196297619Y-132429285D01*
X196259523Y-132581666D01*
X196259523Y-132772142D01*
X196297619Y-132924523D01*
X196335714Y-133000714D01*
X196373809Y-133038809D01*
X196450000Y-133076904D01*
X196526190Y-133076904D01*
X196602380Y-133038809D01*
X196640476Y-133000714D01*
X196678571Y-132924523D01*
X196716666Y-132772142D01*
X196716666Y-132581666D01*
X196678571Y-132429285D01*
X196640476Y-132353095D01*
X196602380Y-132315000D01*
X196526190Y-132276904D01*
X195916666Y-133000714D02*
X195878571Y-133038809D01*
X195916666Y-133076904D01*
X195954761Y-133038809D01*
X195916666Y-133000714D01*
X195916666Y-133076904D01*
X195116666Y-133076904D02*
X195573809Y-133076904D01*
X195345238Y-133076904D02*
X195345238Y-132276904D01*
X195421428Y-132391190D01*
X195497619Y-132467380D01*
X195573809Y-132505476D01*
X194811904Y-133076904D02*
X194202380Y-132276904D01*
X194697619Y-132276904D02*
X194621428Y-132315000D01*
X194583333Y-132391190D01*
X194621428Y-132467380D01*
X194697619Y-132505476D01*
X194773809Y-132467380D01*
X194811904Y-132391190D01*
X194773809Y-132315000D01*
X194697619Y-132276904D01*
X194240476Y-133038809D02*
X194202380Y-132962619D01*
X194240476Y-132886428D01*
X194316666Y-132848333D01*
X194392857Y-132886428D01*
X194430952Y-132962619D01*
X194392857Y-133038809D01*
X194316666Y-133076904D01*
X194240476Y-133038809D01*
X166275000Y-100230000D02*
X172815000Y-100230000D01*
X165505000Y-101600000D02*
X166275000Y-101600000D01*
X172815000Y-100230000D02*
X172815000Y-102970000D01*
X172815000Y-102970000D02*
X166275000Y-102970000D01*
X173585000Y-101600000D02*
X172815000Y-101600000D01*
X166275000Y-102970000D02*
X166275000Y-100230000D01*
X214440000Y-59440000D02*
X214440000Y-57400000D01*
X212910000Y-61070000D02*
X212910000Y-55770000D01*
X213910000Y-59690000D02*
X213910000Y-57150000D01*
X218930000Y-61070000D02*
X212910000Y-61070000D01*
X212910000Y-57400000D02*
X213910000Y-57400000D01*
X218330000Y-58890000D02*
X218930000Y-58890000D01*
X214440000Y-57400000D02*
X213910000Y-57150000D01*
X213910000Y-59690000D02*
X214440000Y-59440000D01*
X218930000Y-55770000D02*
X218930000Y-61070000D01*
X212910000Y-59440000D02*
X213910000Y-59440000D01*
X218930000Y-57950000D02*
X218330000Y-57950000D01*
X218330000Y-56350000D02*
X218930000Y-56350000D01*
X218330000Y-57950000D02*
X218330000Y-56350000D01*
X217900000Y-61360000D02*
X213900000Y-61360000D01*
X212910000Y-55770000D02*
X218930000Y-55770000D01*
X213910000Y-57150000D02*
X212910000Y-57150000D01*
X218330000Y-60490000D02*
X218330000Y-58890000D01*
X218930000Y-60490000D02*
X218330000Y-60490000D01*
X212910000Y-59690000D02*
X213910000Y-59690000D01*
X178199000Y-143280000D02*
X178199000Y-143740000D01*
X179519000Y-142325000D02*
X179519000Y-143740000D01*
X182874775Y-143055000D02*
X182874775Y-143555000D01*
X178879000Y-145820000D02*
X178879000Y-146929000D01*
X179479000Y-145820000D02*
X179479000Y-147222000D01*
X180040000Y-142215000D02*
X180040000Y-143740000D01*
X179880000Y-145820000D02*
X179880000Y-147323000D01*
X179760000Y-142260000D02*
X179760000Y-143740000D01*
X179720000Y-142269000D02*
X179720000Y-143740000D01*
X179760000Y-145820000D02*
X179760000Y-147300000D01*
X178759000Y-145820000D02*
X178759000Y-146845000D01*
X178799000Y-145820000D02*
X178799000Y-146875000D01*
X179319000Y-142398000D02*
X179319000Y-143740000D01*
X178159000Y-145820000D02*
X178159000Y-146223000D01*
X178399000Y-145820000D02*
X178399000Y-146523000D01*
X180040000Y-145820000D02*
X180040000Y-147345000D01*
X179599000Y-145820000D02*
X179599000Y-147260000D01*
X178319000Y-143127000D02*
X178319000Y-143740000D01*
X178959000Y-145820000D02*
X178959000Y-146980000D01*
X180000000Y-145820000D02*
X180000000Y-147341000D01*
X178799000Y-142685000D02*
X178799000Y-143740000D01*
X178119000Y-145820000D02*
X178119000Y-146163000D01*
X178679000Y-145820000D02*
X178679000Y-146784000D01*
X177919000Y-143769000D02*
X177919000Y-145791000D01*
X178039000Y-143529000D02*
X178039000Y-143740000D01*
X179039000Y-145820000D02*
X179039000Y-147027000D01*
X178519000Y-142916000D02*
X178519000Y-143740000D01*
X179039000Y-142533000D02*
X179039000Y-143740000D01*
X179119000Y-142490000D02*
X179119000Y-143740000D01*
X180240000Y-142201000D02*
X180240000Y-147359000D01*
X178439000Y-145820000D02*
X178439000Y-146565000D01*
X179159000Y-142470000D02*
X179159000Y-143740000D01*
X178959000Y-142580000D02*
X178959000Y-143740000D01*
X178879000Y-142631000D02*
X178879000Y-143740000D01*
X178919000Y-145820000D02*
X178919000Y-146955000D01*
X179479000Y-142338000D02*
X179479000Y-143740000D01*
X178039000Y-145820000D02*
X178039000Y-146031000D01*
X179720000Y-145820000D02*
X179720000Y-147291000D01*
X178479000Y-145820000D02*
X178479000Y-146606000D01*
X179239000Y-145820000D02*
X179239000Y-147128000D01*
X178079000Y-143461000D02*
X178079000Y-143740000D01*
X179599000Y-142300000D02*
X179599000Y-143740000D01*
X179559000Y-142312000D02*
X179559000Y-143740000D01*
X178839000Y-142658000D02*
X178839000Y-143740000D01*
X179840000Y-145820000D02*
X179840000Y-147316000D01*
X179960000Y-142224000D02*
X179960000Y-143740000D01*
X179359000Y-142382000D02*
X179359000Y-143740000D01*
X180200000Y-142202000D02*
X180200000Y-147358000D01*
X178719000Y-145820000D02*
X178719000Y-146815000D01*
X179159000Y-145820000D02*
X179159000Y-147090000D01*
X178919000Y-142605000D02*
X178919000Y-143740000D01*
X179880000Y-142237000D02*
X179880000Y-143740000D01*
X179119000Y-145820000D02*
X179119000Y-147070000D01*
X177799000Y-144103000D02*
X177799000Y-145457000D01*
X180280000Y-142200000D02*
X180280000Y-147360000D01*
X178119000Y-143397000D02*
X178119000Y-143740000D01*
X179680000Y-145820000D02*
X179680000Y-147281000D01*
X183124775Y-143305000D02*
X182624775Y-143305000D01*
X177999000Y-143602000D02*
X177999000Y-145958000D01*
X179439000Y-142352000D02*
X179439000Y-143740000D01*
X179199000Y-142451000D02*
X179199000Y-143740000D01*
X178199000Y-145820000D02*
X178199000Y-146280000D01*
X178239000Y-145820000D02*
X178239000Y-146334000D01*
X178559000Y-142879000D02*
X178559000Y-143740000D01*
X179079000Y-142512000D02*
X179079000Y-143740000D01*
X177839000Y-143975000D02*
X177839000Y-145585000D01*
X179800000Y-145820000D02*
X179800000Y-147308000D01*
X178279000Y-145820000D02*
X178279000Y-146385000D01*
X180120000Y-142207000D02*
X180120000Y-147353000D01*
X179519000Y-145820000D02*
X179519000Y-147235000D01*
X179199000Y-145820000D02*
X179199000Y-147109000D01*
X178279000Y-143175000D02*
X178279000Y-143740000D01*
X178359000Y-145820000D02*
X178359000Y-146479000D01*
X177959000Y-143682000D02*
X177959000Y-145878000D01*
X179800000Y-142252000D02*
X179800000Y-143740000D01*
X178399000Y-143037000D02*
X178399000Y-143740000D01*
X179319000Y-145820000D02*
X179319000Y-147162000D01*
X179680000Y-142279000D02*
X179680000Y-143740000D01*
X178319000Y-145820000D02*
X178319000Y-146433000D01*
X177759000Y-144262000D02*
X177759000Y-145298000D01*
X179079000Y-145820000D02*
X179079000Y-147048000D01*
X178759000Y-142715000D02*
X178759000Y-143740000D01*
X179920000Y-145820000D02*
X179920000Y-147330000D01*
X178479000Y-142954000D02*
X178479000Y-143740000D01*
X180080000Y-145820000D02*
X180080000Y-147349000D01*
X178159000Y-143337000D02*
X178159000Y-143740000D01*
X178559000Y-145820000D02*
X178559000Y-146681000D01*
X179399000Y-142366000D02*
X179399000Y-143740000D01*
X179399000Y-145820000D02*
X179399000Y-147194000D01*
X180160000Y-142204000D02*
X180160000Y-147356000D01*
X180000000Y-142219000D02*
X180000000Y-143740000D01*
X178639000Y-145820000D02*
X178639000Y-146751000D01*
X179559000Y-145820000D02*
X179559000Y-147248000D01*
X179640000Y-145820000D02*
X179640000Y-147271000D01*
X178439000Y-142995000D02*
X178439000Y-143740000D01*
X179840000Y-142244000D02*
X179840000Y-143740000D01*
X179279000Y-145820000D02*
X179279000Y-147145000D01*
X180320000Y-142200000D02*
X180320000Y-147360000D01*
X178999000Y-142556000D02*
X178999000Y-143740000D01*
X179439000Y-145820000D02*
X179439000Y-147208000D01*
X179960000Y-145820000D02*
X179960000Y-147336000D01*
X178719000Y-142745000D02*
X178719000Y-143740000D01*
X179279000Y-142415000D02*
X179279000Y-143740000D01*
X178839000Y-145820000D02*
X178839000Y-146902000D01*
X178239000Y-143226000D02*
X178239000Y-143740000D01*
X179920000Y-142230000D02*
X179920000Y-143740000D01*
X178999000Y-145820000D02*
X178999000Y-147004000D01*
X177719000Y-144496000D02*
X177719000Y-145064000D01*
X179640000Y-142289000D02*
X179640000Y-143740000D01*
X178639000Y-142809000D02*
X178639000Y-143740000D01*
X178359000Y-143081000D02*
X178359000Y-143740000D01*
X180080000Y-142211000D02*
X180080000Y-143740000D01*
X178599000Y-142843000D02*
X178599000Y-143740000D01*
X178079000Y-145820000D02*
X178079000Y-146099000D01*
X179239000Y-142432000D02*
X179239000Y-143740000D01*
X179359000Y-145820000D02*
X179359000Y-147178000D01*
X178519000Y-145820000D02*
X178519000Y-146644000D01*
X178679000Y-142776000D02*
X178679000Y-143740000D01*
X178599000Y-145820000D02*
X178599000Y-146717000D01*
X177879000Y-143865000D02*
X177879000Y-145695000D01*
X182940000Y-144780000D02*
G75*
G03*
X182940000Y-144780000I-2620000J0D01*
G01*
X178325000Y-132075000D02*
X178255000Y-132075000D01*
X181065000Y-132075000D02*
G75*
G03*
X181065000Y-132075000I-1370000J0D01*
G01*
X182535000Y-128775000D02*
X181935000Y-128775000D01*
X181935000Y-131575000D02*
X182535000Y-131575000D01*
X183235000Y-130875000D02*
X183235000Y-129475000D01*
X181235000Y-129475000D02*
X181235000Y-130875000D01*
X183235000Y-129475000D02*
G75*
G03*
X182535000Y-128775000I-699999J1D01*
G01*
X182535000Y-131575000D02*
G75*
G03*
X183235000Y-130875000I0J700000D01*
G01*
X181235000Y-130875000D02*
G75*
G03*
X181935000Y-131575000I700000J0D01*
G01*
X181935000Y-128775000D02*
G75*
G03*
X181235000Y-129475000I-1J-699999D01*
G01*
X218340000Y-120110000D02*
X218340000Y-113570000D01*
X219710000Y-120880000D02*
X219710000Y-120110000D01*
X221080000Y-113570000D02*
X221080000Y-120110000D01*
X218340000Y-113570000D02*
X221080000Y-113570000D01*
X221080000Y-120110000D02*
X218340000Y-120110000D01*
X219710000Y-112800000D02*
X219710000Y-113570000D01*
X190270000Y-102870000D02*
X191040000Y-102870000D01*
X198350000Y-102870000D02*
X197580000Y-102870000D01*
X191040000Y-104240000D02*
X191040000Y-101500000D01*
X197580000Y-104240000D02*
X191040000Y-104240000D01*
X191040000Y-101500000D02*
X197580000Y-101500000D01*
X197580000Y-101500000D02*
X197580000Y-104240000D01*
X184380000Y-109220000D02*
X183610000Y-109220000D01*
X183610000Y-110590000D02*
X177070000Y-110590000D01*
X176300000Y-109220000D02*
X177070000Y-109220000D01*
X177070000Y-107850000D02*
X183610000Y-107850000D01*
X183610000Y-107850000D02*
X183610000Y-110590000D01*
X177070000Y-110590000D02*
X177070000Y-107850000D01*
X178540000Y-135310000D02*
X182140000Y-135310000D01*
X180340000Y-139760001D02*
G75*
G03*
X182178478Y-135321522I0J2600001D01*
G01*
X178501522Y-135321522D02*
G75*
G03*
X180340000Y-139760000I1838478J-1838478D01*
G01*
X195520000Y-59800000D02*
X195520000Y-58150000D01*
X195520000Y-54500000D02*
X205800000Y-54500000D01*
X205800000Y-54500000D02*
X205800000Y-59800000D01*
X205800000Y-59800000D02*
X195520000Y-59800000D01*
X195520000Y-56150000D02*
X195520000Y-54500000D01*
X195520000Y-58150000D02*
G75*
G03*
X195520000Y-56150000I0J1000000D01*
G01*
X193580000Y-128805000D02*
X200120000Y-128805000D01*
X192810000Y-130175000D02*
X193580000Y-130175000D01*
X193580000Y-131545000D02*
X193580000Y-128805000D01*
X200120000Y-128805000D02*
X200120000Y-131545000D01*
X200120000Y-131545000D02*
X193580000Y-131545000D01*
X200890000Y-130175000D02*
X200120000Y-130175000D01*
X166275000Y-126465000D02*
X166275000Y-123725000D01*
X166275000Y-123725000D02*
X172815000Y-123725000D01*
X172815000Y-123725000D02*
X172815000Y-126465000D01*
X165505000Y-125095000D02*
X166275000Y-125095000D01*
X173585000Y-125095000D02*
X172815000Y-125095000D01*
X172815000Y-126465000D02*
X166275000Y-126465000D01*
X172800000Y-55325000D02*
X166260000Y-55325000D01*
X173570000Y-53955000D02*
X172800000Y-53955000D01*
X165490000Y-53955000D02*
X166260000Y-53955000D01*
X166260000Y-55325000D02*
X166260000Y-52585000D01*
X172800000Y-52585000D02*
X172800000Y-55325000D01*
X166260000Y-52585000D02*
X172800000Y-52585000D01*
X207631000Y-84170000D02*
X208889000Y-84170000D01*
X207631000Y-86010000D02*
X208889000Y-86010000D01*
X217265000Y-52605000D02*
X217265000Y-55345000D01*
X218035000Y-53975000D02*
X217265000Y-53975000D01*
X210725000Y-55345000D02*
X210725000Y-52605000D01*
X210725000Y-52605000D02*
X217265000Y-52605000D01*
X209955000Y-53975000D02*
X210725000Y-53975000D01*
X217265000Y-55345000D02*
X210725000Y-55345000D01*
X193699000Y-84170000D02*
X192441000Y-84170000D01*
X193699000Y-86010000D02*
X192441000Y-86010000D01*
X165835000Y-44545000D02*
X163095000Y-44545000D01*
X164465000Y-37235000D02*
X164465000Y-38005000D01*
X165835000Y-38005000D02*
X165835000Y-44545000D01*
X163095000Y-44545000D02*
X163095000Y-38005000D01*
X163095000Y-38005000D02*
X165835000Y-38005000D01*
X164465000Y-45315000D02*
X164465000Y-44545000D01*
X204850000Y-128475000D02*
X208700000Y-128475000D01*
X206790000Y-132775000D02*
G75*
G03*
X209146400Y-131273807I0J2600000D01*
G01*
X209092383Y-129062736D02*
G75*
G03*
X208700000Y-128475000I-2302383J-1112264D01*
G01*
X204850000Y-128475000D02*
G75*
G03*
X204467369Y-129052955I1940000J-1700000D01*
G01*
X204433600Y-131273807D02*
G75*
G03*
X206790000Y-132775000I2356400J1098807D01*
G01*
X178540000Y-75895000D02*
X182140000Y-75895000D01*
X178501522Y-75906522D02*
G75*
G03*
X180340000Y-80345000I1838478J-1838478D01*
G01*
X180340000Y-80345001D02*
G75*
G03*
X182178478Y-75906522I0J2600001D01*
G01*
X178540000Y-123245000D02*
X182140000Y-123245000D01*
X178501522Y-123256522D02*
G75*
G03*
X180340000Y-127695000I1838478J-1838478D01*
G01*
X180340000Y-127695001D02*
G75*
G03*
X182178478Y-123256522I0J2600001D01*
G01*
X215050000Y-135485000D02*
X215050000Y-133975000D01*
X216371000Y-135485000D02*
X216371000Y-134588000D01*
X215411000Y-135485000D02*
X215411000Y-134057000D01*
X215971000Y-135485000D02*
X215971000Y-134301000D01*
X214970000Y-139086000D02*
X214970000Y-137565000D01*
X215611000Y-135485000D02*
X215611000Y-134127000D01*
X216891000Y-135485000D02*
X216891000Y-135206000D01*
X215531000Y-135485000D02*
X215531000Y-134097000D01*
X217091000Y-137440000D02*
X217091000Y-135610000D01*
X215571000Y-135485000D02*
X215571000Y-134111000D01*
X217171000Y-137202000D02*
X217171000Y-135848000D01*
X216731000Y-138079000D02*
X216731000Y-137565000D01*
X215010000Y-139081000D02*
X215010000Y-137565000D01*
X214890000Y-135485000D02*
X214890000Y-133956000D01*
X215691000Y-135485000D02*
X215691000Y-134160000D01*
X216691000Y-135485000D02*
X216691000Y-134920000D01*
X215330000Y-135485000D02*
X215330000Y-134034000D01*
X215531000Y-138953000D02*
X215531000Y-137565000D01*
X215491000Y-138967000D02*
X215491000Y-137565000D01*
X214730000Y-139104000D02*
X214730000Y-133946000D01*
X215290000Y-135485000D02*
X215290000Y-134024000D01*
X215851000Y-135485000D02*
X215851000Y-134235000D01*
X215491000Y-135485000D02*
X215491000Y-134083000D01*
X215611000Y-138923000D02*
X215611000Y-137565000D01*
X214810000Y-139101000D02*
X214810000Y-133949000D01*
X214970000Y-135485000D02*
X214970000Y-133964000D01*
X216291000Y-135485000D02*
X216291000Y-134521000D01*
X215651000Y-135485000D02*
X215651000Y-134143000D01*
X217131000Y-137330000D02*
X217131000Y-135720000D01*
X216171000Y-138620000D02*
X216171000Y-137565000D01*
X215731000Y-135485000D02*
X215731000Y-134177000D01*
X216931000Y-137776000D02*
X216931000Y-137565000D01*
X215851000Y-138815000D02*
X215851000Y-137565000D01*
X214770000Y-139103000D02*
X214770000Y-133947000D01*
X216571000Y-135485000D02*
X216571000Y-134782000D01*
X215451000Y-138980000D02*
X215451000Y-137565000D01*
X216611000Y-138224000D02*
X216611000Y-137565000D01*
X215330000Y-139016000D02*
X215330000Y-137565000D01*
X215891000Y-135485000D02*
X215891000Y-134257000D01*
X216811000Y-137968000D02*
X216811000Y-137565000D01*
X216331000Y-135485000D02*
X216331000Y-134554000D01*
X216491000Y-138351000D02*
X216491000Y-137565000D01*
X216451000Y-138389000D02*
X216451000Y-137565000D01*
X216611000Y-135485000D02*
X216611000Y-134826000D01*
X215731000Y-138873000D02*
X215731000Y-137565000D01*
X215771000Y-138854000D02*
X215771000Y-137565000D01*
X216291000Y-138529000D02*
X216291000Y-137565000D01*
X215130000Y-139061000D02*
X215130000Y-137565000D01*
X217051000Y-137536000D02*
X217051000Y-135514000D01*
X215130000Y-135485000D02*
X215130000Y-133989000D01*
X215451000Y-135485000D02*
X215451000Y-134070000D01*
X216691000Y-138130000D02*
X216691000Y-137565000D01*
X216531000Y-135485000D02*
X216531000Y-134740000D01*
X215371000Y-139005000D02*
X215371000Y-137565000D01*
X216851000Y-135485000D02*
X216851000Y-135142000D01*
X216051000Y-138700000D02*
X216051000Y-137565000D01*
X216131000Y-138647000D02*
X216131000Y-137565000D01*
X216651000Y-135485000D02*
X216651000Y-134872000D01*
X216851000Y-137908000D02*
X216851000Y-137565000D01*
X214930000Y-135485000D02*
X214930000Y-133960000D01*
X215090000Y-135485000D02*
X215090000Y-133982000D01*
X217211000Y-137043000D02*
X217211000Y-136007000D01*
X217251000Y-136809000D02*
X217251000Y-136241000D01*
X216251000Y-135485000D02*
X216251000Y-134490000D01*
X215050000Y-139075000D02*
X215050000Y-137565000D01*
X215290000Y-139026000D02*
X215290000Y-137565000D01*
X216251000Y-138560000D02*
X216251000Y-137565000D01*
X216771000Y-135485000D02*
X216771000Y-135025000D01*
X215411000Y-138993000D02*
X215411000Y-137565000D01*
X216811000Y-135485000D02*
X216811000Y-135082000D01*
X215210000Y-135485000D02*
X215210000Y-134005000D01*
X216011000Y-135485000D02*
X216011000Y-134325000D01*
X215371000Y-135485000D02*
X215371000Y-134045000D01*
X216531000Y-138310000D02*
X216531000Y-137565000D01*
X215571000Y-138939000D02*
X215571000Y-137565000D01*
X214650000Y-139105000D02*
X214650000Y-133945000D01*
X215891000Y-138793000D02*
X215891000Y-137565000D01*
X215931000Y-138772000D02*
X215931000Y-137565000D01*
X216971000Y-137703000D02*
X216971000Y-135347000D01*
X215010000Y-135485000D02*
X215010000Y-133969000D01*
X215170000Y-139053000D02*
X215170000Y-137565000D01*
X215651000Y-138907000D02*
X215651000Y-137565000D01*
X216411000Y-135485000D02*
X216411000Y-134624000D01*
X216731000Y-135485000D02*
X216731000Y-134971000D01*
X215210000Y-139045000D02*
X215210000Y-137565000D01*
X216931000Y-135485000D02*
X216931000Y-135274000D01*
X216051000Y-135485000D02*
X216051000Y-134350000D01*
X216211000Y-135485000D02*
X216211000Y-134460000D01*
X216451000Y-135485000D02*
X216451000Y-134661000D01*
X215971000Y-138749000D02*
X215971000Y-137565000D01*
X214850000Y-139098000D02*
X214850000Y-133952000D01*
X215771000Y-135485000D02*
X215771000Y-134196000D01*
X215811000Y-138835000D02*
X215811000Y-137565000D01*
X216091000Y-135485000D02*
X216091000Y-134376000D01*
X211845225Y-138000000D02*
X212345225Y-138000000D01*
X216411000Y-138426000D02*
X216411000Y-137565000D01*
X212095225Y-138250000D02*
X212095225Y-137750000D01*
X216091000Y-138674000D02*
X216091000Y-137565000D01*
X215931000Y-135485000D02*
X215931000Y-134278000D01*
X216131000Y-135485000D02*
X216131000Y-134403000D01*
X215250000Y-135485000D02*
X215250000Y-134014000D01*
X216371000Y-138462000D02*
X216371000Y-137565000D01*
X214690000Y-139105000D02*
X214690000Y-133945000D01*
X215811000Y-135485000D02*
X215811000Y-134215000D01*
X214930000Y-139090000D02*
X214930000Y-137565000D01*
X216771000Y-138025000D02*
X216771000Y-137565000D01*
X216171000Y-135485000D02*
X216171000Y-134430000D01*
X216011000Y-138725000D02*
X216011000Y-137565000D01*
X216651000Y-138178000D02*
X216651000Y-137565000D01*
X216571000Y-138268000D02*
X216571000Y-137565000D01*
X215691000Y-138890000D02*
X215691000Y-137565000D01*
X216211000Y-138590000D02*
X216211000Y-137565000D01*
X216891000Y-137844000D02*
X216891000Y-137565000D01*
X216331000Y-138496000D02*
X216331000Y-137565000D01*
X215170000Y-135485000D02*
X215170000Y-133997000D01*
X214890000Y-139094000D02*
X214890000Y-137565000D01*
X217011000Y-137623000D02*
X217011000Y-135427000D01*
X215250000Y-139036000D02*
X215250000Y-137565000D01*
X215090000Y-139068000D02*
X215090000Y-137565000D01*
X216491000Y-135485000D02*
X216491000Y-134699000D01*
X217270000Y-136525000D02*
G75*
G03*
X217270000Y-136525000I-2620000J0D01*
G01*
X193689000Y-61880000D02*
X192431000Y-61880000D01*
X193689000Y-60040000D02*
X192431000Y-60040000D01*
X208730000Y-129335000D02*
X204880000Y-129335000D01*
X209146400Y-126536193D02*
G75*
G03*
X206790000Y-125035000I-2356400J-1098807D01*
G01*
X204487617Y-128747264D02*
G75*
G03*
X204880000Y-129335000I2302383J1112264D01*
G01*
X206790000Y-125035000D02*
G75*
G03*
X204433600Y-126536193I0J-2600000D01*
G01*
X208730000Y-129335000D02*
G75*
G03*
X209112631Y-128757045I-1940000J1700000D01*
G01*
X198020000Y-98520000D02*
X198020000Y-91980000D01*
X200760000Y-98520000D02*
X198020000Y-98520000D01*
X199390000Y-91210000D02*
X199390000Y-91980000D01*
X198020000Y-91980000D02*
X200760000Y-91980000D01*
X200760000Y-91980000D02*
X200760000Y-98520000D01*
X199390000Y-99290000D02*
X199390000Y-98520000D01*
X165930000Y-133340000D02*
X175700000Y-133340000D01*
X165930000Y-133340000D02*
X165930000Y-128270000D01*
X175700000Y-133340000D02*
X175700000Y-128270000D01*
X165930000Y-128270000D02*
X175700000Y-128270000D01*
X205111000Y-110205000D02*
X206369000Y-110205000D01*
X205111000Y-112045000D02*
X206369000Y-112045000D01*
X190070000Y-57820000D02*
X190070000Y-53970000D01*
X194370000Y-55880000D02*
G75*
G03*
X192868807Y-53523600I-2600000J0D01*
G01*
X190657736Y-53577617D02*
G75*
G03*
X190070000Y-53970000I1112264J-2302383D01*
G01*
X192868807Y-58236400D02*
G75*
G03*
X194370000Y-55880000I-1098807J2356400D01*
G01*
X190070000Y-57820000D02*
G75*
G03*
X190647955Y-58202631I1700000J1940000D01*
G01*
X178540000Y-52125000D02*
X182140000Y-52125000D01*
X178501522Y-52136522D02*
G75*
G03*
X180340000Y-56575000I1838478J-1838478D01*
G01*
X180340000Y-56575001D02*
G75*
G03*
X182178478Y-52136522I0J2600001D01*
G01*
X198705000Y-116485000D02*
X198705000Y-114835000D01*
X208985000Y-114835000D02*
X208985000Y-120135000D01*
X198705000Y-114835000D02*
X208985000Y-114835000D01*
X198705000Y-120135000D02*
X198705000Y-118485000D01*
X208985000Y-120135000D02*
X198705000Y-120135000D01*
X198705000Y-118485000D02*
G75*
G03*
X198705000Y-116485000I0J1000000D01*
G01*
X166275000Y-149960000D02*
X166275000Y-147220000D01*
X173585000Y-148590000D02*
X172815000Y-148590000D01*
X172815000Y-147220000D02*
X172815000Y-149960000D01*
X165505000Y-148590000D02*
X166275000Y-148590000D01*
X172815000Y-149960000D02*
X166275000Y-149960000D01*
X193580000Y-126265000D02*
X200120000Y-126265000D01*
X193580000Y-129005000D02*
X193580000Y-126265000D01*
X200120000Y-126265000D02*
X200120000Y-129005000D01*
X200890000Y-127635000D02*
X200120000Y-127635000D01*
X192810000Y-127635000D02*
X193580000Y-127635000D01*
X200120000Y-129005000D02*
X193580000Y-129005000D01*
X195520000Y-83930000D02*
X195520000Y-82280000D01*
X205800000Y-83930000D02*
X195520000Y-83930000D01*
X195520000Y-78630000D02*
X205800000Y-78630000D01*
X195520000Y-80280000D02*
X195520000Y-78630000D01*
X205800000Y-78630000D02*
X205800000Y-83930000D01*
X195520000Y-82280000D02*
G75*
G03*
X195520000Y-80280000I0J1000000D01*
G01*
X207871000Y-138953000D02*
X207871000Y-137565000D01*
X208311000Y-138749000D02*
X208311000Y-137565000D01*
X209551000Y-137043000D02*
X209551000Y-136007000D01*
X209591000Y-136809000D02*
X209591000Y-136241000D01*
X207550000Y-135485000D02*
X207550000Y-134005000D01*
X208231000Y-138793000D02*
X208231000Y-137565000D01*
X208071000Y-138873000D02*
X208071000Y-137565000D01*
X208111000Y-135485000D02*
X208111000Y-134196000D01*
X207110000Y-139103000D02*
X207110000Y-133947000D01*
X208791000Y-138389000D02*
X208791000Y-137565000D01*
X208431000Y-138674000D02*
X208431000Y-137565000D01*
X207630000Y-135485000D02*
X207630000Y-134024000D01*
X208471000Y-138647000D02*
X208471000Y-137565000D01*
X208151000Y-135485000D02*
X208151000Y-134215000D01*
X204185225Y-138000000D02*
X204685225Y-138000000D01*
X207991000Y-135485000D02*
X207991000Y-134143000D01*
X208831000Y-138351000D02*
X208831000Y-137565000D01*
X204435225Y-138250000D02*
X204435225Y-137750000D01*
X209111000Y-135485000D02*
X209111000Y-135025000D01*
X209151000Y-137968000D02*
X209151000Y-137565000D01*
X207390000Y-139075000D02*
X207390000Y-137565000D01*
X208911000Y-135485000D02*
X208911000Y-134782000D01*
X207190000Y-139098000D02*
X207190000Y-133952000D01*
X208911000Y-138268000D02*
X208911000Y-137565000D01*
X208031000Y-138890000D02*
X208031000Y-137565000D01*
X207310000Y-135485000D02*
X207310000Y-133964000D01*
X208551000Y-135485000D02*
X208551000Y-134460000D01*
X208951000Y-135485000D02*
X208951000Y-134826000D01*
X207831000Y-135485000D02*
X207831000Y-134083000D01*
X208391000Y-138700000D02*
X208391000Y-137565000D01*
X207630000Y-139026000D02*
X207630000Y-137565000D01*
X207510000Y-135485000D02*
X207510000Y-133997000D01*
X207270000Y-139090000D02*
X207270000Y-137565000D01*
X207951000Y-135485000D02*
X207951000Y-134127000D01*
X207070000Y-139104000D02*
X207070000Y-133946000D01*
X207230000Y-139094000D02*
X207230000Y-137565000D01*
X208511000Y-138620000D02*
X208511000Y-137565000D01*
X207390000Y-135485000D02*
X207390000Y-133975000D01*
X208631000Y-138529000D02*
X208631000Y-137565000D01*
X208311000Y-135485000D02*
X208311000Y-134301000D01*
X207711000Y-135485000D02*
X207711000Y-134045000D01*
X208991000Y-138178000D02*
X208991000Y-137565000D01*
X207911000Y-138939000D02*
X207911000Y-137565000D01*
X207951000Y-138923000D02*
X207951000Y-137565000D01*
X209351000Y-137623000D02*
X209351000Y-135427000D01*
X209271000Y-137776000D02*
X209271000Y-137565000D01*
X208671000Y-135485000D02*
X208671000Y-134554000D01*
X209311000Y-137703000D02*
X209311000Y-135347000D01*
X207310000Y-139086000D02*
X207310000Y-137565000D01*
X208551000Y-138590000D02*
X208551000Y-137565000D01*
X207791000Y-138980000D02*
X207791000Y-137565000D01*
X209231000Y-135485000D02*
X209231000Y-135206000D01*
X207430000Y-135485000D02*
X207430000Y-133982000D01*
X209191000Y-137908000D02*
X209191000Y-137565000D01*
X208431000Y-135485000D02*
X208431000Y-134376000D01*
X208591000Y-138560000D02*
X208591000Y-137565000D01*
X207470000Y-135485000D02*
X207470000Y-133989000D01*
X208391000Y-135485000D02*
X208391000Y-134350000D01*
X208711000Y-138462000D02*
X208711000Y-137565000D01*
X208591000Y-135485000D02*
X208591000Y-134490000D01*
X208991000Y-135485000D02*
X208991000Y-134872000D01*
X209071000Y-138079000D02*
X209071000Y-137565000D01*
X207711000Y-139005000D02*
X207711000Y-137565000D01*
X208631000Y-135485000D02*
X208631000Y-134521000D01*
X209391000Y-137536000D02*
X209391000Y-135514000D01*
X207791000Y-135485000D02*
X207791000Y-134070000D01*
X209031000Y-138130000D02*
X209031000Y-137565000D01*
X209511000Y-137202000D02*
X209511000Y-135848000D01*
X209231000Y-137844000D02*
X209231000Y-137565000D01*
X208871000Y-138310000D02*
X208871000Y-137565000D01*
X207590000Y-139036000D02*
X207590000Y-137565000D01*
X209151000Y-135485000D02*
X209151000Y-135082000D01*
X207350000Y-135485000D02*
X207350000Y-133969000D01*
X208711000Y-135485000D02*
X208711000Y-134588000D01*
X208151000Y-138835000D02*
X208151000Y-137565000D01*
X206990000Y-139105000D02*
X206990000Y-133945000D01*
X207150000Y-139101000D02*
X207150000Y-133949000D01*
X207030000Y-139105000D02*
X207030000Y-133945000D01*
X207550000Y-139045000D02*
X207550000Y-137565000D01*
X207510000Y-139053000D02*
X207510000Y-137565000D01*
X208751000Y-135485000D02*
X208751000Y-134624000D01*
X207350000Y-139081000D02*
X207350000Y-137565000D01*
X209031000Y-135485000D02*
X209031000Y-134920000D01*
X207871000Y-135485000D02*
X207871000Y-134097000D01*
X208671000Y-138496000D02*
X208671000Y-137565000D01*
X209111000Y-138025000D02*
X209111000Y-137565000D01*
X207911000Y-135485000D02*
X207911000Y-134111000D01*
X208831000Y-135485000D02*
X208831000Y-134699000D01*
X208791000Y-135485000D02*
X208791000Y-134661000D01*
X209431000Y-137440000D02*
X209431000Y-135610000D01*
X208191000Y-138815000D02*
X208191000Y-137565000D01*
X207430000Y-139068000D02*
X207430000Y-137565000D01*
X207270000Y-135485000D02*
X207270000Y-133960000D01*
X208751000Y-138426000D02*
X208751000Y-137565000D01*
X208271000Y-135485000D02*
X208271000Y-134278000D01*
X208071000Y-135485000D02*
X208071000Y-134177000D01*
X209071000Y-135485000D02*
X209071000Y-134971000D01*
X209191000Y-135485000D02*
X209191000Y-135142000D01*
X209271000Y-135485000D02*
X209271000Y-135274000D01*
X208351000Y-138725000D02*
X208351000Y-137565000D01*
X208871000Y-135485000D02*
X208871000Y-134740000D01*
X207590000Y-135485000D02*
X207590000Y-134014000D01*
X208951000Y-138224000D02*
X208951000Y-137565000D01*
X208511000Y-135485000D02*
X208511000Y-134430000D01*
X207470000Y-139061000D02*
X207470000Y-137565000D01*
X208351000Y-135485000D02*
X208351000Y-134325000D01*
X208271000Y-138772000D02*
X208271000Y-137565000D01*
X208031000Y-135485000D02*
X208031000Y-134160000D01*
X208111000Y-138854000D02*
X208111000Y-137565000D01*
X207751000Y-135485000D02*
X207751000Y-134057000D01*
X207230000Y-135485000D02*
X207230000Y-133956000D01*
X208191000Y-135485000D02*
X208191000Y-134235000D01*
X208471000Y-135485000D02*
X208471000Y-134403000D01*
X209471000Y-137330000D02*
X209471000Y-135720000D01*
X207670000Y-135485000D02*
X207670000Y-134034000D01*
X207831000Y-138967000D02*
X207831000Y-137565000D01*
X208231000Y-135485000D02*
X208231000Y-134257000D01*
X207751000Y-138993000D02*
X207751000Y-137565000D01*
X207670000Y-139016000D02*
X207670000Y-137565000D01*
X207991000Y-138907000D02*
X207991000Y-137565000D01*
X209610000Y-136525000D02*
G75*
G03*
X209610000Y-136525000I-2620000J0D01*
G01*
X179785000Y-70485000D02*
X179785000Y-71965000D01*
X177784000Y-72487000D02*
X177784000Y-73523000D01*
X178384000Y-71306000D02*
X178384000Y-71965000D01*
X178344000Y-71352000D02*
X178344000Y-71965000D01*
X178504000Y-71179000D02*
X178504000Y-71965000D01*
X178144000Y-71622000D02*
X178144000Y-71965000D01*
X178544000Y-71141000D02*
X178544000Y-71965000D01*
X179544000Y-70550000D02*
X179544000Y-71965000D01*
X178664000Y-71034000D02*
X178664000Y-71965000D01*
X178144000Y-74045000D02*
X178144000Y-74388000D01*
X178104000Y-71686000D02*
X178104000Y-71965000D01*
X178184000Y-74045000D02*
X178184000Y-74448000D01*
X179785000Y-74045000D02*
X179785000Y-75525000D01*
X178784000Y-74045000D02*
X178784000Y-75070000D01*
X179144000Y-74045000D02*
X179144000Y-75295000D01*
X178264000Y-71451000D02*
X178264000Y-71965000D01*
X179624000Y-70525000D02*
X179624000Y-71965000D01*
X178464000Y-71220000D02*
X178464000Y-71965000D01*
X178104000Y-74045000D02*
X178104000Y-74324000D01*
X179384000Y-70607000D02*
X179384000Y-71965000D01*
X178024000Y-71827000D02*
X178024000Y-74183000D01*
X177944000Y-71994000D02*
X177944000Y-74016000D01*
X177744000Y-72721000D02*
X177744000Y-73289000D01*
X178904000Y-74045000D02*
X178904000Y-75154000D01*
X178864000Y-70883000D02*
X178864000Y-71965000D01*
X179464000Y-70577000D02*
X179464000Y-71965000D01*
X178064000Y-74045000D02*
X178064000Y-74256000D01*
X179945000Y-70455000D02*
X179945000Y-71965000D01*
X180225000Y-70427000D02*
X180225000Y-75583000D01*
X179584000Y-74045000D02*
X179584000Y-75473000D01*
X179705000Y-74045000D02*
X179705000Y-75506000D01*
X183149775Y-71530000D02*
X182649775Y-71530000D01*
X179104000Y-70737000D02*
X179104000Y-71965000D01*
X179064000Y-70758000D02*
X179064000Y-71965000D01*
X180105000Y-70436000D02*
X180105000Y-71965000D01*
X178984000Y-70805000D02*
X178984000Y-71965000D01*
X178824000Y-74045000D02*
X178824000Y-75100000D01*
X179865000Y-70469000D02*
X179865000Y-71965000D01*
X178784000Y-70940000D02*
X178784000Y-71965000D01*
X179624000Y-74045000D02*
X179624000Y-75485000D01*
X179304000Y-70640000D02*
X179304000Y-71965000D01*
X179344000Y-70623000D02*
X179344000Y-71965000D01*
X179665000Y-74045000D02*
X179665000Y-75496000D01*
X179985000Y-74045000D02*
X179985000Y-75561000D01*
X179224000Y-74045000D02*
X179224000Y-75334000D01*
X180185000Y-70429000D02*
X180185000Y-75581000D01*
X179825000Y-70477000D02*
X179825000Y-71965000D01*
X178464000Y-74045000D02*
X178464000Y-74790000D01*
X178304000Y-74045000D02*
X178304000Y-74610000D01*
X177904000Y-72090000D02*
X177904000Y-73920000D01*
X178544000Y-74045000D02*
X178544000Y-74869000D01*
X179264000Y-74045000D02*
X179264000Y-75353000D01*
X179905000Y-70462000D02*
X179905000Y-71965000D01*
X178584000Y-71104000D02*
X178584000Y-71965000D01*
X179825000Y-74045000D02*
X179825000Y-75533000D01*
X178744000Y-74045000D02*
X178744000Y-75040000D01*
X178584000Y-74045000D02*
X178584000Y-74906000D01*
X179264000Y-70657000D02*
X179264000Y-71965000D01*
X178704000Y-74045000D02*
X178704000Y-75009000D01*
X179745000Y-74045000D02*
X179745000Y-75516000D01*
X178224000Y-71505000D02*
X178224000Y-71965000D01*
X178824000Y-70910000D02*
X178824000Y-71965000D01*
X179424000Y-70591000D02*
X179424000Y-71965000D01*
X178864000Y-74045000D02*
X178864000Y-75127000D01*
X177824000Y-72328000D02*
X177824000Y-73682000D01*
X179344000Y-74045000D02*
X179344000Y-75387000D01*
X179384000Y-74045000D02*
X179384000Y-75403000D01*
X179544000Y-74045000D02*
X179544000Y-75460000D01*
X178264000Y-74045000D02*
X178264000Y-74559000D01*
X180345000Y-70425000D02*
X180345000Y-75585000D01*
X179584000Y-70537000D02*
X179584000Y-71965000D01*
X179104000Y-74045000D02*
X179104000Y-75273000D01*
X179504000Y-74045000D02*
X179504000Y-75447000D01*
X179665000Y-70514000D02*
X179665000Y-71965000D01*
X180105000Y-74045000D02*
X180105000Y-75574000D01*
X178664000Y-74045000D02*
X178664000Y-74976000D01*
X178744000Y-70970000D02*
X178744000Y-71965000D01*
X180265000Y-70426000D02*
X180265000Y-75584000D01*
X179905000Y-74045000D02*
X179905000Y-75548000D01*
X179424000Y-74045000D02*
X179424000Y-75419000D01*
X177864000Y-72200000D02*
X177864000Y-73810000D01*
X180305000Y-70425000D02*
X180305000Y-75585000D01*
X178304000Y-71400000D02*
X178304000Y-71965000D01*
X180065000Y-70440000D02*
X180065000Y-71965000D01*
X179224000Y-70676000D02*
X179224000Y-71965000D01*
X179464000Y-74045000D02*
X179464000Y-75433000D01*
X179064000Y-74045000D02*
X179064000Y-75252000D01*
X180065000Y-74045000D02*
X180065000Y-75570000D01*
X178064000Y-71754000D02*
X178064000Y-71965000D01*
X178424000Y-71262000D02*
X178424000Y-71965000D01*
X179024000Y-74045000D02*
X179024000Y-75229000D01*
X178184000Y-71562000D02*
X178184000Y-71965000D01*
X179024000Y-70781000D02*
X179024000Y-71965000D01*
X178624000Y-74045000D02*
X178624000Y-74942000D01*
X179985000Y-70449000D02*
X179985000Y-71965000D01*
X179745000Y-70494000D02*
X179745000Y-71965000D01*
X179705000Y-70504000D02*
X179705000Y-71965000D01*
X179144000Y-70715000D02*
X179144000Y-71965000D01*
X179184000Y-74045000D02*
X179184000Y-75315000D01*
X179304000Y-74045000D02*
X179304000Y-75370000D01*
X178904000Y-70856000D02*
X178904000Y-71965000D01*
X179184000Y-70695000D02*
X179184000Y-71965000D01*
X182899775Y-71280000D02*
X182899775Y-71780000D01*
X177984000Y-71907000D02*
X177984000Y-74103000D01*
X178504000Y-74045000D02*
X178504000Y-74831000D01*
X178704000Y-71001000D02*
X178704000Y-71965000D01*
X180025000Y-70444000D02*
X180025000Y-71965000D01*
X178984000Y-74045000D02*
X178984000Y-75205000D01*
X178944000Y-74045000D02*
X178944000Y-75180000D01*
X178424000Y-74045000D02*
X178424000Y-74748000D01*
X178344000Y-74045000D02*
X178344000Y-74658000D01*
X179865000Y-74045000D02*
X179865000Y-75541000D01*
X180025000Y-74045000D02*
X180025000Y-75566000D01*
X178624000Y-71068000D02*
X178624000Y-71965000D01*
X180145000Y-70432000D02*
X180145000Y-75578000D01*
X178384000Y-74045000D02*
X178384000Y-74704000D01*
X178944000Y-70830000D02*
X178944000Y-71965000D01*
X179945000Y-74045000D02*
X179945000Y-75555000D01*
X179504000Y-70563000D02*
X179504000Y-71965000D01*
X178224000Y-74045000D02*
X178224000Y-74505000D01*
X182965000Y-73005000D02*
G75*
G03*
X182965000Y-73005000I-2620000J0D01*
G01*
X201930000Y-49760000D02*
X201930000Y-48990000D01*
X203300000Y-42450000D02*
X203300000Y-48990000D01*
X203300000Y-48990000D02*
X200560000Y-48990000D01*
X200560000Y-48990000D02*
X200560000Y-42450000D01*
X201930000Y-41680000D02*
X201930000Y-42450000D01*
X200560000Y-42450000D02*
X203300000Y-42450000D01*
X178540000Y-99115000D02*
X182140000Y-99115000D01*
X180340000Y-103565001D02*
G75*
G03*
X182178478Y-99126522I0J2600001D01*
G01*
X178501522Y-99126522D02*
G75*
G03*
X180340000Y-103565000I1838478J-1838478D01*
G01*
X221210000Y-125095000D02*
X220440000Y-125095000D01*
X220440000Y-126465000D02*
X213900000Y-126465000D01*
X220440000Y-123725000D02*
X220440000Y-126465000D01*
X213900000Y-123725000D02*
X220440000Y-123725000D01*
X213900000Y-126465000D02*
X213900000Y-123725000D01*
X213130000Y-125095000D02*
X213900000Y-125095000D01*
X165385000Y-49556000D02*
X165385000Y-50814000D01*
X163545000Y-49556000D02*
X163545000Y-50814000D01*
X203350000Y-73240000D02*
X203350000Y-69000000D01*
X205590000Y-72640000D02*
X203350000Y-72640000D01*
X204470000Y-68350000D02*
X204470000Y-69000000D01*
X205590000Y-69000000D02*
X205590000Y-73240000D01*
X203350000Y-69000000D02*
X205590000Y-69000000D01*
X205590000Y-72400000D02*
X203350000Y-72400000D01*
X204470000Y-73890000D02*
X204470000Y-73240000D01*
X205590000Y-73240000D02*
X203350000Y-73240000D01*
X205590000Y-72520000D02*
X203350000Y-72520000D01*
X179599000Y-46427000D02*
X179599000Y-47855000D01*
X177799000Y-48377000D02*
X177799000Y-49413000D01*
X178959000Y-49935000D02*
X178959000Y-51070000D01*
X178519000Y-47069000D02*
X178519000Y-47855000D01*
X180160000Y-46322000D02*
X180160000Y-51468000D01*
X179239000Y-46566000D02*
X179239000Y-47855000D01*
X179559000Y-49935000D02*
X179559000Y-51350000D01*
X179519000Y-46453000D02*
X179519000Y-47855000D01*
X179760000Y-49935000D02*
X179760000Y-51406000D01*
X180000000Y-49935000D02*
X180000000Y-51451000D01*
X178559000Y-49935000D02*
X178559000Y-50759000D01*
X179840000Y-46367000D02*
X179840000Y-47855000D01*
X178119000Y-47576000D02*
X178119000Y-47855000D01*
X178279000Y-47341000D02*
X178279000Y-47855000D01*
X180280000Y-46316000D02*
X180280000Y-51474000D01*
X179119000Y-49935000D02*
X179119000Y-51163000D01*
X178759000Y-49935000D02*
X178759000Y-50930000D01*
X179800000Y-49935000D02*
X179800000Y-51415000D01*
X180320000Y-46315000D02*
X180320000Y-51475000D01*
X179079000Y-49935000D02*
X179079000Y-51142000D01*
X179199000Y-49935000D02*
X179199000Y-51205000D01*
X178719000Y-49935000D02*
X178719000Y-50899000D01*
X177879000Y-48090000D02*
X177879000Y-49700000D01*
X178679000Y-46924000D02*
X178679000Y-47855000D01*
X179399000Y-46497000D02*
X179399000Y-47855000D01*
X178679000Y-49935000D02*
X178679000Y-50866000D01*
X178359000Y-49935000D02*
X178359000Y-50548000D01*
X178599000Y-46994000D02*
X178599000Y-47855000D01*
X179199000Y-46585000D02*
X179199000Y-47855000D01*
X179599000Y-49935000D02*
X179599000Y-51363000D01*
X178399000Y-47196000D02*
X178399000Y-47855000D01*
X178359000Y-47242000D02*
X178359000Y-47855000D01*
X178719000Y-46891000D02*
X178719000Y-47855000D01*
X179159000Y-49935000D02*
X179159000Y-51185000D01*
X179639000Y-49935000D02*
X179639000Y-51375000D01*
X179279000Y-49935000D02*
X179279000Y-51243000D01*
X179720000Y-46394000D02*
X179720000Y-47855000D01*
X180040000Y-49935000D02*
X180040000Y-51456000D01*
X179720000Y-49935000D02*
X179720000Y-51396000D01*
X179920000Y-49935000D02*
X179920000Y-51438000D01*
X179439000Y-49935000D02*
X179439000Y-51309000D01*
X178079000Y-47644000D02*
X178079000Y-47855000D01*
X179359000Y-46513000D02*
X179359000Y-47855000D01*
X178399000Y-49935000D02*
X178399000Y-50594000D01*
X178999000Y-46695000D02*
X178999000Y-47855000D01*
X178799000Y-46830000D02*
X178799000Y-47855000D01*
X179519000Y-49935000D02*
X179519000Y-51337000D01*
X180240000Y-46317000D02*
X180240000Y-51473000D01*
X178319000Y-49935000D02*
X178319000Y-50500000D01*
X178519000Y-49935000D02*
X178519000Y-50721000D01*
X178919000Y-49935000D02*
X178919000Y-51044000D01*
X179439000Y-46481000D02*
X179439000Y-47855000D01*
X178919000Y-46746000D02*
X178919000Y-47855000D01*
X178039000Y-47717000D02*
X178039000Y-50073000D01*
X179920000Y-46352000D02*
X179920000Y-47855000D01*
X177839000Y-48218000D02*
X177839000Y-49572000D01*
X179039000Y-49935000D02*
X179039000Y-51119000D01*
X178199000Y-47452000D02*
X178199000Y-47855000D01*
X182914775Y-47170000D02*
X182914775Y-47670000D01*
X178839000Y-49935000D02*
X178839000Y-50990000D01*
X179880000Y-46359000D02*
X179880000Y-47855000D01*
X178879000Y-49935000D02*
X178879000Y-51017000D01*
X178239000Y-49935000D02*
X178239000Y-50395000D01*
X178759000Y-46860000D02*
X178759000Y-47855000D01*
X180200000Y-46319000D02*
X180200000Y-51471000D01*
X180360000Y-46315000D02*
X180360000Y-51475000D01*
X178439000Y-47152000D02*
X178439000Y-47855000D01*
X179960000Y-46345000D02*
X179960000Y-47855000D01*
X178479000Y-49935000D02*
X178479000Y-50680000D01*
X179279000Y-46547000D02*
X179279000Y-47855000D01*
X179639000Y-46415000D02*
X179639000Y-47855000D01*
X179760000Y-46384000D02*
X179760000Y-47855000D01*
X178639000Y-49935000D02*
X178639000Y-50832000D01*
X179079000Y-46648000D02*
X179079000Y-47855000D01*
X179319000Y-46530000D02*
X179319000Y-47855000D01*
X177999000Y-47797000D02*
X177999000Y-49993000D01*
X179319000Y-49935000D02*
X179319000Y-51260000D01*
X179960000Y-49935000D02*
X179960000Y-51445000D01*
X178999000Y-49935000D02*
X178999000Y-51095000D01*
X177919000Y-47980000D02*
X177919000Y-49810000D01*
X178239000Y-47395000D02*
X178239000Y-47855000D01*
X177959000Y-47884000D02*
X177959000Y-49906000D01*
X180040000Y-46334000D02*
X180040000Y-47855000D01*
X178319000Y-47290000D02*
X178319000Y-47855000D01*
X178559000Y-47031000D02*
X178559000Y-47855000D01*
X179880000Y-49935000D02*
X179880000Y-51431000D01*
X183164775Y-47420000D02*
X182664775Y-47420000D01*
X179479000Y-49935000D02*
X179479000Y-51323000D01*
X179680000Y-46404000D02*
X179680000Y-47855000D01*
X178479000Y-47110000D02*
X178479000Y-47855000D01*
X179359000Y-49935000D02*
X179359000Y-51277000D01*
X180000000Y-46339000D02*
X180000000Y-47855000D01*
X180120000Y-46326000D02*
X180120000Y-47855000D01*
X178119000Y-49935000D02*
X178119000Y-50214000D01*
X178799000Y-49935000D02*
X178799000Y-50960000D01*
X179039000Y-46671000D02*
X179039000Y-47855000D01*
X179559000Y-46440000D02*
X179559000Y-47855000D01*
X178959000Y-46720000D02*
X178959000Y-47855000D01*
X179159000Y-46605000D02*
X179159000Y-47855000D01*
X178079000Y-49935000D02*
X178079000Y-50146000D01*
X178279000Y-49935000D02*
X178279000Y-50449000D01*
X179840000Y-49935000D02*
X179840000Y-51423000D01*
X179479000Y-46467000D02*
X179479000Y-47855000D01*
X180080000Y-46330000D02*
X180080000Y-47855000D01*
X179239000Y-49935000D02*
X179239000Y-51224000D01*
X178639000Y-46958000D02*
X178639000Y-47855000D01*
X180120000Y-49935000D02*
X180120000Y-51464000D01*
X178599000Y-49935000D02*
X178599000Y-50796000D01*
X180080000Y-49935000D02*
X180080000Y-51460000D01*
X178879000Y-46773000D02*
X178879000Y-47855000D01*
X179119000Y-46627000D02*
X179119000Y-47855000D01*
X179800000Y-46375000D02*
X179800000Y-47855000D01*
X178199000Y-49935000D02*
X178199000Y-50338000D01*
X178159000Y-49935000D02*
X178159000Y-50278000D01*
X179680000Y-49935000D02*
X179680000Y-51386000D01*
X178159000Y-47512000D02*
X178159000Y-47855000D01*
X178439000Y-49935000D02*
X178439000Y-50638000D01*
X179399000Y-49935000D02*
X179399000Y-51293000D01*
X177759000Y-48611000D02*
X177759000Y-49179000D01*
X178839000Y-46800000D02*
X178839000Y-47855000D01*
X182980000Y-48895000D02*
G75*
G03*
X182980000Y-48895000I-2620000J0D01*
G01*
X178525000Y-129535000D02*
X178595000Y-129535000D01*
X178525000Y-129535000D02*
G75*
G03*
X178525000Y-129535000I-1370000J0D01*
G01*
X207930000Y-81909000D02*
X207930000Y-80651000D01*
X206090000Y-81909000D02*
X206090000Y-80651000D01*
X178574113Y-97560000D02*
X178574113Y-98457000D01*
X177854113Y-95605000D02*
X177854113Y-97435000D01*
X179494113Y-97560000D02*
X179494113Y-98975000D01*
X179975113Y-97560000D02*
X179975113Y-99081000D01*
X179615113Y-94029000D02*
X179615113Y-95480000D01*
X178174113Y-97560000D02*
X178174113Y-98020000D01*
X179294113Y-97560000D02*
X179294113Y-98902000D01*
X179014113Y-97560000D02*
X179014113Y-98767000D01*
X178414113Y-97560000D02*
X178414113Y-98305000D01*
X178974113Y-97560000D02*
X178974113Y-98744000D01*
X179454113Y-94078000D02*
X179454113Y-95480000D01*
X178814113Y-97560000D02*
X178814113Y-98642000D01*
X179574113Y-97560000D02*
X179574113Y-99000000D01*
X179935113Y-93964000D02*
X179935113Y-95480000D01*
X177894113Y-95509000D02*
X177894113Y-97531000D01*
X178854113Y-94371000D02*
X178854113Y-95480000D01*
X177774113Y-95843000D02*
X177774113Y-97197000D01*
X177934113Y-95422000D02*
X177934113Y-97618000D01*
X179014113Y-94273000D02*
X179014113Y-95480000D01*
X178294113Y-97560000D02*
X178294113Y-98173000D01*
X178734113Y-94455000D02*
X178734113Y-95480000D01*
X179134113Y-97560000D02*
X179134113Y-98830000D01*
X178814113Y-94398000D02*
X178814113Y-95480000D01*
X179895113Y-97560000D02*
X179895113Y-99070000D01*
X178214113Y-97560000D02*
X178214113Y-98074000D01*
X178894113Y-94345000D02*
X178894113Y-95480000D01*
X178614113Y-97560000D02*
X178614113Y-98491000D01*
X180015113Y-97560000D02*
X180015113Y-99085000D01*
X179134113Y-94210000D02*
X179134113Y-95480000D01*
X179655113Y-94019000D02*
X179655113Y-95480000D01*
X178054113Y-97560000D02*
X178054113Y-97839000D01*
X179735113Y-97560000D02*
X179735113Y-99040000D01*
X178774113Y-97560000D02*
X178774113Y-98615000D01*
X178774113Y-94425000D02*
X178774113Y-95480000D01*
X179374113Y-94106000D02*
X179374113Y-95480000D01*
X178654113Y-94516000D02*
X178654113Y-95480000D01*
X179855113Y-93977000D02*
X179855113Y-95480000D01*
X179574113Y-94040000D02*
X179574113Y-95480000D01*
X178454113Y-94694000D02*
X178454113Y-95480000D01*
X179534113Y-94052000D02*
X179534113Y-95480000D01*
X179094113Y-94230000D02*
X179094113Y-95480000D01*
X179174113Y-94191000D02*
X179174113Y-95480000D01*
X178374113Y-97560000D02*
X178374113Y-98263000D01*
X178654113Y-97560000D02*
X178654113Y-98524000D01*
X178574113Y-94583000D02*
X178574113Y-95480000D01*
X178694113Y-94485000D02*
X178694113Y-95480000D01*
X178414113Y-94735000D02*
X178414113Y-95480000D01*
X180015113Y-93955000D02*
X180015113Y-95480000D01*
X179174113Y-97560000D02*
X179174113Y-98849000D01*
X178534113Y-94619000D02*
X178534113Y-95480000D01*
X179214113Y-97560000D02*
X179214113Y-98868000D01*
X178494113Y-94656000D02*
X178494113Y-95480000D01*
X179054113Y-94252000D02*
X179054113Y-95480000D01*
X178614113Y-94549000D02*
X178614113Y-95480000D01*
X179695113Y-97560000D02*
X179695113Y-99031000D01*
X180175113Y-93942000D02*
X180175113Y-99098000D01*
X179895113Y-93970000D02*
X179895113Y-95480000D01*
X178254113Y-94915000D02*
X178254113Y-95480000D01*
X178094113Y-97560000D02*
X178094113Y-97903000D01*
X179454113Y-97560000D02*
X179454113Y-98962000D01*
X179815113Y-97560000D02*
X179815113Y-99056000D01*
X179294113Y-94138000D02*
X179294113Y-95480000D01*
X178854113Y-97560000D02*
X178854113Y-98669000D01*
X179815113Y-93984000D02*
X179815113Y-95480000D01*
X179254113Y-94155000D02*
X179254113Y-95480000D01*
X180215113Y-93941000D02*
X180215113Y-99099000D01*
X178094113Y-95137000D02*
X178094113Y-95480000D01*
X179615113Y-97560000D02*
X179615113Y-99011000D01*
X179775113Y-97560000D02*
X179775113Y-99048000D01*
X182849888Y-94795000D02*
X182849888Y-95295000D01*
X177734113Y-96002000D02*
X177734113Y-97038000D01*
X177974113Y-95342000D02*
X177974113Y-97698000D01*
X179935113Y-97560000D02*
X179935113Y-99076000D01*
X178014113Y-97560000D02*
X178014113Y-97771000D01*
X180095113Y-93947000D02*
X180095113Y-99093000D01*
X178334113Y-94821000D02*
X178334113Y-95480000D01*
X179334113Y-97560000D02*
X179334113Y-98918000D01*
X178054113Y-95201000D02*
X178054113Y-95480000D01*
X179414113Y-97560000D02*
X179414113Y-98948000D01*
X178134113Y-95077000D02*
X178134113Y-95480000D01*
X178534113Y-97560000D02*
X178534113Y-98421000D01*
X180135113Y-93944000D02*
X180135113Y-99096000D01*
X179254113Y-97560000D02*
X179254113Y-98885000D01*
X180295113Y-93940000D02*
X180295113Y-99100000D01*
X179775113Y-93992000D02*
X179775113Y-95480000D01*
X183099888Y-95045000D02*
X182599888Y-95045000D01*
X180055113Y-97560000D02*
X180055113Y-99089000D01*
X178214113Y-94966000D02*
X178214113Y-95480000D01*
X179735113Y-94000000D02*
X179735113Y-95480000D01*
X179534113Y-97560000D02*
X179534113Y-98988000D01*
X178934113Y-97560000D02*
X178934113Y-98720000D01*
X179655113Y-97560000D02*
X179655113Y-99021000D01*
X179695113Y-94009000D02*
X179695113Y-95480000D01*
X179054113Y-97560000D02*
X179054113Y-98788000D01*
X178374113Y-94777000D02*
X178374113Y-95480000D01*
X179094113Y-97560000D02*
X179094113Y-98810000D01*
X178294113Y-94867000D02*
X178294113Y-95480000D01*
X178134113Y-97560000D02*
X178134113Y-97963000D01*
X178694113Y-97560000D02*
X178694113Y-98555000D01*
X178894113Y-97560000D02*
X178894113Y-98695000D01*
X178734113Y-97560000D02*
X178734113Y-98585000D01*
X179855113Y-97560000D02*
X179855113Y-99063000D01*
X178014113Y-95269000D02*
X178014113Y-95480000D01*
X179414113Y-94092000D02*
X179414113Y-95480000D01*
X179334113Y-94122000D02*
X179334113Y-95480000D01*
X179374113Y-97560000D02*
X179374113Y-98934000D01*
X179975113Y-93959000D02*
X179975113Y-95480000D01*
X177814113Y-95715000D02*
X177814113Y-97325000D01*
X178254113Y-97560000D02*
X178254113Y-98125000D01*
X178974113Y-94296000D02*
X178974113Y-95480000D01*
X179494113Y-94065000D02*
X179494113Y-95480000D01*
X178454113Y-97560000D02*
X178454113Y-98346000D01*
X178334113Y-97560000D02*
X178334113Y-98219000D01*
X177694113Y-96236000D02*
X177694113Y-96804000D01*
X180255113Y-93940000D02*
X180255113Y-99100000D01*
X179214113Y-94172000D02*
X179214113Y-95480000D01*
X178494113Y-97560000D02*
X178494113Y-98384000D01*
X178934113Y-94320000D02*
X178934113Y-95480000D01*
X178174113Y-95020000D02*
X178174113Y-95480000D01*
X180055113Y-93951000D02*
X180055113Y-95480000D01*
X182915113Y-96520000D02*
G75*
G03*
X182915113Y-96520000I-2620000J0D01*
G01*
X175260000Y-145085000D02*
X175260000Y-144315000D01*
X176630000Y-144315000D02*
X173890000Y-144315000D01*
X173890000Y-137775000D02*
X176630000Y-137775000D01*
X176630000Y-137775000D02*
X176630000Y-144315000D01*
X173890000Y-144315000D02*
X173890000Y-137775000D01*
X175260000Y-137005000D02*
X175260000Y-137775000D01*
X196565000Y-120021000D02*
X196565000Y-121279000D01*
X198405000Y-120021000D02*
X198405000Y-121279000D01*
X191040000Y-106580000D02*
X197580000Y-106580000D01*
X190270000Y-107950000D02*
X191040000Y-107950000D01*
X197580000Y-106580000D02*
X197580000Y-109320000D01*
X197580000Y-109320000D02*
X191040000Y-109320000D01*
X198350000Y-107950000D02*
X197580000Y-107950000D01*
X191040000Y-109320000D02*
X191040000Y-106580000D01*
X198270000Y-69600000D02*
X200510000Y-69600000D01*
X198270000Y-69840000D02*
X200510000Y-69840000D01*
X198270000Y-69000000D02*
X200510000Y-69000000D01*
X200510000Y-69000000D02*
X200510000Y-73240000D01*
X198270000Y-69720000D02*
X200510000Y-69720000D01*
X198270000Y-73240000D02*
X198270000Y-69000000D01*
X199390000Y-68350000D02*
X199390000Y-69000000D01*
X199390000Y-73890000D02*
X199390000Y-73240000D01*
X200510000Y-73240000D02*
X198270000Y-73240000D01*
X173875000Y-41160000D02*
X176615000Y-41160000D01*
X176615000Y-41160000D02*
X176615000Y-47700000D01*
X175245000Y-48470000D02*
X175245000Y-47700000D01*
X173875000Y-47700000D02*
X173875000Y-41160000D01*
X176615000Y-47700000D02*
X173875000Y-47700000D01*
X175245000Y-40390000D02*
X175245000Y-41160000D01*
X219810000Y-140895000D02*
X201830000Y-140895000D01*
X208770000Y-147395000D02*
X208770000Y-147395000D01*
X201830000Y-140895000D02*
X201830000Y-147395000D01*
X201830000Y-147395000D02*
X208770000Y-147395000D01*
X215400000Y-150095000D02*
X215900000Y-149095000D01*
X221110000Y-148705000D02*
X221110000Y-139585000D01*
X200530000Y-148705000D02*
X221110000Y-148705000D01*
X219810000Y-147395000D02*
X219810000Y-140895000D01*
X216400000Y-150095000D02*
X215400000Y-150095000D01*
X212870000Y-147395000D02*
X219810000Y-147395000D01*
X215900000Y-149095000D02*
X216400000Y-150095000D01*
X221110000Y-139585000D02*
X200530000Y-139585000D01*
X208770000Y-147395000D02*
X208770000Y-148705000D01*
X200530000Y-139585000D02*
X200530000Y-148705000D01*
X212870000Y-148705000D02*
X212870000Y-147395000D01*
X190270000Y-105410000D02*
X191040000Y-105410000D01*
X197580000Y-104040000D02*
X197580000Y-106780000D01*
X198350000Y-105410000D02*
X197580000Y-105410000D01*
X197580000Y-106780000D02*
X191040000Y-106780000D01*
X191040000Y-106780000D02*
X191040000Y-104040000D01*
X191040000Y-104040000D02*
X197580000Y-104040000D01*
X207920000Y-55219000D02*
X207920000Y-53961000D01*
X206080000Y-55219000D02*
X206080000Y-53961000D01*
X218250000Y-106295000D02*
X217720000Y-106045000D01*
X216720000Y-104665000D02*
X222740000Y-104665000D01*
X221710000Y-110255000D02*
X217710000Y-110255000D01*
X217720000Y-108585000D02*
X217720000Y-106045000D01*
X222740000Y-109385000D02*
X222140000Y-109385000D01*
X217720000Y-108585000D02*
X218250000Y-108335000D01*
X217720000Y-106045000D02*
X216720000Y-106045000D01*
X222140000Y-106845000D02*
X222140000Y-105245000D01*
X216720000Y-108335000D02*
X217720000Y-108335000D01*
X222140000Y-105245000D02*
X222740000Y-105245000D01*
X222140000Y-109385000D02*
X222140000Y-107785000D01*
X222740000Y-106845000D02*
X222140000Y-106845000D01*
X216720000Y-109965000D02*
X216720000Y-104665000D01*
X222140000Y-107785000D02*
X222740000Y-107785000D01*
X222740000Y-109965000D02*
X216720000Y-109965000D01*
X216720000Y-108585000D02*
X217720000Y-108585000D01*
X222740000Y-104665000D02*
X222740000Y-109965000D01*
X216720000Y-106295000D02*
X217720000Y-106295000D01*
X218250000Y-108335000D02*
X218250000Y-106295000D01*
X213900000Y-129005000D02*
X213900000Y-126265000D01*
X220440000Y-126265000D02*
X220440000Y-129005000D01*
X221210000Y-127635000D02*
X220440000Y-127635000D01*
X220440000Y-129005000D02*
X213900000Y-129005000D01*
X213900000Y-126265000D02*
X220440000Y-126265000D01*
X213130000Y-127635000D02*
X213900000Y-127635000D01*
X175260000Y-66445000D02*
X175260000Y-67215000D01*
X175260000Y-74525000D02*
X175260000Y-73755000D01*
X176630000Y-73755000D02*
X173890000Y-73755000D01*
X173890000Y-73755000D02*
X173890000Y-67215000D01*
X176630000Y-67215000D02*
X176630000Y-73755000D01*
X173890000Y-67215000D02*
X176630000Y-67215000D01*
X186150000Y-86460000D02*
X179610000Y-86460000D01*
X178840000Y-85090000D02*
X179610000Y-85090000D01*
X179610000Y-86460000D02*
X179610000Y-83720000D01*
X186150000Y-83720000D02*
X186150000Y-86460000D01*
X186920000Y-85090000D02*
X186150000Y-85090000D01*
X179610000Y-83720000D02*
X186150000Y-83720000D01*
X213130000Y-130175000D02*
X213900000Y-130175000D01*
X213900000Y-131545000D02*
X213900000Y-128805000D01*
X213900000Y-128805000D02*
X220440000Y-128805000D01*
X221210000Y-130175000D02*
X220440000Y-130175000D01*
X220440000Y-128805000D02*
X220440000Y-131545000D01*
X220440000Y-131545000D02*
X213900000Y-131545000D01*
X185960000Y-81380000D02*
X185960000Y-78640000D01*
X192500000Y-78640000D02*
X192500000Y-81380000D01*
X185190000Y-80010000D02*
X185960000Y-80010000D01*
X193270000Y-80010000D02*
X192500000Y-80010000D01*
X185960000Y-78640000D02*
X192500000Y-78640000D01*
X192500000Y-81380000D02*
X185960000Y-81380000D01*
X219110000Y-86155000D02*
X215260000Y-86155000D01*
X214867617Y-85567264D02*
G75*
G03*
X215260000Y-86155000I2302383J1112264D01*
G01*
X219110000Y-86155000D02*
G75*
G03*
X219492631Y-85577045I-1940000J1700000D01*
G01*
X219526400Y-83356193D02*
G75*
G03*
X217170000Y-81855000I-2356400J-1098807D01*
G01*
X217170000Y-81855000D02*
G75*
G03*
X214813600Y-83356193I0J-2600000D01*
G01*
X198020000Y-48990000D02*
X198020000Y-42450000D01*
X200760000Y-48990000D02*
X198020000Y-48990000D01*
X199390000Y-49760000D02*
X199390000Y-48990000D01*
X200760000Y-42450000D02*
X200760000Y-48990000D01*
X198020000Y-42450000D02*
X200760000Y-42450000D01*
X199390000Y-41680000D02*
X199390000Y-42450000D01*
X206605000Y-123825000D02*
X205835000Y-123825000D01*
X205835000Y-122455000D02*
X205835000Y-125195000D01*
X199295000Y-122455000D02*
X205835000Y-122455000D01*
X198525000Y-123825000D02*
X199295000Y-123825000D01*
X205835000Y-125195000D02*
X199295000Y-125195000D01*
X199295000Y-125195000D02*
X199295000Y-122455000D01*
X192500000Y-83920000D02*
X185960000Y-83920000D01*
X185960000Y-81180000D02*
X192500000Y-81180000D01*
X185960000Y-83920000D02*
X185960000Y-81180000D01*
X192500000Y-81180000D02*
X192500000Y-83920000D01*
X185190000Y-82550000D02*
X185960000Y-82550000D01*
X193270000Y-82550000D02*
X192500000Y-82550000D01*
X202780000Y-86510000D02*
X202780000Y-88750000D01*
X198540000Y-86510000D02*
X202780000Y-86510000D01*
X197890000Y-87630000D02*
X198540000Y-87630000D01*
X199380000Y-88750000D02*
X199380000Y-86510000D01*
X199260000Y-88750000D02*
X199260000Y-86510000D01*
X199140000Y-88750000D02*
X199140000Y-86510000D01*
X203430000Y-87630000D02*
X202780000Y-87630000D01*
X202780000Y-88750000D02*
X198540000Y-88750000D01*
X198540000Y-88750000D02*
X198540000Y-86510000D01*
X172815000Y-76735000D02*
X172815000Y-79475000D01*
X173585000Y-78105000D02*
X172815000Y-78105000D01*
X166275000Y-76735000D02*
X172815000Y-76735000D01*
X166275000Y-79475000D02*
X166275000Y-76735000D01*
X172815000Y-79475000D02*
X166275000Y-79475000D01*
X165505000Y-78105000D02*
X166275000Y-78105000D01*
X179559000Y-118182000D02*
X179559000Y-119610000D01*
X179239000Y-121690000D02*
X179239000Y-122998000D01*
X178559000Y-121690000D02*
X178559000Y-122551000D01*
X178639000Y-121690000D02*
X178639000Y-122621000D01*
X179319000Y-118268000D02*
X179319000Y-119610000D01*
X179640000Y-121690000D02*
X179640000Y-123141000D01*
X178039000Y-119399000D02*
X178039000Y-119610000D01*
X178279000Y-121690000D02*
X178279000Y-122255000D01*
X179840000Y-121690000D02*
X179840000Y-123186000D01*
X178199000Y-119150000D02*
X178199000Y-119610000D01*
X179640000Y-118159000D02*
X179640000Y-119610000D01*
X177919000Y-119639000D02*
X177919000Y-121661000D01*
X178199000Y-121690000D02*
X178199000Y-122150000D01*
X180160000Y-118074000D02*
X180160000Y-123226000D01*
X178239000Y-119096000D02*
X178239000Y-119610000D01*
X179599000Y-118170000D02*
X179599000Y-119610000D01*
X178679000Y-121690000D02*
X178679000Y-122654000D01*
X179079000Y-121690000D02*
X179079000Y-122918000D01*
X180080000Y-118081000D02*
X180080000Y-119610000D01*
X179760000Y-118130000D02*
X179760000Y-119610000D01*
X179279000Y-118285000D02*
X179279000Y-119610000D01*
X178399000Y-121690000D02*
X178399000Y-122393000D01*
X179239000Y-118302000D02*
X179239000Y-119610000D01*
X178279000Y-119045000D02*
X178279000Y-119610000D01*
X179159000Y-118340000D02*
X179159000Y-119610000D01*
X178919000Y-121690000D02*
X178919000Y-122825000D01*
X180000000Y-118089000D02*
X180000000Y-119610000D01*
X178799000Y-121690000D02*
X178799000Y-122745000D01*
X178479000Y-121690000D02*
X178479000Y-122476000D01*
X179039000Y-118403000D02*
X179039000Y-119610000D01*
X178719000Y-121690000D02*
X178719000Y-122685000D01*
X177799000Y-119973000D02*
X177799000Y-121327000D01*
X180040000Y-118085000D02*
X180040000Y-119610000D01*
X179599000Y-121690000D02*
X179599000Y-123130000D01*
X178359000Y-121690000D02*
X178359000Y-122349000D01*
X179760000Y-121690000D02*
X179760000Y-123170000D01*
X178719000Y-118615000D02*
X178719000Y-119610000D01*
X179359000Y-121690000D02*
X179359000Y-123048000D01*
X178119000Y-119267000D02*
X178119000Y-119610000D01*
X178959000Y-118450000D02*
X178959000Y-119610000D01*
X179880000Y-121690000D02*
X179880000Y-123193000D01*
X179359000Y-118252000D02*
X179359000Y-119610000D01*
X179519000Y-121690000D02*
X179519000Y-123105000D01*
X179119000Y-121690000D02*
X179119000Y-122940000D01*
X178399000Y-118907000D02*
X178399000Y-119610000D01*
X179159000Y-121690000D02*
X179159000Y-122960000D01*
X179880000Y-118107000D02*
X179880000Y-119610000D01*
X178359000Y-118951000D02*
X178359000Y-119610000D01*
X178639000Y-118679000D02*
X178639000Y-119610000D01*
X177879000Y-119735000D02*
X177879000Y-121565000D01*
X179960000Y-118094000D02*
X179960000Y-119610000D01*
X179920000Y-118100000D02*
X179920000Y-119610000D01*
X180240000Y-118071000D02*
X180240000Y-123229000D01*
X179119000Y-118360000D02*
X179119000Y-119610000D01*
X180320000Y-118070000D02*
X180320000Y-123230000D01*
X179680000Y-118149000D02*
X179680000Y-119610000D01*
X177759000Y-120132000D02*
X177759000Y-121168000D01*
X180280000Y-118070000D02*
X180280000Y-123230000D01*
X178759000Y-121690000D02*
X178759000Y-122715000D01*
X177839000Y-119845000D02*
X177839000Y-121455000D01*
X178079000Y-121690000D02*
X178079000Y-121969000D01*
X178679000Y-118646000D02*
X178679000Y-119610000D01*
X178519000Y-118786000D02*
X178519000Y-119610000D01*
X178999000Y-121690000D02*
X178999000Y-122874000D01*
X178599000Y-118713000D02*
X178599000Y-119610000D01*
X179079000Y-118382000D02*
X179079000Y-119610000D01*
X179399000Y-118236000D02*
X179399000Y-119610000D01*
X180080000Y-121690000D02*
X180080000Y-123219000D01*
X178239000Y-121690000D02*
X178239000Y-122204000D01*
X178439000Y-118865000D02*
X178439000Y-119610000D01*
X178039000Y-121690000D02*
X178039000Y-121901000D01*
X179720000Y-121690000D02*
X179720000Y-123161000D01*
X180000000Y-121690000D02*
X180000000Y-123211000D01*
X178839000Y-121690000D02*
X178839000Y-122772000D01*
X178959000Y-121690000D02*
X178959000Y-122850000D01*
X178879000Y-121690000D02*
X178879000Y-122799000D01*
X178599000Y-121690000D02*
X178599000Y-122587000D01*
X178879000Y-118501000D02*
X178879000Y-119610000D01*
X182874775Y-118925000D02*
X182874775Y-119425000D01*
X178559000Y-118749000D02*
X178559000Y-119610000D01*
X180120000Y-118077000D02*
X180120000Y-123223000D01*
X179399000Y-121690000D02*
X179399000Y-123064000D01*
X179800000Y-121690000D02*
X179800000Y-123178000D01*
X178079000Y-119331000D02*
X178079000Y-119610000D01*
X177959000Y-119552000D02*
X177959000Y-121748000D01*
X178799000Y-118555000D02*
X178799000Y-119610000D01*
X179039000Y-121690000D02*
X179039000Y-122897000D01*
X178519000Y-121690000D02*
X178519000Y-122514000D01*
X178919000Y-118475000D02*
X178919000Y-119610000D01*
X178319000Y-121690000D02*
X178319000Y-122303000D01*
X179319000Y-121690000D02*
X179319000Y-123032000D01*
X178839000Y-118528000D02*
X178839000Y-119610000D01*
X179559000Y-121690000D02*
X179559000Y-123118000D01*
X179439000Y-121690000D02*
X179439000Y-123078000D01*
X178119000Y-121690000D02*
X178119000Y-122033000D01*
X179439000Y-118222000D02*
X179439000Y-119610000D01*
X177999000Y-119472000D02*
X177999000Y-121828000D01*
X179840000Y-118114000D02*
X179840000Y-119610000D01*
X178159000Y-119207000D02*
X178159000Y-119610000D01*
X178759000Y-118585000D02*
X178759000Y-119610000D01*
X179519000Y-118195000D02*
X179519000Y-119610000D01*
X179279000Y-121690000D02*
X179279000Y-123015000D01*
X178439000Y-121690000D02*
X178439000Y-122435000D01*
X179680000Y-121690000D02*
X179680000Y-123151000D01*
X179960000Y-121690000D02*
X179960000Y-123206000D01*
X179199000Y-121690000D02*
X179199000Y-122979000D01*
X179479000Y-118208000D02*
X179479000Y-119610000D01*
X177719000Y-120366000D02*
X177719000Y-120934000D01*
X180040000Y-121690000D02*
X180040000Y-123215000D01*
X179199000Y-118321000D02*
X179199000Y-119610000D01*
X178479000Y-118824000D02*
X178479000Y-119610000D01*
X180200000Y-118072000D02*
X180200000Y-123228000D01*
X179479000Y-121690000D02*
X179479000Y-123092000D01*
X178999000Y-118426000D02*
X178999000Y-119610000D01*
X178319000Y-118997000D02*
X178319000Y-119610000D01*
X178159000Y-121690000D02*
X178159000Y-122093000D01*
X179720000Y-118139000D02*
X179720000Y-119610000D01*
X183124775Y-119175000D02*
X182624775Y-119175000D01*
X179800000Y-118122000D02*
X179800000Y-119610000D01*
X179920000Y-121690000D02*
X179920000Y-123200000D01*
X182940000Y-120650000D02*
G75*
G03*
X182940000Y-120650000I-2620000J0D01*
G01*
X200560000Y-66580000D02*
X203300000Y-66580000D01*
X203300000Y-73120000D02*
X200560000Y-73120000D01*
X201930000Y-73890000D02*
X201930000Y-73120000D01*
X200560000Y-73120000D02*
X200560000Y-66580000D01*
X201930000Y-65810000D02*
X201930000Y-66580000D01*
X203300000Y-66580000D02*
X203300000Y-73120000D01*
X200120000Y-131345000D02*
X200120000Y-134085000D01*
X192810000Y-132715000D02*
X193580000Y-132715000D01*
X200120000Y-134085000D02*
X193580000Y-134085000D01*
X193580000Y-134085000D02*
X193580000Y-131345000D01*
X193580000Y-131345000D02*
X200120000Y-131345000D01*
X200890000Y-132715000D02*
X200120000Y-132715000D01*
M02*
