M48
; DRILL file {KiCad (6.0.5)} date Fri May 27 13:29:36 2022
; FORMAT={-:-/ absolute / inch / decimal}
; #@! TF.CreationDate,2022-05-27T13:29:36-04:00
; #@! TF.GenerationSoftware,Kicad,Pcbnew,(6.0.5)
; #@! TF.FileFunction,Plated,1,2,PTH
FMAT,2
INCH
; #@! TA.AperFunction,Plated,PTH,ViaDrill
T1C0.0157
; #@! TA.AperFunction,Plated,PTH,ComponentDrill
T2C0.0295
; #@! TA.AperFunction,Plated,PTH,ComponentDrill
T3C0.0315
; #@! TA.AperFunction,Plated,PTH,ComponentDrill
T4C0.0354
; #@! TA.AperFunction,Plated,PTH,ComponentDrill
T5C0.0394
; #@! TA.AperFunction,Plated,PTH,ComponentDrill
T6C0.0469
; #@! TA.AperFunction,Plated,PTH,ComponentDrill
T7C0.0492
; #@! TA.AperFunction,Plated,PTH,ComponentDrill
T8C0.0748
; #@! TA.AperFunction,Plated,PTH,ComponentDrill
T9C0.0984
%
G90
G05
T1
X6.53Y-5.52
X6.55Y-1.55
X6.55Y-1.725
X6.55Y-5.875
X6.575Y-1.4
X6.59Y-5.64
X6.6Y-2.04
X6.605Y-3.935
X6.61Y-2.21
X6.61Y-2.41
X6.61Y-2.995
X6.61Y-3.355
X6.61Y-4.305
X6.61Y-4.895
X6.61Y-5.115
X6.66Y-4.135
X6.72Y-3.145
X6.74Y-5.215
X6.75Y-2.325
X6.755Y-4.015
X6.775Y-4.245
X6.775Y-5.01
X6.8Y-2.1
X6.805Y-5.885
X6.83Y-1.66
X6.835Y-5.33
X6.84Y-4.765
X6.845Y-3.815
X6.845Y-5.53
X6.85Y-2.7
X6.85Y-2.865
X6.85Y-3.65
X6.875Y-3.23
X6.875Y-4.145
X6.89Y-5.675
X6.9Y-1.4
X6.9Y-2.26
X6.9Y-5.19
X6.91Y-3.47
X6.925Y-1.825
X6.935Y-2.45
X6.955Y-3.865
X6.96Y-2.14
X6.965Y-2.625
X6.965Y-3.045
X6.965Y-4.65
X6.98Y-3.68
X6.98Y-4.915
X6.985Y-5.34
X6.985Y-5.47
X6.99Y-2.015
X6.99Y-2.92
X6.99Y-4.0
X6.995Y-2.775
X7.0Y-4.315
X7.005Y-4.435
X7.025Y-1.625
X7.035Y-5.03
X7.04Y-5.885
X7.05Y-1.5
X7.06Y-4.135
X7.075Y-2.38
X7.075Y-3.57
X7.08Y-2.62
X7.08Y-3.36
X7.085Y-4.52
X7.09Y-3.165
X7.155Y-5.81
X7.16Y-4.27
X7.165Y-4.45
X7.175Y-2.2
X7.175Y-4.045
X7.175Y-5.05
X7.185Y-2.5
X7.19Y-2.26
X7.21Y-3.33
X7.21Y-3.56
X7.22Y-1.5
X7.25Y-1.9
X7.25Y-5.695
X7.275Y-3.025
X7.28Y-4.205
X7.29Y-1.62
X7.29Y-3.79
X7.3Y-3.35
X7.3Y-5.2
X7.305Y-5.135
X7.31Y-1.965
X7.31Y-2.16
X7.31Y-3.98
X7.31Y-5.31
X7.315Y-2.56
X7.315Y-4.74
X7.315Y-4.935
X7.325Y-5.885
X7.33Y-4.82
X7.35Y-1.4
X7.35Y-3.53
X7.36Y-4.09
X7.36Y-4.375
X7.375Y-3.2
X7.38Y-5.05
X7.385Y-4.205
X7.395Y-5.2
X7.4Y-2.35
X7.425Y-1.55
X7.43Y-1.76
X7.43Y-3.66
X7.43Y-4.61
X7.43Y-5.56
X7.445Y-4.8
X7.45Y-1.955
X7.45Y-3.85
X7.45Y-4.955
X7.475Y-2.75
X7.475Y-5.12
X7.48Y-2.16
X7.48Y-3.54
X7.48Y-4.405
X7.49Y-5.26
X7.495Y-5.36
X7.515Y-4.305
X7.52Y-4.53
X7.525Y-3.2
X7.54Y-4.01
X7.55Y-1.825
X7.55Y-2.9
X7.555Y-1.95
X7.56Y-3.83
X7.56Y-5.74
X7.57Y-5.53
X7.575Y-4.79
X7.59Y-4.19
X7.59Y-4.955
X7.605Y-3.555
X7.61Y-5.07
X7.61Y-5.42
X7.625Y-1.6
X7.625Y-3.05
X7.64Y-4.425
X7.65Y-1.4
X7.67Y-3.425
X7.675Y-2.52
X7.685Y-2.045
X7.685Y-3.78
X7.69Y-5.885
X7.695Y-4.73
X7.695Y-5.355
X7.7Y-4.06
X7.71Y-5.675
X7.735Y-4.955
X7.75Y-2.95
X7.775Y-1.525
X7.78Y-2.79
X7.78Y-3.91
X7.79Y-4.31
X7.805Y-2.17
X7.815Y-4.605
X7.815Y-5.68
X7.835Y-3.655
X7.845Y-3.8
X7.845Y-5.445
X7.85Y-2.55
X7.85Y-3.125
X7.85Y-3.275
X7.86Y-5.58
X7.88Y-4.695
X7.9Y-5.745
X7.92Y-4.01
X7.935Y-5.885
X7.945Y-2.175
X7.945Y-2.315
X7.955Y-3.26
X7.955Y-3.6
X7.955Y-5.515
X7.97Y-4.61
X7.97Y-5.635
X7.99Y-4.96
X8.0Y-1.675
X8.0Y-1.85
X8.0Y-3.4
X8.0Y-3.82
X8.0Y-4.12
X8.045Y-5.435
X8.05Y-1.4
X8.05Y-2.55
X8.05Y-5.575
X8.05Y-5.675
X8.05Y-5.775
X8.055Y-2.185
X8.055Y-3.14
X8.095Y-5.3
X8.1Y-3.545
X8.1Y-3.755
X8.1Y-4.3
X8.12Y-2.33
X8.13Y-3.42
X8.145Y-4.945
X8.15Y-5.575
X8.15Y-5.675
X8.15Y-5.775
X8.155Y-5.445
X8.195Y-4.645
X8.195Y-5.185
X8.205Y-3.02
X8.215Y-3.19
X8.225Y-3.875
X8.225Y-4.125
X8.23Y-2.215
X8.235Y-4.525
X8.235Y-4.875
X8.245Y-4.75
X8.25Y-1.55
X8.25Y-2.55
X8.25Y-5.465
X8.25Y-5.575
X8.25Y-5.675
X8.25Y-5.775
X8.275Y-2.35
X8.275Y-5.285
X8.29Y-4.65
X8.29Y-5.175
X8.305Y-4.28
X8.315Y-5.39
X8.315Y-5.875
X8.32Y-3.815
X8.325Y-3.2443
X8.33Y-4.005
X8.34Y-4.47
X8.34Y-4.81
X8.345Y-3.625
X8.35Y-2.675
X8.35Y-5.575
X8.35Y-5.675
X8.35Y-5.775
X8.37Y-2.11
X8.37Y-5.5
X8.375Y-2.425
X8.375Y-3.0
X8.39Y-3.5
X8.4Y-1.95
X8.41Y-4.98
X8.425Y-1.4
X8.425Y-1.7
X8.43Y-5.3
X8.45Y-2.725
X8.45Y-5.575
X8.45Y-5.675
X8.455Y-4.755
X8.46Y-4.47
X8.465Y-5.145
X8.5Y-2.895
X8.5Y-3.385
X8.5Y-4.28
X8.5Y-5.825
X8.505Y-3.76
X8.505Y-4.65
X8.515Y-3.225
X8.54Y-3.515
X8.575Y-2.45
X8.58Y-4.81
X8.58Y-5.295
X8.6Y-1.55
X8.61Y-3.865
X8.615Y-5.635
X8.615Y-5.815
X8.62Y-5.45
X8.625Y-2.025
X8.625Y-2.55
X8.625Y-4.98
X8.63Y-5.17
X8.64Y-2.98
X8.64Y-3.175
X8.645Y-4.49
X8.675Y-3.43
X8.685Y-3.965
X8.69Y-5.3
X8.695Y-5.07
X8.7Y-1.95
X8.7Y-2.575
X8.7Y-2.81
X8.7Y-3.545
X8.7Y-3.745
X8.7Y-4.745
X8.73Y-5.745
X8.74Y-5.42
X8.75Y-1.4
X8.75Y-1.85
X8.75Y-5.875
X8.76Y-5.2
T2
X7.05Y-2.125
X7.05Y-3.0608
X7.05Y-3.975
X7.05Y-4.925
X7.05Y-5.4
X7.15Y-2.125
X7.15Y-3.0608
X7.15Y-3.975
X7.15Y-4.925
X7.15Y-5.4
T3
X6.4744Y-2.1242
X6.475Y-1.425
X6.475Y-1.825
X6.475Y-1.9266
X6.475Y-2.025
X6.475Y-3.075
X6.475Y-4.0
X6.475Y-4.925
X6.475Y-5.85
X6.625Y-5.2
X6.725Y-5.1
X6.825Y-5.2
X6.8744Y-2.1242
X6.875Y-3.075
X6.875Y-4.0
X6.875Y-4.925
X6.875Y-5.85
X6.8994Y-1.5492
X6.8994Y-1.9492
X6.9Y-2.575
X6.9Y-2.975
X6.9Y-4.3
X6.9Y-5.353
X6.9Y-5.753
X6.9746Y-5.0998
X6.9746Y-5.1998
X7.0Y-3.35
X7.049Y-3.8
X7.05Y-4.75
X7.05Y-5.7
X7.051Y-2.8742
X7.0516Y-1.925
X7.0746Y-5.0998
X7.0746Y-5.1998
X7.1474Y-3.8
X7.1484Y-4.75
X7.1484Y-5.7
X7.1494Y-2.8742
X7.15Y-1.925
X7.25Y-3.15
X7.25Y-3.25
X7.3Y-4.3
X7.4Y-3.35
X7.45Y-4.05
X7.45Y-4.15
X7.45Y-4.25
X7.55Y-2.1
X7.55Y-2.2
X7.55Y-2.3
X7.55Y-5.025
X7.55Y-5.125
X7.55Y-5.225
X7.5516Y-2.4
X7.552Y-3.35
X7.65Y-2.4
X7.65Y-3.15
X7.65Y-3.25
X7.6504Y-3.35
X7.75Y-2.1
X7.75Y-2.4
X7.75Y-3.05
X7.75Y-3.35
X7.75Y-3.45
X7.775Y-4.7008
X7.775Y-4.7992
X7.775Y-4.875
X7.85Y-1.6
X7.85Y-2.0
X7.85Y-2.1
X7.85Y-2.4
X7.85Y-2.65
X7.85Y-2.95
X7.85Y-3.05
X7.85Y-3.35
X7.85Y-3.55
X7.85Y-3.95
X7.85Y-4.05
X7.85Y-4.15
X7.85Y-4.25
X7.8754Y-4.4754
X7.8754Y-4.7754
X7.95Y-1.6
X7.95Y-2.0
X7.95Y-2.1
X7.95Y-2.4
X7.95Y-2.55
X7.95Y-2.95
X7.95Y-3.05
X7.95Y-3.35
X7.95Y-5.025
X7.95Y-5.125
X7.95Y-5.225
X7.9754Y-4.4754
X7.9754Y-4.7754
X8.0413Y-5.025
X8.0413Y-5.125
X8.05Y-2.1
X8.05Y-2.4
X8.05Y-2.65
X8.05Y-2.95
X8.05Y-3.05
X8.05Y-3.35
X8.05Y-3.45
X8.0508Y-4.375
X8.0754Y-4.4754
X8.0754Y-4.7754
X8.1Y-5.375
X8.1413Y-5.025
X8.1413Y-5.125
X8.1492Y-4.375
X8.1496Y-2.1
X8.1496Y-2.1984
X8.15Y-3.1508
X8.15Y-3.2492
X8.15Y-3.35
X8.175Y-4.875
X8.1754Y-4.4754
X8.1754Y-4.7754
X8.1984Y-5.375
X8.225Y-2.125
X8.2413Y-5.025
X8.2413Y-5.125
X8.2484Y-3.35
X8.35Y-4.925
X8.35Y-5.025
X8.35Y-5.125
X8.4016Y-5.375
X8.45Y-3.325
X8.5Y-5.375
X8.55Y-3.325
X8.625Y-2.125
X8.65Y-3.325
X8.65Y-4.4
X8.65Y-4.8
X8.75Y-4.925
X8.75Y-5.025
X8.75Y-5.125
T4
X7.0494Y-2.6992
X7.0494Y-3.6492
X7.0494Y-4.5992
X7.0494Y-5.5492
X7.05Y-1.7492
X7.1494Y-2.6992
X7.1494Y-3.6492
X7.1494Y-4.5992
X7.1494Y-5.5492
X7.15Y-1.7492
X8.35Y-3.175
X8.45Y-3.175
T5
X7.401Y-2.0248
X7.401Y-2.9748
X7.401Y-3.9248
X7.401Y-4.8748
X7.401Y-5.8248
X7.4994Y-2.0248
X7.4994Y-2.9748
X7.4994Y-3.9248
X7.4994Y-4.8748
X7.4994Y-5.8248
X7.5978Y-2.0248
X7.5978Y-2.9748
X7.5978Y-3.9248
X7.5978Y-4.8748
X7.5978Y-5.8248
X8.1Y-5.625
X8.1Y-5.725
X8.2Y-5.625
X8.2Y-5.725
X8.2524Y-3.0937
X8.2524Y-4.0437
X8.3Y-5.625
X8.3Y-5.725
X8.3016Y-2.0256
X8.4Y-2.0256
X8.4Y-3.0937
X8.4Y-4.0437
X8.4Y-5.625
X8.4Y-5.725
X8.4984Y-2.0256
X8.5Y-5.625
X8.5Y-5.725
X8.5476Y-3.0937
X8.5476Y-4.0437
T6
X8.075Y-4.2008
X8.175Y-4.2008
X8.5Y-2.25
X8.5Y-2.35
X8.65Y-4.175
X8.65Y-4.275
T7
G00X6.665Y-1.5622
M15
G01X6.7339Y-1.5622
M16
G05
G00X6.665Y-1.7492
M15
G01X6.7339Y-1.7492
M16
G05
G00X6.665Y-1.9362
M15
G01X6.7339Y-1.9362
M16
G05
G00X6.665Y-2.5122
M15
G01X6.7339Y-2.5122
M16
G05
G00X6.665Y-2.6992
M15
G01X6.7339Y-2.6992
M16
G05
G00X6.665Y-2.8862
M15
G01X6.7339Y-2.8862
M16
G05
G00X6.665Y-3.4622
M15
G01X6.7339Y-3.4622
M16
G05
G00X6.665Y-3.6492
M15
G01X6.7339Y-3.6492
M16
G05
G00X6.665Y-3.8362
M15
G01X6.7339Y-3.8362
M16
G05
G00X6.665Y-4.4122
M15
G01X6.7339Y-4.4122
M16
G05
G00X6.665Y-4.5992
M15
G01X6.7339Y-4.5992
M16
G05
G00X6.665Y-4.7862
M15
G01X6.7339Y-4.7862
M16
G05
G00X6.665Y-5.3622
M15
G01X6.7339Y-5.3622
M16
G05
G00X6.665Y-5.5492
M15
G01X6.7339Y-5.5492
M16
G05
G00X6.665Y-5.7362
M15
G01X6.7339Y-5.7362
M16
G05
G00X8.365Y-4.188
M15
G01X8.4339Y-4.188
M16
G05
G00X8.365Y-4.375
M15
G01X8.4339Y-4.375
M16
G05
G00X8.365Y-4.562
M15
G01X8.4339Y-4.562
M16
G05
T8
G00X7.3085Y-1.7413
M15
G01X7.3085Y-1.7571
M16
G05
G00X7.3085Y-2.6913
M15
G01X7.3085Y-2.7071
M16
G05
G00X7.3085Y-3.6413
M15
G01X7.3085Y-3.6571
M16
G05
G00X7.3085Y-4.5913
M15
G01X7.3085Y-4.6071
M16
G05
G00X7.3085Y-5.5413
M15
G01X7.3085Y-5.5571
M16
G05
G00X7.6904Y-1.7413
M15
G01X7.6904Y-1.7571
M16
G05
G00X7.6904Y-2.6913
M15
G01X7.6904Y-2.7071
M16
G05
G00X7.6904Y-3.6413
M15
G01X7.6904Y-3.6571
M16
G05
G00X7.6904Y-4.5913
M15
G01X7.6904Y-4.6071
M16
G05
G00X7.6904Y-5.5413
M15
G01X7.6904Y-5.5571
M16
G05
G00X8.2091Y-1.7421
M15
G01X8.2091Y-1.7579
M16
G05
G00X8.5909Y-1.7421
M15
G01X8.5909Y-1.7579
M16
G05
T9
G00X8.2012Y-2.6961
M15
G01X8.2012Y-2.7039
M16
G05
G00X8.2012Y-3.6461
M15
G01X8.2012Y-3.6539
M16
G05
G00X8.5988Y-2.6961
M15
G01X8.5988Y-2.7039
M16
G05
G00X8.5988Y-3.6461
M15
G01X8.5988Y-3.6539
M16
G05
T0
M30
