G04 #@! TF.GenerationSoftware,KiCad,Pcbnew,(6.0.5)*
G04 #@! TF.CreationDate,2022-05-27T13:29:34-04:00*
G04 #@! TF.ProjectId,minidrone,6d696e69-6472-46f6-9e65-2e6b69636164,rev?*
G04 #@! TF.SameCoordinates,Original*
G04 #@! TF.FileFunction,Legend,Top*
G04 #@! TF.FilePolarity,Positive*
%FSLAX46Y46*%
G04 Gerber Fmt 4.6, Leading zero omitted, Abs format (unit mm)*
G04 Created by KiCad (PCBNEW (6.0.5)) date 2022-05-27 13:29:34*
%MOMM*%
%LPD*%
G01*
G04 APERTURE LIST*
%ADD10C,0.150000*%
%ADD11C,0.120000*%
G04 APERTURE END LIST*
D10*
X221702380Y-145589047D02*
X222416666Y-145589047D01*
X222559523Y-145636666D01*
X222654761Y-145731904D01*
X222702380Y-145874761D01*
X222702380Y-145970000D01*
X222702380Y-144636666D02*
X222702380Y-145112857D01*
X221702380Y-145112857D01*
X222607142Y-143731904D02*
X222654761Y-143779523D01*
X222702380Y-143922380D01*
X222702380Y-144017619D01*
X222654761Y-144160476D01*
X222559523Y-144255714D01*
X222464285Y-144303333D01*
X222273809Y-144350952D01*
X222130952Y-144350952D01*
X221940476Y-144303333D01*
X221845238Y-144255714D01*
X221750000Y-144160476D01*
X221702380Y-144017619D01*
X221702380Y-143922380D01*
X221750000Y-143779523D01*
X221797619Y-143731904D01*
X221702380Y-143017619D02*
X222416666Y-143017619D01*
X222559523Y-143065238D01*
X222654761Y-143160476D01*
X222702380Y-143303333D01*
X222702380Y-143398571D01*
X222702380Y-142065238D02*
X222702380Y-142541428D01*
X221702380Y-142541428D01*
X222607142Y-141160476D02*
X222654761Y-141208095D01*
X222702380Y-141350952D01*
X222702380Y-141446190D01*
X222654761Y-141589047D01*
X222559523Y-141684285D01*
X222464285Y-141731904D01*
X222273809Y-141779523D01*
X222130952Y-141779523D01*
X221940476Y-141731904D01*
X221845238Y-141684285D01*
X221750000Y-141589047D01*
X221702380Y-141446190D01*
X221702380Y-141350952D01*
X221750000Y-141208095D01*
X221797619Y-141160476D01*
X221702380Y-140446190D02*
X222416666Y-140446190D01*
X222559523Y-140493809D01*
X222654761Y-140589047D01*
X222702380Y-140731904D01*
X222702380Y-140827142D01*
X222702380Y-139493809D02*
X222702380Y-139970000D01*
X221702380Y-139970000D01*
X222607142Y-138589047D02*
X222654761Y-138636666D01*
X222702380Y-138779523D01*
X222702380Y-138874761D01*
X222654761Y-139017619D01*
X222559523Y-139112857D01*
X222464285Y-139160476D01*
X222273809Y-139208095D01*
X222130952Y-139208095D01*
X221940476Y-139160476D01*
X221845238Y-139112857D01*
X221750000Y-139017619D01*
X221702380Y-138874761D01*
X221702380Y-138779523D01*
X221750000Y-138636666D01*
X221797619Y-138589047D01*
X221702380Y-137874761D02*
X222416666Y-137874761D01*
X222559523Y-137922380D01*
X222654761Y-138017619D01*
X222702380Y-138160476D01*
X222702380Y-138255714D01*
X222702380Y-136922380D02*
X222702380Y-137398571D01*
X221702380Y-137398571D01*
X222607142Y-136017619D02*
X222654761Y-136065238D01*
X222702380Y-136208095D01*
X222702380Y-136303333D01*
X222654761Y-136446190D01*
X222559523Y-136541428D01*
X222464285Y-136589047D01*
X222273809Y-136636666D01*
X222130952Y-136636666D01*
X221940476Y-136589047D01*
X221845238Y-136541428D01*
X221750000Y-136446190D01*
X221702380Y-136303333D01*
X221702380Y-136208095D01*
X221750000Y-136065238D01*
X221797619Y-136017619D01*
X190539761Y-126182380D02*
X190206428Y-125706190D01*
X189968333Y-126182380D02*
X189968333Y-125182380D01*
X190349285Y-125182380D01*
X190444523Y-125230000D01*
X190492142Y-125277619D01*
X190539761Y-125372857D01*
X190539761Y-125515714D01*
X190492142Y-125610952D01*
X190444523Y-125658571D01*
X190349285Y-125706190D01*
X189968333Y-125706190D01*
X190825476Y-125182380D02*
X191158809Y-126182380D01*
X191492142Y-125182380D01*
X192254047Y-125515714D02*
X192254047Y-126182380D01*
X192015952Y-125134761D02*
X191777857Y-125849047D01*
X192396904Y-125849047D01*
X219749761Y-88717380D02*
X219416428Y-88241190D01*
X219178333Y-88717380D02*
X219178333Y-87717380D01*
X219559285Y-87717380D01*
X219654523Y-87765000D01*
X219702142Y-87812619D01*
X219749761Y-87907857D01*
X219749761Y-88050714D01*
X219702142Y-88145952D01*
X219654523Y-88193571D01*
X219559285Y-88241190D01*
X219178333Y-88241190D01*
X220035476Y-87717380D02*
X220368809Y-88717380D01*
X220702142Y-87717380D01*
X221178333Y-88145952D02*
X221083095Y-88098333D01*
X221035476Y-88050714D01*
X220987857Y-87955476D01*
X220987857Y-87907857D01*
X221035476Y-87812619D01*
X221083095Y-87765000D01*
X221178333Y-87717380D01*
X221368809Y-87717380D01*
X221464047Y-87765000D01*
X221511666Y-87812619D01*
X221559285Y-87907857D01*
X221559285Y-87955476D01*
X221511666Y-88050714D01*
X221464047Y-88098333D01*
X221368809Y-88145952D01*
X221178333Y-88145952D01*
X221083095Y-88193571D01*
X221035476Y-88241190D01*
X220987857Y-88336428D01*
X220987857Y-88526904D01*
X221035476Y-88622142D01*
X221083095Y-88669761D01*
X221178333Y-88717380D01*
X221368809Y-88717380D01*
X221464047Y-88669761D01*
X221511666Y-88622142D01*
X221559285Y-88526904D01*
X221559285Y-88336428D01*
X221511666Y-88241190D01*
X221464047Y-88193571D01*
X221368809Y-88145952D01*
X217352857Y-86812380D02*
X217019523Y-86336190D01*
X216781428Y-86812380D02*
X216781428Y-85812380D01*
X217162380Y-85812380D01*
X217257619Y-85860000D01*
X217305238Y-85907619D01*
X217352857Y-86002857D01*
X217352857Y-86145714D01*
X217305238Y-86240952D01*
X217257619Y-86288571D01*
X217162380Y-86336190D01*
X216781428Y-86336190D01*
X217781428Y-86288571D02*
X218114761Y-86288571D01*
X218257619Y-86812380D02*
X217781428Y-86812380D01*
X217781428Y-85812380D01*
X218257619Y-85812380D01*
X219162380Y-86812380D02*
X218686190Y-86812380D01*
X218686190Y-85812380D01*
X219495714Y-86288571D02*
X219829047Y-86288571D01*
X219971904Y-86812380D02*
X219495714Y-86812380D01*
X219495714Y-85812380D01*
X219971904Y-85812380D01*
X220352857Y-86526666D02*
X220829047Y-86526666D01*
X220257619Y-86812380D02*
X220590952Y-85812380D01*
X220924285Y-86812380D01*
X221210000Y-86764761D02*
X221352857Y-86812380D01*
X221590952Y-86812380D01*
X221686190Y-86764761D01*
X221733809Y-86717142D01*
X221781428Y-86621904D01*
X221781428Y-86526666D01*
X221733809Y-86431428D01*
X221686190Y-86383809D01*
X221590952Y-86336190D01*
X221400476Y-86288571D01*
X221305238Y-86240952D01*
X221257619Y-86193333D01*
X221210000Y-86098095D01*
X221210000Y-86002857D01*
X221257619Y-85907619D01*
X221305238Y-85860000D01*
X221400476Y-85812380D01*
X221638571Y-85812380D01*
X221781428Y-85860000D01*
X222210000Y-86288571D02*
X222543333Y-86288571D01*
X222686190Y-86812380D02*
X222210000Y-86812380D01*
X222210000Y-85812380D01*
X222686190Y-85812380D01*
X189889761Y-37882380D02*
X189556428Y-37406190D01*
X189318333Y-37882380D02*
X189318333Y-36882380D01*
X189699285Y-36882380D01*
X189794523Y-36930000D01*
X189842142Y-36977619D01*
X189889761Y-37072857D01*
X189889761Y-37215714D01*
X189842142Y-37310952D01*
X189794523Y-37358571D01*
X189699285Y-37406190D01*
X189318333Y-37406190D01*
X190175476Y-36882380D02*
X190508809Y-37882380D01*
X190842142Y-36882380D01*
X191699285Y-37882380D02*
X191127857Y-37882380D01*
X191413571Y-37882380D02*
X191413571Y-36882380D01*
X191318333Y-37025238D01*
X191223095Y-37120476D01*
X191127857Y-37168095D01*
X209446904Y-83637380D02*
X209446904Y-82637380D01*
X209685000Y-82637380D01*
X209827857Y-82685000D01*
X209923095Y-82780238D01*
X209970714Y-82875476D01*
X210018333Y-83065952D01*
X210018333Y-83208809D01*
X209970714Y-83399285D01*
X209923095Y-83494523D01*
X209827857Y-83589761D01*
X209685000Y-83637380D01*
X209446904Y-83637380D01*
X210494523Y-83637380D02*
X210685000Y-83637380D01*
X210780238Y-83589761D01*
X210827857Y-83542142D01*
X210923095Y-83399285D01*
X210970714Y-83208809D01*
X210970714Y-82827857D01*
X210923095Y-82732619D01*
X210875476Y-82685000D01*
X210780238Y-82637380D01*
X210589761Y-82637380D01*
X210494523Y-82685000D01*
X210446904Y-82732619D01*
X210399285Y-82827857D01*
X210399285Y-83065952D01*
X210446904Y-83161190D01*
X210494523Y-83208809D01*
X210589761Y-83256428D01*
X210780238Y-83256428D01*
X210875476Y-83208809D01*
X210923095Y-83161190D01*
X210970714Y-83065952D01*
X179586904Y-65222380D02*
X179586904Y-64222380D01*
X179825000Y-64222380D01*
X179967857Y-64270000D01*
X180063095Y-64365238D01*
X180110714Y-64460476D01*
X180158333Y-64650952D01*
X180158333Y-64793809D01*
X180110714Y-64984285D01*
X180063095Y-65079523D01*
X179967857Y-65174761D01*
X179825000Y-65222380D01*
X179586904Y-65222380D01*
X180539285Y-64317619D02*
X180586904Y-64270000D01*
X180682142Y-64222380D01*
X180920238Y-64222380D01*
X181015476Y-64270000D01*
X181063095Y-64317619D01*
X181110714Y-64412857D01*
X181110714Y-64508095D01*
X181063095Y-64650952D01*
X180491666Y-65222380D01*
X181110714Y-65222380D01*
X168831666Y-37234761D02*
X168974523Y-37282380D01*
X169212619Y-37282380D01*
X169307857Y-37234761D01*
X169355476Y-37187142D01*
X169403095Y-37091904D01*
X169403095Y-36996666D01*
X169355476Y-36901428D01*
X169307857Y-36853809D01*
X169212619Y-36806190D01*
X169022142Y-36758571D01*
X168926904Y-36710952D01*
X168879285Y-36663333D01*
X168831666Y-36568095D01*
X168831666Y-36472857D01*
X168879285Y-36377619D01*
X168926904Y-36330000D01*
X169022142Y-36282380D01*
X169260238Y-36282380D01*
X169403095Y-36330000D01*
X169736428Y-36282380D02*
X169974523Y-37282380D01*
X170165000Y-36568095D01*
X170355476Y-37282380D01*
X170593571Y-36282380D01*
X171498333Y-37282380D02*
X170926904Y-37282380D01*
X171212619Y-37282380D02*
X171212619Y-36282380D01*
X171117380Y-36425238D01*
X171022142Y-36520476D01*
X170926904Y-36568095D01*
X212026666Y-119149761D02*
X212169523Y-119197380D01*
X212407619Y-119197380D01*
X212502857Y-119149761D01*
X212550476Y-119102142D01*
X212598095Y-119006904D01*
X212598095Y-118911666D01*
X212550476Y-118816428D01*
X212502857Y-118768809D01*
X212407619Y-118721190D01*
X212217142Y-118673571D01*
X212121904Y-118625952D01*
X212074285Y-118578333D01*
X212026666Y-118483095D01*
X212026666Y-118387857D01*
X212074285Y-118292619D01*
X212121904Y-118245000D01*
X212217142Y-118197380D01*
X212455238Y-118197380D01*
X212598095Y-118245000D01*
X212931428Y-118197380D02*
X213169523Y-119197380D01*
X213360000Y-118483095D01*
X213550476Y-119197380D01*
X213788571Y-118197380D01*
X214598095Y-118197380D02*
X214407619Y-118197380D01*
X214312380Y-118245000D01*
X214264761Y-118292619D01*
X214169523Y-118435476D01*
X214121904Y-118625952D01*
X214121904Y-119006904D01*
X214169523Y-119102142D01*
X214217142Y-119149761D01*
X214312380Y-119197380D01*
X214502857Y-119197380D01*
X214598095Y-119149761D01*
X214645714Y-119102142D01*
X214693333Y-119006904D01*
X214693333Y-118768809D01*
X214645714Y-118673571D01*
X214598095Y-118625952D01*
X214502857Y-118578333D01*
X214312380Y-118578333D01*
X214217142Y-118625952D01*
X214169523Y-118673571D01*
X214121904Y-118768809D01*
X206414761Y-63952380D02*
X206081428Y-63476190D01*
X205843333Y-63952380D02*
X205843333Y-62952380D01*
X206224285Y-62952380D01*
X206319523Y-63000000D01*
X206367142Y-63047619D01*
X206414761Y-63142857D01*
X206414761Y-63285714D01*
X206367142Y-63380952D01*
X206319523Y-63428571D01*
X206224285Y-63476190D01*
X205843333Y-63476190D01*
X206700476Y-62952380D02*
X207033809Y-63952380D01*
X207367142Y-62952380D01*
X207605238Y-62952380D02*
X208271904Y-62952380D01*
X207843333Y-63952380D01*
X205851428Y-61761666D02*
X206327619Y-61761666D01*
X205756190Y-62047380D02*
X206089523Y-61047380D01*
X206422857Y-62047380D01*
X206613333Y-61047380D02*
X207184761Y-61047380D01*
X206899047Y-62047380D02*
X206899047Y-61047380D01*
X207375238Y-61047380D02*
X207946666Y-61047380D01*
X207660952Y-62047380D02*
X207660952Y-61047380D01*
X208232380Y-61761666D02*
X208708571Y-61761666D01*
X208137142Y-62047380D02*
X208470476Y-61047380D01*
X208803809Y-62047380D01*
X209708571Y-61952142D02*
X209660952Y-61999761D01*
X209518095Y-62047380D01*
X209422857Y-62047380D01*
X209280000Y-61999761D01*
X209184761Y-61904523D01*
X209137142Y-61809285D01*
X209089523Y-61618809D01*
X209089523Y-61475952D01*
X209137142Y-61285476D01*
X209184761Y-61190238D01*
X209280000Y-61095000D01*
X209422857Y-61047380D01*
X209518095Y-61047380D01*
X209660952Y-61095000D01*
X209708571Y-61142619D01*
X210137142Y-62047380D02*
X210137142Y-61047380D01*
X210708571Y-62047380D02*
X210280000Y-61475952D01*
X210708571Y-61047380D02*
X210137142Y-61618809D01*
X193079761Y-102052380D02*
X192746428Y-101576190D01*
X192508333Y-102052380D02*
X192508333Y-101052380D01*
X192889285Y-101052380D01*
X192984523Y-101100000D01*
X193032142Y-101147619D01*
X193079761Y-101242857D01*
X193079761Y-101385714D01*
X193032142Y-101480952D01*
X192984523Y-101528571D01*
X192889285Y-101576190D01*
X192508333Y-101576190D01*
X193365476Y-101052380D02*
X193698809Y-102052380D01*
X194032142Y-101052380D01*
X194270238Y-101052380D02*
X194889285Y-101052380D01*
X194555952Y-101433333D01*
X194698809Y-101433333D01*
X194794047Y-101480952D01*
X194841666Y-101528571D01*
X194889285Y-101623809D01*
X194889285Y-101861904D01*
X194841666Y-101957142D01*
X194794047Y-102004761D01*
X194698809Y-102052380D01*
X194413095Y-102052380D01*
X194317857Y-102004761D01*
X194270238Y-101957142D01*
X168831666Y-85094761D02*
X168974523Y-85142380D01*
X169212619Y-85142380D01*
X169307857Y-85094761D01*
X169355476Y-85047142D01*
X169403095Y-84951904D01*
X169403095Y-84856666D01*
X169355476Y-84761428D01*
X169307857Y-84713809D01*
X169212619Y-84666190D01*
X169022142Y-84618571D01*
X168926904Y-84570952D01*
X168879285Y-84523333D01*
X168831666Y-84428095D01*
X168831666Y-84332857D01*
X168879285Y-84237619D01*
X168926904Y-84190000D01*
X169022142Y-84142380D01*
X169260238Y-84142380D01*
X169403095Y-84190000D01*
X169736428Y-84142380D02*
X169974523Y-85142380D01*
X170165000Y-84428095D01*
X170355476Y-85142380D01*
X170593571Y-84142380D01*
X170879285Y-84142380D02*
X171498333Y-84142380D01*
X171165000Y-84523333D01*
X171307857Y-84523333D01*
X171403095Y-84570952D01*
X171450714Y-84618571D01*
X171498333Y-84713809D01*
X171498333Y-84951904D01*
X171450714Y-85047142D01*
X171403095Y-85094761D01*
X171307857Y-85142380D01*
X171022142Y-85142380D01*
X170926904Y-85094761D01*
X170879285Y-85047142D01*
X210224761Y-37917380D02*
X209891428Y-37441190D01*
X209653333Y-37917380D02*
X209653333Y-36917380D01*
X210034285Y-36917380D01*
X210129523Y-36965000D01*
X210177142Y-37012619D01*
X210224761Y-37107857D01*
X210224761Y-37250714D01*
X210177142Y-37345952D01*
X210129523Y-37393571D01*
X210034285Y-37441190D01*
X209653333Y-37441190D01*
X210510476Y-36917380D02*
X210843809Y-37917380D01*
X211177142Y-36917380D01*
X211939047Y-36917380D02*
X211748571Y-36917380D01*
X211653333Y-36965000D01*
X211605714Y-37012619D01*
X211510476Y-37155476D01*
X211462857Y-37345952D01*
X211462857Y-37726904D01*
X211510476Y-37822142D01*
X211558095Y-37869761D01*
X211653333Y-37917380D01*
X211843809Y-37917380D01*
X211939047Y-37869761D01*
X211986666Y-37822142D01*
X212034285Y-37726904D01*
X212034285Y-37488809D01*
X211986666Y-37393571D01*
X211939047Y-37345952D01*
X211843809Y-37298333D01*
X211653333Y-37298333D01*
X211558095Y-37345952D01*
X211510476Y-37393571D01*
X211462857Y-37488809D01*
X213414344Y-36917380D02*
X213985773Y-36917380D01*
X213700059Y-37917380D02*
X213700059Y-36917380D01*
X214319106Y-36917380D02*
X214319106Y-37726904D01*
X214366725Y-37822142D01*
X214414344Y-37869761D01*
X214509582Y-37917380D01*
X214700059Y-37917380D01*
X214795297Y-37869761D01*
X214842916Y-37822142D01*
X214890535Y-37726904D01*
X214890535Y-36917380D01*
X215366725Y-37917380D02*
X215366725Y-36917380D01*
X215938154Y-37917380D01*
X215938154Y-36917380D01*
X216414344Y-37393571D02*
X216747678Y-37393571D01*
X216890535Y-37917380D02*
X216414344Y-37917380D01*
X216414344Y-36917380D01*
X216890535Y-36917380D01*
X188634761Y-62012380D02*
X188301428Y-61536190D01*
X188063333Y-62012380D02*
X188063333Y-61012380D01*
X188444285Y-61012380D01*
X188539523Y-61060000D01*
X188587142Y-61107619D01*
X188634761Y-61202857D01*
X188634761Y-61345714D01*
X188587142Y-61440952D01*
X188539523Y-61488571D01*
X188444285Y-61536190D01*
X188063333Y-61536190D01*
X188920476Y-61012380D02*
X189253809Y-62012380D01*
X189587142Y-61012380D01*
X189872857Y-61107619D02*
X189920476Y-61060000D01*
X190015714Y-61012380D01*
X190253809Y-61012380D01*
X190349047Y-61060000D01*
X190396666Y-61107619D01*
X190444285Y-61202857D01*
X190444285Y-61298095D01*
X190396666Y-61440952D01*
X189825238Y-62012380D01*
X190444285Y-62012380D01*
X175156904Y-141401918D02*
X175156904Y-140401918D01*
X175395000Y-140401918D01*
X175537857Y-140449538D01*
X175633095Y-140544776D01*
X175680714Y-140640014D01*
X175728333Y-140830490D01*
X175728333Y-140973347D01*
X175680714Y-141163823D01*
X175633095Y-141259061D01*
X175537857Y-141354299D01*
X175395000Y-141401918D01*
X175156904Y-141401918D01*
X176633095Y-140401918D02*
X176156904Y-140401918D01*
X176109285Y-140878109D01*
X176156904Y-140830490D01*
X176252142Y-140782871D01*
X176490238Y-140782871D01*
X176585476Y-140830490D01*
X176633095Y-140878109D01*
X176680714Y-140973347D01*
X176680714Y-141211442D01*
X176633095Y-141306680D01*
X176585476Y-141354299D01*
X176490238Y-141401918D01*
X176252142Y-141401918D01*
X176156904Y-141354299D01*
X176109285Y-141306680D01*
X179586904Y-113482380D02*
X179586904Y-112482380D01*
X179825000Y-112482380D01*
X179967857Y-112530000D01*
X180063095Y-112625238D01*
X180110714Y-112720476D01*
X180158333Y-112910952D01*
X180158333Y-113053809D01*
X180110714Y-113244285D01*
X180063095Y-113339523D01*
X179967857Y-113434761D01*
X179825000Y-113482380D01*
X179586904Y-113482380D01*
X181015476Y-112815714D02*
X181015476Y-113482380D01*
X180777380Y-112434761D02*
X180539285Y-113149047D01*
X181158333Y-113149047D01*
X168821666Y-61364761D02*
X168964523Y-61412380D01*
X169202619Y-61412380D01*
X169297857Y-61364761D01*
X169345476Y-61317142D01*
X169393095Y-61221904D01*
X169393095Y-61126666D01*
X169345476Y-61031428D01*
X169297857Y-60983809D01*
X169202619Y-60936190D01*
X169012142Y-60888571D01*
X168916904Y-60840952D01*
X168869285Y-60793333D01*
X168821666Y-60698095D01*
X168821666Y-60602857D01*
X168869285Y-60507619D01*
X168916904Y-60460000D01*
X169012142Y-60412380D01*
X169250238Y-60412380D01*
X169393095Y-60460000D01*
X169726428Y-60412380D02*
X169964523Y-61412380D01*
X170155000Y-60698095D01*
X170345476Y-61412380D01*
X170583571Y-60412380D01*
X170916904Y-60507619D02*
X170964523Y-60460000D01*
X171059761Y-60412380D01*
X171297857Y-60412380D01*
X171393095Y-60460000D01*
X171440714Y-60507619D01*
X171488333Y-60602857D01*
X171488333Y-60698095D01*
X171440714Y-60840952D01*
X170869285Y-61412380D01*
X171488333Y-61412380D01*
X168846666Y-109624761D02*
X168989523Y-109672380D01*
X169227619Y-109672380D01*
X169322857Y-109624761D01*
X169370476Y-109577142D01*
X169418095Y-109481904D01*
X169418095Y-109386666D01*
X169370476Y-109291428D01*
X169322857Y-109243809D01*
X169227619Y-109196190D01*
X169037142Y-109148571D01*
X168941904Y-109100952D01*
X168894285Y-109053333D01*
X168846666Y-108958095D01*
X168846666Y-108862857D01*
X168894285Y-108767619D01*
X168941904Y-108720000D01*
X169037142Y-108672380D01*
X169275238Y-108672380D01*
X169418095Y-108720000D01*
X169751428Y-108672380D02*
X169989523Y-109672380D01*
X170180000Y-108958095D01*
X170370476Y-109672380D01*
X170608571Y-108672380D01*
X171418095Y-109005714D02*
X171418095Y-109672380D01*
X171180000Y-108624761D02*
X170941904Y-109339047D01*
X171560952Y-109339047D01*
X179601904Y-41072380D02*
X179601904Y-40072380D01*
X179840000Y-40072380D01*
X179982857Y-40120000D01*
X180078095Y-40215238D01*
X180125714Y-40310476D01*
X180173333Y-40500952D01*
X180173333Y-40643809D01*
X180125714Y-40834285D01*
X180078095Y-40929523D01*
X179982857Y-41024761D01*
X179840000Y-41072380D01*
X179601904Y-41072380D01*
X181125714Y-41072380D02*
X180554285Y-41072380D01*
X180840000Y-41072380D02*
X180840000Y-40072380D01*
X180744761Y-40215238D01*
X180649523Y-40310476D01*
X180554285Y-40358095D01*
X168846666Y-133754761D02*
X168989523Y-133802380D01*
X169227619Y-133802380D01*
X169322857Y-133754761D01*
X169370476Y-133707142D01*
X169418095Y-133611904D01*
X169418095Y-133516666D01*
X169370476Y-133421428D01*
X169322857Y-133373809D01*
X169227619Y-133326190D01*
X169037142Y-133278571D01*
X168941904Y-133230952D01*
X168894285Y-133183333D01*
X168846666Y-133088095D01*
X168846666Y-132992857D01*
X168894285Y-132897619D01*
X168941904Y-132850000D01*
X169037142Y-132802380D01*
X169275238Y-132802380D01*
X169418095Y-132850000D01*
X169751428Y-132802380D02*
X169989523Y-133802380D01*
X170180000Y-133088095D01*
X170370476Y-133802380D01*
X170608571Y-132802380D01*
X171465714Y-132802380D02*
X170989523Y-132802380D01*
X170941904Y-133278571D01*
X170989523Y-133230952D01*
X171084761Y-133183333D01*
X171322857Y-133183333D01*
X171418095Y-133230952D01*
X171465714Y-133278571D01*
X171513333Y-133373809D01*
X171513333Y-133611904D01*
X171465714Y-133707142D01*
X171418095Y-133754761D01*
X171322857Y-133802380D01*
X171084761Y-133802380D01*
X170989523Y-133754761D01*
X170941904Y-133707142D01*
X187999761Y-134402380D02*
X187666428Y-133926190D01*
X187428333Y-134402380D02*
X187428333Y-133402380D01*
X187809285Y-133402380D01*
X187904523Y-133450000D01*
X187952142Y-133497619D01*
X187999761Y-133592857D01*
X187999761Y-133735714D01*
X187952142Y-133830952D01*
X187904523Y-133878571D01*
X187809285Y-133926190D01*
X187428333Y-133926190D01*
X188285476Y-133402380D02*
X188618809Y-134402380D01*
X188952142Y-133402380D01*
X189761666Y-133402380D02*
X189285476Y-133402380D01*
X189237857Y-133878571D01*
X189285476Y-133830952D01*
X189380714Y-133783333D01*
X189618809Y-133783333D01*
X189714047Y-133830952D01*
X189761666Y-133878571D01*
X189809285Y-133973809D01*
X189809285Y-134211904D01*
X189761666Y-134307142D01*
X189714047Y-134354761D01*
X189618809Y-134402380D01*
X189380714Y-134402380D01*
X189285476Y-134354761D01*
X189237857Y-134307142D01*
X179586904Y-89352380D02*
X179586904Y-88352380D01*
X179825000Y-88352380D01*
X179967857Y-88400000D01*
X180063095Y-88495238D01*
X180110714Y-88590476D01*
X180158333Y-88780952D01*
X180158333Y-88923809D01*
X180110714Y-89114285D01*
X180063095Y-89209523D01*
X179967857Y-89304761D01*
X179825000Y-89352380D01*
X179586904Y-89352380D01*
X180491666Y-88352380D02*
X181110714Y-88352380D01*
X180777380Y-88733333D01*
X180920238Y-88733333D01*
X181015476Y-88780952D01*
X181063095Y-88828571D01*
X181110714Y-88923809D01*
X181110714Y-89161904D01*
X181063095Y-89257142D01*
X181015476Y-89304761D01*
X180920238Y-89352380D01*
X180634523Y-89352380D01*
X180539285Y-89304761D01*
X180491666Y-89257142D01*
X204771666Y-102032380D02*
X204771666Y-102746666D01*
X204724047Y-102889523D01*
X204628809Y-102984761D01*
X204485952Y-103032380D01*
X204390714Y-103032380D01*
X205676428Y-102365714D02*
X205676428Y-103032380D01*
X205438333Y-101984761D02*
X205200238Y-102699047D01*
X205819285Y-102699047D01*
D11*
X185235000Y-119320000D02*
X185235000Y-123070000D01*
X185235000Y-123070000D02*
X186985000Y-123070000D01*
X191485000Y-123070000D02*
X191985000Y-123070000D01*
X193985000Y-123070000D02*
X195735000Y-123070000D01*
X195735000Y-123070000D02*
X195735000Y-119320000D01*
X188985000Y-123070000D02*
X189485000Y-123070000D01*
X185235000Y-110570000D02*
X185235000Y-114320000D01*
X195735000Y-110570000D02*
X195735000Y-114320000D01*
X195735000Y-110570000D02*
X185235000Y-110570000D01*
X193615495Y-115254752D02*
G75*
G03*
X190485000Y-113320000I-3130495J-1565248D01*
G01*
X187354505Y-118385248D02*
G75*
G03*
X190485000Y-120320000I3130494J1565247D01*
G01*
X190485000Y-120320054D02*
G75*
G03*
X193533051Y-118540398I0J3500055D01*
G01*
X190485000Y-113319945D02*
G75*
G03*
X187436949Y-115099602I0J-3500055D01*
G01*
X210860000Y-102710000D02*
X212110000Y-102710000D01*
X219860000Y-102710000D02*
X219860000Y-95210000D01*
X206860000Y-102710000D02*
X208360000Y-102710000D01*
X214610000Y-102710000D02*
X215860000Y-102710000D01*
X218360000Y-102710000D02*
X219860000Y-102710000D01*
X206860000Y-95210000D02*
X206860000Y-102710000D01*
X219360000Y-89960000D02*
G75*
G03*
X207360000Y-89960000I-6000000J-2812529D01*
G01*
X193985000Y-50680000D02*
X195735000Y-50680000D01*
X188985000Y-50680000D02*
X189485000Y-50680000D01*
X191485000Y-50680000D02*
X191985000Y-50680000D01*
X185235000Y-38180000D02*
X185235000Y-41930000D01*
X185235000Y-50680000D02*
X186985000Y-50680000D01*
X185235000Y-46930000D02*
X185235000Y-50680000D01*
X195735000Y-38180000D02*
X195735000Y-41930000D01*
X195735000Y-50680000D02*
X195735000Y-46930000D01*
X195735000Y-38180000D02*
X185235000Y-38180000D01*
X187354505Y-45995248D02*
G75*
G03*
X190485000Y-47930000I3130494J1565247D01*
G01*
X190485000Y-47930054D02*
G75*
G03*
X193533051Y-46150398I0J3500055D01*
G01*
X190485000Y-40929945D02*
G75*
G03*
X187436949Y-42709602I0J-3500055D01*
G01*
X193615495Y-42864752D02*
G75*
G03*
X190485000Y-40930000I-3130495J-1565248D01*
G01*
X210800000Y-79100000D02*
X210800000Y-82190000D01*
X210800000Y-82189830D02*
G75*
G03*
X216350000Y-80644538I2560000J1544830D01*
G01*
X182885000Y-70105000D02*
X182885000Y-67015000D01*
X177335000Y-68559538D02*
G75*
G03*
X182885000Y-70104830I2990000J-462D01*
G01*
X182885000Y-67015170D02*
G75*
G03*
X177335000Y-68560462I-2560000J-1544830D01*
G01*
X182825000Y-68560000D02*
G75*
G03*
X182825000Y-68560000I-2500000J0D01*
G01*
D10*
X173915000Y-37930000D02*
X166415000Y-37930000D01*
X166415000Y-50930000D02*
X173915000Y-50930000D01*
X173915000Y-50930000D02*
X173915000Y-37930000D01*
X166415000Y-37930000D02*
X166415000Y-50930000D01*
X217095000Y-104625000D02*
X209595000Y-104625000D01*
X209595000Y-117625000D02*
X217095000Y-117625000D01*
X217095000Y-117625000D02*
X217095000Y-104625000D01*
X209595000Y-104625000D02*
X209595000Y-117625000D01*
D11*
X219860000Y-78580000D02*
X219860000Y-71080000D01*
X214610000Y-78580000D02*
X215860000Y-78580000D01*
X206860000Y-78580000D02*
X208360000Y-78580000D01*
X206860000Y-71080000D02*
X206860000Y-78580000D01*
X218360000Y-78580000D02*
X219860000Y-78580000D01*
X210860000Y-78580000D02*
X212110000Y-78580000D01*
X219360000Y-65830000D02*
G75*
G03*
X207360000Y-65830000I-6000000J-2812529D01*
G01*
X185235000Y-98940000D02*
X186985000Y-98940000D01*
X188985000Y-98940000D02*
X189485000Y-98940000D01*
X193985000Y-98940000D02*
X195735000Y-98940000D01*
X191485000Y-98940000D02*
X191985000Y-98940000D01*
X195735000Y-86440000D02*
X185235000Y-86440000D01*
X195735000Y-86440000D02*
X195735000Y-90190000D01*
X185235000Y-95190000D02*
X185235000Y-98940000D01*
X185235000Y-86440000D02*
X185235000Y-90190000D01*
X195735000Y-98940000D02*
X195735000Y-95190000D01*
X193615495Y-91124752D02*
G75*
G03*
X190485000Y-89190000I-3130495J-1565248D01*
G01*
X190485000Y-89189945D02*
G75*
G03*
X187436949Y-90969602I0J-3500055D01*
G01*
X187354505Y-94255248D02*
G75*
G03*
X190485000Y-96190000I3130494J1565247D01*
G01*
X190485000Y-96190054D02*
G75*
G03*
X193533051Y-94410398I0J3500055D01*
G01*
D10*
X166415000Y-99190000D02*
X173915000Y-99190000D01*
X173915000Y-99190000D02*
X173915000Y-86190000D01*
X173915000Y-86190000D02*
X166415000Y-86190000D01*
X166415000Y-86190000D02*
X166415000Y-99190000D01*
D11*
X218610000Y-38200000D02*
X208110000Y-38200000D01*
X216860000Y-50700000D02*
X218610000Y-50700000D01*
X208110000Y-46950000D02*
X208110000Y-50700000D01*
X218610000Y-38200000D02*
X218610000Y-41950000D01*
X214360000Y-50700000D02*
X214860000Y-50700000D01*
X211860000Y-50700000D02*
X212360000Y-50700000D01*
X208110000Y-50700000D02*
X209860000Y-50700000D01*
X218610000Y-50700000D02*
X218610000Y-46950000D01*
X208110000Y-38200000D02*
X208110000Y-41950000D01*
X213360000Y-40949945D02*
G75*
G03*
X210311949Y-42729602I0J-3500055D01*
G01*
X210229505Y-46015248D02*
G75*
G03*
X213360000Y-47950000I3130494J1565247D01*
G01*
X213360000Y-47950054D02*
G75*
G03*
X216408051Y-46170398I0J3500055D01*
G01*
X216490495Y-42884752D02*
G75*
G03*
X213360000Y-40950000I-3130495J-1565248D01*
G01*
X195735000Y-62310000D02*
X185235000Y-62310000D01*
X193985000Y-74810000D02*
X195735000Y-74810000D01*
X185235000Y-74810000D02*
X186985000Y-74810000D01*
X188985000Y-74810000D02*
X189485000Y-74810000D01*
X195735000Y-62310000D02*
X195735000Y-66060000D01*
X185235000Y-71060000D02*
X185235000Y-74810000D01*
X185235000Y-62310000D02*
X185235000Y-66060000D01*
X195735000Y-74810000D02*
X195735000Y-71060000D01*
X191485000Y-74810000D02*
X191985000Y-74810000D01*
X193615495Y-66994752D02*
G75*
G03*
X190485000Y-65060000I-3130495J-1565248D01*
G01*
X187354505Y-70125248D02*
G75*
G03*
X190485000Y-72060000I3130494J1565247D01*
G01*
X190485000Y-65059945D02*
G75*
G03*
X187436949Y-66839602I0J-3500055D01*
G01*
X190485000Y-72060054D02*
G75*
G03*
X193533051Y-70280398I0J3500055D01*
G01*
X182885000Y-142495000D02*
X182885000Y-139405000D01*
X177335000Y-140949538D02*
G75*
G03*
X182885000Y-142494830I2990000J-462D01*
G01*
X182885000Y-139405170D02*
G75*
G03*
X177335000Y-140950462I-2560000J-1544830D01*
G01*
X182825000Y-140950000D02*
G75*
G03*
X182825000Y-140950000I-2500000J0D01*
G01*
X182885000Y-118365000D02*
X182885000Y-115275000D01*
X182885000Y-115275170D02*
G75*
G03*
X177335000Y-116820462I-2560000J-1544830D01*
G01*
X177335000Y-116819538D02*
G75*
G03*
X182885000Y-118364830I2990000J-462D01*
G01*
X182825000Y-116820000D02*
G75*
G03*
X182825000Y-116820000I-2500000J0D01*
G01*
D10*
X166415000Y-75060000D02*
X173915000Y-75060000D01*
X173915000Y-62060000D02*
X166415000Y-62060000D01*
X173915000Y-75060000D02*
X173915000Y-62060000D01*
X166415000Y-62060000D02*
X166415000Y-75060000D01*
X166415000Y-110320000D02*
X166415000Y-123320000D01*
X173915000Y-123320000D02*
X173915000Y-110320000D01*
X166415000Y-123320000D02*
X173915000Y-123320000D01*
X173915000Y-110320000D02*
X166415000Y-110320000D01*
D11*
X182900000Y-45975000D02*
X182900000Y-42885000D01*
X182900000Y-42885170D02*
G75*
G03*
X177350000Y-44430462I-2560000J-1544830D01*
G01*
X177350000Y-44429538D02*
G75*
G03*
X182900000Y-45974830I2990000J-462D01*
G01*
X182840000Y-44430000D02*
G75*
G03*
X182840000Y-44430000I-2500000J0D01*
G01*
D10*
X166415000Y-134450000D02*
X166415000Y-147450000D01*
X173915000Y-147450000D02*
X173915000Y-134450000D01*
X173915000Y-134450000D02*
X166415000Y-134450000D01*
X166415000Y-147450000D02*
X173915000Y-147450000D01*
D11*
X185235000Y-134700000D02*
X185235000Y-138450000D01*
X195735000Y-134700000D02*
X195735000Y-138450000D01*
X195735000Y-147200000D02*
X195735000Y-143450000D01*
X185235000Y-147200000D02*
X186985000Y-147200000D01*
X193985000Y-147200000D02*
X195735000Y-147200000D01*
X195735000Y-134700000D02*
X185235000Y-134700000D01*
X185235000Y-143450000D02*
X185235000Y-147200000D01*
X191485000Y-147200000D02*
X191985000Y-147200000D01*
X188985000Y-147200000D02*
X189485000Y-147200000D01*
X187354505Y-142515248D02*
G75*
G03*
X190485000Y-144450000I3130494J1565247D01*
G01*
X193615495Y-139384752D02*
G75*
G03*
X190485000Y-137450000I-3130495J-1565248D01*
G01*
X190485000Y-144450054D02*
G75*
G03*
X193533051Y-142670398I0J3500055D01*
G01*
X190485000Y-137449945D02*
G75*
G03*
X187436949Y-139229602I0J-3500055D01*
G01*
X182885000Y-94235000D02*
X182885000Y-91145000D01*
X177335000Y-92689538D02*
G75*
G03*
X182885000Y-94234830I2990000J-462D01*
G01*
X182885000Y-91145170D02*
G75*
G03*
X177335000Y-92690462I-2560000J-1544830D01*
G01*
X182825000Y-92690000D02*
G75*
G03*
X182825000Y-92690000I-2500000J0D01*
G01*
X205105000Y-109690000D02*
X205105000Y-108690000D01*
X205355000Y-109690000D02*
X205355000Y-108690000D01*
X206845000Y-104270000D02*
X208445000Y-104270000D01*
X205105000Y-108690000D02*
X207645000Y-108690000D01*
X205905000Y-104270000D02*
X205905000Y-103670000D01*
X204305000Y-103670000D02*
X204305000Y-104270000D01*
X205105000Y-108690000D02*
X205355000Y-108160000D01*
X203435000Y-104700000D02*
X203435000Y-108700000D01*
X209025000Y-103670000D02*
X203725000Y-103670000D01*
X204305000Y-104270000D02*
X205905000Y-104270000D01*
X207395000Y-108160000D02*
X207645000Y-108690000D01*
X209025000Y-109690000D02*
X209025000Y-103670000D01*
X207395000Y-109690000D02*
X207395000Y-108690000D01*
X203725000Y-103670000D02*
X203725000Y-109690000D01*
X207645000Y-108690000D02*
X207645000Y-109690000D01*
X203725000Y-109690000D02*
X209025000Y-109690000D01*
X205355000Y-108160000D02*
X207395000Y-108160000D01*
X208445000Y-104270000D02*
X208445000Y-103670000D01*
X206845000Y-103670000D02*
X206845000Y-104270000D01*
M02*
