G04 #@! TF.GenerationSoftware,KiCad,Pcbnew,(6.0.5)*
G04 #@! TF.CreationDate,2022-05-27T13:23:59-04:00*
G04 #@! TF.ProjectId,minidrone-rounded,6d696e69-6472-46f6-9e65-2d726f756e64,rev?*
G04 #@! TF.SameCoordinates,Original*
G04 #@! TF.FileFunction,Soldermask,Bot*
G04 #@! TF.FilePolarity,Negative*
%FSLAX46Y46*%
G04 Gerber Fmt 4.6, Leading zero omitted, Abs format (unit mm)*
G04 Created by KiCad (PCBNEW (6.0.5)) date 2022-05-27 13:23:59*
%MOMM*%
%LPD*%
G01*
G04 APERTURE LIST*
G04 Aperture macros list*
%AMRoundRect*
0 Rectangle with rounded corners*
0 $1 Rounding radius*
0 $2 $3 $4 $5 $6 $7 $8 $9 X,Y pos of 4 corners*
0 Add a 4 corners polygon primitive as box body*
4,1,4,$2,$3,$4,$5,$6,$7,$8,$9,$2,$3,0*
0 Add four circle primitives for the rounded corners*
1,1,$1+$1,$2,$3*
1,1,$1+$1,$4,$5*
1,1,$1+$1,$6,$7*
1,1,$1+$1,$8,$9*
0 Add four rect primitives between the rounded corners*
20,1,$1+$1,$2,$3,$4,$5,0*
20,1,$1+$1,$4,$5,$6,$7,0*
20,1,$1+$1,$6,$7,$8,$9,0*
20,1,$1+$1,$8,$9,$2,$3,0*%
%AMFreePoly0*
4,1,37,0.536062,0.786062,0.551000,0.750000,0.551000,-0.750000,0.536062,-0.786062,0.500000,-0.801000,0.000000,-0.801000,-0.012525,-0.795812,-0.080875,-0.794559,-0.095149,-0.792248,-0.230464,-0.749973,-0.243516,-0.743747,-0.361526,-0.665192,-0.372306,-0.655554,-0.463526,-0.547035,-0.471167,-0.534759,-0.528262,-0.405000,-0.532150,-0.391073,-0.549733,-0.256613,-0.548336,-0.256430,-0.551000,-0.250000,
-0.551000,0.250000,-0.550512,0.251179,-0.550356,0.263956,-0.528545,0.404033,-0.524317,0.417860,-0.464069,0.546185,-0.456130,0.558271,-0.362286,0.664529,-0.351274,0.673901,-0.231379,0.749549,-0.218180,0.755454,-0.081873,0.794411,-0.067546,0.796373,-0.011990,0.796033,0.000000,0.801000,0.500000,0.801000,0.536062,0.786062,0.536062,0.786062,$1*%
%AMFreePoly1*
4,1,37,0.012349,0.795885,0.074216,0.795507,0.088518,0.793370,0.224339,0.752751,0.237465,0.746685,0.356427,0.669578,0.367324,0.660073,0.459862,0.552676,0.467652,0.540494,0.526329,0.411442,0.530388,0.397563,0.550485,0.257230,0.551000,0.250000,0.551000,-0.250000,0.550996,-0.250622,0.550847,-0.262838,0.550144,-0.270677,0.526624,-0.410478,0.522228,-0.424254,0.460416,-0.551833,
0.452330,-0.563821,0.357195,-0.668925,0.346069,-0.678161,0.225259,-0.752338,0.211989,-0.758081,0.075216,-0.795370,0.060866,-0.797157,0.011464,-0.796251,0.000000,-0.801000,-0.500000,-0.801000,-0.536062,-0.786062,-0.551000,-0.750000,-0.551000,0.750000,-0.536062,0.786062,-0.500000,0.801000,0.000000,0.801000,0.012349,0.795885,0.012349,0.795885,$1*%
G04 Aperture macros list end*
%ADD10O,4.002000X4.402000*%
%ADD11C,2.102000*%
%ADD12O,5.102000X5.302000*%
%ADD13RoundRect,0.801000X-1.750000X-0.750000X1.750000X-0.750000X1.750000X0.750000X-1.750000X0.750000X0*%
%ADD14RoundRect,0.051000X0.900000X0.900000X-0.900000X0.900000X-0.900000X-0.900000X0.900000X-0.900000X0*%
%ADD15C,1.902000*%
%ADD16RoundRect,0.301000X-0.620000X-0.845000X0.620000X-0.845000X0.620000X0.845000X-0.620000X0.845000X0*%
%ADD17O,1.842000X2.292000*%
%ADD18C,1.702000*%
%ADD19O,1.702000X1.702000*%
%ADD20RoundRect,0.301000X0.845000X-0.620000X0.845000X0.620000X-0.845000X0.620000X-0.845000X-0.620000X0*%
%ADD21O,2.292000X1.842000*%
%ADD22RoundRect,0.051000X0.800000X0.800000X-0.800000X0.800000X-0.800000X-0.800000X0.800000X-0.800000X0*%
%ADD23FreePoly0,270.000000*%
%ADD24FreePoly1,270.000000*%
%ADD25RoundRect,0.051000X-0.525000X-0.750000X0.525000X-0.750000X0.525000X0.750000X-0.525000X0.750000X0*%
%ADD26O,1.152000X1.602000*%
%ADD27RoundRect,0.051000X-0.800000X0.800000X-0.800000X-0.800000X0.800000X-0.800000X0.800000X0.800000X0*%
%ADD28RoundRect,0.051000X-0.750000X-0.750000X0.750000X-0.750000X0.750000X0.750000X-0.750000X0.750000X0*%
%ADD29C,1.602000*%
%ADD30RoundRect,0.051000X-0.800000X-0.800000X0.800000X-0.800000X0.800000X0.800000X-0.800000X0.800000X0*%
%ADD31RoundRect,0.051000X0.750000X0.750000X-0.750000X0.750000X-0.750000X-0.750000X0.750000X-0.750000X0*%
%ADD32C,1.542000*%
%ADD33RoundRect,0.051000X0.750000X-0.750000X0.750000X0.750000X-0.750000X0.750000X-0.750000X-0.750000X0*%
%ADD34RoundRect,0.051000X0.800000X-0.800000X0.800000X0.800000X-0.800000X0.800000X-0.800000X-0.800000X0*%
%ADD35RoundRect,0.301000X0.600000X-0.600000X0.600000X0.600000X-0.600000X0.600000X-0.600000X-0.600000X0*%
%ADD36C,1.802000*%
G04 APERTURE END LIST*
D10*
X195335000Y-116820000D03*
X185635000Y-116820000D03*
D11*
X187985000Y-123820000D03*
X190485000Y-123820000D03*
X192985000Y-123820000D03*
D12*
X208310000Y-92710000D03*
X218410000Y-92710000D03*
D11*
X209610000Y-102710000D03*
X213360000Y-102710000D03*
X217110000Y-102710000D03*
D10*
X185635000Y-68560000D03*
X195335000Y-68560000D03*
D11*
X187985000Y-75560000D03*
X190485000Y-75560000D03*
X192985000Y-75560000D03*
D10*
X208510000Y-44450000D03*
X218210000Y-44450000D03*
D11*
X210860000Y-51450000D03*
X213360000Y-51450000D03*
X215860000Y-51450000D03*
D13*
X170165000Y-63810000D03*
X170165000Y-68560000D03*
X170165000Y-73310000D03*
D14*
X181595000Y-92690000D03*
D15*
X179055000Y-92690000D03*
D10*
X185635000Y-140950000D03*
X195335000Y-140950000D03*
D11*
X187985000Y-147950000D03*
X190485000Y-147950000D03*
X192985000Y-147950000D03*
D13*
X170165000Y-112070000D03*
X170165000Y-116820000D03*
X170165000Y-121570000D03*
D16*
X205105000Y-106700000D03*
D17*
X207645000Y-106700000D03*
D14*
X181595000Y-140950000D03*
D15*
X179055000Y-140950000D03*
D14*
X181610000Y-44430000D03*
D15*
X179070000Y-44430000D03*
D14*
X181595000Y-116820000D03*
D15*
X179055000Y-116820000D03*
D13*
X170165000Y-136200000D03*
X170165000Y-140950000D03*
X170165000Y-145700000D03*
X170165000Y-87940000D03*
X170165000Y-92690000D03*
X170165000Y-97440000D03*
D18*
X164465000Y-101600000D03*
D19*
X174625000Y-101600000D03*
D20*
X215900000Y-59690000D03*
D21*
X215900000Y-57150000D03*
D22*
X181570000Y-144780000D03*
D18*
X179070000Y-144780000D03*
X179695000Y-132075000D03*
D19*
X177155000Y-132075000D03*
D23*
X182235000Y-129525000D03*
D24*
X182235000Y-130825000D03*
D18*
X219710000Y-121920000D03*
D19*
X219710000Y-111760000D03*
D18*
X199390000Y-102870000D03*
D19*
X189230000Y-102870000D03*
D18*
X185420000Y-109220000D03*
D19*
X175260000Y-109220000D03*
D25*
X179070000Y-137160000D03*
D26*
X181610000Y-137160000D03*
D27*
X196850000Y-53340000D03*
D19*
X199390000Y-53340000D03*
X201930000Y-53340000D03*
X204470000Y-53340000D03*
X204470000Y-60960000D03*
X201930000Y-60960000D03*
X199390000Y-60960000D03*
X196850000Y-60960000D03*
D18*
X191770000Y-130175000D03*
D19*
X201930000Y-130175000D03*
D18*
X164465000Y-125095000D03*
D19*
X174625000Y-125095000D03*
D18*
X164450000Y-53955000D03*
D19*
X174610000Y-53955000D03*
D18*
X207010000Y-85090000D03*
X209510000Y-85090000D03*
X219075000Y-53975000D03*
D19*
X208915000Y-53975000D03*
D18*
X194320000Y-85090000D03*
X191820000Y-85090000D03*
X164465000Y-36195000D03*
D19*
X164465000Y-46355000D03*
D28*
X204250000Y-130175000D03*
D29*
X206790000Y-130175000D03*
X209330000Y-130175000D03*
D25*
X179070000Y-77745000D03*
D26*
X181610000Y-77745000D03*
D25*
X179070000Y-125095000D03*
D26*
X181610000Y-125095000D03*
D11*
X192985000Y-51430000D03*
X190485000Y-51430000D03*
X187985000Y-51430000D03*
D10*
X185635000Y-44430000D03*
X195335000Y-44430000D03*
D30*
X213400000Y-136525000D03*
D18*
X215900000Y-136525000D03*
X194310000Y-60960000D03*
X191810000Y-60960000D03*
D31*
X209330000Y-127635000D03*
D29*
X206790000Y-127635000D03*
X204250000Y-127635000D03*
D18*
X199390000Y-90170000D03*
D19*
X199390000Y-100330000D03*
D32*
X173355000Y-132080000D03*
X170815000Y-129540000D03*
X168275000Y-132080000D03*
D18*
X204490000Y-111125000D03*
X206990000Y-111125000D03*
D33*
X191770000Y-58420000D03*
D29*
X191770000Y-55880000D03*
X191770000Y-53340000D03*
D25*
X179070000Y-53975000D03*
D26*
X181610000Y-53975000D03*
D27*
X200035000Y-113675000D03*
D19*
X202575000Y-113675000D03*
X205115000Y-113675000D03*
X207655000Y-113675000D03*
X207655000Y-121295000D03*
X205115000Y-121295000D03*
X202575000Y-121295000D03*
X200035000Y-121295000D03*
D18*
X164465000Y-148590000D03*
D19*
X174625000Y-148590000D03*
D18*
X201930000Y-127635000D03*
D19*
X191770000Y-127635000D03*
D27*
X196850000Y-77470000D03*
D19*
X199390000Y-77470000D03*
X201930000Y-77470000D03*
X204470000Y-77470000D03*
X204470000Y-85090000D03*
X201930000Y-85090000D03*
X199390000Y-85090000D03*
X196850000Y-85090000D03*
D30*
X205740000Y-136525000D03*
D18*
X208240000Y-136525000D03*
D22*
X181595000Y-73005000D03*
D18*
X179095000Y-73005000D03*
X201930000Y-50800000D03*
D19*
X201930000Y-40640000D03*
D25*
X179070000Y-100965000D03*
D26*
X181610000Y-100965000D03*
D18*
X212090000Y-125095000D03*
D19*
X222250000Y-125095000D03*
D18*
X164465000Y-48935000D03*
X164465000Y-51435000D03*
D34*
X204470000Y-74930000D03*
D19*
X204470000Y-67310000D03*
D22*
X181610000Y-48895000D03*
D18*
X179110000Y-48895000D03*
X177155000Y-129535000D03*
D19*
X179695000Y-129535000D03*
D18*
X207010000Y-82530000D03*
X207010000Y-80030000D03*
D22*
X181545113Y-96520000D03*
D18*
X179045113Y-96520000D03*
X175260000Y-146125000D03*
D19*
X175260000Y-135965000D03*
D15*
X212090000Y-80645000D03*
X214630000Y-80645000D03*
D14*
X181595000Y-68560000D03*
D15*
X179055000Y-68560000D03*
D13*
X170165000Y-39680000D03*
X170165000Y-44430000D03*
X170165000Y-49180000D03*
X213345000Y-106375000D03*
X213345000Y-111125000D03*
X213345000Y-115875000D03*
D12*
X208310000Y-68580000D03*
X218410000Y-68580000D03*
D11*
X209610000Y-78580000D03*
X213360000Y-78580000D03*
X217110000Y-78580000D03*
D10*
X195335000Y-92690000D03*
X185635000Y-92690000D03*
D11*
X187985000Y-99690000D03*
X190485000Y-99690000D03*
X192985000Y-99690000D03*
D18*
X197485000Y-119400000D03*
X197485000Y-121900000D03*
X199390000Y-107950000D03*
D19*
X189230000Y-107950000D03*
D27*
X199390000Y-67310000D03*
D19*
X199390000Y-74930000D03*
D18*
X175245000Y-39350000D03*
D19*
X175245000Y-49510000D03*
D35*
X215900000Y-145415000D03*
D36*
X215900000Y-142875000D03*
X213360000Y-145415000D03*
X213360000Y-142875000D03*
X210820000Y-145415000D03*
X210820000Y-142875000D03*
X208280000Y-145415000D03*
X208280000Y-142875000D03*
X205740000Y-145415000D03*
X205740000Y-142875000D03*
D18*
X199390000Y-105410000D03*
D19*
X189230000Y-105410000D03*
D18*
X207000000Y-55840000D03*
X207000000Y-53340000D03*
D20*
X219710000Y-108585000D03*
D21*
X219710000Y-106045000D03*
D18*
X212090000Y-127635000D03*
D19*
X222250000Y-127635000D03*
D18*
X175260000Y-75565000D03*
D19*
X175260000Y-65405000D03*
D18*
X187960000Y-85090000D03*
D19*
X177800000Y-85090000D03*
D18*
X222250000Y-130175000D03*
D19*
X212090000Y-130175000D03*
D18*
X194310000Y-80010000D03*
D19*
X184150000Y-80010000D03*
D31*
X219710000Y-84455000D03*
D29*
X217170000Y-84455000D03*
X214630000Y-84455000D03*
D18*
X199390000Y-50800000D03*
D19*
X199390000Y-40640000D03*
D18*
X207645000Y-123825000D03*
D19*
X197485000Y-123825000D03*
D18*
X194310000Y-82550000D03*
D19*
X184150000Y-82550000D03*
D30*
X196850000Y-87630000D03*
D19*
X204470000Y-87630000D03*
D18*
X164465000Y-78105000D03*
D19*
X174625000Y-78105000D03*
D22*
X181570000Y-120650000D03*
D18*
X179070000Y-120650000D03*
X201930000Y-74930000D03*
D19*
X201930000Y-64770000D03*
D18*
X201930000Y-132715000D03*
D19*
X191770000Y-132715000D03*
G36*
X183001668Y-130071665D02*
G01*
X183002058Y-130073627D01*
X183001699Y-130074267D01*
X182958511Y-130125946D01*
X182949880Y-130194661D01*
X182979844Y-130257291D01*
X183000682Y-130275348D01*
X183001336Y-130277238D01*
X183000026Y-130278749D01*
X182998982Y-130278821D01*
X182984801Y-130276000D01*
X181485199Y-130276000D01*
X181470226Y-130278978D01*
X181468332Y-130278335D01*
X181467942Y-130276373D01*
X181468301Y-130275733D01*
X181511489Y-130224054D01*
X181520120Y-130155339D01*
X181490156Y-130092709D01*
X181469318Y-130074652D01*
X181468664Y-130072762D01*
X181469974Y-130071251D01*
X181471018Y-130071179D01*
X181485199Y-130074000D01*
X182984801Y-130074000D01*
X182999774Y-130071022D01*
X183001668Y-130071665D01*
G37*
G36*
X197688526Y-122720963D02*
G01*
X197688942Y-122722919D01*
X197687578Y-122724227D01*
X197633208Y-122739407D01*
X197632824Y-122739475D01*
X197618132Y-122740606D01*
X197553094Y-122765265D01*
X197511889Y-122820933D01*
X197507322Y-122890042D01*
X197540841Y-122950645D01*
X197599085Y-122982041D01*
X197600135Y-122983744D01*
X197599186Y-122985504D01*
X197597720Y-122985758D01*
X197573745Y-122980662D01*
X197396255Y-122980662D01*
X197362268Y-122987886D01*
X197360366Y-122987268D01*
X197359950Y-122985312D01*
X197361117Y-122984070D01*
X197424632Y-122958969D01*
X197465056Y-122902732D01*
X197468658Y-122833568D01*
X197434298Y-122773436D01*
X197379224Y-122744733D01*
X197378150Y-122743045D01*
X197379074Y-122741272D01*
X197380564Y-122741003D01*
X197396255Y-122744338D01*
X197573745Y-122744338D01*
X197686624Y-122720345D01*
X197688526Y-122720963D01*
G37*
M02*
