%TF.GenerationSoftware,KiCad,Pcbnew,(6.0.5)*%
%TF.CreationDate,2022-06-04T22:54:33-04:00*%
%TF.ProjectId,aux_panel,6175785f-7061-46e6-956c-2e6b69636164,0.1*%
%TF.SameCoordinates,Original*%
%TF.FileFunction,Legend,Top*%
%TF.FilePolarity,Positive*%
%FSLAX46Y46*%
G04 Gerber Fmt 4.6, Leading zero omitted, Abs format (unit mm)*
G04 Created by KiCad (PCBNEW (6.0.5)) date 2022-06-04 22:54:33*
%MOMM*%
%LPD*%
G01*
G04 APERTURE LIST*
%ADD10C,0.300000*%
G04 APERTURE END LIST*
D10*
X107902857Y-70119761D02*
X106760000Y-70119761D01*
X107331428Y-70119761D02*
X107331428Y-68119761D01*
X107140952Y-68405476D01*
X106950476Y-68595952D01*
X106760000Y-68691190D01*
X108664761Y-68310238D02*
X108760000Y-68215000D01*
X108950476Y-68119761D01*
X109426666Y-68119761D01*
X109617142Y-68215000D01*
X109712380Y-68310238D01*
X109807619Y-68500714D01*
X109807619Y-68691190D01*
X109712380Y-68976904D01*
X108569523Y-70119761D01*
X109807619Y-70119761D01*
X110379047Y-68119761D02*
X111045714Y-70119761D01*
X111712380Y-68119761D01*
X113807619Y-69548333D02*
X114759999Y-69548333D01*
X113617142Y-70119761D02*
X114283809Y-68119761D01*
X114950476Y-70119761D01*
X116760000Y-69929285D02*
X116664761Y-70024523D01*
X116379047Y-70119761D01*
X116188571Y-70119761D01*
X115902857Y-70024523D01*
X115712380Y-69834047D01*
X115617142Y-69643571D01*
X115521904Y-69262619D01*
X115521904Y-68976904D01*
X115617142Y-68595952D01*
X115712380Y-68405476D01*
X115902857Y-68215000D01*
X116188571Y-68119761D01*
X116379047Y-68119761D01*
X116664761Y-68215000D01*
X116760000Y-68310238D01*
X106712380Y-166639761D02*
X106712380Y-164639761D01*
X106712380Y-165592142D02*
X107855238Y-165592142D01*
X107855238Y-166639761D02*
X107855238Y-164639761D01*
X108807619Y-166639761D02*
X108807619Y-164639761D01*
X109569523Y-164639761D01*
X109760000Y-164735000D01*
X109855238Y-164830238D01*
X109950476Y-165020714D01*
X109950476Y-165306428D01*
X109855238Y-165496904D01*
X109760000Y-165592142D01*
X109569523Y-165687380D01*
X108807619Y-165687380D01*
X112045714Y-164639761D02*
X112712380Y-166639761D01*
X113379047Y-164639761D01*
X114426666Y-164639761D02*
X114807619Y-164639761D01*
X114998095Y-164735000D01*
X115188571Y-164925476D01*
X115283809Y-165306428D01*
X115283809Y-165973095D01*
X115188571Y-166354047D01*
X114998095Y-166544523D01*
X114807619Y-166639761D01*
X114426666Y-166639761D01*
X114236190Y-166544523D01*
X114045714Y-166354047D01*
X113950476Y-165973095D01*
X113950476Y-165306428D01*
X114045714Y-164925476D01*
X114236190Y-164735000D01*
X114426666Y-164639761D01*
X117093333Y-166639761D02*
X116140952Y-166639761D01*
X116140952Y-164639761D01*
X106236190Y-138064761D02*
X106236190Y-136064761D01*
X106998095Y-136064761D01*
X107188571Y-136160000D01*
X107283809Y-136255238D01*
X107379047Y-136445714D01*
X107379047Y-136731428D01*
X107283809Y-136921904D01*
X107188571Y-137017142D01*
X106998095Y-137112380D01*
X106236190Y-137112380D01*
X108236190Y-138064761D02*
X108236190Y-136064761D01*
X108236190Y-137017142D02*
X109379047Y-137017142D01*
X109379047Y-138064761D02*
X109379047Y-136064761D01*
X110712380Y-136064761D02*
X111093333Y-136064761D01*
X111283809Y-136160000D01*
X111474285Y-136350476D01*
X111569523Y-136731428D01*
X111569523Y-137398095D01*
X111474285Y-137779047D01*
X111283809Y-137969523D01*
X111093333Y-138064761D01*
X110712380Y-138064761D01*
X110521904Y-137969523D01*
X110331428Y-137779047D01*
X110236190Y-137398095D01*
X110236190Y-136731428D01*
X110331428Y-136350476D01*
X110521904Y-136160000D01*
X110712380Y-136064761D01*
X112426666Y-138064761D02*
X112426666Y-136064761D01*
X113569523Y-138064761D01*
X113569523Y-136064761D01*
X114521904Y-137017142D02*
X115188571Y-137017142D01*
X115474285Y-138064761D02*
X114521904Y-138064761D01*
X114521904Y-136064761D01*
X115474285Y-136064761D01*
X116236190Y-137969523D02*
X116521904Y-138064761D01*
X116998095Y-138064761D01*
X117188571Y-137969523D01*
X117283809Y-137874285D01*
X117379047Y-137683809D01*
X117379047Y-137493333D01*
X117283809Y-137302857D01*
X117188571Y-137207619D01*
X116998095Y-137112380D01*
X116617142Y-137017142D01*
X116426666Y-136921904D01*
X116331428Y-136826666D01*
X116236190Y-136636190D01*
X116236190Y-136445714D01*
X116331428Y-136255238D01*
X116426666Y-136160000D01*
X116617142Y-136064761D01*
X117093333Y-136064761D01*
X117379047Y-136160000D01*
%TO.C,H4*%
X102902857Y-90503333D02*
X103855238Y-90503333D01*
X102712380Y-91074761D02*
X103379047Y-89074761D01*
X104045714Y-91074761D01*
X104712380Y-91074761D02*
X104712380Y-89074761D01*
X105855238Y-91074761D01*
X105855238Y-89074761D01*
X106712380Y-90503333D02*
X107664761Y-90503333D01*
X106521904Y-91074761D02*
X107188571Y-89074761D01*
X107855238Y-91074761D01*
X109474285Y-91074761D02*
X108521904Y-91074761D01*
X108521904Y-89074761D01*
X110521904Y-89074761D02*
X110902857Y-89074761D01*
X111093333Y-89170000D01*
X111283809Y-89360476D01*
X111379047Y-89741428D01*
X111379047Y-90408095D01*
X111283809Y-90789047D01*
X111093333Y-90979523D01*
X110902857Y-91074761D01*
X110521904Y-91074761D01*
X110331428Y-90979523D01*
X110140952Y-90789047D01*
X110045714Y-90408095D01*
X110045714Y-89741428D01*
X110140952Y-89360476D01*
X110331428Y-89170000D01*
X110521904Y-89074761D01*
X113283809Y-89170000D02*
X113093333Y-89074761D01*
X112807619Y-89074761D01*
X112521904Y-89170000D01*
X112331428Y-89360476D01*
X112236190Y-89550952D01*
X112140952Y-89931904D01*
X112140952Y-90217619D01*
X112236190Y-90598571D01*
X112331428Y-90789047D01*
X112521904Y-90979523D01*
X112807619Y-91074761D01*
X112998095Y-91074761D01*
X113283809Y-90979523D01*
X113379047Y-90884285D01*
X113379047Y-90217619D01*
X112998095Y-90217619D01*
X116140952Y-89074761D02*
X116521904Y-89074761D01*
X116712380Y-89170000D01*
X116902857Y-89360476D01*
X116998095Y-89741428D01*
X116998095Y-90408095D01*
X116902857Y-90789047D01*
X116712380Y-90979523D01*
X116521904Y-91074761D01*
X116140952Y-91074761D01*
X115950476Y-90979523D01*
X115760000Y-90789047D01*
X115664761Y-90408095D01*
X115664761Y-89741428D01*
X115760000Y-89360476D01*
X115950476Y-89170000D01*
X116140952Y-89074761D01*
X117855238Y-89074761D02*
X117855238Y-90693809D01*
X117950476Y-90884285D01*
X118045714Y-90979523D01*
X118236190Y-91074761D01*
X118617142Y-91074761D01*
X118807619Y-90979523D01*
X118902857Y-90884285D01*
X118998095Y-90693809D01*
X118998095Y-89074761D01*
X119664761Y-89074761D02*
X120807619Y-89074761D01*
X120236190Y-91074761D02*
X120236190Y-89074761D01*
%TO.C,H5*%
X106331428Y-111394761D02*
X105379047Y-111394761D01*
X105379047Y-109394761D01*
X106998095Y-111394761D02*
X106998095Y-109394761D01*
X107950476Y-111394761D02*
X107950476Y-109394761D01*
X109093333Y-111394761D01*
X109093333Y-109394761D01*
X110045714Y-110347142D02*
X110712380Y-110347142D01*
X110998095Y-111394761D02*
X110045714Y-111394761D01*
X110045714Y-109394761D01*
X110998095Y-109394761D01*
X113760000Y-109394761D02*
X114140952Y-109394761D01*
X114331428Y-109490000D01*
X114521904Y-109680476D01*
X114617142Y-110061428D01*
X114617142Y-110728095D01*
X114521904Y-111109047D01*
X114331428Y-111299523D01*
X114140952Y-111394761D01*
X113760000Y-111394761D01*
X113569523Y-111299523D01*
X113379047Y-111109047D01*
X113283809Y-110728095D01*
X113283809Y-110061428D01*
X113379047Y-109680476D01*
X113569523Y-109490000D01*
X113760000Y-109394761D01*
X115474285Y-109394761D02*
X115474285Y-111013809D01*
X115569523Y-111204285D01*
X115664761Y-111299523D01*
X115855238Y-111394761D01*
X116236190Y-111394761D01*
X116426666Y-111299523D01*
X116521904Y-111204285D01*
X116617142Y-111013809D01*
X116617142Y-109394761D01*
X117283809Y-109394761D02*
X118426666Y-109394761D01*
X117855238Y-111394761D02*
X117855238Y-109394761D01*
%TD*%
M02*
