%TF.GenerationSoftware,KiCad,Pcbnew,(6.0.5)*%
%TF.CreationDate,2022-06-04T22:54:33-04:00*%
%TF.ProjectId,aux_panel,6175785f-7061-46e6-956c-2e6b69636164,0.1*%
%TF.SameCoordinates,Original*%
%TF.FileFunction,Legend,Bot*%
%TF.FilePolarity,Positive*%
%FSLAX46Y46*%
G04 Gerber Fmt 4.6, Leading zero omitted, Abs format (unit mm)*
G04 Created by KiCad (PCBNEW (6.0.5)) date 2022-06-04 22:54:33*
%MOMM*%
%LPD*%
G01*
G04 APERTURE LIST*
%ADD10C,0.150000*%
G04 APERTURE END LIST*
D10*
X106567619Y-158630000D02*
X107567619Y-158630000D01*
X106853333Y-158296666D01*
X107567619Y-157963333D01*
X106567619Y-157963333D01*
X106567619Y-157487142D02*
X107234285Y-157487142D01*
X107567619Y-157487142D02*
X107520000Y-157534761D01*
X107472380Y-157487142D01*
X107520000Y-157439523D01*
X107567619Y-157487142D01*
X107472380Y-157487142D01*
X107234285Y-157010952D02*
X106567619Y-157010952D01*
X107139047Y-157010952D02*
X107186666Y-156963333D01*
X107234285Y-156868095D01*
X107234285Y-156725238D01*
X107186666Y-156630000D01*
X107091428Y-156582380D01*
X106567619Y-156582380D01*
X106567619Y-156106190D02*
X107234285Y-156106190D01*
X107567619Y-156106190D02*
X107520000Y-156153809D01*
X107472380Y-156106190D01*
X107520000Y-156058571D01*
X107567619Y-156106190D01*
X107472380Y-156106190D01*
X106567619Y-155201428D02*
X107567619Y-155201428D01*
X106615238Y-155201428D02*
X106567619Y-155296666D01*
X106567619Y-155487142D01*
X106615238Y-155582380D01*
X106662857Y-155630000D01*
X106758095Y-155677619D01*
X107043809Y-155677619D01*
X107139047Y-155630000D01*
X107186666Y-155582380D01*
X107234285Y-155487142D01*
X107234285Y-155296666D01*
X107186666Y-155201428D01*
X106567619Y-154725238D02*
X107234285Y-154725238D01*
X107043809Y-154725238D02*
X107139047Y-154677619D01*
X107186666Y-154630000D01*
X107234285Y-154534761D01*
X107234285Y-154439523D01*
X106567619Y-153963333D02*
X106615238Y-154058571D01*
X106662857Y-154106190D01*
X106758095Y-154153809D01*
X107043809Y-154153809D01*
X107139047Y-154106190D01*
X107186666Y-154058571D01*
X107234285Y-153963333D01*
X107234285Y-153820476D01*
X107186666Y-153725238D01*
X107139047Y-153677619D01*
X107043809Y-153630000D01*
X106758095Y-153630000D01*
X106662857Y-153677619D01*
X106615238Y-153725238D01*
X106567619Y-153820476D01*
X106567619Y-153963333D01*
X107234285Y-153201428D02*
X106567619Y-153201428D01*
X107139047Y-153201428D02*
X107186666Y-153153809D01*
X107234285Y-153058571D01*
X107234285Y-152915714D01*
X107186666Y-152820476D01*
X107091428Y-152772857D01*
X106567619Y-152772857D01*
X106615238Y-151915714D02*
X106567619Y-152010952D01*
X106567619Y-152201428D01*
X106615238Y-152296666D01*
X106710476Y-152344285D01*
X107091428Y-152344285D01*
X107186666Y-152296666D01*
X107234285Y-152201428D01*
X107234285Y-152010952D01*
X107186666Y-151915714D01*
X107091428Y-151868095D01*
X106996190Y-151868095D01*
X106900952Y-152344285D01*
X106853333Y-150725238D02*
X106853333Y-150249047D01*
X106567619Y-150820476D02*
X107567619Y-150487142D01*
X106567619Y-150153809D01*
X107234285Y-149391904D02*
X106567619Y-149391904D01*
X107234285Y-149820476D02*
X106710476Y-149820476D01*
X106615238Y-149772857D01*
X106567619Y-149677619D01*
X106567619Y-149534761D01*
X106615238Y-149439523D01*
X106662857Y-149391904D01*
X106567619Y-149010952D02*
X107234285Y-148487142D01*
X107234285Y-149010952D02*
X106567619Y-148487142D01*
X106567619Y-147344285D02*
X107567619Y-147344285D01*
X107567619Y-146963333D01*
X107520000Y-146868095D01*
X107472380Y-146820476D01*
X107377142Y-146772857D01*
X107234285Y-146772857D01*
X107139047Y-146820476D01*
X107091428Y-146868095D01*
X107043809Y-146963333D01*
X107043809Y-147344285D01*
X106567619Y-145915714D02*
X107091428Y-145915714D01*
X107186666Y-145963333D01*
X107234285Y-146058571D01*
X107234285Y-146249047D01*
X107186666Y-146344285D01*
X106615238Y-145915714D02*
X106567619Y-146010952D01*
X106567619Y-146249047D01*
X106615238Y-146344285D01*
X106710476Y-146391904D01*
X106805714Y-146391904D01*
X106900952Y-146344285D01*
X106948571Y-146249047D01*
X106948571Y-146010952D01*
X106996190Y-145915714D01*
X107234285Y-145439523D02*
X106567619Y-145439523D01*
X107139047Y-145439523D02*
X107186666Y-145391904D01*
X107234285Y-145296666D01*
X107234285Y-145153809D01*
X107186666Y-145058571D01*
X107091428Y-145010952D01*
X106567619Y-145010952D01*
X106615238Y-144153809D02*
X106567619Y-144249047D01*
X106567619Y-144439523D01*
X106615238Y-144534761D01*
X106710476Y-144582380D01*
X107091428Y-144582380D01*
X107186666Y-144534761D01*
X107234285Y-144439523D01*
X107234285Y-144249047D01*
X107186666Y-144153809D01*
X107091428Y-144106190D01*
X106996190Y-144106190D01*
X106900952Y-144582380D01*
X106567619Y-143534761D02*
X106615238Y-143630000D01*
X106710476Y-143677619D01*
X107567619Y-143677619D01*
X104957619Y-163201428D02*
X105957619Y-163201428D01*
X105243333Y-162868095D01*
X105957619Y-162534761D01*
X104957619Y-162534761D01*
X104957619Y-161630000D02*
X105481428Y-161630000D01*
X105576666Y-161677619D01*
X105624285Y-161772857D01*
X105624285Y-161963333D01*
X105576666Y-162058571D01*
X105005238Y-161630000D02*
X104957619Y-161725238D01*
X104957619Y-161963333D01*
X105005238Y-162058571D01*
X105100476Y-162106190D01*
X105195714Y-162106190D01*
X105290952Y-162058571D01*
X105338571Y-161963333D01*
X105338571Y-161725238D01*
X105386190Y-161630000D01*
X104957619Y-161249047D02*
X105624285Y-160725238D01*
X105624285Y-161249047D02*
X104957619Y-160725238D01*
X104957619Y-159582380D02*
X105957619Y-159582380D01*
X105957619Y-159201428D01*
X105910000Y-159106190D01*
X105862380Y-159058571D01*
X105767142Y-159010952D01*
X105624285Y-159010952D01*
X105529047Y-159058571D01*
X105481428Y-159106190D01*
X105433809Y-159201428D01*
X105433809Y-159582380D01*
X104957619Y-158582380D02*
X105624285Y-158582380D01*
X105433809Y-158582380D02*
X105529047Y-158534761D01*
X105576666Y-158487142D01*
X105624285Y-158391904D01*
X105624285Y-158296666D01*
X104957619Y-157820476D02*
X105005238Y-157915714D01*
X105052857Y-157963333D01*
X105148095Y-158010952D01*
X105433809Y-158010952D01*
X105529047Y-157963333D01*
X105576666Y-157915714D01*
X105624285Y-157820476D01*
X105624285Y-157677619D01*
X105576666Y-157582380D01*
X105529047Y-157534761D01*
X105433809Y-157487142D01*
X105148095Y-157487142D01*
X105052857Y-157534761D01*
X105005238Y-157582380D01*
X104957619Y-157677619D01*
X104957619Y-157820476D01*
X105005238Y-157106190D02*
X104957619Y-157010952D01*
X104957619Y-156820476D01*
X105005238Y-156725238D01*
X105100476Y-156677619D01*
X105148095Y-156677619D01*
X105243333Y-156725238D01*
X105290952Y-156820476D01*
X105290952Y-156963333D01*
X105338571Y-157058571D01*
X105433809Y-157106190D01*
X105481428Y-157106190D01*
X105576666Y-157058571D01*
X105624285Y-156963333D01*
X105624285Y-156820476D01*
X105576666Y-156725238D01*
X104957619Y-156249047D02*
X105957619Y-156249047D01*
X105338571Y-156153809D02*
X104957619Y-155868095D01*
X105624285Y-155868095D02*
X105243333Y-156249047D01*
X104957619Y-155010952D02*
X105481428Y-155010952D01*
X105576666Y-155058571D01*
X105624285Y-155153809D01*
X105624285Y-155344285D01*
X105576666Y-155439523D01*
X105005238Y-155010952D02*
X104957619Y-155106190D01*
X104957619Y-155344285D01*
X105005238Y-155439523D01*
X105100476Y-155487142D01*
X105195714Y-155487142D01*
X105290952Y-155439523D01*
X105338571Y-155344285D01*
X105338571Y-155106190D01*
X105386190Y-155010952D01*
X105624285Y-154106190D02*
X104957619Y-154106190D01*
X105624285Y-154534761D02*
X105100476Y-154534761D01*
X105005238Y-154487142D01*
X104957619Y-154391904D01*
X104957619Y-154249047D01*
X105005238Y-154153809D01*
X105052857Y-154106190D01*
X105005238Y-153249047D02*
X104957619Y-153344285D01*
X104957619Y-153534761D01*
X105005238Y-153630000D01*
X105100476Y-153677619D01*
X105481428Y-153677619D01*
X105576666Y-153630000D01*
X105624285Y-153534761D01*
X105624285Y-153344285D01*
X105576666Y-153249047D01*
X105481428Y-153201428D01*
X105386190Y-153201428D01*
X105290952Y-153677619D01*
X104957619Y-152772857D02*
X105624285Y-152772857D01*
X105433809Y-152772857D02*
X105529047Y-152725238D01*
X105576666Y-152677619D01*
X105624285Y-152582380D01*
X105624285Y-152487142D01*
X105624285Y-150725238D02*
X104957619Y-150487142D01*
X105624285Y-150249047D01*
X105957619Y-149677619D02*
X105957619Y-149582380D01*
X105910000Y-149487142D01*
X105862380Y-149439523D01*
X105767142Y-149391904D01*
X105576666Y-149344285D01*
X105338571Y-149344285D01*
X105148095Y-149391904D01*
X105052857Y-149439523D01*
X105005238Y-149487142D01*
X104957619Y-149582380D01*
X104957619Y-149677619D01*
X105005238Y-149772857D01*
X105052857Y-149820476D01*
X105148095Y-149868095D01*
X105338571Y-149915714D01*
X105576666Y-149915714D01*
X105767142Y-149868095D01*
X105862380Y-149820476D01*
X105910000Y-149772857D01*
X105957619Y-149677619D01*
X105052857Y-148915714D02*
X105005238Y-148868095D01*
X104957619Y-148915714D01*
X105005238Y-148963333D01*
X105052857Y-148915714D01*
X104957619Y-148915714D01*
X104957619Y-147915714D02*
X104957619Y-148487142D01*
X104957619Y-148201428D02*
X105957619Y-148201428D01*
X105814761Y-148296666D01*
X105719523Y-148391904D01*
X105671904Y-148487142D01*
X104957619Y-145963333D02*
X105957619Y-145963333D01*
X105243333Y-145630000D01*
X105957619Y-145296666D01*
X104957619Y-145296666D01*
X104957619Y-144391904D02*
X105481428Y-144391904D01*
X105576666Y-144439523D01*
X105624285Y-144534761D01*
X105624285Y-144725238D01*
X105576666Y-144820476D01*
X105005238Y-144391904D02*
X104957619Y-144487142D01*
X104957619Y-144725238D01*
X105005238Y-144820476D01*
X105100476Y-144868095D01*
X105195714Y-144868095D01*
X105290952Y-144820476D01*
X105338571Y-144725238D01*
X105338571Y-144487142D01*
X105386190Y-144391904D01*
X105624285Y-144010952D02*
X104957619Y-143772857D01*
X105624285Y-143534761D02*
X104957619Y-143772857D01*
X104719523Y-143868095D01*
X104671904Y-143915714D01*
X104624285Y-144010952D01*
X105862380Y-142439523D02*
X105910000Y-142391904D01*
X105957619Y-142296666D01*
X105957619Y-142058571D01*
X105910000Y-141963333D01*
X105862380Y-141915714D01*
X105767142Y-141868095D01*
X105671904Y-141868095D01*
X105529047Y-141915714D01*
X104957619Y-142487142D01*
X104957619Y-141868095D01*
X105957619Y-141249047D02*
X105957619Y-141153809D01*
X105910000Y-141058571D01*
X105862380Y-141010952D01*
X105767142Y-140963333D01*
X105576666Y-140915714D01*
X105338571Y-140915714D01*
X105148095Y-140963333D01*
X105052857Y-141010952D01*
X105005238Y-141058571D01*
X104957619Y-141153809D01*
X104957619Y-141249047D01*
X105005238Y-141344285D01*
X105052857Y-141391904D01*
X105148095Y-141439523D01*
X105338571Y-141487142D01*
X105576666Y-141487142D01*
X105767142Y-141439523D01*
X105862380Y-141391904D01*
X105910000Y-141344285D01*
X105957619Y-141249047D01*
X105862380Y-140534761D02*
X105910000Y-140487142D01*
X105957619Y-140391904D01*
X105957619Y-140153809D01*
X105910000Y-140058571D01*
X105862380Y-140010952D01*
X105767142Y-139963333D01*
X105671904Y-139963333D01*
X105529047Y-140010952D01*
X104957619Y-140582380D01*
X104957619Y-139963333D01*
X105862380Y-139582380D02*
X105910000Y-139534761D01*
X105957619Y-139439523D01*
X105957619Y-139201428D01*
X105910000Y-139106190D01*
X105862380Y-139058571D01*
X105767142Y-139010952D01*
X105671904Y-139010952D01*
X105529047Y-139058571D01*
X104957619Y-139630000D01*
X104957619Y-139010952D01*
X103347619Y-165606190D02*
X104347619Y-165606190D01*
X103347619Y-165177619D02*
X103871428Y-165177619D01*
X103966666Y-165225238D01*
X104014285Y-165320476D01*
X104014285Y-165463333D01*
X103966666Y-165558571D01*
X103919047Y-165606190D01*
X104014285Y-164844285D02*
X104014285Y-164463333D01*
X104347619Y-164701428D02*
X103490476Y-164701428D01*
X103395238Y-164653809D01*
X103347619Y-164558571D01*
X103347619Y-164463333D01*
X104014285Y-164272857D02*
X104014285Y-163891904D01*
X104347619Y-164130000D02*
X103490476Y-164130000D01*
X103395238Y-164082380D01*
X103347619Y-163987142D01*
X103347619Y-163891904D01*
X104014285Y-163558571D02*
X103014285Y-163558571D01*
X103966666Y-163558571D02*
X104014285Y-163463333D01*
X104014285Y-163272857D01*
X103966666Y-163177619D01*
X103919047Y-163130000D01*
X103823809Y-163082380D01*
X103538095Y-163082380D01*
X103442857Y-163130000D01*
X103395238Y-163177619D01*
X103347619Y-163272857D01*
X103347619Y-163463333D01*
X103395238Y-163558571D01*
X103395238Y-162701428D02*
X103347619Y-162606190D01*
X103347619Y-162415714D01*
X103395238Y-162320476D01*
X103490476Y-162272857D01*
X103538095Y-162272857D01*
X103633333Y-162320476D01*
X103680952Y-162415714D01*
X103680952Y-162558571D01*
X103728571Y-162653809D01*
X103823809Y-162701428D01*
X103871428Y-162701428D01*
X103966666Y-162653809D01*
X104014285Y-162558571D01*
X104014285Y-162415714D01*
X103966666Y-162320476D01*
X103442857Y-161844285D02*
X103395238Y-161796666D01*
X103347619Y-161844285D01*
X103395238Y-161891904D01*
X103442857Y-161844285D01*
X103347619Y-161844285D01*
X103966666Y-161844285D02*
X103919047Y-161796666D01*
X103871428Y-161844285D01*
X103919047Y-161891904D01*
X103966666Y-161844285D01*
X103871428Y-161844285D01*
X104395238Y-160653809D02*
X103109523Y-161510952D01*
X104395238Y-159606190D02*
X103109523Y-160463333D01*
X104014285Y-158844285D02*
X103204761Y-158844285D01*
X103109523Y-158891904D01*
X103061904Y-158939523D01*
X103014285Y-159034761D01*
X103014285Y-159177619D01*
X103061904Y-159272857D01*
X103395238Y-158844285D02*
X103347619Y-158939523D01*
X103347619Y-159130000D01*
X103395238Y-159225238D01*
X103442857Y-159272857D01*
X103538095Y-159320476D01*
X103823809Y-159320476D01*
X103919047Y-159272857D01*
X103966666Y-159225238D01*
X104014285Y-159130000D01*
X104014285Y-158939523D01*
X103966666Y-158844285D01*
X103347619Y-158368095D02*
X104014285Y-158368095D01*
X104347619Y-158368095D02*
X104300000Y-158415714D01*
X104252380Y-158368095D01*
X104300000Y-158320476D01*
X104347619Y-158368095D01*
X104252380Y-158368095D01*
X104014285Y-158034761D02*
X104014285Y-157653809D01*
X104347619Y-157891904D02*
X103490476Y-157891904D01*
X103395238Y-157844285D01*
X103347619Y-157749047D01*
X103347619Y-157653809D01*
X103347619Y-157320476D02*
X104347619Y-157320476D01*
X103347619Y-156891904D02*
X103871428Y-156891904D01*
X103966666Y-156939523D01*
X104014285Y-157034761D01*
X104014285Y-157177619D01*
X103966666Y-157272857D01*
X103919047Y-157320476D01*
X104014285Y-155987142D02*
X103347619Y-155987142D01*
X104014285Y-156415714D02*
X103490476Y-156415714D01*
X103395238Y-156368095D01*
X103347619Y-156272857D01*
X103347619Y-156130000D01*
X103395238Y-156034761D01*
X103442857Y-155987142D01*
X103347619Y-155510952D02*
X104347619Y-155510952D01*
X103966666Y-155510952D02*
X104014285Y-155415714D01*
X104014285Y-155225238D01*
X103966666Y-155130000D01*
X103919047Y-155082380D01*
X103823809Y-155034761D01*
X103538095Y-155034761D01*
X103442857Y-155082380D01*
X103395238Y-155130000D01*
X103347619Y-155225238D01*
X103347619Y-155415714D01*
X103395238Y-155510952D01*
X103442857Y-154606190D02*
X103395238Y-154558571D01*
X103347619Y-154606190D01*
X103395238Y-154653809D01*
X103442857Y-154606190D01*
X103347619Y-154606190D01*
X103395238Y-153701428D02*
X103347619Y-153796666D01*
X103347619Y-153987142D01*
X103395238Y-154082380D01*
X103442857Y-154130000D01*
X103538095Y-154177619D01*
X103823809Y-154177619D01*
X103919047Y-154130000D01*
X103966666Y-154082380D01*
X104014285Y-153987142D01*
X104014285Y-153796666D01*
X103966666Y-153701428D01*
X103347619Y-153130000D02*
X103395238Y-153225238D01*
X103442857Y-153272857D01*
X103538095Y-153320476D01*
X103823809Y-153320476D01*
X103919047Y-153272857D01*
X103966666Y-153225238D01*
X104014285Y-153130000D01*
X104014285Y-152987142D01*
X103966666Y-152891904D01*
X103919047Y-152844285D01*
X103823809Y-152796666D01*
X103538095Y-152796666D01*
X103442857Y-152844285D01*
X103395238Y-152891904D01*
X103347619Y-152987142D01*
X103347619Y-153130000D01*
X103347619Y-152368095D02*
X104014285Y-152368095D01*
X103919047Y-152368095D02*
X103966666Y-152320476D01*
X104014285Y-152225238D01*
X104014285Y-152082380D01*
X103966666Y-151987142D01*
X103871428Y-151939523D01*
X103347619Y-151939523D01*
X103871428Y-151939523D02*
X103966666Y-151891904D01*
X104014285Y-151796666D01*
X104014285Y-151653809D01*
X103966666Y-151558571D01*
X103871428Y-151510952D01*
X103347619Y-151510952D01*
X104395238Y-150320476D02*
X103109523Y-151177619D01*
X103347619Y-149987142D02*
X104014285Y-149987142D01*
X103919047Y-149987142D02*
X103966666Y-149939523D01*
X104014285Y-149844285D01*
X104014285Y-149701428D01*
X103966666Y-149606190D01*
X103871428Y-149558571D01*
X103347619Y-149558571D01*
X103871428Y-149558571D02*
X103966666Y-149510952D01*
X104014285Y-149415714D01*
X104014285Y-149272857D01*
X103966666Y-149177619D01*
X103871428Y-149130000D01*
X103347619Y-149130000D01*
X104014285Y-148653809D02*
X103014285Y-148653809D01*
X103966666Y-148653809D02*
X104014285Y-148558571D01*
X104014285Y-148368095D01*
X103966666Y-148272857D01*
X103919047Y-148225238D01*
X103823809Y-148177619D01*
X103538095Y-148177619D01*
X103442857Y-148225238D01*
X103395238Y-148272857D01*
X103347619Y-148368095D01*
X103347619Y-148558571D01*
X103395238Y-148653809D01*
X103347619Y-147749047D02*
X104014285Y-147749047D01*
X103823809Y-147749047D02*
X103919047Y-147701428D01*
X103966666Y-147653809D01*
X104014285Y-147558571D01*
X104014285Y-147463333D01*
X103347619Y-146987142D02*
X103395238Y-147082380D01*
X103442857Y-147130000D01*
X103538095Y-147177619D01*
X103823809Y-147177619D01*
X103919047Y-147130000D01*
X103966666Y-147082380D01*
X104014285Y-146987142D01*
X104014285Y-146844285D01*
X103966666Y-146749047D01*
X103919047Y-146701428D01*
X103823809Y-146653809D01*
X103538095Y-146653809D01*
X103442857Y-146701428D01*
X103395238Y-146749047D01*
X103347619Y-146844285D01*
X103347619Y-146987142D01*
X103395238Y-146272857D02*
X103347619Y-146177619D01*
X103347619Y-145987142D01*
X103395238Y-145891904D01*
X103490476Y-145844285D01*
X103538095Y-145844285D01*
X103633333Y-145891904D01*
X103680952Y-145987142D01*
X103680952Y-146130000D01*
X103728571Y-146225238D01*
X103823809Y-146272857D01*
X103871428Y-146272857D01*
X103966666Y-146225238D01*
X104014285Y-146130000D01*
X104014285Y-145987142D01*
X103966666Y-145891904D01*
X103347619Y-145415714D02*
X104347619Y-145415714D01*
X103728571Y-145320476D02*
X103347619Y-145034761D01*
X104014285Y-145034761D02*
X103633333Y-145415714D01*
X104395238Y-143891904D02*
X103109523Y-144749047D01*
X103347619Y-143558571D02*
X104014285Y-143558571D01*
X103919047Y-143558571D02*
X103966666Y-143510952D01*
X104014285Y-143415714D01*
X104014285Y-143272857D01*
X103966666Y-143177619D01*
X103871428Y-143130000D01*
X103347619Y-143130000D01*
X103871428Y-143130000D02*
X103966666Y-143082380D01*
X104014285Y-142987142D01*
X104014285Y-142844285D01*
X103966666Y-142749047D01*
X103871428Y-142701428D01*
X103347619Y-142701428D01*
X103347619Y-142225238D02*
X104014285Y-142225238D01*
X104347619Y-142225238D02*
X104300000Y-142272857D01*
X104252380Y-142225238D01*
X104300000Y-142177619D01*
X104347619Y-142225238D01*
X104252380Y-142225238D01*
X104014285Y-141749047D02*
X103347619Y-141749047D01*
X103919047Y-141749047D02*
X103966666Y-141701428D01*
X104014285Y-141606190D01*
X104014285Y-141463333D01*
X103966666Y-141368095D01*
X103871428Y-141320476D01*
X103347619Y-141320476D01*
X103347619Y-140844285D02*
X104014285Y-140844285D01*
X104347619Y-140844285D02*
X104300000Y-140891904D01*
X104252380Y-140844285D01*
X104300000Y-140796666D01*
X104347619Y-140844285D01*
X104252380Y-140844285D01*
X103347619Y-139939523D02*
X104347619Y-139939523D01*
X103395238Y-139939523D02*
X103347619Y-140034761D01*
X103347619Y-140225238D01*
X103395238Y-140320476D01*
X103442857Y-140368095D01*
X103538095Y-140415714D01*
X103823809Y-140415714D01*
X103919047Y-140368095D01*
X103966666Y-140320476D01*
X104014285Y-140225238D01*
X104014285Y-140034761D01*
X103966666Y-139939523D01*
X103347619Y-139463333D02*
X104014285Y-139463333D01*
X103823809Y-139463333D02*
X103919047Y-139415714D01*
X103966666Y-139368095D01*
X104014285Y-139272857D01*
X104014285Y-139177619D01*
X103347619Y-138701428D02*
X103395238Y-138796666D01*
X103442857Y-138844285D01*
X103538095Y-138891904D01*
X103823809Y-138891904D01*
X103919047Y-138844285D01*
X103966666Y-138796666D01*
X104014285Y-138701428D01*
X104014285Y-138558571D01*
X103966666Y-138463333D01*
X103919047Y-138415714D01*
X103823809Y-138368095D01*
X103538095Y-138368095D01*
X103442857Y-138415714D01*
X103395238Y-138463333D01*
X103347619Y-138558571D01*
X103347619Y-138701428D01*
X104014285Y-137939523D02*
X103347619Y-137939523D01*
X103919047Y-137939523D02*
X103966666Y-137891904D01*
X104014285Y-137796666D01*
X104014285Y-137653809D01*
X103966666Y-137558571D01*
X103871428Y-137510952D01*
X103347619Y-137510952D01*
X103395238Y-136653809D02*
X103347619Y-136749047D01*
X103347619Y-136939523D01*
X103395238Y-137034761D01*
X103490476Y-137082380D01*
X103871428Y-137082380D01*
X103966666Y-137034761D01*
X104014285Y-136939523D01*
X104014285Y-136749047D01*
X103966666Y-136653809D01*
X103871428Y-136606190D01*
X103776190Y-136606190D01*
X103680952Y-137082380D01*
X112569047Y-175982380D02*
X112569047Y-176696666D01*
X112616666Y-176839523D01*
X112711904Y-176934761D01*
X112854761Y-176982380D01*
X112950000Y-176982380D01*
X111616666Y-176982380D02*
X112092857Y-176982380D01*
X112092857Y-175982380D01*
X110711904Y-176887142D02*
X110759523Y-176934761D01*
X110902380Y-176982380D01*
X110997619Y-176982380D01*
X111140476Y-176934761D01*
X111235714Y-176839523D01*
X111283333Y-176744285D01*
X111330952Y-176553809D01*
X111330952Y-176410952D01*
X111283333Y-176220476D01*
X111235714Y-176125238D01*
X111140476Y-176030000D01*
X110997619Y-175982380D01*
X110902380Y-175982380D01*
X110759523Y-176030000D01*
X110711904Y-176077619D01*
X109997619Y-175982380D02*
X109997619Y-176696666D01*
X110045238Y-176839523D01*
X110140476Y-176934761D01*
X110283333Y-176982380D01*
X110378571Y-176982380D01*
X109045238Y-176982380D02*
X109521428Y-176982380D01*
X109521428Y-175982380D01*
X108140476Y-176887142D02*
X108188095Y-176934761D01*
X108330952Y-176982380D01*
X108426190Y-176982380D01*
X108569047Y-176934761D01*
X108664285Y-176839523D01*
X108711904Y-176744285D01*
X108759523Y-176553809D01*
X108759523Y-176410952D01*
X108711904Y-176220476D01*
X108664285Y-176125238D01*
X108569047Y-176030000D01*
X108426190Y-175982380D01*
X108330952Y-175982380D01*
X108188095Y-176030000D01*
X108140476Y-176077619D01*
X107426190Y-175982380D02*
X107426190Y-176696666D01*
X107473809Y-176839523D01*
X107569047Y-176934761D01*
X107711904Y-176982380D01*
X107807142Y-176982380D01*
X106473809Y-176982380D02*
X106950000Y-176982380D01*
X106950000Y-175982380D01*
X105569047Y-176887142D02*
X105616666Y-176934761D01*
X105759523Y-176982380D01*
X105854761Y-176982380D01*
X105997619Y-176934761D01*
X106092857Y-176839523D01*
X106140476Y-176744285D01*
X106188095Y-176553809D01*
X106188095Y-176410952D01*
X106140476Y-176220476D01*
X106092857Y-176125238D01*
X105997619Y-176030000D01*
X105854761Y-175982380D01*
X105759523Y-175982380D01*
X105616666Y-176030000D01*
X105569047Y-176077619D01*
X104854761Y-175982380D02*
X104854761Y-176696666D01*
X104902380Y-176839523D01*
X104997619Y-176934761D01*
X105140476Y-176982380D01*
X105235714Y-176982380D01*
X103902380Y-176982380D02*
X104378571Y-176982380D01*
X104378571Y-175982380D01*
X102997619Y-176887142D02*
X103045238Y-176934761D01*
X103188095Y-176982380D01*
X103283333Y-176982380D01*
X103426190Y-176934761D01*
X103521428Y-176839523D01*
X103569047Y-176744285D01*
X103616666Y-176553809D01*
X103616666Y-176410952D01*
X103569047Y-176220476D01*
X103521428Y-176125238D01*
X103426190Y-176030000D01*
X103283333Y-175982380D01*
X103188095Y-175982380D01*
X103045238Y-176030000D01*
X102997619Y-176077619D01*
M02*
